# This file uses meters as units for non-parametric coordinates.

mtllib Hedge_End.mtl
g default
v 600.000000 0.000000 0.000000
v 600.000000 0.000000 -200.000000
v 600.000000 200.000000 -29.997009
v 600.000000 170.003006 0.000000
v 600.000000 170.003006 -200.000000
v 600.000000 200.000000 -170.002991
vt 0.510000 0.418007
vt 0.510000 0.010000
vt 0.990000 0.010000
vt 0.990000 0.418007
vt 0.918007 0.490000
vt 0.581993 0.490000
vn 1.000000 0.000000 0.000000
vn 1.000000 0.000000 0.000000
vn 1.000000 0.000000 0.000000
vn 1.000000 0.000000 0.000000
vn 1.000000 -0.000000 0.000000
vn 1.000000 -0.000000 0.000000
vn 1.000000 -0.000000 0.000000
vn 1.000000 -0.000000 0.000000
s off
g Hedge_End_LP
usemtl initialShadingGroup
f 4/1/1 1/2/2 2/3/3 5/4/4
f 6/5/5 3/6/6 4/1/7 5/4/8
