# This file uses centimeters as units for non-parametric coordinates.

mtllib Road_Turn.mtl
g default
v -10.000000 0.000000 9.000000
v -6.000000 0.000000 9.000000
v -10.000000 0.000000 5.000000
v -6.000000 0.000000 5.000000
v -10.000000 0.000000 7.000000
v -6.000000 -0.025435 7.000000
v -6.000000 0.000000 5.600000
v -10.000000 0.000000 5.600000
v -10.000000 0.000000 8.400000
v -6.000000 0.000000 8.400000
v -6.000000 -0.093027 8.374789
v -10.000000 -0.000000 8.374789
v -10.000000 -0.000000 5.622125
v -6.000000 -0.093027 5.622125
v -8.000000 -0.025492 9.000000
v -8.000000 -0.025492 8.400000
v -8.000000 -0.025343 8.374789
v -8.000000 -0.025435 7.000000
v -8.000000 -0.092939 5.622125
v -8.000000 0.000000 5.600000
v -8.000000 0.000000 5.000000
v -9.413939 0.000000 9.000000
v -9.413939 0.000000 8.400000
v -9.413939 -0.000000 8.374789
v -9.413939 -0.000000 7.000000
v -9.413939 0.000000 5.622125
v -9.413939 0.000000 5.600000
v -9.413939 0.000000 5.000000
v -6.587990 0.000000 9.000000
v -6.587990 0.000000 8.400000
v -6.587990 -0.093027 8.374789
v -6.587990 -0.025435 7.000000
v -6.587990 -0.093027 5.622125
v -6.587990 0.000000 5.600000
v -6.587990 0.000000 5.000000
v -9.384531 -0.093137 9.000000
v -9.384531 -0.093137 8.400000
v -9.384531 -0.093027 8.374789
v -9.384531 -0.093950 7.000000
v -9.384531 -0.093027 5.622125
v -9.384531 0.002567 5.600000
v -9.384531 0.002567 5.000000
v -6.612407 -0.093137 9.000000
v -6.612407 -0.093137 8.400000
v -6.612406 -0.093027 8.374789
v -6.612407 -0.025435 7.000000
v -6.612407 -0.093027 5.622125
v -6.612406 0.002567 5.600000
v -6.612407 0.002567 5.000000
vt 0.501785 0.479749
vt 0.568775 0.479731
vt 0.568776 0.482260
vt 0.507391 0.082465
vt 0.501700 0.162221
vt 0.568690 0.162203
vt 0.568691 0.165085
vt 0.501701 0.165103
vt 0.990597 0.003905
vt 0.507391 0.010664
vt 0.501682 0.093638
vt 0.568672 0.093620
vt 0.568733 0.322232
vt 0.501743 0.322250
vt 0.922979 0.254535
vt 0.995227 0.254528
vt 0.995264 0.421807
vt 0.932413 0.423453
vt 0.919944 0.254535
vt 0.929671 0.423458
vt 0.754427 0.254446
vt 0.754226 0.421508
vt 0.829134 0.082376
vt 0.671205 0.082811
vt 0.829141 0.071489
vt 0.671325 0.071663
vt 0.829179 0.003092
vt 0.670904 0.003256
vt 0.579836 0.093617
vt 0.923006 0.087599
vt 0.919970 0.087599
vt 0.754410 0.087552
vt 0.986628 0.083150
vt 0.986503 0.071981
vt 0.987234 0.003840
vt 0.932385 0.433928
vt 0.997658 0.434107
vt 0.997482 0.498074
vt 0.932209 0.497895
vt 0.919975 0.424766
vt 0.921724 0.497866
vt 0.754220 0.424448
vt 0.754091 0.495250
vt 0.668422 0.082704
vt 0.587969 0.494975
vt 0.668539 0.071775
vt 0.601461 0.071859
vt 0.668101 0.003291
vt 0.601283 0.003755
vt 0.919981 0.421826
vt 0.921907 0.431243
vt 0.578483 0.082465
vt 0.989860 0.072096
vt 0.588492 0.087413
vt 0.579928 0.479728
vt 0.923017 0.421826
vt 0.997686 0.423633
vt 0.588089 0.421238
vt 0.588084 0.424178
vt 0.579986 0.322229
vt 0.579843 0.165082
vt 0.579854 0.162200
vt 0.995249 0.087611
vt 0.588341 0.254133
vt 0.601429 0.082742
vt 0.921899 0.433899
vt 0.578483 0.010664
vt 0.501786 0.482278
vt 0.919838 0.495567
vn -0.000000 1.000000 0.000000
vn 0.149064 0.988828 0.000016
vn -0.001781 0.999993 0.003172
vn -0.000000 1.000000 0.000000
vn 0.000000 1.000000 -0.000000
vn 0.149620 0.988744 0.000004
vn 0.150163 0.988661 -0.000014
vn 0.000000 1.000000 -0.000000
vn -0.004171 0.999991 0.000000
vn 0.000000 1.000000 0.000000
vn 0.000000 1.000000 0.000000
vn 0.149624 0.988743 0.000000
vn 0.150175 0.988660 0.000000
vn -0.000000 1.000000 0.000000
vn 0.000000 1.000000 0.000207
vn -0.000000 1.000000 0.000000
vn -0.018051 0.999837 0.000000
vn -0.016723 0.999860 0.000205
vn -0.012134 0.999855 0.011977
vn 0.023887 0.999424 0.024120
vn -0.012351 0.999848 -0.012272
vn 0.011984 0.999856 -0.012064
vn -0.012156 0.999436 0.031291
vn 0.000031 0.999818 0.019079
vn 0.000000 0.988690 0.149975
vn -0.000001 0.988762 0.149496
vn 0.000000 1.000000 0.000000
vn -0.000000 1.000000 0.000000
vn 0.018026 0.999838 0.000000
vn 0.018017 0.999838 0.000205
vn 0.017982 0.999838 -0.000270
vn 0.029881 0.999481 -0.012017
vn 0.041248 0.998235 0.042723
vn 0.000001 0.988969 0.148125
vn 0.000000 1.000000 0.000000
vn -0.143657 0.979590 -0.140593
vn -0.150355 0.988632 0.000000
vn 0.000000 1.000000 0.000000
vn 0.000000 0.989111 -0.147172
vn 0.000000 0.999858 -0.016847
vn 0.000000 0.999835 -0.018165
vn -0.000000 1.000000 -0.000000
vn -0.000000 1.000000 0.000000
vn 0.000033 0.999834 0.018201
vn 0.000000 0.999835 0.018165
vn 0.004076 0.988929 0.148331
vn 0.000000 0.989004 0.147886
vn 0.004192 0.999991 -0.000000
vn 0.000000 1.000000 0.000000
s 1
g Road_Turn
usemtl initialShadingGroup
f 13/1/1 26/2/2 27/3/3 8/68/4
f 9/5/5 23/6/6 24/7/7 12/8/8
f 8/4/4 27/52/3 28/67/9 3/10/10
f 1/11/11 22/12/12 23/6/6 9/5/5
f 12/8/8 24/7/7 25/13/13 5/14/14
f 5/14/14 25/13/13 26/2/2 13/1/1
f 16/15/15 15/16/16 43/17/17 44/56/18
f 17/19/19 16/15/15 44/56/18 45/50/20
f 18/21/21 17/19/19 45/50/20 46/22/22
f 19/64/23 18/21/21 46/22/22 47/58/24
f 20/25/25 19/23/23 47/24/24 48/26/26
f 21/27/27 20/25/25 48/26/26 49/28/28
f 23/6/6 22/12/12 36/29/29 37/62/30
f 24/7/7 23/6/6 37/62/30 38/61/31
f 25/13/13 24/7/7 38/61/31 39/60/32
f 26/2/2 25/13/13 39/60/32 40/55/33
f 27/53/3 40/33/33 41/34/34
f 28/9/9 27/53/3 41/34/34 42/35/35
f 30/36/36 29/37/37 2/38/38 10/39/39
f 31/66/40 30/36/36 10/39/39 11/41/41
f 32/42/42 31/40/40 11/69/41 6/43/43
f 33/59/44 32/42/42 6/43/43 14/45/45
f 34/46/46 33/44/44 14/65/45 7/47/47
f 35/48/48 34/46/46 7/47/47 4/49/49
f 37/30/30 36/63/29 15/16/16 16/15/15
f 38/31/31 37/30/30 16/15/15 17/19/19
f 39/32/32 38/31/31 17/19/19 18/21/21
f 40/54/33 39/32/32 18/21/21 19/64/23
f 41/34/34 40/33/33 19/23/23 20/25/25
f 42/35/35 41/34/34 20/25/25 21/27/27
f 44/18/18 43/57/17 29/37/37 30/36/36
f 45/51/20 30/36/36 31/66/40
f 46/22/22 45/50/20 31/40/40 32/42/42
f 47/58/24 46/22/22 32/42/42 33/59/44
f 48/26/26 47/24/24 33/44/44 34/46/46
f 49/28/28 48/26/26 34/46/46 35/48/48
f 27/3/3 26/2/2 40/55/33
f 45/20/20 44/18/18 30/36/36
