# This file uses centimeters as units for non-parametric coordinates.

mtllib Road_Straight.mtl
g default
v -10.000000 0.000000 4.000000
v -6.000000 0.000000 4.000000
v -10.000000 0.000000 0.000000
v -6.000000 0.000000 0.000000
v -10.000000 -0.025435 2.000000
v -6.000000 -0.025435 2.000000
v -6.000000 0.000000 0.600000
v -10.000000 0.000000 0.600000
v -10.000000 0.000000 3.400000
v -6.000000 0.000000 3.400000
v -6.000000 -0.093027 3.374789
v -10.000000 -0.093027 3.374789
v -10.000000 -0.093027 0.622125
v -6.000000 -0.093027 0.622125
vt 0.014238 0.500876
vt 0.494501 0.502352
vt 0.012706 0.998907
vt 0.492970 1.000384
vt 0.013473 0.749752
vt 0.493736 0.751229
vt 0.493191 0.928344
vt 0.012928 0.926868
vt 0.014016 0.572915
vt 0.494280 0.574392
vt 0.494244 0.585964
vt 0.013981 0.584487
vt 0.012963 0.915387
vt 0.493227 0.916863
vn 0.000000 0.999835 0.018165
vn 0.000000 0.999835 0.018165
vn 0.000000 0.989004 0.147886
vn 0.000000 0.989004 0.147886
vn 0.000000 0.989111 -0.147172
vn 0.000000 0.989111 -0.147172
vn 0.000000 0.999835 -0.018165
vn 0.000000 0.999835 -0.018165
vn 0.000000 1.000000 0.000000
vn 0.000000 1.000000 0.000000
vn 0.000000 1.000000 0.000000
vn 0.000000 1.000000 0.000000
vn 0.000000 1.000000 0.000000
vn 0.000000 1.000000 0.000000
s 1
g Road_Straight
usemtl initialShadingGroup
f 13/13/1 14/14/2 7/7/3 8/8/4
f 9/9/5 10/10/6 11/11/7 12/12/8
f 8/8/4 7/7/3 4/4/9 3/3/10
f 1/1/11 2/2/12 10/10/6 9/9/5
f 12/12/8 11/11/7 6/6/13 5/5/14
f 5/5/14 6/6/13 14/14/2 13/13/1
