# This file uses meters as units for non-parametric coordinates.

mtllib Roof_Small.mtl
g default
v 600.000000 300.000000 -600.000000
v 700.000000 300.000000 -600.000000
v 600.000000 400.000000 -1000.000000
v 700.000000 400.000000 -1000.000000
vt 0.000002 0.000165
vt 0.061496 0.000165
vt 0.061496 0.250450
vt 0.000002 0.250450
vn 0.000000 0.970143 0.242536
vn 0.000000 0.970143 0.242536
vn 0.000000 0.970143 0.242536
vn 0.000000 0.970143 0.242536
s off
g Roof_Short_LP
usemtl initialShadingGroup
f 1/1/1 2/2/2 4/3/3 3/4/4
