# This file uses meters as units for non-parametric coordinates.

mtllib Roof_Drain_Medium.mtl
g default
v -200.000000 271.631607 -556.970139
v 0.000000 271.631607 -556.970139
v -200.000000 300.000000 -550.000000
v 0.000000 300.000000 -550.000000
v -200.000000 300.000000 -600.000000
v 0.000000 300.000000 -600.000000
v -200.000000 271.631607 -593.029839
v 0.000000 271.631607 -593.029839
vt 0.622724 0.148898
vt 0.622724 0.015014
vt 0.658070 0.148898
vt 0.658070 0.015014
vt 0.540252 0.148898
vt 0.540252 0.015014
vt 0.575597 0.148898
vt 0.575597 0.015014
vn 0.000000 -0.238604 0.971117
vn 0.000000 -0.238604 0.971117
vn 0.000000 -0.238604 0.971117
vn 0.000000 -0.238604 0.971117
vn 0.000000 -0.238605 -0.971117
vn 0.000000 -0.238605 -0.971117
vn 0.000000 -0.238605 -0.971117
vn 0.000000 -0.238605 -0.971117
vn 0.000000 -1.000000 0.000000
vn 0.000000 -1.000000 0.000000
vn 0.000000 -1.000000 0.000000
vn 0.000000 -1.000000 0.000000
s off
g Roof_Drain_Medium_LP
usemtl initialShadingGroup
f 1/1/1 2/2/2 4/4/3 3/3/4
f 5/5/5 6/6/6 8/8/7 7/7/8
f 7/7/9 8/8/10 2/2/11 1/1/12
