# This file uses meters as units for non-parametric coordinates.

mtllib Window_Medium.mtl
g default
v 800.000000 0.000000 -599.999992
v 800.000000 300.000000 -599.999992
v 800.000000 264.592194 -599.999992
v 800.000000 84.592186 -599.999992
v 790.000000 0.000000 -599.999992
v 790.000000 84.592186 -599.999992
v 790.000000 264.592194 -599.999992
v 790.000000 300.000000 -599.999992
v 782.000000 0.000000 -599.999992
v 782.000000 84.592186 -599.999992
v 782.000000 264.592194 -599.999992
v 782.000000 300.000000 -599.999992
v 782.000000 255.592209 -599.999992
v 790.000000 255.592209 -599.999992
v 800.000000 255.592209 -599.999992
v 782.000000 93.592186 -599.999992
v 790.000000 93.592186 -599.999992
v 800.000000 93.592186 -599.999992
v 782.000000 223.192184 -599.999992
v 790.000000 223.192184 -599.999992
v 800.000000 223.192184 -599.999992
v 782.000000 213.472198 -599.999992
v 790.000000 213.472198 -599.999992
v 800.000000 213.472198 -599.999992
v 782.000000 134.092194 -599.999992
v 790.000000 134.092194 -599.999992
v 800.000000 134.092194 -599.999992
v 782.000000 125.992188 -599.999992
v 790.000000 125.992188 -599.999992
v 800.000000 125.992188 -599.999992
v 782.000000 264.592194 -592.864082
v 782.000000 255.592209 -592.864082
v 790.000000 255.592209 -592.864082
v 790.000000 264.592194 -592.864082
v 782.000000 223.192184 -592.864082
v 790.000000 223.192184 -592.864082
v 782.000000 84.592186 -592.864082
v 782.000000 93.592186 -592.864082
v 790.000000 93.592186 -592.864082
v 790.000000 84.592186 -592.864082
v 782.000000 213.472198 -592.864082
v 790.000000 213.472198 -592.864082
v 782.000000 134.092194 -592.864082
v 790.000000 134.092194 -592.864082
v 782.000000 125.992188 -592.864084
v 790.000000 125.992188 -592.864082
v 600.000000 0.000000 -600.000000
v 600.000000 300.000000 -600.000000
v 600.000000 264.592194 -600.000000
v 600.000000 84.592186 -600.000000
v 610.000000 0.000000 -599.999992
v 610.000000 84.592186 -599.999992
v 610.000000 264.592194 -599.999992
v 610.000000 300.000000 -599.999992
v 618.000000 0.000000 -599.999992
v 618.000000 84.592186 -599.999992
v 618.000000 264.592194 -599.999992
v 618.000000 300.000000 -599.999992
v 691.741974 0.000000 -599.999992
v 691.741974 84.592186 -599.999992
v 691.741974 264.592194 -599.999992
v 691.741974 300.000000 -599.999992
v 600.000000 255.592209 -599.999992
v 610.000000 255.592209 -599.999992
v 618.000000 255.592209 -599.999992
v 691.741974 255.592209 -599.999992
v 600.000000 93.592186 -599.999992
v 610.000000 93.592186 -599.999992
v 618.000000 93.592186 -599.999992
v 691.741974 93.592186 -599.999992
v 600.000000 223.192184 -599.999992
v 610.000000 223.192184 -599.999992
v 618.000000 223.192184 -599.999992
v 691.741974 223.192184 -599.999992
v 600.000000 213.472198 -599.999992
v 610.000000 213.472198 -599.999992
v 618.000000 213.472198 -599.999992
v 691.741974 213.472198 -599.999992
v 600.000000 134.092194 -599.999992
v 610.000000 134.092194 -599.999992
v 618.000000 134.092194 -599.999992
v 691.741974 134.092194 -599.999992
v 600.000000 125.992188 -599.999992
v 610.000000 125.992188 -599.999992
v 618.000000 125.992188 -599.999992
v 691.741974 125.992188 -599.999992
v 610.000000 255.592209 -592.864082
v 610.000000 264.592194 -592.864082
v 618.000000 255.592209 -592.864082
v 618.000000 264.592194 -592.864082
v 691.741974 264.592194 -592.864082
v 691.741974 255.592209 -592.864082
v 610.000000 223.192184 -592.864082
v 618.000000 223.192184 -592.864082
v 691.741974 223.192184 -592.864082
v 610.000000 93.592186 -592.864082
v 618.000000 93.592186 -592.864082
v 610.000000 84.592186 -592.864082
v 618.000000 84.592186 -592.864082
v 691.741974 84.592186 -592.864082
v 691.741974 93.592186 -592.864082
v 610.000000 213.472198 -592.864082
v 618.000000 213.472198 -592.864082
v 691.741974 213.472198 -592.864082
v 610.000000 134.092194 -592.864082
v 618.000000 134.092194 -592.864082
v 691.741974 134.092194 -592.864082
v 610.000000 125.992188 -592.864082
v 618.000000 125.992188 -592.864082
v 691.741974 125.992188 -592.864082
v 708.258026 0.000000 -600.000000
v 708.258026 84.592186 -600.000000
v 708.258026 264.592194 -600.000000
v 708.258026 300.000000 -600.000000
v 708.258026 255.592209 -599.999992
v 708.258026 93.592186 -599.999992
v 708.258026 223.192184 -599.999992
v 708.258026 213.472198 -599.999992
v 708.258026 134.092194 -599.999992
v 708.258026 125.992188 -599.999992
v 708.258026 255.592209 -592.864082
v 708.258026 264.592194 -592.864082
v 708.258026 223.192184 -592.864082
v 708.258026 93.592186 -592.864082
v 708.258026 84.592186 -592.864082
v 708.258026 213.472198 -592.864082
v 708.258026 134.092194 -592.864084
v 708.258026 125.992188 -592.864082
vt 0.727521 0.940275
vt 0.725287 0.929285
vt 0.512461 0.535756
vt 0.975986 0.588840
vt 0.987869 0.588818
vt 0.988048 0.689340
vt 0.973547 0.940382
vt 0.808618 0.535086
vt 0.808579 0.517767
vt 0.824166 0.517732
vt 0.973528 0.982263
vt 0.985356 0.982268
vt 0.966659 0.689378
vt 0.966479 0.588857
vt 0.972441 0.928414
vt 0.962783 0.910440
vt 0.964066 0.982259
vt 0.964084 0.940378
vt 0.982288 0.917257
vt 0.973550 0.931941
vt 0.956907 0.884310
vt 0.957022 0.910466
vt 0.982147 0.877218
vt 0.752504 0.535213
vt 0.752465 0.517894
vt 0.966674 0.697857
vt 0.971697 0.717098
vt 0.528076 0.548079
vt 0.512489 0.548115
vt 0.528009 0.518402
vt 0.528048 0.535721
vt 0.970438 0.854583
vt 0.982105 0.865207
vt 0.735670 0.535251
vt 0.735631 0.517932
vt 0.963425 0.776572
vt 0.963425 0.854583
vt 0.981760 0.767111
vt 0.598151 0.518243
vt 0.598191 0.535562
vt 0.964380 0.750262
vt 0.981724 0.757102
vt 0.584162 0.535594
vt 0.584123 0.518275
vt 0.958326 0.723660
vt 0.958512 0.750303
vt 0.512248 0.940181
vt 0.825748 0.566203
vt 0.524058 0.982067
vt 0.512230 0.982062
vt 0.810124 0.583537
vt 0.810136 0.566191
vt 0.512547 0.589667
vt 0.524430 0.589646
vt 0.524610 0.690167
vt 0.513506 0.583322
vt 0.533937 0.589629
vt 0.534116 0.690150
vt 0.512735 0.930033
vt 0.810145 0.553813
vt 0.522582 0.918876
vt 0.522621 0.929998
vt 0.533539 0.940190
vt 0.533521 0.982071
vt 0.621744 0.689994
vt 0.621565 0.589472
vt 0.613749 0.929677
vt 0.613710 0.918555
vt 0.620744 0.982109
vt 0.620762 0.940228
vt 0.641191 0.589437
vt 0.641370 0.689959
vt 0.634120 0.918484
vt 0.634159 0.929606
vt 0.640279 0.982118
vt 0.640298 0.940237
vt 0.753922 0.583497
vt 0.753935 0.566151
vt 0.753944 0.553773
vt 0.522441 0.878837
vt 0.538779 0.910976
vt 0.538724 0.885413
vt 0.596906 0.885286
vt 0.596962 0.910850
vt 0.613569 0.878517
vt 0.633979 0.878445
vt 0.529130 0.565988
vt 0.529117 0.583334
vt 0.530167 0.725046
vt 0.511991 0.718717
vt 0.524625 0.698647
vt 0.534131 0.698630
vt 0.621759 0.698473
vt 0.613005 0.718361
vt 0.641385 0.698438
vt 0.644464 0.724927
vt 0.737062 0.583484
vt 0.737075 0.566138
vt 0.737084 0.553760
vt 0.522399 0.866826
vt 0.613527 0.866505
vt 0.633937 0.866433
vt 0.599369 0.583385
vt 0.599382 0.566038
vt 0.599391 0.553661
vt 0.522053 0.768730
vt 0.532424 0.855263
vt 0.532434 0.777482
vt 0.604690 0.777491
vt 0.604681 0.855271
vt 0.613181 0.768409
vt 0.633591 0.768338
vt 0.585319 0.583374
vt 0.585331 0.566028
vt 0.585340 0.553650
vt 0.522018 0.758721
vt 0.613146 0.758400
vt 0.633556 0.758328
vt 0.536069 0.751843
vt 0.536069 0.725046
vt 0.597060 0.725045
vt 0.597060 0.751843
vt 0.728998 0.689802
vt 0.728819 0.589281
vt 0.727502 0.982156
vt 0.648715 0.911522
vt 0.648666 0.885012
vt 0.709003 0.884899
vt 0.709053 0.911410
vt 0.708992 0.879061
vt 0.729013 0.698282
vt 0.724543 0.717968
vt 0.643438 0.855236
vt 0.643790 0.777819
vt 0.715708 0.778146
vt 0.715356 0.855563
vt 0.715739 0.771187
vt 0.650280 0.751432
vt 0.650301 0.724932
vt 0.710615 0.724979
vt 0.710594 0.751480
vt 0.710619 0.719143
vt 0.724684 0.758007
vt 0.633415 0.718289
vt 0.650275 0.757269
vt 0.636830 0.777788
vt 0.724719 0.768017
vt 0.725065 0.866112
vt 0.643406 0.862195
vt 0.642827 0.885023
vt 0.725107 0.878124
vt 0.724504 0.706846
vt 0.633376 0.707167
vt 0.612966 0.707239
vt 0.725248 0.918163
vt 0.648726 0.917361
vt 0.727524 0.931834
vt 0.640301 0.931796
vt 0.620766 0.931788
vt 0.597060 0.719143
vt 0.602962 0.751842
vt 0.521877 0.718682
vt 0.536069 0.757745
vt 0.529139 0.553609
vt 0.512132 0.758755
vt 0.525441 0.777481
vt 0.604691 0.770498
vt 0.512167 0.768765
vt 0.611673 0.855272
vt 0.532423 0.862255
vt 0.512513 0.866861
vt 0.533094 0.885425
vt 0.596894 0.879656
vt 0.512555 0.878872
vt 0.521838 0.707560
vt 0.511952 0.707595
vt 0.602592 0.910838
vt 0.538792 0.916607
vt 0.512696 0.918911
vt 0.533543 0.931750
vt 0.825757 0.553825
vt 0.981583 0.717063
vt 0.584190 0.547953
vt 0.971838 0.757136
vt 0.598219 0.547921
vt 0.971873 0.767146
vt 0.735698 0.547610
vt 0.972219 0.865242
vt 0.752532 0.547572
vt 0.972261 0.877253
vt 0.981544 0.705941
vt 0.971658 0.705976
vt 0.808646 0.547445
vt 0.972402 0.917292
vt 0.964088 0.931937
vt 0.982328 0.928379
vt 0.964194 0.723619
vt 0.970438 0.776572
vt 0.962668 0.884285
vt 0.710589 0.757316
vt 0.644443 0.751427
vt 0.643821 0.770860
vt 0.715324 0.862522
vt 0.636478 0.855204
vt 0.650305 0.719096
vt 0.648655 0.879173
vt 0.709063 0.917249
vt 0.642876 0.911533
vt 0.597060 0.757744
vt 0.530167 0.751843
vt 0.611682 0.777491
vt 0.532434 0.770490
vt 0.604680 0.862264
vt 0.525432 0.855262
vt 0.602962 0.725045
vt 0.536069 0.719144
vt 0.602537 0.885274
vt 0.538712 0.879783
vt 0.596974 0.916480
vt 0.533149 0.910989
vt 0.513519 0.565976
vt 0.513528 0.553598
vt 0.524076 0.940186
vt 0.524080 0.931746
vt 0.512727 0.690188
vt 0.825735 0.583549
vt 0.976165 0.689361
vt 0.976181 0.697841
vt 0.824205 0.535051
vt 0.824233 0.547410
vt 0.985375 0.940387
vt 0.512421 0.518437
vn 0.000000 0.000000 1.000000
vn 0.000000 0.000000 1.000000
vn 0.000000 0.000000 1.000000
vn 0.000000 0.000000 1.000000
vn 0.000000 0.000000 1.000000
vn 0.000000 0.000000 1.000000
vn 0.000000 0.000000 1.000000
vn 0.000000 0.000000 1.000000
vn 0.000000 0.000000 1.000000
vn 0.000000 0.000000 1.000000
vn -0.000000 0.000000 1.000000
vn -0.000000 0.000000 1.000000
vn 0.000000 0.000000 1.000000
vn 0.000000 0.000000 1.000000
vn 0.000000 0.000000 1.000000
vn 0.000000 0.000000 1.000000
vn -0.000000 0.000000 1.000000
vn -0.000000 0.000000 1.000000
vn 0.000000 0.000000 1.000000
vn 0.000000 0.000000 1.000000
vn 0.000000 0.000000 1.000000
vn 0.000000 0.000000 1.000000
vn -0.000000 0.000000 1.000000
vn -0.000000 0.000000 1.000000
vn 0.000000 0.000000 1.000000
vn 0.000000 0.000000 1.000000
vn 0.000000 0.000000 1.000000
vn 0.000000 0.000000 1.000000
vn 0.000000 0.000000 1.000000
vn 0.000000 0.000000 1.000000
vn 0.000000 0.000000 1.000000
vn 0.000000 0.000000 1.000000
vn -0.000000 -0.000000 1.000000
vn -0.000000 -0.000000 1.000000
vn 0.000000 0.000000 1.000000
vn 0.000000 0.000000 1.000000
vn -0.000000 0.000000 1.000000
vn -0.000000 0.000000 1.000000
vn 0.000000 0.000000 1.000000
vn 0.000000 0.000000 1.000000
vn 1.000000 0.000000 0.000000
vn 1.000000 0.000000 0.000000
vn 1.000000 0.000000 0.000000
vn 1.000000 0.000000 0.000000
vn 0.000000 1.000000 0.000000
vn 0.000000 1.000000 0.000000
vn 0.000000 1.000000 0.000000
vn 0.000000 1.000000 0.000000
vn -1.000000 0.000000 0.000000
vn -1.000000 0.000000 0.000000
vn -1.000000 0.000000 0.000000
vn -1.000000 0.000000 0.000000
vn 1.000000 0.000000 0.000000
vn 1.000000 0.000000 0.000000
vn 0.000000 -1.000000 0.000000
vn 0.000000 -1.000000 0.000000
vn 0.000000 -1.000000 0.000000
vn 0.000000 -1.000000 0.000000
vn 1.000000 0.000000 0.000000
vn 1.000000 0.000000 0.000000
vn 1.000000 0.000000 0.000000
vn 1.000000 0.000000 0.000000
vn 1.000000 0.000000 0.000000
vn 1.000000 0.000000 0.000000
vn -1.000000 0.000000 0.000000
vn -1.000000 0.000000 0.000000
vn -1.000000 0.000000 0.000000
vn -1.000000 0.000000 0.000000
vn 1.000000 0.000000 0.000000
vn 1.000000 0.000000 0.000000
vn 1.000000 0.000000 0.000000
vn 1.000000 0.000000 0.000000
vn -1.000000 0.000000 0.000000
vn -1.000000 0.000000 0.000000
vn -1.000000 0.000000 0.000000
vn -1.000000 0.000000 0.000000
vn -0.000001 0.000000 1.000000
vn -0.000000 0.000000 1.000000
vn -0.000000 0.000000 1.000000
vn -0.000001 0.000000 1.000000
vn -0.000000 0.000000 1.000000
vn -0.000000 0.000000 1.000000
vn -0.000001 0.000000 1.000000
vn -0.000000 0.000000 1.000000
vn -0.000000 -0.000000 1.000000
vn -0.000001 -0.000000 1.000000
vn 0.000000 0.000000 1.000000
vn 0.000000 0.000000 1.000000
vn 0.000000 0.000000 1.000000
vn 0.000000 0.000000 1.000000
vn 0.000000 0.000000 1.000000
vn 0.000000 0.000000 1.000000
vn 0.000000 0.000000 1.000000
vn 0.000000 0.000000 1.000000
vn 0.000000 0.000000 1.000000
vn 0.000000 0.000000 1.000000
vn 0.000000 0.000000 1.000000
vn 0.000000 0.000000 1.000000
vn 0.000000 0.000000 1.000000
vn 0.000000 0.000000 1.000000
vn 0.000000 0.000000 1.000000
vn 0.000000 0.000000 1.000000
vn 0.000000 0.000000 1.000000
vn 0.000000 0.000000 1.000000
vn 0.000000 0.000000 1.000000
vn 0.000000 0.000000 1.000000
vn 0.000000 0.000000 1.000000
vn 0.000000 0.000000 1.000000
vn 0.000000 0.000000 1.000000
vn 0.000000 0.000000 1.000000
vn 0.000000 0.000000 1.000000
vn 0.000000 0.000000 1.000000
vn 0.000000 0.000000 1.000000
vn 0.000000 0.000000 1.000000
vn 0.000000 0.000000 1.000000
vn 0.000000 0.000000 1.000000
vn -0.000000 -0.000000 1.000000
vn -0.000000 -0.000000 1.000000
vn 0.000000 0.000000 1.000000
vn 0.000000 0.000000 1.000000
vn 0.000000 0.000000 1.000000
vn 0.000000 0.000000 1.000000
vn 0.000000 0.000000 1.000000
vn 0.000000 0.000000 1.000000
vn 0.000000 0.000000 1.000000
vn 0.000000 0.000000 1.000000
vn 0.000000 0.000000 1.000000
vn 0.000000 0.000000 1.000000
vn 0.000000 0.000000 1.000000
vn 0.000000 0.000000 1.000000
vn 0.000000 -0.000000 1.000000
vn 0.000000 -0.000000 1.000000
vn 0.000000 0.000000 1.000000
vn 0.000000 0.000000 1.000000
vn 0.000000 0.000000 1.000000
vn 0.000000 0.000000 1.000000
vn 0.000000 0.000000 1.000000
vn 0.000000 0.000000 1.000000
vn 0.000000 0.000000 1.000000
vn 0.000000 0.000000 1.000000
vn 0.000000 0.000000 1.000000
vn 0.000000 0.000000 1.000000
vn 0.000000 0.000000 1.000000
vn 0.000000 0.000000 1.000000
vn 0.000000 0.000000 1.000000
vn 0.000000 0.000000 1.000000
vn 0.000000 0.000000 1.000000
vn 0.000000 0.000000 1.000000
vn 0.000000 0.000000 1.000000
vn 0.000000 0.000000 1.000000
vn 0.000000 0.000000 1.000000
vn 0.000000 0.000000 1.000000
vn -1.000000 0.000000 0.000000
vn -1.000000 0.000000 0.000000
vn -1.000000 0.000000 0.000000
vn -1.000000 0.000000 0.000000
vn 0.000000 1.000000 0.000000
vn 0.000000 1.000000 0.000000
vn 0.000000 1.000000 0.000000
vn 0.000000 1.000000 0.000000
vn 0.000000 1.000000 0.000000
vn 0.000000 1.000000 0.000000
vn 0.000000 -1.000000 0.000000
vn 0.000000 -1.000000 0.000000
vn 0.000000 -1.000000 0.000000
vn 0.000000 -1.000000 0.000000
vn -1.000000 0.000000 0.000000
vn -1.000000 0.000000 0.000000
vn 1.000000 0.000000 0.000000
vn 1.000000 0.000000 0.000000
vn 1.000000 0.000000 0.000000
vn 1.000000 0.000000 0.000000
vn -1.000000 0.000000 0.000000
vn -1.000000 0.000000 0.000000
vn -1.000000 0.000000 0.000000
vn -1.000000 0.000000 0.000000
vn -1.000000 0.000000 0.000000
vn -1.000000 0.000000 0.000000
vn -1.000000 0.000000 0.000000
vn -1.000000 0.000000 0.000000
vn 0.000000 -1.000000 0.000000
vn 0.000000 -1.000000 0.000000
vn 0.000000 -1.000000 0.000000
vn 0.000000 -1.000000 0.000000
vn 0.000000 -1.000000 0.000000
vn 0.000000 -1.000000 0.000000
vn 0.000000 1.000000 0.000000
vn 0.000000 1.000000 0.000000
vn 0.000000 1.000000 0.000000
vn 0.000000 1.000000 0.000000
vn 0.000000 -1.000000 0.000000
vn 0.000000 -1.000000 0.000000
vn -1.000000 0.000000 0.000000
vn -1.000000 0.000000 0.000000
vn 0.000000 -1.000000 0.000000
vn 0.000000 -1.000000 0.000000
vn 0.000000 -1.000000 0.000000
vn 0.000000 -1.000000 0.000000
vn 0.000000 1.000000 0.000000
vn 0.000000 1.000000 0.000000
vn 0.000000 1.000000 0.000000
vn 0.000000 1.000000 0.000000
vn -1.000000 0.000000 0.000000
vn -1.000000 0.000000 0.000000
vn 1.000000 0.000000 0.000000
vn 1.000000 0.000000 0.000000
vn 1.000000 0.000000 0.000000
vn 1.000000 0.000000 0.000000
vn -1.000000 0.000000 0.000000
vn -1.000000 0.000000 0.000000
vn -1.000000 0.000000 0.000000
vn -1.000000 0.000000 0.000000
vn -1.000000 0.000000 0.000000
vn -1.000000 0.000000 0.000000
vn 0.000000 -1.000000 0.000000
vn 0.000000 -1.000000 0.000000
vn 0.000000 -1.000000 0.000000
vn 0.000000 -1.000000 0.000000
vn 0.000000 1.000000 0.000000
vn 0.000000 1.000000 0.000000
vn 0.000000 1.000000 0.000000
vn 0.000000 1.000000 0.000000
vn 1.000000 0.000000 0.000000
vn 1.000000 0.000000 0.000000
vn 1.000000 0.000000 0.000000
vn 1.000000 0.000000 0.000000
vn -1.000000 0.000000 0.000000
vn -1.000000 0.000000 0.000000
vn -1.000000 0.000000 0.000000
vn -1.000000 0.000000 0.000000
vn 0.000000 0.000000 1.000000
vn 0.000000 0.000000 1.000000
vn 0.000000 0.000000 1.000000
vn 0.000000 0.000000 1.000000
vn 0.000000 0.000000 1.000000
vn 0.000000 0.000000 1.000000
vn 0.000000 0.000000 1.000000
vn 0.000000 0.000000 1.000000
vn 0.000000 0.000000 1.000000
vn 0.000000 0.000000 1.000000
vn 0.000000 0.000000 1.000000
vn 0.000000 0.000000 1.000000
vn 0.000000 1.000000 0.000000
vn 0.000000 1.000000 0.000000
vn 0.000000 -1.000000 0.000000
vn 0.000000 -1.000000 0.000000
vn 0.000000 -1.000000 0.000000
vn 0.000000 -1.000000 0.000000
vn 1.000000 0.000000 0.000000
vn 1.000000 0.000000 0.000000
vn 1.000000 0.000000 0.000000
vn 1.000000 0.000000 0.000000
vn 0.000000 1.000000 0.000000
vn 0.000000 1.000000 0.000000
vn 0.000000 1.000000 0.000000
vn 0.000000 1.000000 0.000000
vn 0.000000 -1.000000 0.000000
vn 0.000000 -1.000000 0.000000
vn 0.000000 -1.000000 0.000000
vn 0.000000 -1.000000 0.000000
vn 0.000000 1.000000 0.000000
vn 0.000000 1.000000 0.000000
vn 0.000000 1.000000 0.000000
vn 0.000000 1.000000 0.000000
vn 1.000000 0.000000 0.000000
vn 1.000000 0.000000 0.000000
vn 1.000000 0.000000 0.000000
vn 1.000000 0.000000 0.000000
vn 0.000000 -1.000000 0.000000
vn 0.000000 -1.000000 0.000000
vn 0.000000 -1.000000 0.000000
vn 0.000000 -1.000000 0.000000
vn 0.000000 1.000000 0.000000
vn 0.000000 1.000000 0.000000
vn 0.000000 1.000000 0.000000
vn 0.000000 1.000000 0.000000
vn 1.000000 0.000000 0.000000
vn 1.000000 0.000000 0.000000
vn 1.000000 0.000000 0.000000
vn 1.000000 0.000000 0.000000
s 1
g Window_Medium_LP
usemtl initialShadingGroup
f 6/227/1 5/4/2 1/5/3 4/6/4
f 7/229/5 14/8/6 15/9/7 3/10/8
f 8/11/9 7/7/5 3/231/8 2/12/10
f 10/13/11 9/14/12 5/4/2 6/227/1
s 3
f 31/15/13 32/194/14 33/19/15 34/196/16
s 1
f 12/17/17 11/18/18 7/7/5 8/11/9
s 3
f 33/19/15 32/194/14 35/190/19 36/23/20
s 1
f 15/9/7 14/8/6 20/24/21 21/25/22
s 3
f 39/182/23 38/27/24 37/192/25 40/191/26
s 1
f 18/30/27 17/31/28 6/3/1 4/232/4
s 3
f 36/23/20 35/190/19 41/188/29 42/33/30
s 1
f 21/25/22 20/24/21 23/34/31 24/35/32
s 3
f 42/33/30 41/188/29 43/186/33 44/38/34
s 1
f 27/39/35 24/35/32 23/34/31 26/40/36
s 3
f 44/38/34 43/186/33 45/184/37 46/42/38
s 1
f 27/39/35 26/40/36 29/43/39 30/44/40
s 3
f 46/42/38 45/184/37 38/27/24 39/182/23
s 1
f 30/44/40 29/43/39 17/31/28 18/30/27
s 5
f 14/8/41 7/229/42 34/230/43 33/193/44
s 6
f 7/7/45 11/18/46 31/195/47 34/20/48
s off
f 13/22/49 19/21/50 35/199/51 32/16/52
s 5
f 20/24/53 14/8/41 33/193/44 36/189/54
s 7
f 10/13/55 6/227/56 40/228/57 37/26/58
s 5
f 6/3/59 17/31/60 39/28/61 40/29/62
f 23/34/63 20/24/53 36/189/54 42/187/64
s off
f 22/37/65 25/36/66 43/198/67 41/32/68
s 5
f 26/40/69 23/34/63 42/187/64 44/185/70
f 29/43/71 26/40/69 44/185/70 46/183/72
s off
f 28/46/73 16/45/74 38/197/75 45/41/76
s 5
f 17/31/60 29/43/71 46/183/72 39/28/61
s 1
f 49/47/77 53/223/78 54/49/79 48/50/80
f 63/51/81 64/52/82 53/48/78 49/226/77
f 47/53/83 51/54/84 52/55/85 50/225/86
f 52/55/85 51/54/84 55/57/87 56/58/88
s 3
f 88/59/89 87/179/90 89/61/91 90/62/92
s 1
f 54/49/79 53/223/78 57/63/93 58/64/94
f 60/65/95 56/58/88 55/57/87 59/66/96
s 3
f 91/67/97 90/62/92 89/61/91 92/68/98
s 1
f 62/69/99 58/64/94 57/63/93 61/70/100
f 60/65/95 59/66/96 111/71/101 112/72/102
s 3
f 91/67/97 92/68/98 121/73/103 122/74/104
s 1
f 114/75/105 62/69/99 61/70/100 113/76/106
f 71/77/107 72/78/108 64/52/82 63/51/81
s 3
f 89/61/91 87/179/90 93/174/109 94/80/110
s off
f 65/81/111 73/82/112 74/83/113 66/84/114
s 3
f 92/68/98 95/85/115 123/86/116 121/73/103
s 1
f 50/56/86 52/221/85 68/87/117 67/88/118
s 3
f 97/162/119 96/90/120 98/176/121 99/175/122
f 97/162/119 99/175/122 100/154/123 101/94/124
f 101/94/124 100/154/123 125/153/125 124/144/126
s 1
f 75/97/127 76/98/128 72/78/108 71/77/107
s 3
f 94/80/110 93/174/109 102/171/129 103/100/130
f 94/80/110 103/100/130 104/101/131 95/85/115
f 95/85/115 104/101/131 126/102/132 123/86/116
s 1
f 76/98/128 75/97/127 79/103/133 80/104/134
s 3
f 103/100/130 102/171/129 105/168/135 106/106/136
s off
f 77/107/137 81/108/138 82/109/139 78/110/140
s 3
f 104/101/131 107/111/141 127/112/142 126/102/132
s 1
f 83/113/143 84/114/144 80/104/134 79/103/133
s 3
f 106/106/136 105/168/135 108/165/145 109/116/146
f 106/106/136 109/116/146 110/117/147 107/111/141
f 107/111/141 110/117/147 128/118/148 127/112/142
s 1
f 67/88/118 68/87/117 84/114/144 83/113/143
s 3
f 109/116/146 108/165/145 96/90/120 97/162/119
s off
f 85/119/149 69/120/150 70/121/151 86/122/152
s 3
f 110/117/147 101/94/124 124/144/126 128/118/148
s 13
f 53/48/153 64/52/154 87/60/155 88/181/156
s 6
f 57/63/157 53/223/158 88/224/159 90/180/160
f 61/70/161 57/63/157 90/180/160 91/159/162
s off
f 65/81/163 66/84/164 92/219/165 89/178/166
s 13
f 64/52/154 72/78/167 93/79/168 87/60/155
s off
f 73/82/169 65/81/170 89/220/171 94/172/172
f 66/84/173 74/83/174 95/217/175 92/177/176
s 13
f 68/87/177 52/221/178 98/222/179 96/164/180
s 7
f 52/55/181 56/58/182 99/92/183 98/91/184
f 56/58/182 60/65/185 100/93/186 99/92/183
s off
f 70/121/187 69/120/188 97/216/189 101/160/190
s 7
f 100/93/186 60/65/185 112/72/191 125/95/192
s 13
f 72/78/167 76/98/193 102/99/194 93/79/168
s off
f 77/107/195 78/110/196 104/213/197 103/170/198
f 74/83/199 73/82/200 94/218/201 95/173/202
s 13
f 76/98/193 80/104/203 105/105/204 102/99/194
s off
f 81/108/205 77/107/206 103/214/207 106/166/208
f 78/110/209 82/109/210 107/211/211 104/169/212
s 13
f 80/104/203 84/114/213 108/115/214 105/105/204
s off
f 85/119/215 86/122/216 110/209/217 109/163/218
f 82/109/219 81/108/220 106/212/221 107/167/222
s 13
f 84/114/213 68/87/177 96/164/180 108/115/214
s off
f 69/120/223 85/119/224 109/210/225 97/89/226
f 86/122/227 70/121/228 101/215/229 110/161/230
s 1
f 10/123/11 112/72/102 111/71/101 9/124/12
s 3
f 31/2/13 122/74/104 121/73/103 32/155/14
s 1
f 12/125/17 114/75/105 113/76/106 11/1/18
s off
f 115/126/231 117/127/232 19/128/233 13/129/234
s 3
f 124/144/126 125/153/125 37/152/25 38/132/24
f 123/86/116 126/102/132 41/148/29 35/151/19
s off
f 118/133/235 119/134/236 25/135/237 22/136/238
s 3
f 127/112/142 128/118/148 45/143/37 43/147/33
s off
f 120/138/239 116/139/240 16/140/241 28/141/242
s 6
f 91/159/162 122/158/243 113/76/244 61/70/161
f 11/1/46 113/76/244 122/158/243 31/157/47
s off
f 115/126/245 13/129/246 32/207/247 121/156/248
f 117/127/249 115/126/250 121/208/251 123/150/252
s 7
f 112/72/191 10/123/55 37/131/58 125/95/192
s off
f 16/140/253 116/139/254 124/205/255 38/142/256
f 118/133/257 22/136/258 41/203/259 126/149/260
f 19/128/261 117/127/262 123/206/263 35/130/264
f 119/134/265 118/133/266 126/204/267 127/146/268
f 120/138/269 28/141/270 45/200/271 128/145/272
f 25/135/273 119/134/274 127/202/275 43/137/276
f 116/139/277 120/138/278 128/201/279 124/96/280
