# This file uses centimeters as units for non-parametric coordinates.

mtllib Bottle.mtl
g default
v -3.904088 -0.001613 3.968836
v -3.940723 -0.001613 3.918413
v -4.000000 -0.001613 3.899153
v -4.059277 -0.001613 3.918413
v -4.095912 -0.001613 3.968836
v -4.095912 -0.001613 4.031163
v -4.059277 -0.001613 4.081587
v -4.000000 -0.001613 4.100847
v -3.940723 -0.001613 4.081587
v -3.904088 -0.001613 4.031163
v -3.875987 0.635125 3.959706
v -3.923356 0.635125 3.894508
v -4.000000 0.635125 3.869605
v -4.076644 0.635125 3.894508
v -4.124013 0.635125 3.959706
v -4.124013 0.635125 4.040294
v -4.076644 0.635125 4.105492
v -4.000000 0.635125 4.130395
v -3.923356 0.635125 4.105492
v -3.875987 0.635125 4.040294
v -4.000000 -0.001613 4.000000
v -3.934753 0.763186 3.978800
v -3.959675 0.763186 3.944498
v -4.000000 0.763186 3.931396
v -4.040325 0.763186 3.944498
v -4.065247 0.763186 3.978800
v -4.065247 0.763186 4.021200
v -4.040325 0.763186 4.055502
v -4.000000 0.763186 4.068604
v -3.959675 0.763186 4.055502
v -3.934753 0.763186 4.021200
v -3.970016 1.189980 3.990258
v -4.000000 1.189980 4.000000
v -3.981469 1.189980 3.974494
v -4.000000 1.189980 3.968473
v -4.018531 1.189980 3.974494
v -4.029984 1.189980 3.990258
v -4.029984 1.189980 4.009742
v -4.018531 1.189980 4.025506
v -4.000000 1.189980 4.031527
v -3.981469 1.189980 4.025506
v -3.970016 1.189980 4.009742
v -3.898593 0.709185 3.967051
v -3.937327 0.709185 3.913738
v -4.000000 0.709185 3.893375
v -4.062673 0.709185 3.913738
v -4.101406 0.709185 3.967051
v -4.101406 0.709185 4.032949
v -4.062673 0.709185 4.086262
v -4.000000 0.709185 4.106625
v -3.937327 0.709185 4.086262
v -3.898593 0.709185 4.032949
v -3.875987 0.044335 3.959706
v -3.923356 0.044335 3.894508
v -4.000000 0.044335 3.869605
v -4.076644 0.044335 3.894508
v -4.124013 0.044335 3.959706
v -4.124013 0.044335 4.040294
v -4.076644 0.044335 4.105492
v -4.000000 0.044335 4.130395
v -3.923356 0.044335 4.105492
v -3.875987 0.044335 4.040294
v -3.953047 0.818919 3.984744
v -3.970981 0.818919 3.960059
v -4.000000 0.818919 3.950630
v -4.029019 0.818919 3.960059
v -4.046954 0.818919 3.984744
v -4.046954 0.818919 4.015256
v -4.029019 0.818919 4.039941
v -4.000000 0.818919 4.049370
v -3.970981 0.818919 4.039941
v -3.953047 0.818919 4.015256
v -3.970953 1.154820 3.990562
v -3.970953 1.154820 4.009438
v -3.982048 1.154820 4.024709
v -4.000000 1.154820 4.030542
v -4.017952 1.154820 4.024709
v -4.029047 1.154820 4.009438
v -4.029047 1.154820 3.990562
v -4.017952 1.154820 3.975291
v -4.000000 1.154820 3.969458
v -3.982048 1.154820 3.975291
v -3.969296 1.157981 3.990024
v -3.969296 1.157981 4.009976
v -3.981024 1.157981 4.026118
v -4.000000 1.157981 4.032283
v -4.018976 1.157981 4.026118
v -4.030704 1.157981 4.009976
v -4.030704 1.157981 3.990024
v -4.018976 1.157981 3.973882
v -4.000000 1.157981 3.967717
v -3.981024 1.157981 3.973882
vt 0.657721 0.575211
vt 0.649425 0.563793
vt 0.636002 0.559432
vt 0.622579 0.563793
vt 0.614284 0.575211
vt 0.614284 0.589325
vt 0.622579 0.600743
vt 0.636002 0.605105
vt 0.649425 0.600743
vt 0.657721 0.589325
vt 0.583084 0.408128
vt 0.583084 0.507967
vt 0.597656 0.408128
vt 0.597656 0.507967
vt 0.487792 0.408128
vt 0.487792 0.507967
vt 0.504182 0.408128
vt 0.504182 0.507967
vt 0.518672 0.408128
vt 0.518672 0.507967
vt 0.535248 0.408128
vt 0.535248 0.507967
vt 0.543397 0.408128
vt 0.543397 0.507967
vt 0.550967 0.408128
vt 0.550967 0.507967
vt 0.559843 0.408128
vt 0.559843 0.507967
vt 0.568012 0.408128
vt 0.568012 0.507967
vt 0.583084 0.521226
vt 0.583084 0.531360
vt 0.597656 0.521226
vt 0.582349 0.531360
vt 0.499009 0.521226
vt 0.510441 0.531360
vt 0.504182 0.521226
vt 0.517394 0.531360
vt 0.518672 0.521226
vt 0.518672 0.531360
vt 0.535248 0.521226
vt 0.535248 0.531360
vt 0.636002 0.581355
vt 0.631040 0.529751
vt 0.543397 0.521226
vt 0.543397 0.531360
vt 0.550967 0.521226
vt 0.550967 0.531360
vt 0.559843 0.521226
vt 0.559843 0.531360
vt 0.568012 0.521226
vt 0.568012 0.531360
vt 0.564814 0.540343
vt 0.564814 0.595578
vt 0.569271 0.540343
vt 0.569271 0.595579
vt 0.527921 0.540343
vt 0.527921 0.595578
vt 0.532125 0.540343
vt 0.532125 0.595578
vt 0.536552 0.540343
vt 0.536552 0.595578
vt 0.535248 0.540343
vt 0.535248 0.595578
vt 0.543397 0.540343
vt 0.543397 0.595578
vt 0.550967 0.540343
vt 0.550967 0.595579
vt 0.559843 0.540343
vt 0.559843 0.595578
vt 0.568012 0.540343
vt 0.568012 0.595578
vt 0.583084 0.398974
vt 0.597656 0.398974
vt 0.487792 0.398974
vt 0.504182 0.398974
vt 0.518672 0.398974
vt 0.535248 0.398974
vt 0.543397 0.398974
vt 0.550967 0.398974
vt 0.559843 0.398974
vt 0.568012 0.398974
vt 0.564814 0.596163
vt 0.568012 0.596163
vt 0.559843 0.596163
vt 0.550967 0.596163
vt 0.543397 0.596163
vt 0.535248 0.596163
vt 0.536552 0.596163
vt 0.532125 0.596163
vt 0.527921 0.596163
vt 0.569271 0.596163
vt 0.564814 0.601468
vt 0.568012 0.601468
vt 0.559843 0.601468
vt 0.550967 0.601468
vt 0.543397 0.601468
vt 0.535248 0.601468
vt 0.536552 0.601468
vt 0.532125 0.601468
vt 0.527921 0.601468
vt 0.569271 0.601468
vt 0.638483 0.540502
vt 0.631040 0.542920
vt 0.623596 0.540502
vt 0.618997 0.534170
vt 0.618997 0.526344
vt 0.623597 0.520013
vt 0.631040 0.517595
vt 0.638483 0.520013
vt 0.643082 0.526344
vt 0.643082 0.534170
vt 0.614259 0.408128
vt 0.600491 0.521226
vt 0.573518 0.540343
vt 0.573518 0.595578
vt 0.614259 0.507967
vt 0.614259 0.398974
vt 0.589236 0.531360
vt 0.573518 0.596163
vt 0.573518 0.601468
vn 0.587502 0.031027 -0.808628
vn 0.950598 0.031027 -0.308869
vn 0.950395 -0.037283 -0.308803
vn 0.587376 -0.037283 -0.808455
vn 0.000000 0.031027 -0.999519
vn 0.000000 -0.037283 -0.999305
vn -0.587502 0.031027 -0.808628
vn -0.587376 -0.037283 -0.808455
vn -0.950598 0.031027 -0.308869
vn -0.950395 -0.037283 -0.308803
vn -0.950599 0.031027 0.308868
vn -0.950395 -0.037283 0.308802
vn -0.587503 0.031027 0.808627
vn -0.587377 -0.037283 0.808454
vn 0.000000 0.031027 0.999519
vn 0.000000 -0.037283 0.999305
vn 0.587503 0.031027 0.808627
vn 0.587377 -0.037283 0.808454
vn 0.950599 0.031027 0.308868
vn 0.950395 -0.037283 0.308802
vn 0.352412 -0.800329 -0.485056
vn 0.570216 -0.800329 -0.185275
vn 0.000000 -1.000000 -0.000000
vn 0.000000 -0.800330 -0.599560
vn -0.352412 -0.800329 -0.485056
vn -0.570216 -0.800329 -0.185275
vn -0.570216 -0.800329 0.185275
vn -0.352413 -0.800330 0.485054
vn 0.000000 -0.800329 0.599560
vn 0.352413 -0.800330 0.485054
vn 0.570216 -0.800329 0.185275
vn 0.000000 1.000000 0.000001
vn 0.000000 1.000000 0.000003
vn 0.000000 1.000000 0.000003
vn 0.000000 1.000000 0.000000
vn 0.000000 1.000000 -0.000003
vn 0.000000 1.000000 -0.000003
vn 0.000000 1.000000 0.000003
vn 0.000000 1.000000 0.000003
vn 0.000000 1.000000 0.000000
vn 0.000000 1.000000 0.000000
vn 0.000000 1.000000 0.000000
vn 0.510264 0.496366 -0.702319
vn 0.825625 0.496366 -0.268262
vn 0.870530 0.402706 -0.282853
vn 0.538016 0.402706 -0.740518
vn 0.000000 0.496366 -0.868114
vn 0.000000 0.402705 -0.915330
vn -0.510264 0.496366 -0.702319
vn -0.538017 0.402706 -0.740517
vn -0.825626 0.496364 -0.268261
vn -0.870530 0.402707 -0.282852
vn -0.825627 0.496363 0.268260
vn -0.870530 0.402707 0.282851
vn -0.510265 0.496365 0.702318
vn -0.538018 0.402706 0.740516
vn -0.000000 0.496363 0.868115
vn 0.000000 0.402705 0.915330
vn 0.510265 0.496365 0.702318
vn 0.538017 0.402706 0.740517
vn 0.825626 0.496365 0.268261
vn 0.870530 0.402706 0.282853
vn 0.587017 0.051158 -0.807957
vn 0.949812 0.051158 -0.308611
vn 0.944683 0.115577 -0.306945
vn 0.583847 0.115577 -0.803595
vn -0.000000 0.051159 -0.998691
vn 0.000000 0.115576 -0.993299
vn -0.587017 0.051158 -0.807957
vn -0.583847 0.115576 -0.803595
vn -0.949812 0.051158 -0.308611
vn -0.944683 0.115577 -0.306945
vn -0.949813 0.051158 0.308608
vn -0.944684 0.115576 0.306942
vn -0.587020 0.051159 0.807954
vn -0.583850 0.115577 0.803593
vn 0.000000 0.051159 0.998690
vn -0.000000 0.115576 0.993299
vn 0.587020 0.051159 0.807954
vn 0.583850 0.115577 0.803593
vn 0.949813 0.051158 0.308608
vn 0.944684 0.115577 0.306942
vn 0.950804 -0.023022 -0.308938
vn 0.950805 -0.023023 0.308934
vn 0.587629 -0.023029 0.808803
vn 0.000000 -0.023030 0.999735
vn -0.587627 -0.023033 0.808804
vn -0.950804 -0.023034 0.308934
vn -0.950804 -0.023033 -0.308936
vn -0.587628 -0.023033 -0.808803
vn 0.000000 -0.023032 -0.999735
vn 0.587629 -0.023028 -0.808803
vn 0.950790 0.023647 -0.308931
vn 0.950790 0.023645 0.308931
vn 0.587618 0.023634 0.808793
vn 0.000000 0.023628 0.999721
vn -0.587618 0.023630 0.808794
vn -0.950791 0.023638 0.308931
vn -0.950791 0.023640 -0.308931
vn -0.587621 0.023634 -0.808791
vn 0.000000 0.023632 -0.999721
vn 0.587621 0.023638 -0.808791
s 1
g Bottle
usemtl initialShadingGroup
f 12/14/1 11/12/2 53/11/3 54/13/4
f 13/117/5 12/14/1 54/13/4 55/113/6
f 14/18/7 13/16/5 55/15/6 56/17/8
f 15/20/9 14/18/7 56/17/8 57/19/10
f 16/22/11 15/20/9 57/19/10 58/21/12
f 17/24/13 16/22/11 58/21/12 59/23/14
f 18/26/15 17/24/13 59/23/14 60/25/16
f 19/28/17 18/26/15 60/25/16 61/27/18
f 20/30/19 19/28/17 61/27/18 62/29/20
f 11/12/2 20/30/19 62/29/20 53/11/3
f 2/2/21 1/1/22 21/43/23
f 3/3/24 2/2/21 21/43/23
f 4/4/25 3/3/24 21/43/23
f 5/5/26 4/4/25 21/43/23
f 6/6/27 5/5/26 21/43/23
f 7/7/28 6/6/27 21/43/23
f 8/8/29 7/7/28 21/43/23
f 9/9/30 8/8/29 21/43/23
f 10/10/31 9/9/30 21/43/23
f 1/1/22 10/10/31 21/43/23
s 2
f 33/44/32 32/112/33 34/103/34
f 33/44/32 34/103/34 35/104/35
f 33/44/32 35/104/35 36/105/36
f 33/44/32 36/105/36 37/106/37
f 33/44/32 37/106/37 38/107/38
f 33/44/32 38/107/38 39/108/39
f 33/44/32 39/108/39 40/109/40
f 33/44/32 40/109/40 41/110/41
f 33/44/32 41/110/41 42/111/42
f 33/44/32 42/111/42 32/112/33
s 1
f 23/34/43 22/32/44 43/31/45 44/33/46
f 24/119/47 23/34/43 44/33/46 45/114/48
f 25/38/49 24/36/47 45/35/48 46/37/50
f 26/40/51 25/38/49 46/37/50 47/39/52
f 27/42/53 26/40/51 47/39/52 48/41/54
f 28/46/55 27/42/53 48/41/54 49/45/56
f 29/48/57 28/46/55 49/45/56 50/47/58
f 30/50/59 29/48/57 50/47/58 51/49/60
f 31/52/61 30/50/59 51/49/60 52/51/62
f 22/32/44 31/52/61 52/51/62 43/31/45
f 82/56/63 73/54/64 63/53/65 64/55/66
f 81/116/67 82/56/63 64/55/66 65/115/68
f 80/60/69 81/58/67 65/57/68 66/59/70
f 79/62/71 80/60/69 66/59/70 67/61/72
f 78/64/73 79/62/71 67/61/72 68/63/74
f 77/66/75 78/64/73 68/63/74 69/65/76
f 76/68/77 77/66/75 69/65/76 70/67/78
f 75/70/79 76/68/77 70/67/78 71/69/80
f 74/72/81 75/70/79 71/69/80 72/71/82
f 73/54/64 74/72/81 72/71/82 63/53/65
f 43/31/45 11/12/2 12/14/1 44/33/46
f 44/33/46 12/14/1 13/117/5 45/114/48
f 45/35/48 13/16/5 14/18/7 46/37/50
f 46/37/50 14/18/7 15/20/9 47/39/52
f 47/39/52 15/20/9 16/22/11 48/41/54
f 48/41/54 16/22/11 17/24/13 49/45/56
f 49/45/56 17/24/13 18/26/15 50/47/58
f 50/47/58 18/26/15 19/28/17 51/49/60
f 51/49/60 19/28/17 20/30/19 52/51/62
f 52/51/62 20/30/19 11/12/2 43/31/45
f 53/11/3 1/73/22 2/74/21 54/13/4
f 54/13/4 2/74/21 3/118/24 55/113/6
f 55/15/6 3/75/24 4/76/25 56/17/8
f 56/17/8 4/76/25 5/77/26 57/19/10
f 57/19/10 5/77/26 6/78/27 58/21/12
f 58/21/12 6/78/27 7/79/28 59/23/14
f 59/23/14 7/79/28 8/80/29 60/25/16
f 60/25/16 8/80/29 9/81/30 61/27/18
f 61/27/18 9/81/30 10/82/31 62/29/20
f 62/29/20 10/82/31 1/73/22 53/11/3
f 63/53/65 22/32/44 23/34/43 64/55/66
f 64/55/66 23/34/43 24/119/47 65/115/68
f 65/57/68 24/36/47 25/38/49 66/59/70
f 66/59/70 25/38/49 26/40/51 67/61/72
f 67/61/72 26/40/51 27/42/53 68/63/74
f 68/63/74 27/42/53 28/46/55 69/65/76
f 69/65/76 28/46/55 29/48/57 70/67/78
f 70/67/78 29/48/57 30/50/59 71/69/80
f 71/69/80 30/50/59 31/52/61 72/71/82
f 72/71/82 31/52/61 22/32/44 63/53/65
f 83/83/83 84/84/84 74/72/81 73/54/64
f 84/84/84 85/85/85 75/70/79 74/72/81
f 85/85/85 86/86/86 76/68/77 75/70/79
f 86/86/86 87/87/87 77/66/75 76/68/77
f 87/87/87 88/88/88 78/64/73 77/66/75
f 88/88/88 89/89/89 79/62/71 78/64/73
f 89/89/89 90/90/90 80/60/69 79/62/71
f 90/90/90 91/91/91 81/58/67 80/60/69
f 91/120/91 92/92/92 82/56/63 81/116/67
f 92/92/92 83/83/83 73/54/64 82/56/63
f 32/93/93 42/94/94 84/84/84 83/83/83
f 42/94/94 41/95/95 85/85/85 84/84/84
f 41/95/95 40/96/96 86/86/86 85/85/85
f 40/96/96 39/97/97 87/87/87 86/86/86
f 39/97/97 38/98/98 88/88/88 87/87/87
f 38/98/98 37/99/99 89/89/89 88/88/88
f 37/99/99 36/100/100 90/90/90 89/89/89
f 36/100/100 35/101/101 91/91/91 90/90/90
f 35/121/101 34/102/102 92/92/92 91/120/91
f 34/102/102 32/93/93 83/83/83 92/92/92
