# This file uses centimeters as units for non-parametric coordinates.

mtllib Bread.mtl
g default
v -0.778117 0.000000 0.535223
v -0.384454 0.000000 0.535223
v -0.724117 0.384797 0.528398
v -0.438454 0.384797 0.528398
v -0.632756 0.273965 -0.558792
v -0.529815 0.273965 -0.558792
v -0.648512 0.146104 -0.558414
v -0.514059 0.146104 -0.558414
v -0.643589 0.267921 -0.400338
v -0.518982 0.267921 -0.400338
v -0.528128 0.155023 -0.400338
v -0.634443 0.155023 -0.400338
v -0.724117 0.384797 -0.282220
v -0.438454 0.384797 -0.282220
v -0.384454 0.000000 -0.300927
v -0.778117 0.000000 -0.300927
v -0.801762 0.212040 0.592415
v -0.360809 0.212040 0.592415
v -0.360809 0.212040 -0.318290
v -0.486772 0.205661 -0.400338
v -0.424884 0.195898 -0.558792
v -0.737687 0.195898 -0.558792
v -0.675799 0.205661 -0.400338
v -0.801762 0.212040 -0.318290
v -0.581285 0.000000 0.590899
v -0.581285 0.000000 -0.346451
v -0.581285 0.144111 -0.400338
v -0.581285 0.060580 -0.558414
v -0.581285 0.195898 -0.447470
v -0.581285 0.384797 -0.558792
v -0.581285 0.277613 -0.400338
v -0.581285 0.399224 -0.316057
v -0.581285 0.399224 0.560505
v -0.581285 0.212040 0.624522
vt 0.424200 0.229973
vt 0.797398 0.443574
vt 0.660543 0.495517
vt 0.510531 0.344681
vt 0.538135 0.990969
vt 0.426633 0.884190
vt 0.462433 0.897822
vt 0.523088 0.955860
vt 0.482177 0.826284
vt 0.593780 0.932816
vt 0.605785 0.883347
vt 0.530955 0.812017
vt 0.541449 0.779070
vt 0.638140 0.871145
vt 0.454413 0.799086
vt 0.266801 0.636923
vt 0.341145 0.509177
vt 0.495111 0.664043
vt 0.440719 0.802179
vt 0.313057 0.904308
vt 0.099785 0.688984
vt 0.235080 0.412848
vt 0.901083 0.318001
vt 0.300517 0.126042
vt 0.795548 0.211202
vt 0.205554 0.797430
vt 0.615130 0.798424
vt 0.584165 0.831100
vt 0.536662 0.880965
vt 0.479035 0.941199
vt 0.353969 0.650355
vt 0.416489 0.588232
vt 0.586012 0.419630
vt 0.682843 0.323311
vt 0.209022 0.008235
vt 0.806846 0.992021
vt 0.283384 0.720403
vt 0.450069 0.971213
vt 0.382276 0.688434
vt 0.260866 0.685960
vt 0.622166 0.959291
vt 0.316017 0.621853
vt 0.366710 0.737672
vt 0.317528 0.743333
vt 0.014824 0.195716
vt 0.127216 0.293393
vt 0.995361 0.798823
vt 0.878044 0.706702
vt 0.202853 0.562421
vt 0.590886 0.770614
vt 0.709768 0.879110
vt 0.774778 0.582464
vt 0.563193 0.208115
vt 0.689313 0.105100
vn -0.000000 0.971820 0.235725
vn -0.000000 0.037198 0.999308
vn 0.972249 0.127140 0.196383
vn 0.636349 0.756726 0.149749
vn -0.000000 0.453719 -0.891145
vn 0.000000 0.884148 -0.467206
vn 0.591888 0.640940 -0.488737
vn 0.170816 0.321465 -0.931387
vn 0.000000 -0.008373 -0.999965
vn 0.575453 -0.141270 -0.805541
vn -0.000000 -0.732796 -0.680448
vn 0.000001 -0.533660 -0.845699
vn 0.271645 -0.494523 -0.825624
vn 0.523484 -0.557719 -0.644138
vn 0.775940 0.064337 -0.627518
vn -0.575453 -0.141270 -0.805541
vn -0.775940 0.064338 -0.627518
vn -0.591888 0.640940 -0.488737
vn -0.170816 0.321466 -0.931387
vn 0.000000 0.995170 -0.098165
vn 0.646577 0.759773 -0.068434
vn 0.987431 0.131494 -0.087692
vn 0.000000 -0.993857 -0.110673
vn 0.679379 -0.730190 -0.072572
vn -0.987431 0.131494 -0.087692
vn -0.646577 0.759773 -0.068434
vn -0.000000 -0.968441 0.249242
vn 0.678737 -0.718030 0.154107
vn -0.972249 0.127140 0.196383
vn -0.636349 0.756726 0.149749
vn -0.271645 -0.494523 -0.825625
vn -0.523484 -0.557719 -0.644138
vn -0.679379 -0.730190 -0.072572
vn -0.678737 -0.718030 0.154107
s 1
g pCube2
usemtl initialShadingGroup
f 33/33/1 34/34/2 18/2/3 4/3/4
f 30/30/5 31/38/6 10/6/7 6/7/8
f 29/29/9 30/30/5 6/7/8 21/9/10
f 27/27/11 28/28/12 8/12/13 11/13/14
f 10/6/7 20/15/15 21/9/10 6/7/8
f 22/10/16 23/41/17 9/5/18 5/8/19
f 31/31/6 32/32/20 14/18/21 10/39/7
f 14/18/21 19/19/22 20/43/15 10/39/7
f 26/26/23 27/37/11 11/44/14 15/20/24
f 9/42/18 23/16/17 24/49/25 13/17/26
f 32/32/20 33/33/1 4/3/4 14/18/21
f 18/52/3 19/50/22 14/18/21 4/3/4
f 25/47/27 26/36/23 15/51/24 2/48/28
f 13/17/26 24/22/25 17/1/29 3/4/30
f 34/34/2 25/25/27 2/23/28 18/2/3
f 2/48/28 15/51/24 19/50/22 18/52/3
f 20/43/15 19/19/22 15/20/24 11/44/14
f 21/9/10 20/15/15 11/13/14 8/12/13
f 28/28/12 29/29/9 21/9/10 8/12/13
f 7/11/31 12/14/32 23/41/17 22/10/16
f 24/49/25 23/16/17 12/40/32 16/21/33
f 17/1/29 24/22/25 16/46/33 1/24/34
f 16/46/33 26/45/23 25/35/27 1/24/34
f 12/40/32 27/37/11 26/26/23 16/21/33
f 7/11/31 28/28/12 27/27/11 12/14/32
f 22/10/16 29/29/9 28/28/12 7/11/31
f 5/8/19 30/30/5 29/29/9 22/10/16
f 9/5/18 31/38/6 30/30/5 5/8/19
f 13/17/26 32/32/20 31/31/6 9/42/18
f 3/4/30 33/33/1 32/32/20 13/17/26
f 17/53/29 34/34/2 33/33/1 3/4/30
f 1/54/34 25/25/27 34/34/2 17/53/29
