# This file uses centimeters as units for non-parametric coordinates.

mtllib Dirt_pile_3.mtl
g default
v 1.647028 0.000000 -2.759341
v 1.756714 -0.000000 -2.731284
v 1.962732 -0.000000 -2.714335
v 2.186633 0.000000 -2.763802
v 2.362837 -0.000000 -2.694467
v 2.488777 -0.000000 -2.726131
v 1.643800 -0.000000 -2.857074
v 1.779448 0.079473 -2.838645
v 1.979448 0.048002 -2.838645
v 2.179448 0.056592 -2.838645
v 2.379448 0.083047 -2.838645
v 2.509301 -0.000000 -2.865613
v 1.579448 -0.000000 -3.038645
v 1.779448 0.150235 -3.038645
v 1.979448 0.185345 -3.038645
v 2.179448 0.238806 -3.040900
v 2.379448 0.145198 -3.038645
v 2.550887 -0.000000 -3.032428
v 1.663708 0.000000 -3.237341
v 1.779448 0.016357 -3.238645
v 1.979448 0.176247 -3.238645
v 2.179448 0.196571 -3.236390
v 2.379448 0.095811 -3.238645
v 2.513319 0.000000 -3.232671
v 1.658150 0.000000 -3.423880
v 1.779448 0.030764 -3.438645
v 1.979448 0.077982 -3.438645
v 2.179448 0.095811 -3.438645
v 2.379448 0.086659 -3.438645
v 2.515130 0.000000 -3.423864
v 1.671699 0.000000 -3.533290
v 1.784817 0.000000 -3.599201
v 1.974063 0.000000 -3.592077
v 2.187083 0.000000 -3.622574
v 2.344009 0.000000 -3.593645
v 2.446985 0.000000 -3.523647
vt 0.290800 0.026430
vt 0.307090 0.020456
vt 0.338483 0.012763
vt 0.374619 0.015892
vt 0.402779 0.008303
vt 0.421869 0.013676
vt 0.290979 0.041206
vt 0.314279 0.038494
vt 0.343751 0.031738
vt 0.374211 0.029600
vt 0.404664 0.032666
vt 0.427934 0.034428
vt 0.283436 0.070270
vt 0.318764 0.068295
vt 0.346966 0.066717
vt 0.374767 0.067077
vt 0.404317 0.063308
vt 0.435832 0.060273
vt 0.296383 0.101519
vt 0.313388 0.102530
vt 0.348612 0.095755
vt 0.376673 0.093828
vt 0.408493 0.093852
vt 0.432623 0.092342
vt 0.298438 0.130168
vt 0.317415 0.131300
vt 0.348354 0.127867
vt 0.378801 0.125710
vt 0.408315 0.123335
vt 0.431957 0.121977
vt 0.302059 0.146245
vt 0.319648 0.155192
vt 0.348519 0.153104
vt 0.381817 0.155526
vt 0.405762 0.149701
vt 0.421501 0.138002
vn -0.095422 0.896044 0.433589
vn -0.212494 0.891652 0.399754
vn -0.515754 0.817340 0.256813
vn -0.345665 0.885575 0.310279
vn 0.042899 0.876744 0.479041
vn -0.028653 0.850645 0.524960
vn -0.069461 0.862205 0.501774
vn -0.019991 0.834441 0.550735
vn 0.066566 0.891020 0.449056
vn 0.262426 0.871085 0.415144
vn 0.356633 0.882987 0.305199
vn 0.539152 0.810285 0.229683
vn -0.365465 0.930468 0.025776
vn -0.524466 0.849724 -0.053891
vn -0.200243 0.957069 0.209575
vn 0.075094 0.969955 0.231406
vn 0.441988 0.889898 0.112821
vn 0.618295 0.785811 0.014526
vn -0.402103 0.885709 -0.232020
vn -0.365395 0.899226 -0.240580
vn -0.284801 0.916824 -0.279860
vn 0.116209 0.956442 -0.267794
vn 0.463859 0.869510 -0.169669
vn 0.595130 0.797777 -0.096813
vn -0.273762 0.945315 -0.177294
vn -0.185263 0.982524 -0.017992
vn -0.199080 0.913460 -0.354905
vn 0.040778 0.911987 -0.408187
vn 0.320337 0.902828 -0.286854
vn 0.542608 0.831229 -0.120975
vn -0.123607 0.952604 -0.277970
vn -0.170749 0.977561 -0.123364
vn -0.088390 0.912632 -0.399111
vn -0.009115 0.883888 -0.467610
vn 0.131288 0.869235 -0.476649
vn 0.441016 0.779698 -0.444495
s 1
g Pile2
usemtl initialShadingGroup
f 2/2/1 8/8/2 7/7/3 1/1/4
f 3/3/5 9/9/6 8/8/2 2/2/1
f 4/4/7 10/10/8 9/9/6 3/3/5
f 5/5/9 11/11/10 10/10/8 4/4/7
f 6/6/11 12/12/12 11/11/10 5/5/9
f 8/8/2 14/14/13 13/13/14 7/7/3
f 9/9/6 15/15/15 14/14/13 8/8/2
f 10/10/8 16/16/16 15/15/15 9/9/6
f 11/11/10 17/17/17 16/16/16 10/10/8
f 12/12/12 18/18/18 17/17/17 11/11/10
f 14/14/13 20/20/19 19/19/20 13/13/14
f 15/15/15 21/21/21 20/20/19 14/14/13
f 16/16/16 22/22/22 21/21/21 15/15/15
f 17/17/17 23/23/23 22/22/22 16/16/16
f 18/18/18 24/24/24 23/23/23 17/17/17
f 20/20/19 26/26/25 25/25/26 19/19/20
f 21/21/21 27/27/27 26/26/25 20/20/19
f 22/22/22 28/28/28 27/27/27 21/21/21
f 23/23/23 29/29/29 28/28/28 22/22/22
f 24/24/24 30/30/30 29/29/29 23/23/23
f 26/26/25 32/32/31 31/31/32 25/25/26
f 27/27/27 33/33/33 32/32/31 26/26/25
f 28/28/28 34/34/34 33/33/33 27/27/27
f 29/29/29 35/35/35 34/34/34 28/28/28
f 30/30/30 36/36/36 35/35/35 29/29/29
