# This file uses centimeters as units for non-parametric coordinates.

mtllib Dirt_pile_1.mtl
g default
v 0.567581 0.000000 -1.620696
v 0.677266 -0.000000 -1.592639
v 0.883285 -0.000000 -1.575691
v 1.107186 0.000000 -1.625158
v 1.283390 -0.000000 -1.555822
v 1.409330 -0.000000 -1.587486
v 0.564353 -0.000000 -1.718430
v 0.700000 0.079473 -1.700000
v 0.900000 0.048002 -1.700000
v 1.100000 0.056592 -1.700000
v 1.300000 0.083047 -1.700000
v 1.429853 -0.000000 -1.726969
v 0.500000 -0.000000 -1.900000
v 0.700000 0.150235 -1.900000
v 0.900000 0.185345 -1.900000
v 1.100000 0.238806 -1.902255
v 1.300000 0.145198 -1.900000
v 1.471440 -0.000000 -1.893784
v 0.584261 0.000000 -2.098696
v 0.700000 0.016357 -2.100000
v 0.900000 0.176247 -2.100000
v 1.100000 0.196571 -2.097745
v 1.300000 0.095811 -2.100000
v 1.433871 0.000000 -2.094026
v 0.578703 0.000000 -2.285236
v 0.700000 0.030764 -2.300000
v 0.900000 0.077982 -2.300000
v 1.100000 0.095811 -2.300000
v 1.300000 0.086659 -2.300000
v 1.435682 0.000000 -2.285219
v 0.592252 0.000000 -2.394646
v 0.705370 0.000000 -2.460556
v 0.894616 0.000000 -2.453432
v 1.107635 0.000000 -2.483929
v 1.264561 0.000000 -2.455001
v 1.367537 0.000000 -2.385002
vt 0.270281 0.191475
vt 0.286571 0.185501
vt 0.317965 0.177808
vt 0.354100 0.180937
vt 0.382261 0.173348
vt 0.401350 0.178721
vt 0.270461 0.206251
vt 0.293761 0.203539
vt 0.323232 0.196783
vt 0.353693 0.194645
vt 0.384145 0.197712
vt 0.407415 0.199474
vt 0.262918 0.235315
vt 0.298246 0.233341
vt 0.326448 0.231763
vt 0.354249 0.232123
vt 0.383799 0.228353
vt 0.415314 0.225318
vt 0.275864 0.266564
vt 0.292870 0.267575
vt 0.328093 0.260800
vt 0.356155 0.258873
vt 0.387975 0.258897
vt 0.412105 0.257387
vt 0.277920 0.295213
vt 0.296897 0.296345
vt 0.327836 0.292913
vt 0.358283 0.290756
vt 0.387797 0.288380
vt 0.411438 0.287022
vt 0.281541 0.311290
vt 0.299130 0.320237
vt 0.328001 0.318149
vt 0.361299 0.320571
vt 0.385244 0.314746
vt 0.400983 0.303048
vn -0.095422 0.896044 0.433589
vn -0.212494 0.891652 0.399754
vn -0.515754 0.817340 0.256813
vn -0.345665 0.885575 0.310279
vn 0.042899 0.876744 0.479041
vn -0.028653 0.850645 0.524960
vn -0.069461 0.862205 0.501774
vn -0.019991 0.834441 0.550735
vn 0.066566 0.891020 0.449056
vn 0.262426 0.871085 0.415144
vn 0.356633 0.882987 0.305199
vn 0.539152 0.810285 0.229683
vn -0.365465 0.930468 0.025776
vn -0.524466 0.849724 -0.053891
vn -0.200243 0.957069 0.209575
vn 0.075094 0.969955 0.231406
vn 0.441988 0.889898 0.112821
vn 0.618295 0.785811 0.014526
vn -0.402103 0.885709 -0.232020
vn -0.365395 0.899226 -0.240580
vn -0.284801 0.916824 -0.279860
vn 0.116209 0.956442 -0.267794
vn 0.463859 0.869510 -0.169669
vn 0.595130 0.797777 -0.096813
vn -0.273762 0.945315 -0.177294
vn -0.185263 0.982524 -0.017992
vn -0.199080 0.913460 -0.354905
vn 0.040778 0.911987 -0.408187
vn 0.320337 0.902828 -0.286854
vn 0.542608 0.831229 -0.120975
vn -0.123607 0.952604 -0.277970
vn -0.170749 0.977561 -0.123364
vn -0.088390 0.912632 -0.399111
vn -0.009115 0.883888 -0.467610
vn 0.131288 0.869235 -0.476649
vn 0.441016 0.779698 -0.444495
s 1
g Pile
usemtl initialShadingGroup
f 2/2/1 8/8/2 7/7/3 1/1/4
f 3/3/5 9/9/6 8/8/2 2/2/1
f 4/4/7 10/10/8 9/9/6 3/3/5
f 5/5/9 11/11/10 10/10/8 4/4/7
f 6/6/11 12/12/12 11/11/10 5/5/9
f 8/8/2 14/14/13 13/13/14 7/7/3
f 9/9/6 15/15/15 14/14/13 8/8/2
f 10/10/8 16/16/16 15/15/15 9/9/6
f 11/11/10 17/17/17 16/16/16 10/10/8
f 12/12/12 18/18/18 17/17/17 11/11/10
f 14/14/13 20/20/19 19/19/20 13/13/14
f 15/15/15 21/21/21 20/20/19 14/14/13
f 16/16/16 22/22/22 21/21/21 15/15/15
f 17/17/17 23/23/23 22/22/22 16/16/16
f 18/18/18 24/24/24 23/23/23 17/17/17
f 20/20/19 26/26/25 25/25/26 19/19/20
f 21/21/21 27/27/27 26/26/25 20/20/19
f 22/22/22 28/28/28 27/27/27 21/21/21
f 23/23/23 29/29/29 28/28/28 22/22/22
f 24/24/24 30/30/30 29/29/29 23/23/23
f 26/26/25 32/32/31 31/31/32 25/25/26
f 27/27/27 33/33/33 32/32/31 26/26/25
f 28/28/28 34/34/34 33/33/33 27/27/27
f 29/29/29 35/35/35 34/34/34 28/28/28
f 30/30/30 36/36/36 35/35/35 29/29/29
