# This file uses centimeters as units for non-parametric coordinates.

mtllib Food_Bowl.mtl
g default
v 0.418005 0.000000 1.864182
v 0.355576 0.000000 1.741659
v 0.258341 0.000000 1.644424
v 0.135818 0.000000 1.581995
v 0.000000 0.000000 1.560484
v -0.135818 0.000000 1.581995
v -0.258341 0.000000 1.644424
v -0.355576 0.000000 1.741659
v -0.418005 0.000000 1.864182
v -0.439516 0.000000 2.000000
v -0.418005 0.000000 2.135818
v -0.355576 0.000000 2.258341
v -0.258341 0.000000 2.355576
v -0.135818 0.000000 2.418005
v 0.000000 0.000000 2.439516
v 0.135818 0.000000 2.418005
v 0.258341 0.000000 2.355576
v 0.355576 0.000000 2.258341
v 0.418005 0.000000 2.135818
v 0.439516 0.000000 2.000000
v 0.327324 0.221678 1.893646
v 0.278438 0.221678 1.797703
v 0.202297 0.221678 1.721562
v 0.106354 0.221678 1.672676
v 0.000000 0.221678 1.655832
v -0.106354 0.221678 1.672676
v -0.202297 0.221678 1.721562
v -0.278438 0.221678 1.797703
v -0.327324 0.221678 1.893646
v -0.344168 0.221678 2.000000
v -0.327324 0.221678 2.106354
v -0.278438 0.221678 2.202297
v -0.202297 0.221678 2.278438
v -0.106354 0.221678 2.327323
v 0.000000 0.221678 2.344168
v 0.106354 0.221678 2.327323
v 0.202297 0.221678 2.278438
v 0.278438 0.221678 2.202297
v 0.327323 0.221678 2.106354
v 0.344168 0.221678 2.000000
v 0.000000 0.000000 2.000000
v 0.309751 0.221678 2.000000
v 0.294591 0.221678 2.095718
v 0.250594 0.221678 2.182067
v 0.182067 0.221678 2.250594
v 0.095718 0.221678 2.294591
v 0.000000 0.221678 2.309751
v -0.095718 0.221678 2.294591
v -0.182067 0.221678 2.250594
v -0.250594 0.221678 2.182067
v -0.294591 0.221678 2.095718
v -0.309752 0.221678 2.000000
v -0.294591 0.221678 1.904282
v -0.250594 0.221678 1.817933
v -0.182067 0.221678 1.749406
v -0.095718 0.221678 1.705409
v 0.000000 0.221678 1.690249
v 0.095718 0.221678 1.705409
v 0.182067 0.221678 1.749406
v 0.250594 0.221678 1.817933
v 0.294591 0.221678 1.904282
v 0.217783 0.093701 2.000000
v 0.207124 0.093701 2.067299
v 0.000000 0.043067 2.000000
v 0.176190 0.093701 2.128010
v 0.128010 0.093701 2.176190
v 0.067299 0.093701 2.207124
v 0.000000 0.093701 2.217783
v -0.067299 0.093701 2.207124
v -0.128010 0.093701 2.176190
v -0.176190 0.093701 2.128010
v -0.207124 0.093701 2.067299
v -0.217783 0.093701 2.000000
v -0.207124 0.093701 1.932701
v -0.176190 0.093701 1.871990
v -0.128010 0.093701 1.823809
v -0.067299 0.093701 1.792876
v 0.000000 0.093701 1.782217
v 0.067299 0.093701 1.792876
v 0.128010 0.093701 1.823809
v 0.176190 0.093701 1.871990
v 0.207124 0.093701 1.932701
vt 0.229811 0.929677
vt 0.243239 0.929677
vt 0.243239 0.953433
vt 0.229811 0.953433
vt 0.256667 0.929677
vt 0.256667 0.953433
vt 0.270094 0.929677
vt 0.270094 0.953433
vt 0.283522 0.929677
vt 0.283522 0.953433
vt 0.296949 0.929677
vt 0.296949 0.953433
vt 0.310377 0.929677
vt 0.310377 0.953433
vt 0.323804 0.929677
vt 0.323804 0.953433
vt 0.337232 0.929677
vt 0.337232 0.953433
vt 0.350659 0.929677
vt 0.350659 0.953433
vt 0.364087 0.929677
vt 0.364087 0.953433
vt 0.377514 0.929677
vt 0.377514 0.953433
vt 0.390942 0.929677
vt 0.390942 0.953433
vt 0.404369 0.929677
vt 0.404369 0.953433
vt 0.417797 0.929677
vt 0.417797 0.953433
vt 0.431224 0.929677
vt 0.431224 0.953433
vt 0.444652 0.929677
vt 0.444652 0.953433
vt 0.458080 0.929677
vt 0.458080 0.953433
vt 0.471507 0.929677
vt 0.471507 0.953433
vt 0.484935 0.929677
vt 0.484935 0.953433
vt 0.498362 0.929677
vt 0.498362 0.953433
vt 0.431447 0.887973
vt 0.434953 0.894854
vt 0.411478 0.901494
vt 0.425986 0.882512
vt 0.419105 0.879007
vt 0.411478 0.877798
vt 0.403851 0.879007
vt 0.396970 0.882512
vt 0.391509 0.887973
vt 0.388004 0.894854
vt 0.386795 0.902481
vt 0.388004 0.910110
vt 0.391509 0.916989
vt 0.396970 0.922450
vt 0.403851 0.925956
vt 0.411478 0.927164
vt 0.419105 0.925956
vt 0.425986 0.922450
vt 0.431447 0.916989
vt 0.434953 0.910110
vt 0.436161 0.902481
vt 0.340170 0.909122
vt 0.336665 0.916002
vt 0.334668 0.914452
vt 0.337823 0.908260
vt 0.331204 0.921463
vt 0.329753 0.919368
vt 0.324322 0.924968
vt 0.323561 0.922523
vt 0.316695 0.926177
vt 0.316695 0.923610
vt 0.309069 0.924968
vt 0.309830 0.922523
vt 0.302187 0.921463
vt 0.303638 0.919368
vt 0.296726 0.916002
vt 0.298723 0.914452
vt 0.293221 0.909122
vt 0.295568 0.908260
vt 0.292012 0.901494
vt 0.294480 0.901396
vt 0.293221 0.893867
vt 0.295568 0.894531
vt 0.296726 0.886986
vt 0.298723 0.888338
vt 0.302187 0.881525
vt 0.303638 0.883424
vt 0.309069 0.878019
vt 0.309830 0.880267
vt 0.316695 0.876811
vt 0.316695 0.879180
vt 0.324322 0.878019
vt 0.323561 0.880267
vt 0.331204 0.881525
vt 0.329753 0.883424
vt 0.336665 0.886986
vt 0.334668 0.888338
vt 0.340170 0.893867
vt 0.337823 0.894531
vt 0.341378 0.901494
vt 0.338911 0.901396
vt 0.378876 0.896590
vt 0.379637 0.901396
vt 0.364087 0.900774
vt 0.376668 0.892256
vt 0.373227 0.888815
vt 0.368892 0.886607
vt 0.364087 0.885845
vt 0.359281 0.886607
vt 0.354947 0.888815
vt 0.351506 0.892256
vt 0.349298 0.896590
vt 0.348536 0.901396
vt 0.349298 0.906201
vt 0.351506 0.910536
vt 0.354947 0.913977
vt 0.359281 0.916185
vt 0.364087 0.916947
vt 0.368892 0.916185
vt 0.373227 0.913977
vt 0.376668 0.910536
vt 0.378876 0.906201
vt 0.403900 0.973075
vt 0.413852 0.973075
vt 0.413852 0.957278
vt 0.403900 0.957278
vt 0.393948 0.973075
vt 0.393948 0.957278
vt 0.383996 0.973075
vt 0.383996 0.957278
vt 0.374044 0.973075
vt 0.374044 0.957278
vt 0.364092 0.973075
vt 0.364092 0.957278
vt 0.354139 0.973075
vt 0.354139 0.957278
vt 0.344187 0.973075
vt 0.344187 0.957278
vt 0.334235 0.973075
vt 0.334235 0.957278
vt 0.324283 0.973075
vt 0.324283 0.957278
vt 0.314331 0.973075
vt 0.314331 0.957278
vt 0.304378 0.973075
vt 0.304378 0.957278
vt 0.294426 0.973075
vt 0.294426 0.957278
vt 0.284474 0.973075
vt 0.284474 0.957278
vt 0.274522 0.973075
vt 0.274522 0.957278
vt 0.264570 0.973075
vt 0.264570 0.957278
vt 0.453661 0.973075
vt 0.463613 0.973075
vt 0.463613 0.957278
vt 0.453661 0.957278
vt 0.443709 0.973075
vt 0.443709 0.957278
vt 0.433757 0.973075
vt 0.433757 0.957278
vt 0.423805 0.973075
vt 0.423805 0.957278
vn 0.873669 0.395120 -0.283871
vn 0.743187 0.395120 -0.539957
vn 0.743187 0.395120 -0.539957
vn 0.873669 0.395120 -0.283871
vn 0.743187 0.395120 -0.539957
vn 0.539957 0.395120 -0.743187
vn 0.539957 0.395120 -0.743187
vn 0.743187 0.395120 -0.539957
vn 0.539957 0.395120 -0.743187
vn 0.283872 0.395120 -0.873669
vn 0.283872 0.395120 -0.873669
vn 0.539957 0.395120 -0.743187
vn 0.283872 0.395120 -0.873669
vn 0.000000 0.395120 -0.918630
vn 0.000000 0.395120 -0.918630
vn 0.283872 0.395120 -0.873669
vn 0.000000 0.395120 -0.918630
vn -0.283872 0.395121 -0.873668
vn -0.283872 0.395120 -0.873669
vn 0.000000 0.395120 -0.918630
vn -0.283872 0.395121 -0.873668
vn -0.539957 0.395120 -0.743187
vn -0.539957 0.395120 -0.743186
vn -0.283872 0.395120 -0.873669
vn -0.539957 0.395120 -0.743187
vn -0.743187 0.395120 -0.539957
vn -0.743187 0.395120 -0.539957
vn -0.539957 0.395120 -0.743186
vn -0.743187 0.395120 -0.539957
vn -0.873669 0.395120 -0.283872
vn -0.873669 0.395120 -0.283872
vn -0.743187 0.395120 -0.539957
vn -0.873669 0.395120 -0.283872
vn -0.918630 0.395120 0.000000
vn -0.918630 0.395120 0.000000
vn -0.873669 0.395120 -0.283872
vn -0.918630 0.395120 0.000000
vn -0.873669 0.395120 0.283872
vn -0.873669 0.395120 0.283872
vn -0.918630 0.395120 0.000000
vn -0.873669 0.395120 0.283872
vn -0.743187 0.395120 0.539957
vn -0.743187 0.395120 0.539957
vn -0.873669 0.395120 0.283872
vn -0.743187 0.395120 0.539957
vn -0.539957 0.395120 0.743187
vn -0.539957 0.395120 0.743187
vn -0.743187 0.395120 0.539957
vn -0.539957 0.395120 0.743187
vn -0.283872 0.395120 0.873669
vn -0.283872 0.395120 0.873669
vn -0.539957 0.395120 0.743187
vn -0.283872 0.395120 0.873669
vn 0.000000 0.395121 0.918629
vn 0.000000 0.395121 0.918629
vn -0.283872 0.395120 0.873669
vn 0.000000 0.395121 0.918629
vn 0.283872 0.395120 0.873669
vn 0.283872 0.395120 0.873669
vn 0.000000 0.395121 0.918629
vn 0.283872 0.395120 0.873669
vn 0.539957 0.395120 0.743187
vn 0.539957 0.395120 0.743187
vn 0.283872 0.395120 0.873669
vn 0.539957 0.395120 0.743187
vn 0.743187 0.395120 0.539957
vn 0.743187 0.395120 0.539957
vn 0.539957 0.395120 0.743187
vn 0.743187 0.395120 0.539957
vn 0.873669 0.395120 0.283872
vn 0.873669 0.395120 0.283872
vn 0.743187 0.395120 0.539957
vn 0.873669 0.395120 0.283872
vn 0.918630 0.395120 0.000001
vn 0.918630 0.395120 0.000001
vn 0.873669 0.395120 0.283872
vn 0.918630 0.395120 0.000001
vn 0.873669 0.395120 -0.283871
vn 0.873669 0.395120 -0.283871
vn 0.918630 0.395120 0.000001
vn 0.000000 -1.000000 0.000000
vn 0.000000 -1.000000 0.000000
vn 0.000000 -1.000000 0.000000
vn 0.000000 -1.000000 0.000000
vn 0.000000 -1.000000 0.000000
vn 0.000000 -1.000000 0.000000
vn 0.000000 -1.000000 0.000000
vn 0.000000 -1.000000 0.000000
vn 0.000000 -1.000000 0.000000
vn 0.000000 -1.000000 0.000000
vn 0.000000 -1.000000 0.000000
vn 0.000000 -1.000000 0.000000
vn 0.000000 -1.000000 0.000000
vn 0.000000 -1.000000 0.000000
vn 0.000000 -1.000000 0.000000
vn 0.000000 -1.000000 0.000000
vn 0.000000 -1.000000 0.000000
vn 0.000000 -1.000000 0.000000
vn 0.000000 -1.000000 0.000000
vn 0.000000 -1.000000 0.000000
vn 0.000000 -1.000000 0.000000
vn 0.000000 -1.000000 0.000000
vn 0.000000 -1.000000 0.000000
vn 0.000000 -1.000000 0.000000
vn 0.000000 -1.000000 0.000000
vn 0.000000 -1.000000 0.000000
vn 0.000000 -1.000000 0.000000
vn 0.000000 -1.000000 0.000000
vn 0.000000 -1.000000 0.000000
vn 0.000000 -1.000000 0.000000
vn 0.000000 -1.000000 0.000000
vn 0.000000 -1.000000 0.000000
vn 0.000000 -1.000000 0.000000
vn 0.000000 -1.000000 0.000000
vn 0.000000 -1.000000 0.000000
vn 0.000000 -1.000000 0.000000
vn 0.000000 -1.000000 0.000000
vn 0.000000 -1.000000 0.000000
vn 0.000000 -1.000000 0.000000
vn 0.000000 -1.000000 0.000000
vn 0.000000 -1.000000 0.000000
vn 0.000000 -1.000000 0.000000
vn 0.000000 -1.000000 0.000000
vn 0.000000 -1.000000 0.000000
vn 0.000000 -1.000000 0.000000
vn 0.000000 -1.000000 0.000000
vn 0.000000 -1.000000 0.000000
vn 0.000000 -1.000000 0.000000
vn 0.000000 -1.000000 0.000000
vn 0.000000 -1.000000 0.000000
vn 0.000000 -1.000000 0.000000
vn 0.000000 -1.000000 0.000000
vn 0.000000 -1.000000 0.000000
vn 0.000000 -1.000000 0.000000
vn 0.000000 -1.000000 0.000000
vn 0.000000 -1.000000 0.000000
vn 0.000000 -1.000000 0.000000
vn 0.000000 -1.000000 0.000000
vn 0.000000 -1.000000 0.000000
vn 0.000000 -1.000000 0.000000
vn 0.000000 1.000000 0.000000
vn 0.000000 1.000000 0.000000
vn 0.000000 1.000000 0.000000
vn 0.000000 1.000000 0.000000
vn 0.000000 1.000000 0.000000
vn 0.000000 1.000000 0.000000
vn 0.000000 1.000000 0.000000
vn 0.000000 1.000000 0.000000
vn 0.000000 1.000000 0.000000
vn 0.000000 1.000000 0.000000
vn 0.000000 1.000000 0.000000
vn 0.000000 1.000000 0.000000
vn 0.000000 1.000000 0.000000
vn 0.000000 1.000000 0.000000
vn 0.000000 1.000000 0.000000
vn 0.000000 1.000000 0.000000
vn 0.000000 1.000000 0.000000
vn 0.000000 1.000000 0.000000
vn 0.000000 1.000000 0.000000
vn 0.000000 1.000000 0.000000
vn 0.000000 1.000000 0.000000
vn 0.000000 1.000000 0.000000
vn 0.000000 1.000000 0.000000
vn 0.000000 1.000000 0.000000
vn 0.000000 1.000000 0.000000
vn 0.000000 1.000000 0.000000
vn 0.000000 1.000000 0.000000
vn 0.000000 1.000000 0.000000
vn 0.000000 1.000000 0.000000
vn 0.000000 1.000000 0.000000
vn 0.000000 1.000000 0.000000
vn 0.000000 1.000000 0.000000
vn 0.000000 1.000000 0.000000
vn 0.000000 1.000000 0.000000
vn 0.000000 1.000000 0.000000
vn 0.000000 1.000000 0.000000
vn 0.000000 1.000000 0.000000
vn 0.000000 1.000000 0.000000
vn 0.000000 1.000000 0.000000
vn 0.000000 1.000000 0.000000
vn 0.000000 1.000000 0.000000
vn 0.000000 1.000000 0.000000
vn 0.000000 1.000000 0.000000
vn 0.000000 1.000000 0.000000
vn 0.000000 1.000000 0.000000
vn 0.000000 1.000000 0.000000
vn 0.000000 1.000000 0.000000
vn 0.000000 1.000000 0.000000
vn 0.000000 1.000000 0.000000
vn 0.000000 1.000000 0.000000
vn 0.000000 1.000000 0.000000
vn 0.000000 1.000000 0.000000
vn 0.000000 1.000000 0.000000
vn 0.000000 1.000000 0.000000
vn 0.000000 1.000000 0.000000
vn 0.000000 1.000000 0.000000
vn 0.000000 1.000000 0.000000
vn 0.000000 1.000000 0.000000
vn 0.000000 1.000000 0.000000
vn 0.000000 1.000000 0.000000
vn 0.000000 1.000000 0.000000
vn 0.000000 1.000000 0.000000
vn 0.000000 1.000000 0.000000
vn 0.000000 1.000000 0.000000
vn 0.000000 1.000000 0.000000
vn 0.000000 1.000000 0.000000
vn 0.000000 1.000000 0.000000
vn 0.000000 1.000000 0.000000
vn 0.000000 1.000000 0.000000
vn 0.000000 1.000000 0.000000
vn 0.000000 1.000000 0.000000
vn 0.000000 1.000000 0.000000
vn 0.000000 1.000000 0.000000
vn 0.000000 1.000000 0.000000
vn 0.000000 1.000000 0.000000
vn 0.000000 1.000000 0.000000
vn 0.000000 1.000000 0.000000
vn 0.000000 1.000000 0.000000
vn 0.000000 1.000000 0.000000
vn 0.000000 1.000000 0.000000
vn -0.215372 0.974021 -0.069979
vn -0.226456 0.974021 0.000000
vn 0.000000 1.000000 0.000000
vn -0.183207 0.974021 -0.133107
vn -0.215372 0.974021 -0.069979
vn 0.000000 1.000000 0.000000
vn -0.133107 0.974021 -0.183207
vn -0.183207 0.974021 -0.133107
vn 0.000000 1.000000 0.000000
vn -0.069979 0.974021 -0.215372
vn -0.133107 0.974021 -0.183207
vn 0.000000 1.000000 0.000000
vn 0.000000 0.974021 -0.226456
vn -0.069979 0.974021 -0.215372
vn 0.000000 1.000000 0.000000
vn 0.069979 0.974021 -0.215372
vn 0.000000 0.974021 -0.226456
vn 0.000000 1.000000 0.000000
vn 0.133107 0.974021 -0.183207
vn 0.069979 0.974021 -0.215372
vn 0.000000 1.000000 0.000000
vn 0.183207 0.974021 -0.133107
vn 0.133107 0.974021 -0.183207
vn 0.000000 1.000000 0.000000
vn 0.215372 0.974021 -0.069979
vn 0.183207 0.974021 -0.133107
vn 0.000000 1.000000 0.000000
vn 0.226456 0.974021 0.000000
vn 0.215372 0.974021 -0.069979
vn 0.000000 1.000000 0.000000
vn 0.215372 0.974021 0.069979
vn 0.226456 0.974021 0.000000
vn 0.000000 1.000000 0.000000
vn 0.183207 0.974021 0.133107
vn 0.215372 0.974021 0.069979
vn 0.000000 1.000000 0.000000
vn 0.133107 0.974021 0.183207
vn 0.183207 0.974021 0.133107
vn 0.000000 1.000000 0.000000
vn 0.069978 0.974021 0.215372
vn 0.133107 0.974021 0.183207
vn 0.000000 1.000000 0.000000
vn 0.000000 0.974021 0.226456
vn 0.069978 0.974021 0.215372
vn 0.000000 1.000000 0.000000
vn -0.069978 0.974021 0.215372
vn 0.000000 0.974021 0.226456
vn 0.000000 1.000000 0.000000
vn -0.133107 0.974021 0.183207
vn -0.069978 0.974021 0.215372
vn 0.000000 1.000000 0.000000
vn -0.183207 0.974021 0.133107
vn -0.133107 0.974021 0.183207
vn 0.000000 1.000000 0.000000
vn -0.215372 0.974021 0.069978
vn -0.183207 0.974021 0.133107
vn 0.000000 1.000000 0.000000
vn -0.226456 0.974021 0.000000
vn -0.215372 0.974021 0.069978
vn 0.000000 1.000000 0.000000
vn -0.805427 0.578804 -0.127567
vn -0.805427 0.578804 -0.127567
vn -0.805427 0.578804 -0.127567
vn -0.805427 0.578804 -0.127567
vn -0.726586 0.578804 -0.370214
vn -0.726586 0.578804 -0.370214
vn -0.726586 0.578804 -0.370214
vn -0.726586 0.578804 -0.370214
vn -0.576622 0.578804 -0.576622
vn -0.576622 0.578804 -0.576622
vn -0.576622 0.578804 -0.576622
vn -0.576622 0.578804 -0.576622
vn -0.370214 0.578804 -0.726586
vn -0.370214 0.578804 -0.726586
vn -0.370214 0.578804 -0.726586
vn -0.370214 0.578804 -0.726586
vn -0.127567 0.578804 -0.805427
vn -0.127567 0.578804 -0.805427
vn -0.127567 0.578804 -0.805427
vn -0.127567 0.578804 -0.805427
vn 0.127567 0.578804 -0.805427
vn 0.127567 0.578804 -0.805427
vn 0.127567 0.578804 -0.805427
vn 0.127567 0.578804 -0.805427
vn 0.370214 0.578804 -0.726586
vn 0.370214 0.578804 -0.726586
vn 0.370214 0.578804 -0.726586
vn 0.370214 0.578804 -0.726586
vn 0.576622 0.578804 -0.576622
vn 0.576622 0.578804 -0.576622
vn 0.576622 0.578804 -0.576622
vn 0.576622 0.578804 -0.576622
vn 0.726586 0.578804 -0.370214
vn 0.726586 0.578804 -0.370214
vn 0.726586 0.578804 -0.370214
vn 0.726586 0.578804 -0.370214
vn 0.805427 0.578804 -0.127567
vn 0.805427 0.578804 -0.127567
vn 0.805427 0.578804 -0.127567
vn 0.805427 0.578804 -0.127567
vn 0.805427 0.578804 0.127567
vn 0.805427 0.578804 0.127567
vn 0.805427 0.578804 0.127567
vn 0.805427 0.578804 0.127567
vn 0.726586 0.578804 0.370214
vn 0.726586 0.578804 0.370214
vn 0.726586 0.578804 0.370214
vn 0.726586 0.578804 0.370214
vn 0.576623 0.578804 0.576621
vn 0.576623 0.578804 0.576621
vn 0.576623 0.578804 0.576621
vn 0.576623 0.578804 0.576621
vn 0.370214 0.578804 0.726586
vn 0.370214 0.578804 0.726586
vn 0.370214 0.578804 0.726586
vn 0.370214 0.578804 0.726586
vn 0.127567 0.578804 0.805427
vn 0.127567 0.578804 0.805427
vn 0.127567 0.578804 0.805427
vn 0.127567 0.578804 0.805427
vn -0.127567 0.578804 0.805427
vn -0.127567 0.578804 0.805427
vn -0.127567 0.578804 0.805427
vn -0.127567 0.578804 0.805427
vn -0.370213 0.578805 0.726586
vn -0.370213 0.578805 0.726586
vn -0.370213 0.578805 0.726586
vn -0.370213 0.578805 0.726586
vn -0.576622 0.578804 0.576621
vn -0.576622 0.578804 0.576621
vn -0.576622 0.578804 0.576621
vn -0.576622 0.578804 0.576621
vn -0.726586 0.578804 0.370214
vn -0.726586 0.578804 0.370214
vn -0.726586 0.578804 0.370214
vn -0.726586 0.578804 0.370214
vn -0.805427 0.578804 0.127565
vn -0.805427 0.578804 0.127565
vn -0.805427 0.578805 0.127566
vn -0.805427 0.578804 0.127565
s off
g Food_Bowl
usemtl Food_Bowl_initialShadingGroup
f 1/1/1 2/2/2 22/3/3 21/4/4
f 2/2/5 3/5/6 23/6/7 22/3/8
f 3/5/9 4/7/10 24/8/11 23/6/12
f 4/7/13 5/9/14 25/10/15 24/8/16
f 5/9/17 6/11/18 26/12/19 25/10/20
f 6/11/21 7/13/22 27/14/23 26/12/24
f 7/13/25 8/15/26 28/16/27 27/14/28
f 8/15/29 9/17/30 29/18/31 28/16/32
f 9/17/33 10/19/34 30/20/35 29/18/36
f 10/19/37 11/21/38 31/22/39 30/20/40
f 11/21/41 12/23/42 32/24/43 31/22/44
f 12/23/45 13/25/46 33/26/47 32/24/48
f 13/25/49 14/27/50 34/28/51 33/26/52
f 14/27/53 15/29/54 35/30/55 34/28/56
f 15/29/57 16/31/58 36/32/59 35/30/60
f 16/31/61 17/33/62 37/34/63 36/32/64
f 17/33/65 18/35/66 38/36/67 37/34/68
f 18/35/69 19/37/70 39/38/71 38/36/72
f 19/37/73 20/39/74 40/40/75 39/38/76
f 20/39/77 1/41/78 21/42/79 40/40/80
f 2/43/81 1/44/82 41/45/83
f 3/46/84 2/43/85 41/45/86
f 4/47/87 3/46/88 41/45/89
f 5/48/90 4/47/91 41/45/92
f 6/49/93 5/48/94 41/45/95
f 7/50/96 6/49/97 41/45/98
f 8/51/99 7/50/100 41/45/101
f 9/52/102 8/51/103 41/45/104
f 10/53/105 9/52/106 41/45/107
f 11/54/108 10/53/109 41/45/110
f 12/55/111 11/54/112 41/45/113
f 13/56/114 12/55/115 41/45/116
f 14/57/117 13/56/118 41/45/119
f 15/58/120 14/57/121 41/45/122
f 16/59/123 15/58/124 41/45/125
f 17/60/126 16/59/127 41/45/128
f 18/61/129 17/60/130 41/45/131
f 19/62/132 18/61/133 41/45/134
f 20/63/135 19/62/136 41/45/137
f 1/44/138 20/63/139 41/45/140
f 21/64/141 22/65/142 60/66/143 61/67/144
f 22/65/145 23/68/146 59/69/147 60/66/148
f 23/68/149 24/70/150 58/71/151 59/69/152
f 24/70/153 25/72/154 57/73/155 58/71/156
f 25/72/157 26/74/158 56/75/159 57/73/160
f 26/74/161 27/76/162 55/77/163 56/75/164
f 27/76/165 28/78/166 54/79/167 55/77/168
f 28/78/169 29/80/170 53/81/171 54/79/172
f 29/80/173 30/82/174 52/83/175 53/81/176
f 30/82/177 31/84/178 51/85/179 52/83/180
f 31/84/181 32/86/182 50/87/183 51/85/184
f 32/86/185 33/88/186 49/89/187 50/87/188
f 33/88/189 34/90/190 48/91/191 49/89/192
f 34/90/193 35/92/194 47/93/195 48/91/196
f 35/92/197 36/94/198 46/95/199 47/93/200
f 36/94/201 37/96/202 45/97/203 46/95/204
f 37/96/205 38/98/206 44/99/207 45/97/208
f 38/98/209 39/100/210 43/101/211 44/99/212
f 39/100/213 40/102/214 42/103/215 43/101/216
f 40/102/217 21/64/218 61/67/219 42/103/220
f 63/104/221 62/105/222 64/106/223
f 65/107/224 63/104/225 64/106/226
f 66/108/227 65/107/228 64/106/229
f 67/109/230 66/108/231 64/106/232
f 68/110/233 67/109/234 64/106/235
f 69/111/236 68/110/237 64/106/238
f 70/112/239 69/111/240 64/106/241
f 71/113/242 70/112/243 64/106/244
f 72/114/245 71/113/246 64/106/247
f 73/115/248 72/114/249 64/106/250
f 74/116/251 73/115/252 64/106/253
f 75/117/254 74/116/255 64/106/256
f 76/118/257 75/117/258 64/106/259
f 77/119/260 76/118/261 64/106/262
f 78/120/263 77/119/264 64/106/265
f 79/121/266 78/120/267 64/106/268
f 80/122/269 79/121/270 64/106/271
f 81/123/272 80/122/273 64/106/274
f 82/124/275 81/123/276 64/106/277
f 62/105/278 82/124/279 64/106/280
f 43/125/281 42/126/282 62/127/283 63/128/284
f 44/129/285 43/125/286 63/128/287 65/130/288
f 45/131/289 44/129/290 65/130/291 66/132/292
f 46/133/293 45/131/294 66/132/295 67/134/296
f 47/135/297 46/133/298 67/134/299 68/136/300
f 48/137/301 47/135/302 68/136/303 69/138/304
f 49/139/305 48/137/306 69/138/307 70/140/308
f 50/141/309 49/139/310 70/140/311 71/142/312
f 51/143/313 50/141/314 71/142/315 72/144/316
f 52/145/317 51/143/318 72/144/319 73/146/320
f 53/147/321 52/145/322 73/146/323 74/148/324
f 54/149/325 53/147/326 74/148/327 75/150/328
f 55/151/329 54/149/330 75/150/331 76/152/332
f 56/153/333 55/151/334 76/152/335 77/154/336
f 57/155/337 56/153/338 77/154/339 78/156/340
f 58/157/341 57/158/342 78/159/343 79/160/344
f 59/161/345 58/157/346 79/160/347 80/162/348
f 60/163/349 59/161/350 80/162/351 81/164/352
f 61/165/353 60/163/354 81/164/355 82/166/356
f 42/126/357 61/165/358 82/166/359 62/127/360
