# This file uses centimeters as units for non-parametric coordinates.

mtllib Food.mtl
g default
v -2.025646 -0.032489 4.277199
v -1.862975 -0.032489 4.277199
v -2.025646 0.032489 4.277199
v -1.862975 0.032489 4.277199
v -1.944310 -0.056831 4.269198
v -1.944310 0.056831 4.269198
v -1.944310 0.038207 4.370550
v -1.944310 -0.038207 4.370550
v -1.895872 -0.032489 4.423485
v -1.895872 0.032489 4.423485
v -1.992748 -0.032489 4.423485
v -1.992748 0.032489 4.423485
v -1.805041 -0.032489 4.340851
v -1.805041 0.032489 4.340851
v -1.823781 0.032489 4.381706
v -1.823781 -0.032489 4.381706
v -2.083579 -0.032489 4.340851
v -2.083579 0.032489 4.340851
v -2.064841 -0.032489 4.381706
v -2.064841 0.032489 4.381706
v -2.043051 0.000000 4.269198
v -2.113380 0.000000 4.331013
v -2.090792 0.000000 4.399487
v -2.003178 0.000000 4.443211
v -1.944310 0.000000 4.387810
v -1.885443 0.000000 4.443211
v -1.797829 0.000000 4.399487
v -1.775241 0.000000 4.331013
v -1.845570 0.000000 4.269198
v -2.025646 0.032489 4.000000
v -1.944310 0.056831 4.000000
v -1.862975 0.032489 4.000000
v -1.845570 0.000000 4.000000
v -1.862975 -0.032489 4.000000
v -1.944310 -0.056831 4.000000
v -2.025646 -0.032489 4.000000
v -2.043051 0.000000 4.000000
v -2.058089 0.045447 3.887110
v -1.944310 0.079499 3.887110
v -1.830532 0.045447 3.887110
v -1.806185 0.000000 3.887110
v -1.830532 -0.045447 3.887110
v -1.944310 -0.079499 3.887110
v -2.058089 -0.045447 3.887110
v -2.082436 0.000000 3.887110
v -2.112949 0.089921 3.694003
v -1.944310 0.134412 3.690969
v -1.775671 0.089921 3.694003
v -1.723600 0.000000 3.697036
v -1.775671 -0.089921 3.694003
v -1.944310 -0.134412 3.690969
v -2.112949 -0.089921 3.694003
v -2.165020 0.000000 3.697036
v -2.128263 0.098087 3.557543
v -1.944310 0.146618 3.554234
v -1.760357 0.098087 3.557543
v -1.703558 0.000000 3.560852
v -1.760357 -0.098087 3.557543
v -1.944310 -0.146618 3.554234
v -2.128263 -0.098087 3.557543
v -2.185063 0.000000 3.560852
v -2.061740 0.062616 3.445594
v -1.944310 0.093596 3.443482
v -1.826880 0.062616 3.445594
v -1.790622 0.000000 3.447707
v -1.826880 -0.062616 3.445594
v -1.944310 -0.093596 3.443482
v -2.061740 -0.062616 3.445594
v -2.097999 0.000000 3.447707
v -1.826880 -0.000291 3.423305
v -1.944310 -0.000582 3.402873
v -2.061740 -0.000291 3.423305
vt 0.656167 0.120449
vt 0.645927 0.120449
vt 0.645927 0.111369
vt 0.654634 0.112979
vt 0.645927 0.129529
vt 0.654634 0.127921
vt 0.749690 0.043536
vt 0.750144 0.030990
vt 0.758419 0.036064
vt 0.755424 0.043536
vt 0.645927 0.097855
vt 0.645927 0.094371
vt 0.654634 0.098968
vt 0.654634 0.101858
vt 0.748751 0.065733
vt 0.749204 0.078277
vt 0.743469 0.078277
vt 0.740474 0.070807
vt 0.750144 0.056082
vt 0.758419 0.051008
vt 0.748751 0.090823
vt 0.740474 0.085749
vt 0.654634 0.141931
vt 0.645927 0.146527
vt 0.645927 0.143043
vt 0.654634 0.139041
vt 0.647495 0.155857
vt 0.636647 0.155857
vt 0.633961 0.147151
vt 0.642898 0.147151
vt 0.742839 0.059686
vt 0.745149 0.056796
vt 0.753745 0.022055
vt 0.756056 0.024945
vt 0.662148 0.147568
vt 0.659464 0.156275
vt 0.648616 0.156275
vt 0.653211 0.147568
vt 0.756056 0.062126
vt 0.753745 0.065017
vt 0.745149 0.099759
vt 0.742839 0.096869
vt 0.662148 0.164981
vt 0.653211 0.164981
vt 0.637221 0.141931
vt 0.637221 0.139041
vt 0.637221 0.127921
vt 0.635689 0.120449
vt 0.637221 0.112979
vt 0.637221 0.101858
vt 0.637221 0.098968
vt 0.633961 0.164564
vt 0.642898 0.164564
vt 0.764434 0.078277
vt 0.764434 0.090823
vt 0.764434 0.065733
vt 0.699254 0.120658
vt 0.714484 0.120658
vt 0.714484 0.129365
vt 0.698801 0.129365
vt 0.698801 0.111952
vt 0.714484 0.111952
vt 0.734461 0.043536
vt 0.734461 0.030990
vt 0.734461 0.056082
vt 0.682159 0.120658
vt 0.682159 0.111952
vt 0.697841 0.111952
vt 0.697389 0.120658
vt 0.682159 0.129365
vt 0.697841 0.129365
vt 0.770821 0.078277
vt 0.770821 0.095828
vt 0.770821 0.060727
vt 0.720871 0.120658
vt 0.720871 0.132837
vt 0.720871 0.108478
vt 0.728074 0.043536
vt 0.728074 0.025986
vt 0.728074 0.061085
vt 0.675772 0.120658
vt 0.675772 0.108478
vt 0.675772 0.132837
vt 0.781918 0.078277
vt 0.781746 0.104289
vt 0.781746 0.052266
vt 0.731624 0.120658
vt 0.731796 0.144756
vt 0.731796 0.096559
vt 0.716977 0.043536
vt 0.717149 0.017524
vt 0.717149 0.069547
vt 0.665018 0.120658
vt 0.664846 0.096559
vt 0.664846 0.144756
vt 0.789654 0.078277
vt 0.789466 0.106651
vt 0.789466 0.049904
vt 0.739328 0.120658
vt 0.739516 0.146944
vt 0.739516 0.094371
vt 0.709241 0.043536
vt 0.709428 0.015162
vt 0.709428 0.071910
vt 0.657313 0.120658
vt 0.657126 0.094371
vt 0.657126 0.146944
vt 0.642723 0.028169
vt 0.671097 0.015162
vt 0.671097 0.029372
vt 0.652983 0.037674
vt 0.699470 0.028169
vt 0.689209 0.037674
vt 0.708231 0.054454
vt 0.694802 0.054454
vt 0.699470 0.080742
vt 0.689209 0.071235
vt 0.671097 0.093747
vt 0.671097 0.079538
vt 0.642723 0.080742
vt 0.652983 0.071235
vt 0.633961 0.054454
vt 0.647390 0.054454
vt 0.671097 0.054611
vt 0.652983 0.054533
vt 0.689209 0.054533
vn 0.000000 0.352926 0.935651
vn 0.000000 0.000000 1.000000
vn -0.018592 0.000000 0.999827
vn -0.191550 0.520809 0.831905
vn 0.018587 0.000000 0.999827
vn 0.000000 0.000000 1.000000
vn 0.000000 0.352926 0.935651
vn 0.191553 0.520806 0.831907
vn 0.000000 -0.999740 0.022816
vn 0.213828 -0.976724 0.016984
vn 0.135415 -0.988089 0.073096
vn 0.000000 -0.995061 0.099261
vn 0.935399 0.000000 0.353595
vn 0.935399 0.000000 0.353594
vn 0.714186 0.645796 0.269973
vn 0.714187 0.645796 0.269973
vn 0.213828 0.976724 0.016984
vn 0.000000 0.999740 0.022816
vn 0.000000 0.995061 0.099261
vn 0.135415 0.988089 0.073096
vn -0.213826 -0.976724 0.016984
vn 0.000000 -0.999740 0.022816
vn 0.000000 -0.995061 0.099261
vn -0.135415 -0.988089 0.073096
vn 0.000000 0.999740 0.022816
vn -0.213826 0.976724 0.016984
vn -0.135415 0.988089 0.073096
vn 0.000000 0.995061 0.099261
vn -0.714187 0.645799 0.269963
vn -0.935403 0.000000 0.353583
vn -0.935403 0.000000 0.353583
vn -0.714187 0.645799 0.269963
vn 0.699272 0.000000 -0.714856
vn 0.699272 0.000000 -0.714855
vn 0.571716 0.575805 -0.584457
vn 0.571716 0.575805 -0.584457
vn 0.213828 0.976724 0.016984
vn 0.135415 0.988089 0.073096
vn 0.000000 1.000000 0.000000
vn 0.000000 1.000000 0.000000
vn -0.191550 0.520809 0.831905
vn -0.018592 0.000000 0.999827
vn 0.471988 0.000000 0.881605
vn 0.373401 0.611656 0.697458
vn 0.135415 -0.988089 0.073096
vn 0.213828 -0.976724 0.016984
vn 0.000000 -1.000000 0.000000
vn 0.000000 -1.000000 0.000000
vn -0.571715 0.575811 -0.584452
vn -0.699275 0.000000 -0.714853
vn -0.699275 0.000000 -0.714853
vn -0.571715 0.575811 -0.584452
vn -0.213826 -0.976724 0.016984
vn -0.135415 -0.988089 0.073096
vn 0.000000 -1.000000 0.000000
vn 0.000000 -1.000000 0.000000
vn -0.471985 0.000000 0.881606
vn 0.018587 0.000000 0.999827
vn 0.191553 0.520806 0.831907
vn -0.373398 0.611657 0.697459
vn -0.135415 0.988089 0.073096
vn -0.213826 0.976724 0.016984
vn 0.000000 1.000000 0.000000
vn 0.000000 1.000000 0.000000
vn -0.699275 0.000000 -0.714853
vn -0.699275 0.000000 -0.714853
vn -0.571715 -0.575811 -0.584452
vn -0.571715 -0.575811 -0.584452
vn -0.935403 0.000000 0.353583
vn -0.935403 0.000000 0.353583
vn -0.714187 -0.645799 0.269963
vn -0.714187 -0.645799 0.269963
vn 0.191553 -0.520806 0.831907
vn 0.018587 0.000000 0.999827
vn -0.471985 0.000000 0.881606
vn -0.373398 -0.611657 0.697459
vn 0.191553 -0.520806 0.831907
vn 0.000000 -0.352926 0.935651
vn 0.000000 0.000000 1.000000
vn 0.018587 0.000000 0.999827
vn -0.018592 0.000000 0.999827
vn 0.000000 0.000000 1.000000
vn 0.000000 -0.352926 0.935651
vn -0.191550 -0.520809 0.831905
vn 0.471988 0.000000 0.881605
vn -0.018592 0.000000 0.999827
vn -0.191550 -0.520809 0.831905
vn 0.373401 -0.611656 0.697458
vn 0.714187 -0.645796 0.269973
vn 0.935399 0.000000 0.353594
vn 0.935399 0.000000 0.353595
vn 0.714187 -0.645796 0.269973
vn 0.571716 -0.575805 -0.584457
vn 0.699272 0.000000 -0.714855
vn 0.699272 0.000000 -0.714856
vn 0.571716 -0.575805 -0.584457
vn -0.213826 0.976724 0.016984
vn 0.000000 0.999740 0.022816
vn 0.000000 0.997190 0.074909
vn -0.285971 0.955539 0.071870
vn 0.285973 0.955539 0.071869
vn 0.000000 0.997190 0.074909
vn 0.000000 0.999740 0.022816
vn 0.213828 0.976724 0.016984
vn 1.000000 0.000000 0.000000
vn 0.992246 0.000000 0.124288
vn 0.876130 0.469361 0.109982
vn 0.881478 0.472225 0.000000
vn 0.881478 -0.472225 0.000000
vn 0.876130 -0.469361 0.109982
vn 0.992246 0.000000 0.124288
vn 1.000000 0.000000 0.000000
vn 0.000000 -0.999740 0.022816
vn 0.000000 -0.997190 0.074909
vn 0.285973 -0.955539 0.071869
vn 0.213828 -0.976724 0.016984
vn -0.285971 -0.955539 0.071870
vn 0.000000 -0.997190 0.074909
vn 0.000000 -0.999740 0.022816
vn -0.213826 -0.976724 0.016984
vn -0.992246 0.000000 0.124288
vn -0.876130 -0.469362 0.109981
vn -0.881476 -0.472229 0.000000
vn -1.000000 0.000000 0.000000
vn -0.876130 0.469362 0.109981
vn -0.992246 0.000000 0.124288
vn -1.000000 0.000000 0.000000
vn -0.881476 0.472229 0.000000
vn -0.285971 0.955539 0.071870
vn 0.000000 0.997190 0.074909
vn -0.260564 0.930884 0.256048
vn -0.261221 0.931254 0.254027
vn 0.000000 0.997190 0.074909
vn 0.285973 0.955539 0.071869
vn 0.261222 0.931254 0.254027
vn 0.260565 0.930884 0.256049
vn 0.876130 0.469361 0.109982
vn 0.992246 0.000000 0.124288
vn 0.819686 0.464088 0.335763
vn 0.819002 0.464436 0.336949
vn 0.992246 0.000000 0.124288
vn 0.876130 -0.469361 0.109982
vn 0.819002 -0.464436 0.336949
vn 0.819686 -0.464088 0.335763
vn 0.285973 -0.955539 0.071869
vn 0.000000 -0.997190 0.074909
vn 0.260565 -0.930884 0.256049
vn 0.261222 -0.931253 0.254028
vn 0.000000 -0.997190 0.074909
vn -0.285971 -0.955539 0.071870
vn -0.261221 -0.931254 0.254027
vn -0.260564 -0.930884 0.256048
vn -0.876130 -0.469362 0.109981
vn -0.992246 0.000000 0.124288
vn -0.819689 -0.464085 0.335761
vn -0.819004 -0.464433 0.336948
vn -0.992246 0.000000 0.124288
vn -0.876130 0.469362 0.109981
vn -0.819004 0.464433 0.336948
vn -0.819689 0.464085 0.335761
vn -0.261221 0.931254 0.254027
vn -0.260564 0.930884 0.256048
vn -0.255054 0.927645 0.272805
vn -0.255054 0.927645 0.272805
vn 0.260565 0.930884 0.256049
vn 0.261222 0.931254 0.254027
vn 0.255055 0.927644 0.272806
vn 0.255055 0.927644 0.272806
vn 0.819002 0.464436 0.336949
vn 0.819686 0.464088 0.335763
vn 0.813671 0.467088 0.346074
vn 0.813671 0.467088 0.346074
vn 0.819686 -0.464088 0.335763
vn 0.819002 -0.464436 0.336949
vn 0.813671 -0.467088 0.346074
vn 0.813671 -0.467088 0.346074
vn 0.261222 -0.931253 0.254028
vn 0.260565 -0.930884 0.256049
vn 0.255055 -0.927644 0.272806
vn 0.255055 -0.927644 0.272806
vn -0.260564 -0.930884 0.256048
vn -0.261221 -0.931254 0.254027
vn -0.255054 -0.927645 0.272805
vn -0.255054 -0.927645 0.272805
vn -0.819004 -0.464433 0.336948
vn -0.819689 -0.464085 0.335761
vn -0.813674 -0.467085 0.346073
vn -0.813674 -0.467085 0.346073
vn -0.819689 0.464085 0.335761
vn -0.819004 0.464433 0.336948
vn -0.813674 0.467085 0.346073
vn -0.813674 0.467085 0.346073
vn -0.252703 0.963712 0.086027
vn -0.252703 0.963712 0.086027
vn -0.252703 0.963712 0.086027
vn -0.252703 0.963712 0.086027
vn 0.252703 0.963712 0.086027
vn 0.252703 0.963712 0.086027
vn 0.252703 0.963712 0.086028
vn 0.252703 0.963712 0.086027
vn 0.856625 0.500300 0.126071
vn 0.856625 0.500300 0.126071
vn 0.856625 0.500300 0.126071
vn 0.856625 0.500300 0.126071
vn 0.856625 -0.500300 0.126071
vn 0.856625 -0.500300 0.126071
vn 0.856625 -0.500300 0.126071
vn 0.856625 -0.500300 0.126071
vn 0.252703 -0.963712 0.086028
vn 0.252703 -0.963712 0.086028
vn 0.252703 -0.963712 0.086028
vn 0.252703 -0.963712 0.086028
vn -0.252703 -0.963712 0.086028
vn -0.252703 -0.963712 0.086028
vn -0.252703 -0.963712 0.086028
vn -0.252703 -0.963712 0.086028
vn -0.856625 -0.500300 0.126071
vn -0.856625 -0.500300 0.126071
vn -0.856625 -0.500300 0.126071
vn -0.856625 -0.500300 0.126071
vn -0.856625 0.500300 0.126071
vn -0.856625 0.500300 0.126071
vn -0.856625 0.500300 0.126071
vn -0.856625 0.500300 0.126071
vn -0.238628 0.875908 -0.419336
vn -0.238628 0.875908 -0.419336
vn -0.238628 0.875908 -0.419336
vn -0.238628 0.875908 -0.419336
vn 0.238628 0.875908 -0.419335
vn 0.238628 0.875908 -0.419335
vn 0.238628 0.875908 -0.419335
vn 0.238628 0.875908 -0.419335
vn 0.725851 0.401474 -0.558533
vn 0.725851 0.401474 -0.558533
vn 0.725851 0.401474 -0.558533
vn 0.725851 0.401474 -0.558533
vn 0.725851 -0.401474 -0.558533
vn 0.725851 -0.401474 -0.558533
vn 0.725851 -0.401474 -0.558533
vn 0.725851 -0.401474 -0.558533
vn 0.238628 -0.875908 -0.419335
vn 0.238628 -0.875908 -0.419335
vn 0.238628 -0.875908 -0.419335
vn 0.238628 -0.875908 -0.419335
vn -0.238628 -0.875908 -0.419336
vn -0.238628 -0.875908 -0.419336
vn -0.238628 -0.875908 -0.419336
vn -0.238628 -0.875908 -0.419336
vn -0.725850 -0.401475 -0.558534
vn -0.725850 -0.401475 -0.558534
vn -0.725850 -0.401475 -0.558534
vn -0.725850 -0.401475 -0.558534
vn -0.725850 0.401475 -0.558534
vn -0.725850 0.401475 -0.558534
vn -0.725850 0.401475 -0.558534
vn -0.725850 0.401475 -0.558534
vn -0.136399 0.368242 -0.919670
vn -0.136399 0.368242 -0.919670
vn -0.147476 -0.001080 -0.989065
vn -0.147472 0.001077 -0.989066
vn -0.558307 0.003172 -0.829629
vn -0.534047 0.282362 -0.796910
vn -0.558339 -0.002552 -0.829609
vn 0.136399 0.368242 -0.919670
vn 0.136399 0.368242 -0.919670
vn 0.147471 0.001077 -0.989066
vn 0.147475 -0.001080 -0.989065
vn 0.558313 0.003172 -0.829625
vn 0.558345 -0.002552 -0.829605
vn 0.534052 0.282361 -0.796907
vn 0.558313 0.003172 -0.829625
vn 0.536897 -0.284093 -0.794376
vn 0.558345 -0.002552 -0.829605
vn 0.147475 -0.001080 -0.989065
vn 0.147471 0.001077 -0.989066
vn 0.137623 -0.371737 -0.918080
vn 0.137623 -0.371737 -0.918080
vn -0.147472 0.001077 -0.989066
vn -0.147476 -0.001080 -0.989065
vn -0.137624 -0.371737 -0.918080
vn -0.137624 -0.371737 -0.918080
vn -0.558307 0.003172 -0.829629
vn -0.558339 -0.002552 -0.829609
vn -0.536890 -0.284095 -0.794380
s off
g Food
usemtl Food_initialShadingGroup
f 7/1/1 25/2/2 26/3/3 10/4/4
f 24/5/5 25/2/6 7/1/7 12/6/8
f 5/7/9 2/8/10 9/9/11 8/10/12
f 27/11/13 28/12/14 14/13/15 15/14/16
f 4/15/17 6/16/18 7/17/19 10/18/20
f 1/19/21 5/7/22 8/10/23 11/20/24
f 6/16/25 3/21/26 12/22/27 7/17/28
f 18/23/29 22/24/30 23/25/31 20/26/32
f 28/27/33 29/28/34 4/29/35 14/30/36
f 4/15/37 10/18/38 15/31/39 14/32/40
f 10/4/41 26/3/42 27/11/43 15/14/44
f 9/9/45 2/8/46 13/33/47 16/34/48
f 3/35/49 21/36/50 22/37/51 18/38/52
f 1/19/53 11/20/54 19/39/55 17/40/56
f 23/25/57 24/5/58 12/6/59 20/26/60
f 12/22/61 3/21/62 18/41/63 20/42/64
f 22/37/65 21/36/66 1/43/67 17/44/68
f 23/25/69 22/24/70 17/45/71 19/46/72
f 11/47/73 24/5/74 23/25/75 19/46/76
f 11/47/77 8/48/78 25/2/79 24/5/80
f 26/3/81 25/2/82 8/48/83 9/49/84
f 27/11/85 26/3/86 9/49/87 16/50/88
f 13/51/89 28/12/90 27/11/91 16/50/92
f 2/52/93 29/28/94 28/27/95 13/53/96
f 3/21/97 6/16/98 31/54/99 30/55/100
f 32/56/101 31/54/102 6/16/103 4/15/104
f 29/57/105 33/58/106 32/59/107 4/60/108
f 2/61/109 34/62/110 33/58/111 29/57/112
f 5/7/113 35/63/114 34/64/115 2/8/116
f 36/65/117 35/63/118 5/7/119 1/19/120
f 37/66/121 36/67/122 1/68/123 21/69/124
f 30/70/125 37/66/126 21/69/127 3/71/128
f 30/55/129 31/54/130 39/72/131 38/73/132
f 31/54/133 32/56/134 40/74/135 39/72/136
f 32/59/137 33/58/138 41/75/139 40/76/140
f 33/58/141 34/62/142 42/77/143 41/75/144
f 34/64/145 35/63/146 43/78/147 42/79/148
f 35/63/149 36/65/150 44/80/151 43/78/152
f 36/67/153 37/66/154 45/81/155 44/82/156
f 37/66/157 30/70/158 38/83/159 45/81/160
f 38/73/161 39/72/162 47/84/163 46/85/164
f 39/72/165 40/74/166 48/86/167 47/84/168
f 40/76/169 41/75/170 49/87/171 48/88/172
f 41/75/173 42/77/174 50/89/175 49/87/176
f 42/79/177 43/78/178 51/90/179 50/91/180
f 43/78/181 44/80/182 52/92/183 51/90/184
f 44/82/185 45/81/186 53/93/187 52/94/188
f 45/81/189 38/83/190 46/95/191 53/93/192
f 46/85/193 47/84/194 55/96/195 54/97/196
f 47/84/197 48/86/198 56/98/199 55/96/200
f 48/88/201 49/87/202 57/99/203 56/100/204
f 49/87/205 50/89/206 58/101/207 57/99/208
f 50/91/209 51/90/210 59/102/211 58/103/212
f 51/90/213 52/92/214 60/104/215 59/102/216
f 52/94/217 53/93/218 61/105/219 60/106/220
f 53/93/221 46/95/222 54/107/223 61/105/224
f 54/108/225 55/109/226 63/110/227 62/111/228
f 55/109/229 56/112/230 64/113/231 63/110/232
f 56/112/233 57/114/234 65/115/235 64/113/236
f 57/114/237 58/116/238 66/117/239 65/115/240
f 58/116/241 59/118/242 67/119/243 66/117/244
f 59/118/245 60/120/246 68/121/247 67/119/248
f 60/120/249 61/122/250 69/123/251 68/121/252
f 61/122/253 54/108/254 62/111/255 69/123/256
f 62/111/257 63/110/258 71/124/259 72/125/260
f 69/123/261 62/111/262 72/125/263
f 63/110/264 64/113/265 70/126/266 71/124/267
f 65/115/268 70/126/269 64/113/270
f 65/115/271 66/117/272 70/126/273
f 71/124/274 70/126/275 66/117/276 67/119/277
f 72/125/278 71/124/279 67/119/280 68/121/281
f 69/123/282 72/125/283 68/121/284
