# This file uses centimeters as units for non-parametric coordinates.

mtllib Newspaper_Roll.mtl
g default
v -0.952096 0.000000 0.496570
v -0.954441 0.014803 0.496570
v -0.961245 0.028157 0.496570
v -0.971843 0.038755 0.496570
v -0.985197 0.045559 0.496570
v -1.000000 0.047904 0.496570
v -1.014803 0.045559 0.496570
v -1.028157 0.038755 0.496570
v -1.038755 0.028157 0.496570
v -1.045559 0.014803 0.496570
v -1.047904 0.000000 0.496570
v -1.045559 -0.014803 0.496570
v -1.038755 -0.028157 0.496570
v -1.028157 -0.038755 0.496570
v -1.014803 -0.045559 0.496570
v -1.000000 -0.047904 0.496570
v -0.985197 -0.045559 0.496570
v -0.971843 -0.038755 0.496570
v -0.961245 -0.028157 0.496570
v -0.954441 -0.014803 0.496570
v -0.952096 0.000000 2.049834
v -0.954441 0.014803 2.049834
v -0.961245 0.028157 2.049834
v -0.971843 0.038755 2.049834
v -0.985197 0.045559 2.049834
v -1.000000 0.047904 2.049834
v -1.014803 0.045559 2.049834
v -1.028157 0.038755 2.049834
v -1.038755 0.028157 2.049834
v -1.045559 0.014803 2.049834
v -1.047904 0.000000 2.049834
v -1.045559 -0.014803 2.049834
v -1.038755 -0.028157 2.049834
v -1.028157 -0.038755 2.049834
v -1.014803 -0.045559 2.049834
v -1.000000 -0.047904 2.049834
v -0.985197 -0.045559 2.049834
v -0.971843 -0.038755 2.049834
v -0.961245 -0.028157 2.049834
v -0.954441 -0.014803 2.049834
v -0.888173 0.000000 2.049834
v -0.893646 0.034556 2.049834
v -0.909530 0.065730 2.049834
v -0.934270 0.090470 2.049834
v -0.965444 0.106354 2.049834
v -1.000000 0.111827 2.049834
v -1.034556 0.106354 2.049834
v -1.065730 0.090470 2.049834
v -1.090470 0.065730 2.049834
v -1.106354 0.034556 2.049834
v -1.111827 0.000000 2.049834
v -1.106354 -0.034556 2.049834
v -1.090470 -0.065730 2.049834
v -1.065730 -0.090470 2.049834
v -1.034556 -0.106354 2.049834
v -1.000000 -0.111827 2.049834
v -0.965444 -0.106354 2.049834
v -0.934270 -0.090470 2.049834
v -0.909530 -0.065730 2.049834
v -0.893646 -0.034556 2.049834
v -0.888173 0.000000 0.496570
v -0.893646 0.034556 0.496570
v -0.909530 0.065730 0.496570
v -0.934270 0.090470 0.496570
v -0.965444 0.106354 0.496570
v -1.000000 0.111827 0.496570
v -1.034556 0.106354 0.496570
v -1.065730 0.090470 0.496570
v -1.090470 0.065730 0.496570
v -1.106354 0.034556 0.496570
v -1.111827 0.000000 0.496570
v -1.106354 -0.034556 0.496570
v -1.090470 -0.065730 0.496570
v -1.065730 -0.090470 0.496570
v -1.034556 -0.106354 0.496570
v -1.000000 -0.111827 0.496570
v -0.965444 -0.106354 0.496570
v -0.934270 -0.090470 0.496570
v -0.909530 -0.065730 0.496570
v -0.893646 -0.034556 0.496570
v -0.903880 0.000000 1.273202
v -0.908584 -0.029703 1.273202
v -0.922237 -0.056498 1.273202
v -0.943502 -0.077763 1.273202
v -0.970297 -0.091416 1.273202
v -1.000000 -0.096121 1.273202
v -1.029703 -0.091416 1.273202
v -1.056498 -0.077763 1.273202
v -1.077763 -0.056498 1.273202
v -1.091416 -0.029703 1.273202
v -1.096121 0.000000 1.273202
v -1.091416 0.029703 1.273202
v -1.077763 0.056498 1.273202
v -1.056498 0.077763 1.273202
v -1.029703 0.091416 1.273202
v -1.000000 0.096121 1.273202
v -0.970297 0.091416 1.273202
v -0.943502 0.077763 1.273202
v -0.922237 0.056498 1.273202
v -0.908584 0.029703 1.273202
vt 0.326751 0.231850
vt 0.329011 0.231903
vt 0.331272 0.231956
vt 0.333532 0.232009
vt 0.335793 0.232061
vt 0.338053 0.232114
vt 0.340314 0.232167
vt 0.342574 0.232220
vt 0.344834 0.232273
vt 0.347095 0.232326
vt 0.349355 0.232379
vt 0.351616 0.232432
vt 0.353876 0.232484
vt 0.356136 0.232537
vt 0.358397 0.232590
vt 0.360657 0.232643
vt 0.362918 0.232696
vt 0.365178 0.232749
vt 0.367438 0.232802
vt 0.369699 0.232855
vt 0.371959 0.232907
vt 0.327615 0.048002
vt 0.301024 0.030496
vt 0.301395 0.028881
vt 0.302246 0.027461
vt 0.303495 0.026373
vt 0.305019 0.025724
vt 0.306669 0.025578
vt 0.308283 0.025949
vt 0.309703 0.026800
vt 0.310791 0.028049
vt 0.311440 0.029573
vt 0.311586 0.031223
vt 0.311215 0.032837
vt 0.310364 0.034257
vt 0.309115 0.035345
vt 0.307591 0.035994
vt 0.305942 0.036140
vt 0.304327 0.035770
vt 0.302907 0.034918
vt 0.301819 0.033669
vt 0.301170 0.032145
vt 0.294318 0.033862
vt 0.260094 0.234012
vt 0.263420 0.234012
vt 0.266745 0.234012
vt 0.270071 0.234012
vt 0.273396 0.234012
vt 0.276721 0.234012
vt 0.280044 0.234012
vt 0.283368 0.234012
vt 0.286690 0.234012
vt 0.290066 0.234012
vt 0.293441 0.234012
vt 0.296764 0.234012
vt 0.300087 0.234012
vt 0.303411 0.234012
vt 0.306736 0.234012
vt 0.310061 0.234012
vt 0.313386 0.234012
vt 0.316712 0.234012
vt 0.320038 0.234012
vt 0.323362 0.234012
vt 0.256770 0.048435
vt 0.260094 0.048435
vt 0.263420 0.048435
vt 0.266745 0.048435
vt 0.270071 0.048435
vt 0.273396 0.048435
vt 0.276721 0.048435
vt 0.280045 0.048435
vt 0.283368 0.048435
vt 0.286690 0.048435
vt 0.290066 0.048435
vt 0.293441 0.048435
vt 0.296764 0.048435
vt 0.300087 0.048435
vt 0.303411 0.048435
vt 0.306736 0.048435
vt 0.310061 0.048435
vt 0.313386 0.048435
vt 0.316712 0.048435
vt 0.320038 0.048435
vt 0.347787 0.029317
vt 0.340746 0.029886
vt 0.340356 0.028276
vt 0.339487 0.026866
vt 0.338226 0.025793
vt 0.336694 0.025162
vt 0.335043 0.025036
vt 0.333433 0.025426
vt 0.332023 0.026294
vt 0.330950 0.027556
vt 0.330319 0.029087
vt 0.330193 0.030739
vt 0.330583 0.032348
vt 0.331451 0.033759
vt 0.332713 0.034832
vt 0.334244 0.035462
vt 0.335895 0.035589
vt 0.337505 0.035199
vt 0.338915 0.034331
vt 0.339988 0.033069
vt 0.340619 0.031537
vt 0.256770 0.141223
vt 0.323362 0.141223
vt 0.320038 0.141223
vt 0.316712 0.141223
vt 0.313386 0.141223
vt 0.310061 0.141223
vt 0.306736 0.141223
vt 0.303411 0.141223
vt 0.300087 0.141223
vt 0.296764 0.141223
vt 0.293441 0.141223
vt 0.290066 0.141223
vt 0.286690 0.141223
vt 0.283368 0.141223
vt 0.280044 0.141223
vt 0.276721 0.141223
vt 0.273396 0.141223
vt 0.270071 0.141223
vt 0.266745 0.141223
vt 0.263420 0.141223
vt 0.260094 0.141223
vt 0.295832 0.037419
vt 0.294318 0.033862
vt 0.256770 0.234012
vt 0.298372 0.040334
vt 0.301688 0.042322
vt 0.305456 0.043188
vt 0.309308 0.042847
vt 0.312865 0.041332
vt 0.315780 0.038792
vt 0.317768 0.035476
vt 0.318633 0.031708
vt 0.318292 0.027857
vt 0.316778 0.024299
vt 0.314238 0.021384
vt 0.310922 0.019396
vt 0.307154 0.018531
vt 0.303303 0.018872
vt 0.299745 0.020386
vt 0.296830 0.022926
vt 0.294842 0.026242
vt 0.293977 0.030010
vt 0.370563 0.049007
vt 0.372824 0.049060
vt 0.301170 0.032145
vt 0.368303 0.048954
vt 0.366042 0.048901
vt 0.363782 0.048848
vt 0.361521 0.048795
vt 0.359261 0.048742
vt 0.357001 0.048689
vt 0.354740 0.048637
vt 0.352480 0.048584
vt 0.350219 0.048531
vt 0.347959 0.048478
vt 0.345699 0.048425
vt 0.343438 0.048372
vt 0.341178 0.048319
vt 0.338917 0.048266
vt 0.336657 0.048214
vt 0.334397 0.048161
vt 0.332136 0.048108
vt 0.329876 0.048055
vt 0.347491 0.033172
vt 0.323362 0.048435
vt 0.346019 0.036748
vt 0.343514 0.039693
vt 0.340222 0.041720
vt 0.336464 0.042630
vt 0.332609 0.042334
vt 0.329034 0.040862
vt 0.326089 0.038357
vt 0.324062 0.035065
vt 0.323152 0.031307
vt 0.323447 0.027452
vt 0.324919 0.023877
vt 0.327424 0.020932
vt 0.330717 0.018905
vt 0.334474 0.017995
vt 0.338329 0.018290
vt 0.341904 0.019762
vt 0.344849 0.022267
vt 0.346876 0.025560
vn -0.951057 -0.309017 0.000000
vn -1.000000 -0.000002 0.000000
vn -1.000000 -0.000002 0.000000
vn -0.951057 -0.309017 0.000000
vn -0.809017 -0.587785 0.000000
vn -0.809017 -0.587785 0.000000
vn -0.587785 -0.809017 0.000000
vn -0.587785 -0.809017 0.000000
vn -0.309017 -0.951056 0.000000
vn -0.309017 -0.951056 0.000000
vn -0.000001 -1.000000 0.000000
vn -0.000001 -1.000000 0.000000
vn 0.309017 -0.951056 0.000000
vn 0.309017 -0.951056 0.000000
vn 0.587785 -0.809017 0.000000
vn 0.587785 -0.809017 0.000000
vn 0.809017 -0.587785 0.000000
vn 0.809017 -0.587785 0.000000
vn 0.951057 -0.309017 0.000000
vn 0.951057 -0.309017 0.000000
vn 1.000000 0.000000 0.000000
vn 1.000000 0.000000 0.000000
vn 0.951057 0.309017 -0.000000
vn 0.951057 0.309017 -0.000000
vn 0.809017 0.587785 -0.000000
vn 0.809017 0.587785 -0.000000
vn 0.587785 0.809017 -0.000000
vn 0.587785 0.809017 -0.000000
vn 0.309017 0.951056 -0.000000
vn 0.309017 0.951056 -0.000000
vn 0.000001 1.000000 -0.000000
vn 0.000001 1.000000 -0.000000
vn -0.309017 0.951056 -0.000000
vn -0.309017 0.951056 -0.000000
vn -0.587785 0.809017 -0.000000
vn -0.587785 0.809017 -0.000000
vn -0.809017 0.587786 -0.000000
vn -0.809017 0.587786 -0.000000
vn -0.951057 0.309016 -0.000000
vn -0.951057 0.309016 -0.000000
vn 0.000000 -0.000002 1.000000
vn 0.000000 -0.000000 1.000000
vn 0.000000 0.000000 1.000000
vn 0.000000 -0.000002 1.000000
vn 0.000000 -0.000002 1.000000
vn 0.000000 -0.000002 1.000000
vn 0.000000 -0.000001 1.000000
vn 0.000000 -0.000001 1.000000
vn 0.000000 0.000000 1.000000
vn 0.000000 0.000000 1.000000
vn 0.000000 0.000000 1.000000
vn 0.000000 0.000000 1.000000
vn 0.000000 0.000001 1.000000
vn 0.000000 0.000001 1.000000
vn 0.000000 0.000000 1.000000
vn 0.000000 0.000000 1.000000
vn 0.000000 0.000002 1.000000
vn 0.000000 0.000002 1.000000
vn 0.000000 0.000000 1.000000
vn 0.000000 -0.000000 1.000000
vn 0.000000 -0.000000 1.000000
vn 0.000000 -0.000000 1.000000
vn 0.000000 -0.000000 1.000000
vn 0.000000 0.000000 1.000000
vn 0.000000 -0.000000 1.000000
vn 0.000000 0.000000 1.000000
vn 0.000000 0.000000 1.000000
vn 0.000000 0.000000 1.000000
vn 0.000000 -0.000002 1.000000
vn 0.000000 -0.000002 1.000000
vn 0.000000 -0.000000 1.000000
vn 0.000000 -0.000000 1.000000
vn 0.000000 0.000000 1.000000
vn 0.000000 0.000000 1.000000
vn 0.000000 0.000000 1.000000
vn 0.000000 0.000000 1.000000
vn 0.000000 0.000000 1.000000
vn 0.000000 0.000000 1.000000
vn 0.000000 0.000002 1.000000
vn 0.000000 0.000002 1.000000
vn 0.951057 0.309017 -0.000000
vn 1.000000 0.000001 -0.000000
vn 0.999796 0.000001 0.020220
vn 0.950862 0.308954 0.020220
vn 0.809017 0.587785 -0.000000
vn 0.808852 0.587665 0.020220
vn 0.587785 0.809017 0.000000
vn 0.587665 0.808852 0.020220
vn 0.309017 0.951056 0.000000
vn 0.308954 0.950862 0.020220
vn 0.000000 1.000000 0.000000
vn 0.000000 0.999796 0.020220
vn -0.309017 0.951056 0.000000
vn -0.308954 0.950862 0.020220
vn -0.587785 0.809017 -0.000000
vn -0.587665 0.808852 0.020220
vn -0.809017 0.587785 -0.000000
vn -0.808851 0.587665 0.020220
vn -0.951057 0.309017 -0.000000
vn -0.950862 0.308954 0.020220
vn -1.000000 0.000000 -0.000000
vn -0.999796 0.000000 0.020220
vn -0.951057 -0.309017 -0.000000
vn -0.950862 -0.308954 0.020220
vn -0.809017 -0.587785 0.000000
vn -0.808852 -0.587665 0.020220
vn -0.587786 -0.809017 0.000000
vn -0.587665 -0.808851 0.020220
vn -0.309017 -0.951056 -0.000000
vn -0.308954 -0.950862 0.020220
vn 0.000000 -1.000000 0.000000
vn 0.000000 -0.999796 0.020220
vn 0.309017 -0.951057 0.000000
vn 0.308954 -0.950862 0.020220
vn 0.587785 -0.809017 0.000000
vn 0.587665 -0.808852 0.020220
vn 0.809017 -0.587785 0.000000
vn 0.808852 -0.587665 0.020220
vn 0.951057 -0.309016 0.000000
vn 0.950862 -0.308953 0.020220
vn 0.000000 -0.000001 -1.000000
vn 0.000000 0.000000 -1.000000
vn 0.000000 -0.000000 -1.000000
vn 0.000000 -0.000001 -1.000000
vn 0.000000 -0.000000 -1.000000
vn 0.000000 -0.000000 -1.000000
vn 0.000000 -0.000000 -1.000000
vn 0.000000 -0.000000 -1.000000
vn 0.000000 -0.000000 -1.000000
vn 0.000000 -0.000000 -1.000000
vn 0.000000 0.000001 -1.000000
vn 0.000000 0.000001 -1.000000
vn 0.000000 0.000001 -1.000000
vn 0.000000 0.000001 -1.000000
vn 0.000000 -0.000000 -1.000000
vn 0.000000 -0.000000 -1.000000
vn 0.000000 -0.000000 -1.000000
vn 0.000000 -0.000000 -1.000000
vn 0.000000 -0.000001 -1.000000
vn 0.000000 -0.000001 -1.000000
vn 0.000000 -0.000000 -1.000000
vn 0.000000 0.000000 -1.000000
vn 0.000000 0.000000 -1.000000
vn 0.000000 -0.000000 -1.000000
vn 0.000000 -0.000001 -1.000000
vn 0.000000 -0.000001 -1.000000
vn 0.000000 0.000000 -1.000000
vn 0.000000 0.000000 -1.000000
vn 0.000000 0.000001 -1.000000
vn 0.000000 0.000001 -1.000000
vn 0.000000 0.000000 -1.000000
vn 0.000000 0.000000 -1.000000
vn 0.000000 -0.000000 -1.000000
vn 0.000000 -0.000000 -1.000000
vn 0.000000 -0.000000 -1.000000
vn 0.000000 -0.000000 -1.000000
vn 0.000000 -0.000001 -1.000000
vn 0.000000 -0.000001 -1.000000
vn 0.000000 -0.000000 -1.000000
vn 0.000000 0.000000 -1.000000
vn 0.999796 0.000001 -0.020220
vn 0.950862 -0.308953 -0.020220
vn 0.808852 -0.587665 -0.020220
vn 0.587665 -0.808852 -0.020220
vn 0.308954 -0.950862 -0.020220
vn -0.000000 -0.999796 -0.020220
vn -0.308954 -0.950862 -0.020220
vn -0.587665 -0.808851 -0.020220
vn -0.808852 -0.587665 -0.020220
vn -0.950862 -0.308954 -0.020220
vn -0.999796 -0.000000 -0.020220
vn -0.950862 0.308954 -0.020220
vn -0.808851 0.587665 -0.020220
vn -0.587665 0.808852 -0.020220
vn -0.308954 0.950862 -0.020220
vn 0.000000 0.999796 -0.020220
vn 0.308954 0.950862 -0.020220
vn 0.587665 0.808852 -0.020220
vn 0.808852 0.587665 -0.020220
vn 0.950862 0.308954 -0.020220
s 1
g Newspaper_Roll
usemtl initialShadingGroup
f 2/2/1 1/1/2 21/22/3 22/167/4
f 3/3/5 2/2/1 22/167/4 23/166/6
f 4/4/7 3/3/5 23/166/6 24/165/8
f 5/5/9 4/4/7 24/165/8 25/164/10
f 6/6/11 5/5/9 25/164/10 26/163/12
f 7/7/13 6/6/11 26/163/12 27/162/14
f 8/8/15 7/7/13 27/162/14 28/161/16
f 9/9/17 8/8/15 28/161/16 29/160/18
f 10/10/19 9/9/17 29/160/18 30/159/20
f 11/11/21 10/10/19 30/159/20 31/158/22
f 12/12/23 11/11/21 31/158/22 32/157/24
f 13/13/25 12/12/23 32/157/24 33/156/26
f 14/14/27 13/13/25 33/156/26 34/155/28
f 15/15/29 14/14/27 34/155/28 35/154/30
f 16/16/31 15/15/29 35/154/30 36/153/32
f 17/17/33 16/16/31 36/153/32 37/152/34
f 18/18/35 17/17/33 37/152/34 38/151/36
f 19/19/37 18/18/35 38/151/36 39/150/38
f 20/20/39 19/19/37 39/150/38 40/147/40
f 1/21/2 20/20/39 40/147/40 21/148/3
s 2
f 22/23/41 21/149/42 41/43/43 42/146/44
f 23/24/45 22/23/41 42/146/44 43/145/46
f 24/25/47 23/24/45 43/145/46 44/144/48
f 25/26/49 24/25/47 44/144/48 45/143/50
f 26/27/51 25/26/49 45/143/50 46/142/52
f 27/28/53 26/27/51 46/142/52 47/141/54
f 28/29/55 27/28/53 47/141/54 48/140/56
f 29/30/57 28/29/55 48/140/56 49/139/58
f 30/31/59 29/30/57 49/139/58 50/138/60
f 31/32/61 30/31/59 50/138/60 51/137/62
f 32/33/63 31/32/61 51/137/62 52/136/64
f 33/34/65 32/33/63 52/136/64 53/135/66
f 34/35/67 33/34/65 53/135/66 54/134/68
f 35/36/69 34/35/67 54/134/68 55/133/70
f 36/37/71 35/36/69 55/133/70 56/132/72
f 37/38/73 36/37/71 56/132/72 57/131/74
f 38/39/75 37/38/73 57/131/74 58/130/76
f 39/40/77 38/39/75 58/130/76 59/129/78
f 40/41/79 39/40/77 59/129/78 60/126/80
f 21/42/42 40/41/79 60/126/80 41/127/43
s 3
f 100/125/81 81/105/82 61/64/83 62/65/84
f 99/124/85 100/125/81 62/65/84 63/66/86
f 98/123/87 99/124/85 63/66/86 64/67/88
f 97/122/89 98/123/87 64/67/88 65/68/90
f 96/121/91 97/122/89 65/68/90 66/69/92
f 95/120/93 96/121/91 66/69/92 67/70/94
f 94/119/95 95/120/93 67/70/94 68/71/96
f 93/118/97 94/119/95 68/71/96 69/72/98
f 92/117/99 93/118/97 69/72/98 70/73/100
f 91/116/101 92/117/99 70/73/100 71/74/102
f 90/115/103 91/116/101 71/74/102 72/75/104
f 89/114/105 90/115/103 72/75/104 73/76/106
f 88/113/107 89/114/105 73/76/106 74/77/108
f 87/112/109 88/113/107 74/77/108 75/78/110
f 86/111/111 87/112/109 75/78/110 76/79/112
f 85/110/113 86/111/111 76/79/112 77/80/114
f 84/109/115 85/110/113 77/80/114 78/81/116
f 83/108/117 84/109/115 78/81/116 79/82/118
f 82/107/119 83/108/117 79/82/118 80/83/120
f 81/106/82 82/107/119 80/83/120 61/169/83
s 4
f 62/187/121 61/84/122 1/85/123 2/86/124
f 63/186/125 62/187/121 2/86/124 3/87/126
f 64/185/127 63/186/125 3/87/126 4/88/128
f 65/184/129 64/185/127 4/88/128 5/89/130
f 66/183/131 65/184/129 5/89/130 6/90/132
f 67/182/133 66/183/131 6/90/132 7/91/134
f 68/181/135 67/182/133 7/91/134 8/92/136
f 69/180/137 68/181/135 8/92/136 9/93/138
f 70/179/139 69/180/137 9/93/138 10/94/140
f 71/178/141 70/179/139 10/94/140 11/95/142
f 72/177/143 71/178/141 11/95/142 12/96/144
f 73/176/145 72/177/143 12/96/144 13/97/146
f 74/175/147 73/176/145 13/97/146 14/98/148
f 75/174/149 74/175/147 14/98/148 15/99/150
f 76/173/151 75/174/149 15/99/150 16/100/152
f 77/172/153 76/173/151 16/100/152 17/101/154
f 78/171/155 77/172/153 17/101/154 18/102/156
f 79/170/157 78/171/155 18/102/156 19/103/158
f 80/168/159 79/170/157 19/103/158 20/104/160
f 61/84/122 80/168/159 20/104/160 1/85/123
s 3
f 41/63/161 60/62/162 82/107/119 81/106/82
f 60/62/162 59/61/163 83/108/117 82/107/119
f 59/61/163 58/60/164 84/109/115 83/108/117
f 58/60/164 57/59/165 85/110/113 84/109/115
f 57/59/165 56/58/166 86/111/111 85/110/113
f 56/58/166 55/57/167 87/112/109 86/111/111
f 55/57/167 54/56/168 88/113/107 87/112/109
f 54/56/168 53/55/169 89/114/105 88/113/107
f 53/55/169 52/54/170 90/115/103 89/114/105
f 52/54/170 51/53/171 91/116/101 90/115/103
f 51/53/171 50/52/172 92/117/99 91/116/101
f 50/52/172 49/51/173 93/118/97 92/117/99
f 49/51/173 48/50/174 94/119/95 93/118/97
f 48/50/174 47/49/175 95/120/93 94/119/95
f 47/49/175 46/48/176 96/121/91 95/120/93
f 46/48/176 45/47/177 97/122/89 96/121/91
f 45/47/177 44/46/178 98/123/87 97/122/89
f 44/46/178 43/45/179 99/124/85 98/123/87
f 43/45/179 42/44/180 100/125/81 99/124/85
f 42/44/180 41/128/161 81/105/82 100/125/81
