# This file uses centimeters as units for non-parametric coordinates.

mtllib Newspaper.mtl
g default
v -0.954441 0.014803 0.496570
v -0.971843 0.038755 0.496570
v -1.000000 0.047904 0.496570
v -1.028157 0.038755 0.496570
v -1.045559 0.014803 0.496570
v -1.045559 -0.014803 0.496570
v -1.028157 -0.038755 0.496570
v -1.000000 -0.047904 0.496570
v -0.971843 -0.038755 0.496570
v -0.954441 -0.014803 0.496570
v -0.954441 0.014803 2.049834
v -0.971843 0.038755 2.049834
v -1.000000 0.047904 2.049834
v -1.028157 0.038755 2.049834
v -1.045559 0.014803 2.049834
v -1.045559 -0.014803 2.049834
v -1.028157 -0.038755 2.049834
v -1.000000 -0.047904 2.049834
v -0.971843 -0.038755 2.049834
v -0.954441 -0.014803 2.049834
v -0.893646 0.034556 2.049834
v -0.934270 0.090470 2.049834
v -1.000000 0.111827 2.049834
v -1.065730 0.090470 2.049834
v -1.106354 0.034556 2.049834
v -1.106354 -0.034556 2.049834
v -1.065730 -0.090470 2.049834
v -1.000000 -0.111827 2.049834
v -0.934270 -0.090470 2.049834
v -0.893646 -0.034556 2.049834
v -0.893646 0.034556 0.496570
v -0.934270 0.090470 0.496570
v -1.000000 0.111827 0.496570
v -1.065730 0.090470 0.496570
v -1.106354 0.034556 0.496570
v -1.106354 -0.034556 0.496570
v -1.065730 -0.090470 0.496570
v -1.000000 -0.111827 0.496570
v -0.934270 -0.090470 0.496570
v -0.893646 -0.034556 0.496570
v -0.908584 -0.029703 1.273202
v -0.943502 -0.077763 1.273202
v -1.000000 -0.096121 1.273202
v -1.056498 -0.077763 1.273202
v -1.091416 -0.029703 1.273202
v -1.091416 0.029703 1.273202
v -1.056498 0.077763 1.273202
v -1.000000 0.096121 1.273202
v -0.943502 0.077763 1.273202
v -0.908584 0.029703 1.273202
vt 0.073748 0.750550
vt 0.080093 0.750523
vt 0.022987 0.750765
vt 0.029332 0.750738
vt 0.035677 0.750711
vt 0.042022 0.750684
vt 0.048367 0.750657
vt 0.054713 0.750630
vt 0.061058 0.750604
vt 0.067403 0.750577
vt 0.127019 0.727524
vt 0.128488 0.723877
vt 0.131820 0.721790
vt 0.135743 0.722060
vt 0.138758 0.724584
vt 0.139713 0.728398
vt 0.138244 0.732046
vt 0.134912 0.734133
vt 0.130989 0.733863
vt 0.127974 0.731339
vt 0.041125 0.615732
vt 0.069560 0.617258
vt 0.097718 0.618144
vt 0.125686 0.618615
vt 0.153550 0.618795
vt 0.181390 0.618725
vt 0.209289 0.618379
vt 0.237326 0.617656
vt 0.265578 0.616368
vt 0.294119 0.614214
vt 0.042777 0.387922
vt 0.071242 0.386811
vt 0.099428 0.386341
vt 0.127419 0.386288
vt 0.155300 0.386532
vt 0.183152 0.387028
vt 0.211055 0.387806
vt 0.239087 0.388966
vt 0.267322 0.390697
vt 0.013956 0.390017
vt 0.174291 0.724857
vt 0.171731 0.721872
vt 0.167906 0.720962
vt 0.164276 0.722475
vt 0.162228 0.725832
vt 0.162545 0.729751
vt 0.165105 0.732736
vt 0.168930 0.733646
vt 0.172560 0.732134
vt 0.174608 0.728776
vt 0.026185 0.501800
vt 0.256736 0.503450
vt 0.231237 0.503249
vt 0.205529 0.503048
vt 0.179693 0.502847
vt 0.153803 0.502648
vt 0.127935 0.502452
vt 0.102165 0.502262
vt 0.076576 0.502079
vt 0.051262 0.501910
vt 0.120779 0.735846
vt 0.127817 0.741738
vt 0.136975 0.742369
vt 0.144754 0.737496
vt 0.148184 0.728981
vt 0.145953 0.720077
vt 0.138915 0.714184
vt 0.129757 0.713554
vt 0.121978 0.718427
vt 0.118549 0.726941
vt 0.066907 0.633454
vt 0.060562 0.633481
vt 0.054217 0.633508
vt 0.047872 0.633534
vt 0.041526 0.633561
vt 0.035181 0.633588
vt 0.028836 0.633615
vt 0.085943 0.633373
vt 0.079598 0.633400
vt 0.073252 0.633427
vt 0.182867 0.730742
vt 0.178087 0.738578
vt 0.169614 0.742108
vt 0.160684 0.739984
vt 0.154708 0.733016
vt 0.153969 0.723867
vt 0.158749 0.716030
vt 0.167222 0.712500
vt 0.176152 0.714624
vt 0.182128 0.721592
vt 0.281944 0.503650
vt 0.295827 0.393302
vt 0.012614 0.613203
vt 0.086438 0.750496
vt 0.022491 0.633642
vn -0.951056 -0.309018 0.000000
vn -0.951056 -0.309018 0.000000
vn -0.951057 0.309016 -0.000000
vn -0.951057 0.309016 -0.000000
vn -0.587785 -0.809017 0.000000
vn -0.587785 -0.809017 0.000000
vn 0.000000 -1.000000 0.000000
vn 0.000000 -1.000000 0.000000
vn 0.587785 -0.809017 0.000000
vn 0.587785 -0.809017 0.000000
vn 0.951057 -0.309017 0.000000
vn 0.951057 -0.309017 0.000000
vn 0.951057 0.309017 -0.000000
vn 0.951057 0.309017 -0.000000
vn 0.587786 0.809017 -0.000000
vn 0.587786 0.809017 -0.000000
vn 0.000000 1.000000 -0.000000
vn 0.000000 1.000000 -0.000000
vn -0.587785 0.809017 -0.000000
vn -0.587785 0.809017 -0.000000
vn 0.000000 0.000000 1.000000
vn 0.000000 0.000000 1.000000
vn 0.000000 -0.000000 1.000000
vn 0.000000 -0.000000 1.000000
vn 0.000000 0.000001 1.000000
vn 0.000000 0.000001 1.000000
vn 0.000000 0.000002 1.000000
vn 0.000000 0.000002 1.000000
vn 0.000000 0.000002 1.000000
vn 0.000000 0.000002 1.000000
vn 0.000000 0.000001 1.000000
vn 0.000000 0.000001 1.000000
vn 0.000000 -0.000001 1.000000
vn 0.000000 -0.000001 1.000000
vn 0.000000 -0.000002 1.000000
vn 0.000000 -0.000002 1.000000
vn 0.000000 -0.000001 1.000000
vn 0.000000 -0.000001 1.000000
vn 0.000000 -0.000001 1.000000
vn 0.000000 -0.000001 1.000000
vn 0.950862 -0.308953 0.020220
vn 0.950862 0.308954 0.020220
vn 0.951056 0.309017 0.000000
vn 0.951057 -0.309017 0.000000
vn 0.587665 0.808852 0.020220
vn 0.587785 0.809017 -0.000000
vn -0.000000 0.999796 0.020220
vn -0.000000 1.000000 -0.000000
vn -0.587665 0.808852 0.020220
vn -0.587785 0.809017 0.000000
vn -0.950862 0.308954 0.020220
vn -0.951056 0.309017 0.000000
vn -0.950862 -0.308954 0.020220
vn -0.951057 -0.309017 0.000000
vn -0.587665 -0.808852 0.020220
vn -0.587785 -0.809017 -0.000000
vn -0.000000 -0.999796 0.020220
vn -0.000000 -1.000000 -0.000000
vn 0.587665 -0.808852 0.020220
vn 0.587785 -0.809017 0.000000
vn 0.000000 -0.000000 -1.000000
vn 0.000000 -0.000001 -1.000000
vn 0.000000 -0.000001 -1.000000
vn 0.000000 -0.000000 -1.000000
vn 0.000000 -0.000001 -1.000000
vn 0.000000 -0.000001 -1.000000
vn 0.000000 -0.000000 -1.000000
vn 0.000000 -0.000000 -1.000000
vn 0.000000 0.000000 -1.000000
vn 0.000000 0.000000 -1.000000
vn 0.000000 0.000000 -1.000000
vn 0.000000 0.000000 -1.000000
vn 0.000000 -0.000001 -1.000000
vn 0.000000 -0.000001 -1.000000
vn 0.000000 -0.000000 -1.000000
vn 0.000000 -0.000000 -1.000000
vn 0.000000 -0.000000 -1.000000
vn 0.000000 -0.000000 -1.000000
vn 0.000000 -0.000000 -1.000000
vn 0.000000 -0.000000 -1.000000
vn 0.950862 -0.308954 -0.020220
vn 0.587665 -0.808852 -0.020220
vn -0.000000 -0.999796 -0.020220
vn -0.587665 -0.808852 -0.020220
vn -0.950862 -0.308954 -0.020220
vn -0.950862 0.308954 -0.020220
vn -0.587665 0.808852 -0.020220
vn -0.000000 0.999796 -0.020220
vn 0.587665 0.808852 -0.020220
vn 0.950862 0.308954 -0.020220
s 1
g Newspaper_Roll
usemtl initialShadingGroup
f 11/80/1 1/1/2 10/10/3 20/71/4
f 12/79/5 2/2/6 1/1/2 11/80/1
f 13/78/7 3/94/8 2/2/6 12/79/5
f 14/77/9 4/4/10 3/3/8 13/95/7
f 15/76/11 5/5/12 4/4/10 14/77/9
f 16/75/13 6/6/14 5/5/12 15/76/11
f 17/74/15 7/7/16 6/6/14 16/75/13
f 18/73/17 8/8/18 7/7/16 17/74/15
f 19/72/19 9/9/20 8/8/18 18/73/17
f 20/71/4 10/10/3 9/9/20 19/72/19
s 2
f 21/70/21 11/11/22 20/20/23 30/61/24
f 22/69/25 12/12/26 11/11/22 21/70/21
f 23/68/27 13/13/28 12/12/26 22/69/25
f 24/67/29 14/14/30 13/13/28 23/68/27
f 25/66/31 15/15/32 14/14/30 24/67/29
f 26/65/33 16/16/34 15/15/32 25/66/31
f 27/64/35 17/17/36 16/16/34 26/65/33
f 28/63/37 18/18/38 17/17/36 27/64/35
f 29/62/39 19/19/40 18/18/38 28/63/37
f 30/61/24 20/20/23 19/19/40 29/62/39
s 3
f 40/40/41 31/31/42 50/60/43 41/51/44
f 31/31/42 32/32/45 49/59/46 50/60/43
f 32/32/45 33/33/47 48/58/48 49/59/46
f 33/33/47 34/34/49 47/57/50 48/58/48
f 34/34/49 35/35/51 46/56/52 47/57/50
f 35/35/51 36/36/53 45/55/54 46/56/52
f 36/36/53 37/37/55 44/54/56 45/55/54
f 37/37/55 38/38/57 43/53/58 44/54/56
f 38/38/57 39/39/59 42/52/60 43/53/58
f 39/39/59 40/92/41 41/91/44 42/52/60
s 4
f 10/50/61 1/41/62 31/90/63 40/81/64
f 1/41/62 2/42/65 32/89/66 31/90/63
f 2/42/65 3/43/67 33/88/68 32/89/66
f 3/43/67 4/44/69 34/87/70 33/88/68
f 4/44/69 5/45/71 35/86/72 34/87/70
f 5/45/71 6/46/73 36/85/74 35/86/72
f 6/46/73 7/47/75 37/84/76 36/85/74
f 7/47/75 8/48/77 38/83/78 37/84/76
f 8/48/77 9/49/79 39/82/80 38/83/78
f 9/49/79 10/50/61 40/81/64 39/82/80
s 3
f 41/91/44 30/30/81 29/29/82 42/52/60
f 42/52/60 29/29/82 28/28/83 43/53/58
f 43/53/58 28/28/83 27/27/84 44/54/56
f 44/54/56 27/27/84 26/26/85 45/55/54
f 45/55/54 26/26/85 25/25/86 46/56/52
f 46/56/52 25/25/86 24/24/87 47/57/50
f 47/57/50 24/24/87 23/23/88 48/58/48
f 48/58/48 23/23/88 22/22/89 49/59/46
f 49/59/46 22/22/89 21/21/90 50/60/43
f 41/51/44 50/60/43 21/21/90 30/93/81
