# This file uses centimeters as units for non-parametric coordinates.

mtllib Old_Bone.mtl
g default
v -3.102335 -0.032489 4.277199
v -2.939663 -0.032489 4.277199
v -3.102335 0.032489 4.277199
v -2.939663 0.032489 4.277199
v -3.102335 0.032489 3.722800
v -2.939663 0.032489 3.722800
v -3.102335 -0.032489 3.722800
v -2.939663 -0.032489 3.722800
v -3.020999 -0.056831 4.269198
v -3.020999 -0.056831 3.730801
v -3.020999 0.056831 3.730801
v -3.020999 0.056831 4.269198
v -3.020999 0.038207 4.370550
v -3.020999 -0.038207 4.370550
v -2.944863 -0.021680 4.399761
v -2.956398 0.032489 4.404100
v -3.069437 -0.032489 4.423485
v -3.069437 0.032489 4.423485
v -3.020999 -0.038207 3.629450
v -3.020999 0.038207 3.629450
v -2.972561 0.032489 3.576515
v -2.972561 -0.032489 3.576515
v -3.069437 0.032489 3.576515
v -3.069437 -0.032489 3.576515
v -2.881730 -0.018808 4.340851
v -2.881730 0.009411 4.340851
v -2.900469 0.032489 4.381706
v -2.900469 -0.020268 4.381706
v -3.160267 -0.032489 4.340851
v -3.160267 0.032489 4.340851
v -3.141529 -0.032489 4.381706
v -3.141529 0.032489 4.381706
v -2.881730 0.032489 3.659149
v -2.881730 -0.032489 3.659149
v -2.900469 -0.032489 3.618293
v -2.900469 0.032489 3.618293
v -3.160267 0.032489 3.659149
v -3.160267 -0.032489 3.659149
v -3.141529 0.032489 3.618293
v -3.141529 -0.032489 3.618293
v -3.119740 0.000000 4.269198
v -3.190069 0.000000 4.331013
v -3.167481 0.000000 4.399487
v -3.079866 0.000000 4.443211
v -3.020999 0.000000 4.387810
v -2.957440 0.000000 4.414371
v -2.891254 0.000000 4.386002
v -2.887498 0.000000 4.332970
v -2.922258 0.000000 4.269198
v -2.922258 0.000000 3.730801
v -2.851929 0.000000 3.668986
v -2.874518 0.000000 3.600513
v -2.962132 0.000000 3.556789
v -3.020999 0.000000 3.612190
v -3.079866 0.000000 3.556789
v -3.167481 0.000000 3.600513
v -3.190069 0.000000 3.668986
v -3.119740 0.000000 3.730801
vt 0.918843 0.116310
vt 0.902025 0.116310
vt 0.902025 0.100210
vt 0.916327 0.099946
vt 0.883754 0.065985
vt 0.883754 0.015956
vt 0.904358 0.015214
vt 0.904358 0.066727
vt 0.830264 0.029538
vt 0.830264 0.044451
vt 0.813448 0.044451
vt 0.815965 0.032180
vt 0.955215 0.065985
vt 0.955215 0.015956
vt 0.975819 0.015214
vt 0.975819 0.066727
vt 0.869818 0.131801
vt 0.869818 0.081774
vt 0.884118 0.081030
vt 0.884118 0.132545
vt 0.840128 0.138762
vt 0.840128 0.088735
vt 0.854429 0.087991
vt 0.854429 0.139506
vt 0.934609 0.015214
vt 0.934609 0.066727
vt 0.815965 0.056721
vt 0.830264 0.059363
vt 0.863148 0.015214
vt 0.863148 0.066727
vt 0.902025 0.131224
vt 0.916327 0.128581
vt 0.974502 0.078116
vt 0.955215 0.075403
vt 0.902025 0.083442
vt 0.902025 0.082492
vt 0.906168 0.081030
vt 0.916327 0.085777
vt 0.883754 0.006538
vt 0.900118 0.003421
vt 0.942944 0.080320
vt 0.871483 0.001621
vt 0.916327 0.151592
vt 0.902025 0.159142
vt 0.902025 0.153419
vt 0.916327 0.146845
vt 0.896024 0.080320
vt 0.883754 0.075403
vt 0.815965 0.009171
vt 0.830264 0.001621
vt 0.830264 0.007343
vt 0.815965 0.013916
vt 0.955215 0.006538
vt 0.967485 0.001621
vt 0.871483 0.080320
vt 0.942944 0.001621
vt 0.830264 0.081558
vt 0.830264 0.087281
vt 0.815965 0.079731
vt 0.815965 0.074984
vt 0.826663 0.154515
vt 0.817858 0.154515
vt 0.813448 0.140215
vt 0.828125 0.150373
vt 0.914287 0.005502
vt 0.919034 0.009299
vt 0.990495 0.072642
vt 0.985748 0.076439
vt 0.851644 0.140215
vt 0.847236 0.154515
vt 0.829419 0.154515
vt 0.836969 0.140215
vt 0.924680 0.076439
vt 0.919935 0.072642
vt 0.848472 0.009299
vt 0.853219 0.005502
vt 0.852975 0.168815
vt 0.857385 0.154515
vt 0.875202 0.154515
vt 0.867652 0.168815
vt 0.985748 0.005502
vt 0.990495 0.009299
vt 0.919034 0.072642
vt 0.914287 0.076439
vt 0.876534 0.174150
vt 0.894350 0.174150
vt 0.898760 0.188451
vt 0.884084 0.188451
vt 0.853219 0.076439
vt 0.848472 0.072642
vt 0.919935 0.009299
vt 0.924680 0.005502
vt 0.851644 0.168815
vt 0.836969 0.168815
vt 0.887726 0.151592
vt 0.887726 0.146845
vt 0.887726 0.128581
vt 0.885209 0.116310
vt 0.892484 0.097023
vt 0.893104 0.085777
vt 0.893749 0.081030
vt 0.813448 0.168815
vt 0.828125 0.162792
vt 0.855519 0.132545
vt 0.855519 0.081030
vt 0.852975 0.140215
vt 0.867652 0.140215
vt 0.844564 0.009171
vt 0.844564 0.013916
vt 0.844564 0.032180
vt 0.847082 0.044451
vt 0.844564 0.056721
vt 0.844564 0.074984
vt 0.844564 0.079731
vt 0.898760 0.159850
vt 0.884084 0.159850
vt 0.825828 0.139506
vt 0.825828 0.087991
vn 0.172462 0.356073 0.918406
vn 0.240402 -0.046116 0.969577
vn -0.086231 -0.060661 0.994427
vn -0.058342 0.323333 0.944485
vn 0.000000 0.999917 -0.012884
vn -0.000419 0.999921 0.012537
vn 0.268042 0.963400 0.003848
vn 0.242334 0.970137 -0.010389
vn -0.018590 0.000000 -0.999827
vn 0.000000 0.000000 -1.000000
vn 0.000000 0.352928 -0.935650
vn -0.191551 0.520806 -0.831907
vn 0.003295 -0.999873 0.015571
vn 0.000000 -0.999917 -0.012884
vn 0.242334 -0.970137 -0.010389
vn 0.265994 -0.963611 0.026461
vn 1.000000 0.000000 0.000000
vn 1.000000 0.000000 0.000000
vn 0.881476 0.472229 0.000000
vn 0.881476 0.472229 0.000000
vn -1.000000 0.000000 0.000000
vn -1.000000 0.000000 0.000000
vn -0.881476 0.472229 0.000000
vn -0.881476 0.472229 0.000000
vn -0.242334 -0.970137 -0.010389
vn 0.000000 -0.999917 -0.012884
vn 0.003295 -0.999873 0.015571
vn -0.242334 -0.970137 0.010389
vn 0.191550 0.520807 -0.831907
vn 0.000000 0.352928 -0.935650
vn 0.000000 0.000000 -1.000000
vn 0.018593 0.000000 -0.999827
vn -0.242334 0.970137 0.010389
vn -0.000419 0.999921 0.012537
vn 0.000000 0.999917 -0.012884
vn -0.242334 0.970137 -0.010389
vn 0.018593 0.000000 0.999827
vn 0.240402 -0.046116 0.969577
vn 0.172462 0.356073 0.918406
vn 0.191549 0.520809 0.831905
vn 0.003295 -0.999873 0.015571
vn 0.265994 -0.963611 0.026461
vn 0.186117 -0.975940 0.113588
vn 0.020944 -0.992866 0.117383
vn 0.974313 -0.000040 0.225196
vn 0.974290 -0.000992 0.225296
vn 0.973959 0.061466 0.218233
vn 0.973959 0.061466 0.218233
vn 0.268042 0.963400 0.003848
vn -0.000419 0.999921 0.012537
vn -0.011352 0.995231 0.096888
vn 0.190517 0.980710 0.043708
vn -0.242334 -0.970137 0.010389
vn 0.003295 -0.999873 0.015571
vn 0.020944 -0.992866 0.117383
vn -0.135415 -0.988089 0.073096
vn -0.000419 0.999921 0.012537
vn -0.242334 0.970137 0.010389
vn -0.135415 0.988089 0.073096
vn -0.011352 0.995231 0.096888
vn -0.714184 0.645801 0.269967
vn -0.935401 0.000000 0.353589
vn -0.935401 0.000000 0.353589
vn -0.714184 0.645801 0.269967
vn 0.000000 0.999917 -0.012884
vn 0.242334 0.970137 -0.010389
vn 0.135415 0.988089 -0.073096
vn 0.000000 0.995061 -0.099261
vn 0.714184 0.645800 -0.269970
vn 0.935400 0.000000 -0.353592
vn 0.935400 0.000000 -0.353592
vn 0.714184 0.645800 -0.269970
vn 0.242334 -0.970137 -0.010389
vn 0.000000 -0.999917 -0.012884
vn 0.000000 -0.995061 -0.099261
vn 0.135415 -0.988089 -0.073096
vn -0.242334 0.970137 -0.010389
vn 0.000000 0.999917 -0.012884
vn 0.000000 0.995061 -0.099261
vn -0.135415 0.988089 -0.073096
vn 0.000000 -0.999917 -0.012884
vn -0.242334 -0.970137 -0.010389
vn -0.135415 -0.988089 -0.073096
vn 0.000000 -0.995061 -0.099261
vn -0.935401 0.000000 -0.353589
vn -0.935401 0.000000 -0.353589
vn -0.714185 0.645800 -0.269968
vn -0.714185 0.645800 -0.269968
vn 0.835263 0.019239 -0.549514
vn 0.834985 0.000000 -0.550273
vn 0.773881 0.400814 -0.490363
vn 0.773881 0.400814 -0.490363
vn 0.268042 0.963400 0.003848
vn 0.190517 0.980710 0.043708
vn 0.227529 0.970025 -0.085333
vn 0.227529 0.970025 -0.085333
vn -0.058342 0.323333 0.944485
vn -0.086231 -0.060661 0.994427
vn 0.386318 0.028706 0.921919
vn 0.371921 0.247358 0.894700
vn 0.186117 -0.975940 0.113588
vn 0.265994 -0.963611 0.026461
vn 0.113483 -0.990832 0.073303
vn 0.113483 -0.990832 0.073303
vn -0.571715 0.575812 -0.584451
vn -0.699275 0.000000 -0.714852
vn -0.699275 0.000000 -0.714853
vn -0.571715 0.575812 -0.584451
vn -0.242334 -0.970137 0.010389
vn -0.135415 -0.988089 0.073096
vn 0.000000 -1.000000 0.000000
vn 0.000000 -1.000000 0.000000
vn -0.471986 0.000000 0.881606
vn 0.018593 0.000000 0.999827
vn 0.191549 0.520809 0.831905
vn -0.373400 0.611655 0.697460
vn -0.135415 0.988089 0.073096
vn -0.242334 0.970137 0.010389
vn 0.000000 1.000000 0.000000
vn 0.000000 1.000000 0.000000
vn 0.571713 0.575811 0.584454
vn 0.699272 0.000000 0.714856
vn 0.699272 0.000000 0.714856
vn 0.571713 0.575811 0.584454
vn 0.242334 -0.970137 -0.010389
vn 0.135415 -0.988089 -0.073096
vn 0.000000 -1.000000 0.000000
vn 0.000000 -1.000000 0.000000
vn 0.471989 0.000000 -0.881605
vn -0.018590 0.000000 -0.999827
vn -0.191551 0.520806 -0.831907
vn 0.373403 0.611653 -0.697460
vn 0.135415 0.988089 -0.073096
vn 0.242334 0.970137 -0.010389
vn 0.000000 1.000000 0.000000
vn 0.000000 1.000000 0.000000
vn -0.699275 0.000000 0.714853
vn -0.699275 0.000000 0.714852
vn -0.571715 0.575812 0.584451
vn -0.571715 0.575812 0.584451
vn -0.242334 0.970137 -0.010389
vn -0.135415 0.988089 -0.073096
vn 0.000000 1.000000 0.000000
vn 0.000000 1.000000 0.000000
vn 0.191550 0.520807 -0.831907
vn 0.018593 0.000000 -0.999827
vn -0.471989 0.000000 -0.881605
vn -0.373403 0.611652 -0.697461
vn -0.135415 -0.988089 -0.073096
vn -0.242334 -0.970137 -0.010389
vn 0.000000 -1.000000 0.000000
vn 0.000000 -1.000000 0.000000
vn -0.699275 0.000000 -0.714853
vn -0.699275 0.000000 -0.714852
vn -0.571715 -0.575812 -0.584451
vn -0.571715 -0.575812 -0.584451
vn -0.935401 0.000000 0.353589
vn -0.935401 0.000000 0.353589
vn -0.714184 -0.645801 0.269967
vn -0.714184 -0.645801 0.269967
vn 0.191549 -0.520809 0.831905
vn 0.018593 0.000000 0.999827
vn -0.471986 0.000000 0.881606
vn -0.373400 -0.611655 0.697460
vn 0.191549 -0.520809 0.831905
vn 0.280632 -0.422335 0.861904
vn 0.240402 -0.046116 0.969577
vn 0.018593 0.000000 0.999827
vn -0.086231 -0.060661 0.994427
vn 0.240402 -0.046116 0.969577
vn 0.280632 -0.422335 0.861904
vn -0.035896 -0.468460 0.882755
vn 0.386318 0.028706 0.921919
vn -0.086231 -0.060661 0.994427
vn -0.035896 -0.468460 0.882755
vn 0.365319 -0.357995 0.859291
vn 0.970688 -0.064397 0.231557
vn 0.974290 -0.000992 0.225296
vn 0.974313 -0.000040 0.225196
vn 0.970688 -0.064397 0.231557
vn 0.777444 -0.340169 -0.529023
vn 0.834985 0.000000 -0.550273
vn 0.835263 0.019239 -0.549514
vn 0.777444 -0.340169 -0.529023
vn 0.881476 -0.472229 0.000000
vn 0.881476 -0.472229 0.000000
vn 1.000000 0.000000 0.000000
vn 1.000000 0.000000 0.000000
vn 0.699272 0.000000 0.714856
vn 0.699272 0.000000 0.714856
vn 0.571713 -0.575811 0.584454
vn 0.571713 -0.575811 0.584454
vn 0.935400 0.000000 -0.353592
vn 0.935400 0.000000 -0.353592
vn 0.714184 -0.645799 -0.269970
vn 0.714184 -0.645799 -0.269970
vn -0.191551 -0.520806 -0.831907
vn -0.018590 0.000000 -0.999827
vn 0.471989 0.000000 -0.881605
vn 0.373403 -0.611653 -0.697460
vn 0.000000 -0.352928 -0.935650
vn 0.000000 0.000000 -1.000000
vn -0.018590 0.000000 -0.999827
vn -0.191551 -0.520806 -0.831907
vn 0.018593 0.000000 -0.999827
vn 0.000000 0.000000 -1.000000
vn 0.000000 -0.352928 -0.935650
vn 0.191550 -0.520807 -0.831907
vn -0.471989 0.000000 -0.881605
vn 0.018593 0.000000 -0.999827
vn 0.191550 -0.520807 -0.831907
vn -0.373403 -0.611652 -0.697461
vn -0.714185 -0.645800 -0.269968
vn -0.935401 0.000000 -0.353589
vn -0.935401 0.000000 -0.353589
vn -0.714185 -0.645800 -0.269968
vn -0.571715 -0.575812 0.584451
vn -0.699275 0.000000 0.714852
vn -0.699275 0.000000 0.714853
vn -0.571715 -0.575812 0.584451
vn -0.881476 -0.472229 0.000000
vn -0.881476 -0.472229 0.000000
vn -1.000000 0.000000 0.000000
vn -1.000000 0.000000 0.000000
s off
g Old_Bone1
usemtl Old_Bone_initialShadingGroup
f 13/1/1 45/2/2 46/3/3 16/4/4
f 11/5/5 12/6/6 4/7/7 6/8/8
f 53/9/9 54/10/10 20/11/11 21/12/12
f 9/13/13 10/14/14 8/15/15 2/16/16
f 49/17/17 50/18/18 6/19/19 4/20/20
f 58/21/21 41/22/22 3/23/23 5/24/24
f 7/25/25 10/14/26 9/13/27 1/26/28
f 23/27/29 20/11/30 54/10/31 55/28/32
f 3/29/33 12/6/34 11/5/35 5/30/36
f 44/31/37 45/2/38 13/1/39 18/32/40
f 9/13/41 2/16/42 15/33/43 14/34/44
f 47/35/45 48/36/46 26/37/47 27/38/48
f 4/7/49 12/6/50 13/39/51 16/40/52
f 1/26/53 9/13/54 14/34/55 17/41/56
f 12/6/57 3/29/58 18/42/59 13/39/60
f 30/43/61 42/44/62 43/45/63 32/46/64
f 11/5/65 6/8/66 21/47/67 20/48/68
f 33/49/69 51/50/70 52/51/71 36/52/72
f 8/15/73 10/14/74 19/53/75 22/54/76
f 5/30/77 11/5/78 20/48/79 23/55/80
f 10/14/81 7/25/82 24/56/83 19/53/84
f 56/57/85 57/58/86 37/59/87 39/60/88
f 48/61/89 49/62/90 4/63/91 26/64/92
f 4/7/93 16/40/94 27/65/95 26/66/96
f 16/4/97 46/3/98 47/35/99 27/38/100
f 15/33/101 2/16/102 25/67/103 28/68/104
f 3/69/105 41/70/106 42/71/107 30/72/108
f 1/26/109 17/41/110 31/73/111 29/74/112
f 43/45/113 44/31/114 18/32/115 32/46/116
f 18/42/117 3/29/118 30/75/119 32/76/120
f 6/77/121 50/78/122 51/79/123 33/80/124
f 8/15/125 22/54/126 35/81/127 34/82/128
f 52/51/129 53/9/130 21/12/131 36/52/132
f 21/47/133 6/8/134 33/83/135 36/84/136
f 57/85/137 58/86/138 5/87/139 37/88/140
f 5/30/141 23/55/142 39/89/143 37/90/144
f 23/27/145 55/28/146 56/57/147 39/60/148
f 24/56/149 7/25/150 38/91/151 40/92/152
f 42/71/153 41/70/154 1/93/155 29/94/156
f 43/45/157 42/44/158 29/95/159 31/96/160
f 17/97/161 44/31/162 43/45/163 31/96/164
f 17/97/165 14/98/166 45/2/167 44/31/168
f 46/3/169 45/2/170 14/98/171 15/99/172
f 47/35/173 46/3/174 15/99/175 28/100/176
f 25/101/177 48/36/178 47/35/179 28/100/180
f 2/102/181 49/62/182 48/61/183 25/103/184
f 2/104/185 8/105/186 50/18/187 49/17/188
f 51/79/189 50/78/190 8/106/191 34/107/192
f 52/51/193 51/50/194 34/108/195 35/109/196
f 22/110/197 53/9/198 52/51/199 35/109/200
f 19/111/201 54/10/202 53/9/203 22/110/204
f 55/28/205 54/10/206 19/111/207 24/112/208
f 56/57/209 55/28/210 24/112/211 40/113/212
f 38/114/213 57/58/214 56/57/215 40/113/216
f 7/115/217 58/86/218 57/85/219 38/116/220
f 7/117/221 1/118/222 41/22/223 58/21/224
