# This file uses centimeters as units for non-parametric coordinates.

mtllib Pizza_Box.mtl
g default
v -5.575927 -0.098139 2.575927
v -4.424073 -0.098139 2.575927
v -5.575927 0.098139 2.575927
v -4.424073 0.098139 2.575927
v -5.575927 0.098139 1.424073
v -4.424073 0.098139 1.424073
v -5.575927 -0.098139 1.424073
v -4.424073 -0.098139 1.424073
vt 0.305191 0.341236
vt 0.451411 0.341236
vt 0.305191 0.370480
vt 0.451411 0.370480
vt 0.305191 0.516699
vt 0.451411 0.516699
vt 0.305191 0.545943
vt 0.451411 0.545943
vt 0.305191 0.692163
vt 0.451411 0.692163
vt 0.597630 0.341236
vt 0.597630 0.370480
vt 0.158972 0.341236
vt 0.158972 0.370480
vn 0.000000 0.000000 1.000000
vn 0.000000 0.000000 1.000000
vn 0.000000 0.000000 1.000000
vn 0.000000 0.000000 1.000000
vn 0.000000 1.000000 0.000000
vn 0.000000 1.000000 0.000000
vn 0.000000 1.000000 0.000000
vn 0.000000 1.000000 0.000000
vn 0.000000 0.000000 -1.000000
vn 0.000000 0.000000 -1.000000
vn 0.000000 0.000000 -1.000000
vn 0.000000 0.000000 -1.000000
vn 0.000000 -1.000000 0.000000
vn 0.000000 -1.000000 0.000000
vn 0.000000 -1.000000 0.000000
vn 0.000000 -1.000000 0.000000
vn 1.000000 0.000000 0.000000
vn 1.000000 0.000000 0.000000
vn 1.000000 0.000000 0.000000
vn 1.000000 0.000000 0.000000
vn -1.000000 0.000000 0.000000
vn -1.000000 0.000000 0.000000
vn -1.000000 0.000000 0.000000
vn -1.000000 0.000000 0.000000
s off
g Pizza_Box
usemtl initialShadingGroup
f 1/1/1 2/2/2 4/4/3 3/3/4
f 3/3/5 4/4/6 6/6/7 5/5/8
f 5/5/9 6/6/10 8/8/11 7/7/12
f 7/7/13 8/8/14 2/10/15 1/9/16
f 2/2/17 8/11/18 6/12/19 4/4/20
f 7/13/21 1/1/22 3/3/23 5/14/24
