# This file uses centimeters as units for non-parametric coordinates.

mtllib Plant.mtl
g default
v 2.343536 0.362785 0.138079
v 2.331551 0.223368 0.014904
v 2.179587 0.337406 0.086982
v 2.295969 0.217860 0.003814
v 2.353462 0.253654 -0.142394
v 2.321198 0.115998 -0.020893
v 2.479085 0.243906 -0.022987
v 2.348463 0.113882 0.005022
v 2.200175 0.134227 0.086796
v 2.310724 0.000386 0.018838
v 2.200175 0.134227 -0.086796
v 2.310724 0.000386 -0.018838
v 2.348567 -0.000516 -0.014480
v 2.336250 -0.000516 -0.023429
v 2.321025 -0.000516 -0.023429
v 2.308707 -0.000516 -0.014480
v 2.304003 -0.000516 0.000000
v 2.308707 -0.000516 0.014480
v 2.321025 -0.000516 0.023429
v 2.336250 -0.000516 0.023429
v 2.348567 -0.000516 0.014480
v 2.353271 -0.000516 0.000000
v 2.348567 0.114944 -0.014480
v 2.336250 0.114944 -0.023429
v 2.321025 0.114944 -0.023429
v 2.308707 0.114944 -0.014480
v 2.304003 0.114944 0.000000
v 2.308707 0.114944 0.014480
v 2.321025 0.114944 0.023429
v 2.336250 0.114944 0.023429
v 2.348567 0.114944 0.014480
v 2.353271 0.114944 -0.000000
v 2.328637 -0.000516 0.000000
v 2.335843 0.229102 -0.014480
v 2.323733 0.226852 -0.023429
v 2.308764 0.224071 -0.023429
v 2.296654 0.221821 -0.014480
v 2.292029 0.220962 0.000000
v 2.296654 0.221821 0.014480
v 2.308764 0.224071 0.023429
v 2.323733 0.226852 0.023429
v 2.335843 0.229102 0.014480
v 2.340469 0.229961 0.000000
v 2.316631 0.332515 -0.014480
v 2.304521 0.330265 -0.023429
v 2.279700 0.406869 0.003464
v 2.289552 0.327485 -0.023429
v 2.277442 0.325235 -0.014480
v 2.272817 0.324375 0.000000
v 2.277443 0.325235 0.014480
v 2.289553 0.327485 0.023429
v 2.304521 0.330265 0.023429
v 2.316631 0.332515 0.014480
v 2.321257 0.333374 -0.000000
vt 0.013707 0.348263
vt 0.076953 0.372357
vt 0.013707 0.411509
vt 0.076953 0.387416
vt 0.013707 0.348263
vt 0.076953 0.372357
vt 0.076953 0.387416
vt 0.013707 0.411509
vt 0.013707 0.348263
vt 0.076953 0.372357
vt 0.076953 0.387416
vt 0.013707 0.411509
vt 0.113451 0.334948
vt 0.121365 0.334948
vt 0.121365 0.370150
vt 0.113451 0.370150
vt 0.257643 0.435799
vt 0.244179 0.435799
vt 0.244179 0.400597
vt 0.257643 0.400597
vt 0.122734 0.334948
vt 0.130648 0.334948
vt 0.130648 0.370150
vt 0.122734 0.370150
vt 0.143453 0.334948
vt 0.143453 0.370150
vt 0.156258 0.334948
vt 0.156258 0.370150
vt 0.164172 0.334948
vt 0.164172 0.370150
vt 0.202052 0.334948
vt 0.215517 0.334948
vt 0.215517 0.370150
vt 0.202052 0.370150
vt 0.079927 0.334948
vt 0.087841 0.334948
vt 0.087841 0.370150
vt 0.079927 0.370150
vt 0.100646 0.334948
vt 0.100646 0.370150
vt 0.173814 0.474919
vt 0.181728 0.464027
vt 0.194533 0.481651
vt 0.173814 0.488384
vt 0.181728 0.499276
vt 0.194533 0.503437
vt 0.207338 0.499276
vt 0.215252 0.488384
vt 0.215252 0.474919
vt 0.207338 0.464027
vt 0.194533 0.459866
vt 0.164805 0.459866
vt 0.172719 0.470576
vt 0.148936 0.492527
vt 0.172719 0.483813
vt 0.122734 0.434951
vt 0.130648 0.434265
vt 0.146517 0.459154
vt 0.143453 0.434003
vt 0.156259 0.434265
vt 0.164173 0.434951
vt 0.174220 0.434951
vt 0.187458 0.435799
vt 0.165507 0.459154
vt 0.198167 0.436485
vt 0.087841 0.436485
vt 0.100646 0.436747
vt 0.097582 0.459154
vt 0.113451 0.436485
vt 0.121365 0.404269
vt 0.113451 0.404955
vt 0.233336 0.367325
vt 0.246574 0.366478
vt 0.130648 0.402736
vt 0.122734 0.403422
vt 0.143453 0.402474
vt 0.156258 0.402736
vt 0.164172 0.403422
vt 0.204448 0.404269
vt 0.191210 0.403422
vt 0.087841 0.404955
vt 0.079927 0.404269
vt 0.100646 0.405217
vt 0.121365 0.435799
vt 0.216346 0.335796
vt 0.229584 0.334948
vt 0.079927 0.435799
vn 0.132658 0.649827 -0.748416
vn 0.132658 0.649827 -0.748416
vn 0.132658 0.649827 -0.748416
vn 0.132658 0.649827 -0.748416
vn -0.506159 0.634354 0.584293
vn -0.506159 0.634354 0.584293
vn -0.506159 0.634354 0.584293
vn -0.506159 0.634354 0.584293
vn 0.771002 0.636833 0.000000
vn 0.771002 0.636833 0.000000
vn 0.771002 0.636833 0.000000
vn 0.771002 0.636833 0.000000
vn 0.587784 0.000000 -0.809018
vn 0.587784 0.000000 -0.809018
vn 0.587784 0.000000 -0.809018
vn 0.587784 0.000000 -0.809018
vn 0.000000 0.000000 -1.000000
vn 0.000000 0.000000 -1.000000
vn 0.000000 0.000000 -1.000000
vn 0.000000 0.000000 -1.000000
vn -0.587785 0.000000 -0.809017
vn -0.587785 0.000000 -0.809017
vn -0.587785 0.000000 -0.809017
vn -0.587785 0.000000 -0.809017
vn -0.951057 0.000000 -0.309016
vn -0.951057 0.000000 -0.309016
vn -0.951057 0.000000 -0.309016
vn -0.951057 0.000000 -0.309016
vn -0.951057 0.000000 0.309016
vn -0.951057 0.000000 0.309016
vn -0.951057 0.000000 0.309016
vn -0.951057 0.000000 0.309016
vn -0.587785 0.000000 0.809018
vn -0.587785 0.000000 0.809018
vn -0.587785 0.000000 0.809018
vn -0.587785 0.000000 0.809018
vn 0.000000 0.000000 1.000000
vn 0.000000 0.000000 1.000000
vn 0.000000 0.000000 1.000000
vn 0.000000 0.000000 1.000000
vn 0.587785 0.000000 0.809018
vn 0.587785 0.000000 0.809018
vn 0.587785 0.000000 0.809018
vn 0.587785 0.000000 0.809018
vn 0.951057 0.000000 0.309016
vn 0.951057 0.000000 0.309016
vn 0.951057 0.000000 0.309016
vn 0.951057 0.000000 0.309016
vn 0.951057 -0.000000 -0.309016
vn 0.951057 -0.000000 -0.309016
vn 0.951057 -0.000000 -0.309016
vn 0.951057 -0.000000 -0.309016
vn 0.000000 -1.000000 0.000000
vn 0.000000 -1.000000 0.000000
vn 0.000000 -1.000000 -0.000000
vn 0.000000 -1.000000 0.000000
vn 0.000000 -1.000000 -0.000000
vn 0.000000 -1.000000 -0.000000
vn 0.000000 -1.000000 0.000000
vn 0.000000 -1.000000 0.000000
vn 0.000000 -1.000000 0.000000
vn 0.000000 -1.000000 0.000000
vn 0.000000 -1.000000 0.000000
vn 0.684002 0.473637 -0.554806
vn 0.227324 0.387329 -0.893477
vn -0.198350 0.979931 0.019824
vn -0.338118 0.264046 -0.903303
vn -0.807821 0.147761 -0.570607
vn -0.996473 0.083492 -0.008390
vn -0.817511 0.099152 0.567314
vn -0.336042 0.190270 0.922428
vn 0.252120 0.319733 0.913349
vn 0.711023 0.435012 0.552459
vn 0.870283 0.492484 -0.008192
vn 0.585841 0.065408 -0.807782
vn 0.585841 0.065408 -0.807782
vn 0.582224 0.085232 -0.808549
vn 0.582076 0.086014 -0.808572
vn 0.000000 0.000000 -1.000000
vn 0.000000 0.000000 -1.000000
vn 0.000001 -0.000000 -1.000000
vn 0.000001 -0.000000 -1.000000
vn -0.585789 -0.065936 -0.807777
vn -0.585789 -0.065936 -0.807777
vn -0.582103 -0.085985 -0.808556
vn -0.581957 -0.086748 -0.808579
vn -0.945459 -0.106700 -0.307771
vn -0.945459 -0.106700 -0.307771
vn -0.940884 -0.139755 -0.308553
vn -0.940812 -0.140225 -0.308562
vn -0.945459 -0.106701 0.307771
vn -0.945459 -0.106701 0.307771
vn -0.945459 -0.106701 0.307771
vn -0.945459 -0.106701 0.307771
vn -0.585788 -0.065938 0.807777
vn -0.585788 -0.065938 0.807777
vn -0.585788 -0.065938 0.807777
vn -0.585788 -0.065938 0.807777
vn 0.000000 0.000000 1.000000
vn 0.000000 0.000000 1.000000
vn 0.000001 -0.000001 1.000000
vn 0.000001 -0.000001 1.000000
vn 0.585841 0.065409 0.807782
vn 0.585841 0.065409 0.807782
vn 0.582077 0.086014 0.808571
vn 0.582225 0.085232 0.808548
vn 0.945608 0.105328 0.307785
vn 0.945608 0.105328 0.307785
vn 0.941099 0.138288 0.308560
vn 0.941173 0.137800 0.308551
vn 0.945608 0.105328 -0.307786
vn 0.945608 0.105328 -0.307786
vn 0.941173 0.137799 -0.308552
vn 0.941099 0.138287 -0.308561
vn 0.577898 0.107360 -0.809017
vn 0.577898 0.107360 -0.809017
vn 0.000002 -0.000001 -1.000000
vn 0.000002 -0.000001 -1.000000
vn -0.577897 -0.107360 -0.809017
vn -0.577897 -0.107360 -0.809017
vn -0.935063 -0.173714 -0.309000
vn -0.935063 -0.173714 -0.309000
vn -0.935061 -0.173715 0.309006
vn -0.935061 -0.173715 0.309006
vn -0.935061 -0.173715 0.309006
vn -0.935061 -0.173715 0.309006
vn -0.577898 -0.107357 0.809017
vn -0.577898 -0.107357 0.809017
vn -0.577898 -0.107357 0.809017
vn -0.577898 -0.107357 0.809017
vn 0.000002 -0.000001 1.000000
vn 0.000002 -0.000001 1.000000
vn 0.577901 0.107360 0.809015
vn 0.577901 0.107360 0.809015
vn 0.935059 0.173713 0.309013
vn 0.935059 0.173713 0.309013
vn 0.935058 0.173711 -0.309015
vn 0.935058 0.173711 -0.309015
s off
g Plant
usemtl initialShadingGroup
f 1/1/1 2/2/2 4/4/3 3/3/4
f 5/5/5 6/6/6 8/7/7 7/8/8
f 9/9/9 10/10/10 12/11/11 11/12/12
f 13/13/13 14/14/14 24/15/15 23/16/16
f 14/17/17 15/18/18 25/19/19 24/20/20
f 15/21/21 16/22/22 26/23/23 25/24/24
f 16/22/25 17/25/26 27/26/27 26/23/28
f 17/25/29 18/27/30 28/28/31 27/26/32
f 18/27/33 19/29/34 29/30/35 28/28/36
f 19/31/37 20/32/38 30/33/39 29/34/40
f 20/35/41 21/36/42 31/37/43 30/38/44
f 21/36/45 22/39/46 32/40/47 31/37/48
f 22/39/49 13/13/50 23/16/51 32/40/52
s 1
f 14/41/53 13/42/54 33/43/55
f 15/44/56 14/41/53 33/43/55
f 16/45/57 15/44/56 33/43/55
f 17/46/58 16/45/57 33/43/55
f 18/47/59 17/46/58 33/43/55
f 19/48/60 18/47/59 33/43/55
f 20/49/61 19/48/60 33/43/55
f 21/50/62 20/49/61 33/43/55
f 22/51/63 21/50/62 33/43/55
f 13/42/54 22/51/63 33/43/55
s 2
f 44/52/64 45/53/65 46/54/66
f 45/53/65 47/55/67 46/54/66
f 47/56/67 48/57/68 46/58/66
f 48/57/68 49/59/69 46/58/66
f 49/59/69 50/60/70 46/58/66
f 50/60/70 51/61/71 46/58/66
f 51/62/71 52/63/72 46/64/66
f 52/63/72 53/65/73 46/64/66
f 53/66/73 54/67/74 46/68/66
f 54/67/74 44/69/64 46/68/66
s 3
f 23/16/75 24/15/76 35/70/77 34/71/78
s 4
f 24/20/79 25/19/80 36/72/81 35/73/82
s 5
f 25/24/83 26/23/84 37/74/85 36/75/86
s 6
f 26/23/87 27/26/88 38/76/89 37/74/90
s off
f 27/26/91 28/28/92 39/77/93 38/76/94
f 28/28/95 29/30/96 40/78/97 39/77/98
s 7
f 29/34/99 30/33/100 41/79/101 40/80/102
s 8
f 30/38/103 31/37/104 42/81/105 41/82/106
s 9
f 31/37/107 32/40/108 43/83/109 42/81/110
s 10
f 32/40/111 23/16/112 34/71/113 43/83/114
s 3
f 34/71/78 35/70/77 45/84/115 44/69/116
s 4
f 35/73/82 36/72/81 47/85/117 45/86/118
s 5
f 36/75/86 37/74/85 48/57/119 47/56/120
s 6
f 37/74/90 38/76/89 49/59/121 48/57/122
s off
f 38/76/123 39/77/124 50/60/125 49/59/126
f 39/77/127 40/78/128 51/61/129 50/60/130
s 7
f 40/80/102 41/79/101 52/63/131 51/62/132
s 8
f 41/82/106 42/81/105 53/66/133 52/87/134
s 9
f 42/81/110 43/83/109 54/67/135 53/66/136
s 10
f 43/83/114 34/71/113 44/69/137 54/67/138
