# This file uses centimeters as units for non-parametric coordinates.

mtllib Small_Sock.mtl
g default
v -2.746393 0.015516 -0.454707
v -2.304944 0.009014 -0.693345
v -2.746393 0.075630 -0.454707
v -2.304944 0.082133 -0.693345
v -2.915317 0.075630 -0.512018
v -2.304944 0.082133 -0.871592
v -2.915317 0.015516 -0.512018
v -2.304944 0.009014 -0.871592
v -2.607656 0.015516 -0.681103
v -2.607656 0.015516 -0.883833
v -2.607656 0.075630 -0.883833
v -2.607656 0.075630 -0.681103
v -2.456300 0.015516 -0.681103
v -2.456300 0.075630 -0.681103
v -2.456300 0.075630 -0.883833
v -2.456300 0.015516 -0.883833
v -2.721502 0.015516 -0.594062
v -2.819335 0.015516 -0.843483
v -2.819335 0.075630 -0.843483
v -2.721502 0.075630 -0.594062
v -2.456300 -0.007433 -0.649355
v -2.456300 0.098580 -0.649355
v -2.304944 -0.007433 -0.649355
v -2.304944 0.098580 -0.649355
v -2.456300 0.098580 -0.915581
v -2.304944 0.098580 -0.915581
v -2.456300 -0.007433 -0.915581
v -2.304944 -0.007433 -0.915581
v -2.735500 0.045573 -0.448876
v -2.715357 0.045573 -0.584202
v -2.607656 0.045573 -0.671371
v -2.456300 0.045573 -0.671371
v -2.456300 0.045573 -0.636575
v -2.304944 0.045573 -0.636575
v -2.304944 0.045573 -0.671371
v -2.304944 0.045573 -0.893565
v -2.304944 0.045573 -0.928361
v -2.456300 0.045573 -0.928361
v -2.456300 0.045573 -0.893565
v -2.607656 0.045573 -0.893565
v -2.825480 0.045573 -0.853344
v -2.927522 0.045573 -0.513009
v -2.830855 0.091146 -0.483362
v -2.780015 0.091146 -0.692962
v -2.607656 0.091146 -0.782468
v -2.456300 0.091146 -0.782468
v -2.456300 0.125942 -0.782468
v -2.304944 0.125942 -0.782468
v -2.304944 0.091146 -0.782468
v -2.304944 0.045573 -0.782468
v -2.304944 0.000000 -0.782468
v -2.304944 -0.034796 -0.782468
v -2.456300 -0.034796 -0.782468
v -2.456300 0.000000 -0.782468
v -2.607656 0.000000 -0.782468
v -2.780015 0.000000 -0.692962
v -2.830855 0.000000 -0.483362
v -2.844088 0.045573 -0.440624
vt 0.045931 0.072932
vt 0.075919 0.066366
vt 0.086407 0.084139
vt 0.073797 0.074378
vt 0.066358 0.065728
vt 0.040639 0.072917
vt 0.069878 0.086714
vt 0.035343 0.080906
vt 0.064342 0.074913
vt 0.069844 0.078116
vt 0.098739 0.080969
vt 0.098733 0.073061
vt 0.103908 0.073034
vt 0.061936 0.075016
vt 0.069877 0.081669
vt 0.069877 0.084164
vt 0.053306 0.084169
vt 0.056583 0.082166
vt 0.084744 0.055255
vt 0.058619 0.060274
vt 0.056226 0.060980
vt 0.054723 0.056466
vt 0.094171 0.064057
vt 0.101847 0.061982
vt 0.055459 0.051900
vt 0.072452 0.063791
vt 0.045302 0.063794
vt 0.050466 0.066901
vt 0.061761 0.062116
vt 0.089683 0.087132
vt 0.109434 0.096537
vt 0.091639 0.084158
vt 0.032905 0.089474
vt 0.050072 0.087135
vt 0.049823 0.096520
vt 0.069876 0.079765
vt 0.066745 0.089484
vt 0.069695 0.089485
vt 0.048170 0.084143
vt 0.089566 0.089491
vt 0.069877 0.079603
vt 0.050072 0.081149
vt 0.072646 0.089486
vt 0.084958 0.056847
vt 0.083491 0.061316
vt 0.058377 0.066095
vt 0.057729 0.065494
vt 0.086449 0.084160
vt 0.083171 0.082159
vt 0.056584 0.086169
vt 0.069878 0.086659
vt 0.082023 0.065785
vt 0.063049 0.060143
vt 0.078041 0.066366
vt 0.093566 0.081002
vt 0.089683 0.081146
vt 0.106485 0.089496
vt 0.083172 0.086162
vt 0.081152 0.060627
vt 0.081167 0.060293
vt 0.058602 0.059937
vt 0.058099 0.056607
vt 0.081391 0.066381
vt 0.069877 0.081567
vt 0.078041 0.074378
vt 0.084959 0.082442
vt 0.089564 0.096531
vt 0.106483 0.096536
vt 0.069879 0.088564
vt 0.089733 0.087061
vt 0.049825 0.089479
vt 0.050021 0.081268
vt 0.069878 0.088679
vt 0.066743 0.096525
vt 0.040636 0.080915
vt 0.066747 0.074810
vt 0.054796 0.085839
vt 0.084497 0.051858
vt 0.054941 0.054855
vt 0.091585 0.084139
vt 0.029953 0.096514
vt 0.109436 0.089497
vt 0.029955 0.089474
vt 0.084539 0.049910
vt 0.053348 0.084142
vt 0.103913 0.080940
vt 0.054796 0.082445
vt 0.069693 0.096526
vt 0.072644 0.096527
vt 0.048116 0.084170
vt 0.050023 0.087071
vt 0.089732 0.081257
vt 0.032903 0.096515
vt 0.075919 0.074378
vt 0.045929 0.080928
vt 0.084959 0.085836
vt 0.059004 0.058533
vt 0.063008 0.064117
vt 0.073797 0.066366
vt 0.037448 0.061725
vt 0.035345 0.072909
vt 0.067833 0.063695
vt 0.061547 0.065934
vt 0.089124 0.067149
vt 0.093559 0.073095
vt 0.084540 0.053806
vt 0.059016 0.054686
vt 0.070135 0.064122
vt 0.056270 0.053779
vt 0.063953 0.065831
vt 0.072055 0.077477
vt 0.076833 0.062273
vt 0.078250 0.060441
vt 0.080115 0.056676
vt 0.081701 0.054833
vt 0.081690 0.058528
vt 0.056268 0.050018
vt 0.078212 0.064134
vt 0.067662 0.077386
vn 0.219288 0.321297 0.921239
vn 0.371056 0.000000 0.928610
vn 0.000000 0.000000 1.000000
vn 0.000000 0.308042 0.951373
vn -0.021009 0.990954 -0.132546
vn -0.013790 0.998656 -0.049966
vn 0.000000 1.000000 -0.000000
vn 0.000000 0.988487 -0.151309
vn 0.000000 0.000000 -1.000000
vn -0.099683 -0.000000 -0.995019
vn -0.111196 0.317543 -0.941702
vn 0.000000 0.308042 -0.951373
vn 0.000000 -1.000000 -0.000000
vn -0.013790 -0.998656 -0.049966
vn -0.021009 -0.990954 -0.132546
vn 0.000000 -0.988487 -0.151309
vn 1.000000 0.000000 0.000000
vn 1.000000 0.000000 0.000000
vn 1.000000 0.000000 0.000000
vn 1.000000 0.000000 0.000000
vn -0.558767 0.000000 0.829325
vn -0.228225 0.000000 0.973608
vn -0.347197 0.553864 0.756763
vn -0.469409 0.542462 0.696700
vn -0.069602 -0.997574 -0.001314
vn -0.051489 -0.992572 -0.110222
vn -0.622151 0.000000 -0.782898
vn -0.784469 0.361419 -0.503969
vn -0.051489 0.992572 -0.110222
vn -0.069602 0.997574 -0.001314
vn 0.725702 0.320927 0.608575
vn 0.926621 0.000000 0.375997
vn 0.000000 0.234391 0.972142
vn 0.000000 0.000000 1.000000
vn 0.000000 0.000000 1.000000
vn 0.000000 0.234391 0.972142
vn 0.000000 0.979519 -0.201351
vn 0.000000 1.000000 -0.000000
vn 0.000000 1.000000 -0.000000
vn 0.000000 0.979519 -0.201351
vn 0.000000 0.000000 -1.000000
vn 0.000000 0.000000 -1.000000
vn 0.000000 0.234390 -0.972143
vn 0.000000 0.234390 -0.972143
vn 0.000000 -1.000000 -0.000000
vn 0.000000 -1.000000 -0.000000
vn 0.000000 -0.979519 -0.201351
vn 0.000000 -0.979519 -0.201351
vn -0.176946 -0.983049 -0.048016
vn 0.039397 -0.999213 0.004704
vn -0.907076 0.325153 -0.267375
vn -0.959197 0.000000 -0.282739
vn 0.039397 0.999213 0.004704
vn -0.176946 0.983049 -0.048016
vn 0.986825 0.000000 0.161790
vn 0.939351 0.306435 0.154006
vn -1.000000 0.000000 0.000000
vn -1.000000 0.000000 0.000000
vn -1.000000 0.000000 0.000000
vn -1.000000 0.000000 0.000000
vn 1.000000 0.000000 0.000000
vn 1.000000 0.000000 0.000000
vn 1.000000 0.000000 0.000000
vn 1.000000 0.000000 0.000000
vn -1.000000 0.000000 0.000000
vn -1.000000 0.000000 0.000000
vn -1.000000 0.000000 0.000000
vn -1.000000 0.000000 0.000000
vn 1.000000 0.000000 0.000000
vn 1.000000 0.000000 0.000000
vn -1.000000 0.000000 0.000000
vn -1.000000 0.000000 0.000000
vn 1.000000 0.000000 0.000000
vn -1.000000 0.000000 0.000000
vn -1.000000 0.000000 0.000000
vn -1.000000 0.000000 0.000000
vn -1.000000 0.000000 0.000000
vn 1.000000 0.000000 0.000000
vn 1.000000 0.000000 0.000000
vn 1.000000 0.000000 0.000000
vn 1.000000 0.000000 0.000000
vn 0.939351 -0.306435 0.154006
vn 0.725702 -0.320927 0.608574
vn 0.219288 -0.321297 0.921239
vn 0.000000 -0.308042 0.951373
vn -1.000000 0.000000 0.000000
vn -1.000000 0.000000 0.000000
vn 0.000000 -0.234391 0.972142
vn 0.000000 -0.234391 0.972142
vn 1.000000 0.000000 0.000000
vn 1.000000 0.000000 0.000000
vn 0.000000 -0.234390 -0.972143
vn 0.000000 -0.234390 -0.972143
vn -0.111196 -0.317543 -0.941702
vn 0.000000 -0.308042 -0.951373
vn -0.784469 -0.361419 -0.503969
vn -0.907075 -0.325153 -0.267375
vn -0.469409 -0.542462 0.696699
vn -0.347197 -0.553864 0.756762
vn 0.178769 0.983126 0.038797
vn 0.158484 0.985669 0.057789
vn 0.052373 0.989141 0.137325
vn 0.000000 0.988487 0.151309
vn 0.000000 0.979519 0.201351
vn 0.000000 0.979519 0.201351
vn 0.000000 -0.979519 0.201351
vn 0.000000 -0.979519 0.201351
vn 0.052373 -0.989141 0.137325
vn 0.000000 -0.988487 0.151309
vn 0.158484 -0.985669 0.057789
vn 0.178769 -0.983126 0.038797
vn -0.045305 -0.540808 0.839925
vn -0.053861 0.000000 0.998549
vn -0.045305 0.540807 0.839926
s 1
g Small_Sock
usemtl initialShadingGroup
f 12/99/1 31/2/2 32/94/3 14/4/4
s 2
f 11/101/5 45/6/6 46/75/7 15/8/8
s 3
f 39/9/9 40/110/10 11/5/11 15/76/12
s 4
f 54/11/13 55/12/14 10/13/15 16/86/16
s 5
f 49/15/17 50/16/18 36/17/19 6/18/20
s 6
f 42/79/21 58/61/22 43/21/23 5/22/24
s 4
f 55/12/14 56/23/25 18/24/26 10/13/15
s 3
f 40/10/10 41/108/27 19/26/28 11/111/11
s 2
f 19/100/29 44/27/30 45/6/6 11/101/5
s 1
f 20/98/31 30/29/32 31/112/2 12/118/1
s 7
f 22/93/33 33/81/34 34/83/35 24/33/36
s 8
f 25/74/37 47/35/38 48/71/39 26/37/40
s 9
f 37/38/41 38/88/42 25/74/43 26/37/44
s 10
f 52/40/45 53/67/46 27/89/47 28/43/48
s 4
f 7/44/49 18/24/26 56/23/25 57/45/50
s 3
f 5/106/51 19/109/28 41/25/27 42/78/52
s 2
f 43/21/53 44/27/30 19/100/29 5/22/54
s 1
f 29/62/55 30/114/32 20/116/31 3/97/56
s 11
f 14/96/57 32/3/58 33/80/59 22/30/60
s 5
f 34/32/61 35/48/62 4/49/63 24/92/64
s 11
f 15/77/65 46/7/66 47/73/67 25/34/68
s 5
f 48/36/69 49/15/17 6/18/20 26/72/70
s 11
f 38/39/71 39/85/72 15/77/65 25/34/68
s 5
f 6/18/20 36/17/19 37/90/73 26/72/70
s 11
f 53/41/74 54/64/75 16/87/76 27/42/77
s 5
f 8/50/78 51/51/79 52/69/80 28/91/81
s 1
f 1/107/82 17/115/83 30/114/32 29/62/55
f 31/112/2 30/29/32 17/53/83 9/113/84
f 32/94/3 31/2/2 9/54/84 13/65/85
s 11
f 33/80/59 32/3/58 13/66/86 21/56/87
s 7
f 34/82/35 33/31/34 21/68/88 23/57/89
s 5
f 2/58/90 35/48/62 34/32/61 23/70/91
f 50/16/18 51/51/79 8/50/78 36/17/19
f 37/90/73 36/17/19 8/50/78 28/91/81
s 9
f 27/89/92 38/88/42 37/38/41 28/43/93
s 11
f 16/87/76 39/85/72 38/39/71 27/42/77
s 3
f 10/103/94 40/110/10 39/9/9 16/14/95
f 18/102/96 41/108/27 40/10/10 10/119/94
f 42/78/52 41/25/27 18/117/96 7/84/97
s 6
f 7/44/98 57/45/99 58/60/22 42/19/21
s 2
f 3/47/100 20/28/101 44/27/30 43/21/53
f 45/6/6 44/27/30 20/28/101 12/1/102
f 46/75/7 45/6/6 12/1/102 14/95/103
s 11
f 47/73/67 46/7/66 14/96/57 22/30/60
s 8
f 48/71/39 47/35/38 22/93/104 24/33/105
s 5
f 4/49/63 49/15/17 48/36/69 24/92/64
f 35/48/62 50/16/18 49/15/17 4/49/63
f 2/58/90 51/51/79 50/16/18 35/48/62
f 52/69/80 51/51/79 2/58/90 23/70/91
s 10
f 21/68/106 53/67/46 52/40/45 23/57/107
s 11
f 13/66/86 54/64/75 53/41/74 21/56/87
s 4
f 9/105/108 55/12/14 54/11/13 13/55/109
f 17/104/110 56/23/25 55/12/14 9/105/108
f 57/45/50 56/23/25 17/104/110 1/52/111
s 6
f 58/59/22 57/45/99 1/52/112 29/63/113
f 43/21/23 58/20/22 29/46/113 3/47/114
