# This file uses centimeters as units for non-parametric coordinates.

mtllib Treat.mtl
g default
v -1.048509 -0.019376 4.265842
v -0.951491 -0.019376 4.265842
v -1.048509 0.019376 4.265842
v -0.951491 0.019376 4.265842
v -1.048509 0.019376 4.199230
v -0.951491 0.019376 4.199230
v -1.048509 -0.019376 4.199230
v -0.951491 -0.019376 4.199230
v -1.000000 -0.033894 4.261070
v -1.000000 -0.033894 4.204001
v -1.000000 0.033894 4.204001
v -1.000000 0.033894 4.261070
v -1.000000 0.022787 4.321517
v -1.000000 -0.022787 4.321517
v -0.971111 -0.019376 4.353088
v -0.971111 0.019376 4.353088
v -1.028889 -0.019376 4.353088
v -1.028889 0.019376 4.353088
v -1.000000 -0.022787 4.143555
v -1.000000 0.022787 4.143555
v -0.971111 0.019376 4.111984
v -0.971111 -0.019376 4.111984
v -1.028889 0.019376 4.111984
v -1.028889 -0.019376 4.111984
v -0.916939 -0.019376 4.303804
v -0.916939 0.019376 4.303804
v -0.928115 0.019376 4.328171
v -0.928115 -0.019376 4.328171
v -1.083061 -0.019376 4.303804
v -1.083061 0.019376 4.303804
v -1.071885 -0.019376 4.328171
v -1.071885 0.019376 4.328171
v -0.916939 0.019376 4.161267
v -0.916939 -0.019376 4.161267
v -0.928115 -0.019376 4.136901
v -0.928115 0.019376 4.136901
v -1.083061 0.019376 4.161267
v -1.083061 -0.019376 4.161267
v -1.071885 0.019376 4.136901
v -1.071885 -0.019376 4.136901
v -1.058890 0.000000 4.261070
v -1.100835 0.000000 4.297937
v -1.087363 0.000000 4.338775
v -1.035109 0.000000 4.364852
v -1.000000 0.000000 4.331811
v -0.964891 0.000000 4.364852
v -0.912637 0.000000 4.338775
v -0.899165 0.000000 4.297937
v -0.941110 0.000000 4.261070
v -0.941110 0.000000 4.204001
v -0.899165 0.000000 4.167135
v -0.912637 0.000000 4.126297
v -0.964891 0.000000 4.100219
v -1.000000 0.000000 4.133260
v -1.035109 0.000000 4.100219
v -1.087363 0.000000 4.126297
v -1.100835 0.000000 4.167135
v -1.058890 0.000000 4.204001
vt 0.490918 0.058186
vt 0.472611 0.058186
vt 0.472611 0.041952
vt 0.488177 0.044828
vt 0.554891 0.049967
vt 0.545213 0.049967
vt 0.544404 0.027537
vt 0.555701 0.027537
vt 0.510276 0.041952
vt 0.510276 0.058186
vt 0.491969 0.058186
vt 0.494709 0.044828
vt 0.581176 0.127351
vt 0.571497 0.127351
vt 0.570688 0.104921
vt 0.581985 0.104921
vt 0.544525 0.104511
vt 0.554203 0.104511
vt 0.555012 0.120079
vt 0.543715 0.120079
vt 0.532349 0.104511
vt 0.542028 0.104511
vt 0.542838 0.120079
vt 0.531540 0.120079
vt 0.570688 0.149781
vt 0.581985 0.149781
vt 0.494709 0.071543
vt 0.510276 0.074420
vt 0.544404 0.072397
vt 0.555701 0.072397
vt 0.472611 0.074420
vt 0.488177 0.071543
vt 0.596782 0.113993
vt 0.591428 0.127351
vt 0.472611 0.017790
vt 0.472611 0.011561
vt 0.488177 0.019779
vt 0.488177 0.024947
vt 0.534961 0.049967
vt 0.529606 0.036609
vt 0.596782 0.140709
vt 0.529606 0.063325
vt 0.488177 0.096593
vt 0.472611 0.104811
vt 0.472611 0.098582
vt 0.488177 0.091425
vt 0.570498 0.036609
vt 0.565143 0.049967
vt 0.494709 0.019779
vt 0.510276 0.011561
vt 0.510276 0.017790
vt 0.494709 0.024947
vt 0.561245 0.127351
vt 0.555890 0.113993
vt 0.570498 0.063325
vt 0.555890 0.140709
vt 0.510276 0.098582
vt 0.510276 0.104811
vt 0.494709 0.096593
vt 0.494709 0.091425
vt 0.530662 0.120948
vt 0.511267 0.120948
vt 0.506467 0.105382
vt 0.522443 0.105382
vt 0.533832 0.016729
vt 0.537965 0.011561
vt 0.588424 0.088945
vt 0.592557 0.094112
vt 0.505589 0.105382
vt 0.500790 0.120948
vt 0.481395 0.120948
vt 0.489613 0.105382
vt 0.592557 0.160590
vt 0.588424 0.165757
vt 0.537965 0.088374
vt 0.533832 0.083206
vt 0.456322 0.136515
vt 0.461122 0.120948
vt 0.480517 0.120948
vt 0.472298 0.136515
vt 0.560116 0.094112
vt 0.564249 0.088945
vt 0.562140 0.011561
vt 0.566272 0.016729
vt 0.454304 0.152653
vt 0.473699 0.152653
vt 0.478499 0.168220
vt 0.462522 0.168220
vt 0.566272 0.083206
vt 0.562140 0.088374
vt 0.564249 0.165757
vt 0.560116 0.160590
vt 0.505589 0.136515
vt 0.489613 0.136515
vt 0.457044 0.096593
vt 0.457044 0.091425
vt 0.457044 0.071543
vt 0.454304 0.058186
vt 0.457044 0.044828
vt 0.457044 0.024947
vt 0.457044 0.019779
vt 0.506467 0.136515
vt 0.522443 0.136515
vt 0.543715 0.088945
vt 0.555012 0.088945
vt 0.456322 0.105382
vt 0.472298 0.105382
vt 0.525842 0.019779
vt 0.525842 0.024947
vt 0.525842 0.044828
vt 0.528583 0.058186
vt 0.525842 0.071543
vt 0.525842 0.091425
vt 0.525842 0.096593
vt 0.478499 0.137086
vt 0.462522 0.137086
vt 0.531540 0.088945
vt 0.542838 0.088945
vn 0.000000 0.352927 0.935651
vn 0.000000 0.000000 1.000000
vn -0.018590 0.000000 0.999827
vn -0.191550 0.520806 0.831907
vn 0.000000 0.999044 -0.043721
vn 0.000000 0.999044 0.043721
vn 0.165780 0.985766 0.027967
vn 0.165780 0.985766 -0.027967
vn -0.018590 0.000000 -0.999827
vn 0.000000 0.000000 -1.000000
vn 0.000000 0.352928 -0.935651
vn -0.191550 0.520807 -0.831907
vn 0.000000 -0.999044 0.043721
vn 0.000000 -0.999044 -0.043721
vn 0.165780 -0.985766 -0.027967
vn 0.165780 -0.985766 0.027967
vn 1.000000 0.000000 0.000000
vn 1.000000 0.000000 0.000000
vn 0.881477 0.472227 0.000000
vn 0.881477 0.472227 0.000000
vn -1.000000 0.000000 0.000000
vn -1.000000 0.000000 0.000000
vn -0.881477 0.472228 0.000000
vn -0.881477 0.472228 0.000000
vn -0.165780 -0.985766 -0.027967
vn 0.000000 -0.999044 -0.043721
vn 0.000000 -0.999044 0.043721
vn -0.165780 -0.985766 0.027967
vn 0.191550 0.520806 -0.831907
vn 0.000000 0.352928 -0.935651
vn 0.000000 0.000000 -1.000000
vn 0.018589 0.000000 -0.999827
vn -0.165780 0.985766 0.027967
vn 0.000000 0.999044 0.043721
vn 0.000000 0.999044 -0.043721
vn -0.165780 0.985766 -0.027967
vn 0.018590 0.000000 0.999827
vn 0.000000 0.000000 1.000000
vn 0.000000 0.352927 0.935651
vn 0.191551 0.520806 0.831907
vn 0.000000 -0.999044 0.043721
vn 0.165780 -0.985766 0.027967
vn 0.135415 -0.988089 0.073096
vn 0.000000 -0.995061 0.099261
vn 0.935401 0.000000 0.353589
vn 0.935401 0.000000 0.353589
vn 0.714186 0.645799 0.269968
vn 0.714186 0.645799 0.269968
vn 0.165780 0.985766 0.027967
vn 0.000000 0.999044 0.043721
vn 0.000000 0.995061 0.099261
vn 0.135415 0.988089 0.073096
vn -0.165780 -0.985766 0.027967
vn 0.000000 -0.999044 0.043721
vn 0.000000 -0.995061 0.099261
vn -0.135415 -0.988089 0.073096
vn 0.000000 0.999044 0.043721
vn -0.165780 0.985766 0.027967
vn -0.135415 0.988089 0.073096
vn 0.000000 0.995061 0.099261
vn -0.714185 0.645799 0.269968
vn -0.935401 0.000000 0.353589
vn -0.935401 0.000000 0.353589
vn -0.714185 0.645799 0.269968
vn 0.000000 0.999044 -0.043721
vn 0.165780 0.985766 -0.027967
vn 0.135415 0.988089 -0.073096
vn 0.000000 0.995061 -0.099261
vn 0.714185 0.645799 -0.269968
vn 0.935401 0.000000 -0.353589
vn 0.935401 0.000000 -0.353589
vn 0.714185 0.645799 -0.269968
vn 0.165780 -0.985766 -0.027967
vn 0.000000 -0.999044 -0.043721
vn 0.000000 -0.995061 -0.099261
vn 0.135415 -0.988089 -0.073096
vn -0.165780 0.985766 -0.027967
vn 0.000000 0.999044 -0.043721
vn 0.000000 0.995061 -0.099261
vn -0.135415 0.988089 -0.073096
vn 0.000000 -0.999044 -0.043721
vn -0.165780 -0.985766 -0.027967
vn -0.135415 -0.988089 -0.073096
vn 0.000000 -0.995061 -0.099261
vn -0.935401 0.000000 -0.353589
vn -0.935401 0.000000 -0.353589
vn -0.714185 0.645799 -0.269968
vn -0.714185 0.645799 -0.269968
vn 0.699273 0.000000 -0.714855
vn 0.699273 0.000000 -0.714855
vn 0.571713 0.575812 -0.584452
vn 0.571713 0.575812 -0.584452
vn 0.165780 0.985766 0.027967
vn 0.135415 0.988089 0.073096
vn 0.000000 1.000000 0.000000
vn 0.000000 1.000000 0.000000
vn -0.191550 0.520806 0.831907
vn -0.018590 0.000000 0.999827
vn 0.471988 0.000000 0.881605
vn 0.373402 0.611653 0.697461
vn 0.135415 -0.988089 0.073096
vn 0.165780 -0.985766 0.027967
vn 0.000000 -1.000000 0.000000
vn 0.000000 -1.000000 0.000000
vn -0.571714 0.575813 -0.584451
vn -0.699274 0.000000 -0.714854
vn -0.699274 0.000000 -0.714854
vn -0.571714 0.575813 -0.584451
vn -0.165780 -0.985766 0.027967
vn -0.135415 -0.988089 0.073096
vn 0.000000 -1.000000 0.000000
vn 0.000000 -1.000000 0.000000
vn -0.471988 0.000000 0.881605
vn 0.018590 0.000000 0.999827
vn 0.191551 0.520806 0.831907
vn -0.373402 0.611653 0.697460
vn -0.135415 0.988089 0.073096
vn -0.165780 0.985766 0.027967
vn 0.000000 1.000000 0.000000
vn 0.000000 1.000000 0.000000
vn 0.571713 0.575812 0.584452
vn 0.699273 0.000000 0.714855
vn 0.699273 0.000000 0.714855
vn 0.571713 0.575812 0.584452
vn 0.165780 -0.985766 -0.027967
vn 0.135415 -0.988089 -0.073096
vn 0.000000 -1.000000 0.000000
vn 0.000000 -1.000000 0.000000
vn 0.471988 0.000000 -0.881605
vn -0.018590 0.000000 -0.999827
vn -0.191550 0.520807 -0.831907
vn 0.373402 0.611653 -0.697461
vn 0.135415 0.988089 -0.073096
vn 0.165780 0.985766 -0.027967
vn 0.000000 1.000000 0.000000
vn 0.000000 1.000000 0.000000
vn -0.699274 0.000000 0.714854
vn -0.699274 0.000000 0.714854
vn -0.571714 0.575813 0.584451
vn -0.571714 0.575813 0.584451
vn -0.165780 0.985766 -0.027967
vn -0.135415 0.988089 -0.073096
vn 0.000000 1.000000 0.000000
vn 0.000000 1.000000 0.000000
vn 0.191550 0.520806 -0.831907
vn 0.018589 0.000000 -0.999827
vn -0.471988 0.000000 -0.881605
vn -0.373402 0.611654 -0.697460
vn -0.135415 -0.988089 -0.073096
vn -0.165780 -0.985766 -0.027967
vn 0.000000 -1.000000 0.000000
vn 0.000000 -1.000000 0.000000
vn -0.699274 0.000000 -0.714854
vn -0.699274 0.000000 -0.714854
vn -0.571714 -0.575813 -0.584451
vn -0.571714 -0.575813 -0.584451
vn -0.935401 0.000000 0.353589
vn -0.935401 0.000000 0.353589
vn -0.714185 -0.645799 0.269968
vn -0.714185 -0.645799 0.269968
vn 0.191551 -0.520806 0.831907
vn 0.018590 0.000000 0.999827
vn -0.471988 0.000000 0.881605
vn -0.373402 -0.611653 0.697460
vn 0.191551 -0.520806 0.831907
vn 0.000000 -0.352927 0.935651
vn 0.000000 0.000000 1.000000
vn 0.018590 0.000000 0.999827
vn -0.018590 0.000000 0.999827
vn 0.000000 0.000000 1.000000
vn 0.000000 -0.352927 0.935651
vn -0.191550 -0.520806 0.831907
vn 0.471988 0.000000 0.881605
vn -0.018590 0.000000 0.999827
vn -0.191550 -0.520806 0.831907
vn 0.373402 -0.611653 0.697461
vn 0.714186 -0.645799 0.269968
vn 0.935401 0.000000 0.353589
vn 0.935401 0.000000 0.353589
vn 0.714186 -0.645799 0.269968
vn 0.571713 -0.575812 -0.584452
vn 0.699273 0.000000 -0.714855
vn 0.699273 0.000000 -0.714855
vn 0.571713 -0.575812 -0.584452
vn 0.881477 -0.472227 0.000000
vn 0.881477 -0.472227 0.000000
vn 1.000000 0.000000 0.000000
vn 1.000000 0.000000 0.000000
vn 0.699273 0.000000 0.714855
vn 0.699273 0.000000 0.714855
vn 0.571713 -0.575812 0.584452
vn 0.571713 -0.575812 0.584452
vn 0.935401 0.000000 -0.353589
vn 0.935401 0.000000 -0.353589
vn 0.714185 -0.645799 -0.269968
vn 0.714185 -0.645799 -0.269968
vn -0.191550 -0.520807 -0.831907
vn -0.018590 0.000000 -0.999827
vn 0.471988 0.000000 -0.881605
vn 0.373402 -0.611653 -0.697461
vn 0.000000 -0.352928 -0.935651
vn 0.000000 0.000000 -1.000000
vn -0.018590 0.000000 -0.999827
vn -0.191550 -0.520807 -0.831907
vn 0.018589 0.000000 -0.999827
vn 0.000000 0.000000 -1.000000
vn 0.000000 -0.352928 -0.935651
vn 0.191550 -0.520806 -0.831907
vn -0.471988 0.000000 -0.881605
vn 0.018589 0.000000 -0.999827
vn 0.191550 -0.520806 -0.831907
vn -0.373402 -0.611654 -0.697460
vn -0.714185 -0.645799 -0.269968
vn -0.935401 0.000000 -0.353589
vn -0.935401 0.000000 -0.353589
vn -0.714185 -0.645799 -0.269968
vn -0.571714 -0.575813 0.584451
vn -0.699274 0.000000 0.714854
vn -0.699274 0.000000 0.714854
vn -0.571714 -0.575812 0.584451
vn -0.881477 -0.472228 0.000000
vn -0.881477 -0.472228 0.000000
vn -1.000000 0.000000 0.000000
vn -1.000000 0.000000 0.000000
s off
g Dog_Treat
usemtl Dog_Treat_initialShadingGroup
f 13/1/1 45/2/2 46/3/3 16/4/4
f 11/5/5 12/6/6 4/7/7 6/8/8
f 53/9/9 54/10/10 20/11/11 21/12/12
f 9/13/13 10/14/14 8/15/15 2/16/16
f 49/17/17 50/18/18 6/19/19 4/20/20
f 58/21/21 41/22/22 3/23/23 5/24/24
f 7/25/25 10/14/26 9/13/27 1/26/28
f 23/27/29 20/11/30 54/10/31 55/28/32
f 3/29/33 12/6/34 11/5/35 5/30/36
f 44/31/37 45/2/38 13/1/39 18/32/40
f 9/13/41 2/16/42 15/33/43 14/34/44
f 47/35/45 48/36/46 26/37/47 27/38/48
f 4/7/49 12/6/50 13/39/51 16/40/52
f 1/26/53 9/13/54 14/34/55 17/41/56
f 12/6/57 3/29/58 18/42/59 13/39/60
f 30/43/61 42/44/62 43/45/63 32/46/64
f 11/5/65 6/8/66 21/47/67 20/48/68
f 33/49/69 51/50/70 52/51/71 36/52/72
f 8/15/73 10/14/74 19/53/75 22/54/76
f 5/30/77 11/5/78 20/48/79 23/55/80
f 10/14/81 7/25/82 24/56/83 19/53/84
f 56/57/85 57/58/86 37/59/87 39/60/88
f 48/61/89 49/62/90 4/63/91 26/64/92
f 4/7/93 16/40/94 27/65/95 26/66/96
f 16/4/97 46/3/98 47/35/99 27/38/100
f 15/33/101 2/16/102 25/67/103 28/68/104
f 3/69/105 41/70/106 42/71/107 30/72/108
f 1/26/109 17/41/110 31/73/111 29/74/112
f 43/45/113 44/31/114 18/32/115 32/46/116
f 18/42/117 3/29/118 30/75/119 32/76/120
f 6/77/121 50/78/122 51/79/123 33/80/124
f 8/15/125 22/54/126 35/81/127 34/82/128
f 52/51/129 53/9/130 21/12/131 36/52/132
f 21/47/133 6/8/134 33/83/135 36/84/136
f 57/85/137 58/86/138 5/87/139 37/88/140
f 5/30/141 23/55/142 39/89/143 37/90/144
f 23/27/145 55/28/146 56/57/147 39/60/148
f 24/56/149 7/25/150 38/91/151 40/92/152
f 42/71/153 41/70/154 1/93/155 29/94/156
f 43/45/157 42/44/158 29/95/159 31/96/160
f 17/97/161 44/31/162 43/45/163 31/96/164
f 17/97/165 14/98/166 45/2/167 44/31/168
f 46/3/169 45/2/170 14/98/171 15/99/172
f 47/35/173 46/3/174 15/99/175 28/100/176
f 25/101/177 48/36/178 47/35/179 28/100/180
f 2/102/181 49/62/182 48/61/183 25/103/184
f 2/104/185 8/105/186 50/18/187 49/17/188
f 51/79/189 50/78/190 8/106/191 34/107/192
f 52/51/193 51/50/194 34/108/195 35/109/196
f 22/110/197 53/9/198 52/51/199 35/109/200
f 19/111/201 54/10/202 53/9/203 22/110/204
f 55/28/205 54/10/206 19/111/207 24/112/208
f 56/57/209 55/28/210 24/112/211 40/113/212
f 38/114/213 57/58/214 56/57/215 40/113/216
f 7/115/217 58/86/218 57/85/219 38/116/220
f 7/117/221 1/118/222 41/22/223 58/21/224
