# This file uses meters as units for non-parametric coordinates.

mtllib Roof_Long.mtl
g default
v -200.000000 300.000000 -600.000000
v 200.000000 300.000000 -600.000000
v -200.000000 400.000000 -1000.000000
v 200.000000 400.000000 -1000.000000
vt 0.000000 0.000162
vt 0.250000 0.000162
vt 0.250000 0.250162
vt 0.000000 0.250162
vn 0.000000 0.970143 0.242536
vn 0.000000 0.970143 0.242536
vn 0.000000 0.970143 0.242536
vn 0.000000 0.970143 0.242536
s off
g Roof_Long_LP
usemtl initialShadingGroup
f 1/1/1 2/2/2 4/3/3 3/4/4
