# This file uses centimeters as units for non-parametric coordinates.

mtllib Cash_Registar.mtl
g default
v 1.677073 0.000000 0.322927
v 2.322928 0.000000 0.322927
v 1.677073 0.094592 0.322927
v 2.322928 0.094592 0.322927
v 1.677073 0.094592 -0.322927
v 2.322928 0.094592 -0.322927
v 1.677073 0.000000 -0.322927
v 2.322928 0.000000 -0.322927
v 1.892066 0.157793 0.107934
v 2.107935 0.157793 0.107934
v 2.107935 0.157793 -0.107934
v 1.892066 0.157793 -0.107934
v 1.928392 0.324160 0.107934
v 2.093934 0.185614 0.107934
v 2.093934 0.185614 -0.107934
v 1.928392 0.324160 -0.107934
v 2.007541 0.418732 0.107934
v 2.173083 0.280186 0.107934
v 2.173083 0.280186 -0.107934
v 2.007541 0.418732 -0.107934
v 1.889776 0.557514 0.329302
v 2.330820 0.189280 0.329302
v 2.330820 0.189280 -0.329302
v 1.889776 0.557514 -0.329302
v 1.905398 0.576063 0.329302
v 2.346442 0.207829 0.329302
v 2.346442 0.207829 -0.329302
v 1.905398 0.576063 -0.329302
vt 0.961002 0.550982
vt 0.796930 0.660557
vt 0.796930 0.638069
vt 0.776841 0.623314
vt 0.776841 0.683082
vt 0.771568 0.532487
vt 0.846050 0.535537
vt 0.843142 0.618816
vt 0.768368 0.615766
vt 0.771422 0.535532
vt 0.843001 0.535536
vt 0.842996 0.615770
vt 0.771417 0.615766
vt 0.816520 0.638069
vt 0.771563 0.618812
vt 0.836609 0.623314
vt 0.846045 0.615771
vt 0.816520 0.660557
vt 0.843146 0.532491
vt 0.836609 0.683082
vt 0.768373 0.535532
vt 0.970304 0.550982
vt 0.970304 0.648525
vt 0.961002 0.648525
vt 0.863459 0.550982
vt 0.863459 0.535921
vt 0.961002 0.535921
vt 0.863459 0.648525
vt 0.961002 0.663586
vt 0.863459 0.663586
vt 0.814487 0.812988
vt 0.814487 0.766742
vt 0.820770 0.766742
vt 0.820770 0.812988
vt 0.842130 0.766742
vt 0.842130 0.812988
vt 0.794154 0.692707
vt 0.840401 0.692707
vt 0.840401 0.730282
vt 0.794154 0.730282
vt 0.840401 0.751642
vt 0.794154 0.751642
vt 0.848655 0.808483
vt 0.848655 0.670117
vt 0.894715 0.716176
vt 0.894715 0.762423
vt 0.987021 0.670117
vt 0.940962 0.716176
vt 0.987021 0.808483
vt 0.940962 0.762423
vt 0.848398 0.648525
vt 0.848398 0.550982
vt 0.753932 0.811430
vt 0.753932 0.765183
vt 0.760216 0.768182
vt 0.791507 0.803648
vt 0.781575 0.751226
vt 0.812867 0.786691
vt 0.791959 0.706664
vt 0.791959 0.752911
vt 0.754384 0.745129
vt 0.785676 0.709664
vt 0.733025 0.728172
vt 0.764316 0.692707
vn 0.000000 0.000000 1.000000
vn 0.000000 0.000000 1.000000
vn 0.000000 0.000000 1.000000
vn 0.000000 0.000000 1.000000
vn 0.640900 0.767624 0.000000
vn 0.640900 0.767624 0.000000
vn 0.640900 0.767624 0.000000
vn 0.640900 0.767624 0.000000
vn 0.000000 0.000000 -1.000000
vn 0.000000 0.000000 -1.000000
vn 0.000000 0.000000 -1.000000
vn 0.000000 0.000000 -1.000000
vn 0.000000 -1.000000 0.000000
vn 0.000000 -1.000000 0.000000
vn 0.000000 -1.000000 0.000000
vn 0.000000 -1.000000 0.000000
vn 1.000000 0.000000 0.000000
vn 1.000000 0.000000 0.000000
vn 1.000000 0.000000 0.000000
vn 1.000000 0.000000 0.000000
vn -1.000000 0.000000 0.000000
vn -1.000000 0.000000 0.000000
vn -1.000000 0.000000 0.000000
vn -1.000000 0.000000 0.000000
vn 0.000000 0.959405 0.282032
vn 0.000000 0.959405 0.282032
vn 0.000000 0.959405 0.282032
vn 0.000000 0.959405 0.282032
vn 0.282032 0.959405 0.000000
vn 0.282032 0.959405 0.000000
vn 0.282032 0.959405 0.000000
vn 0.282032 0.959405 0.000000
vn 0.000000 0.959405 -0.282032
vn 0.000000 0.959405 -0.282032
vn 0.000000 0.959405 -0.282032
vn 0.000000 0.959405 -0.282032
vn -0.282032 0.959405 0.000000
vn -0.282032 0.959405 0.000000
vn -0.282032 0.959405 0.000000
vn -0.282032 0.959405 0.000000
vn 0.000000 0.000000 1.000000
vn 0.000000 0.000000 1.000000
vn 0.000000 0.000000 1.000000
vn 0.000000 0.000000 1.000000
vn 0.893267 0.449526 0.000000
vn 0.893267 0.449526 0.000000
vn 0.893267 0.449526 0.000000
vn 0.893267 0.449526 0.000000
vn -0.000000 0.000000 -1.000000
vn -0.000000 0.000000 -1.000000
vn -0.000000 0.000000 -1.000000
vn -0.000000 0.000000 -1.000000
vn -0.976982 0.213322 0.000000
vn -0.976982 0.213322 0.000000
vn -0.914458 0.404682 0.000000
vn -0.914458 0.404682 0.000000
vn -0.603238 -0.722040 0.338767
vn -0.606061 -0.725419 0.326279
vn 0.766865 -0.641808 0.000000
vn 0.766865 -0.641808 0.000000
vn -0.316166 -0.948704 0.000000
vn -0.316166 -0.948704 0.000000
vn -0.606061 -0.725419 -0.326279
vn -0.603238 -0.722040 -0.338767
vn -0.876846 -0.480771 0.000000
vn -0.876846 -0.480771 0.000000
vn -0.592420 -0.709091 0.382398
vn -0.588162 -0.703994 0.398068
vn -0.130476 -0.991451 0.000000
vn -0.130476 -0.991451 0.000000
vn -0.588162 -0.703994 -0.398068
vn -0.592420 -0.709091 -0.382398
vn -0.951235 -0.308466 0.000000
vn -0.951235 -0.308466 0.000000
vn 0.000000 0.000000 1.000000
vn 0.000000 0.000000 1.000000
vn 0.764868 -0.644187 0.000000
vn 0.764868 -0.644187 0.000000
vn 0.000000 0.000000 -1.000000
vn 0.000000 0.000000 -1.000000
vn -0.764879 0.644175 0.000000
vn -0.764879 0.644175 0.000000
s off
g pCube4
usemtl initialShadingGroup
f 1/24/1 2/1/2 4/22/3 3/23/4
f 25/10/5 26/11/6 27/12/7 28/13/8
f 5/51/9 6/52/10 8/25/11 7/28/12
f 7/28/13 8/25/14 2/1/15 1/24/16
f 2/1/17 8/25/18 6/26/19 4/27/20
f 7/28/21 1/24/22 3/29/23 5/30/24
f 3/43/25 4/44/26 10/45/27 9/46/28
f 4/44/29 6/47/30 11/48/31 10/45/32
f 6/47/33 5/49/34 12/50/35 11/48/36
f 5/49/37 3/43/38 9/46/39 12/50/40
s 1
f 9/53/41 10/54/42 14/55/43 13/56/44
s off
f 10/31/45 11/32/46 15/33/47 14/34/48
s 2
f 11/59/49 12/60/50 16/61/51 15/62/52
s 3
f 12/37/53 9/38/54 13/39/55 16/40/56
s 1
f 13/56/44 14/55/43 18/57/57 17/58/58
s 4
f 14/34/59 15/33/60 19/35/61 18/36/62
s 2
f 15/62/52 16/61/51 20/63/63 19/64/64
s 3
f 16/40/56 13/39/55 17/41/65 20/42/66
s 1
f 17/2/58 18/3/57 22/4/67 21/5/68
s 4
f 18/3/62 19/14/61 23/16/69 22/4/70
s 2
f 19/14/64 20/18/63 24/20/71 23/16/72
s 3
f 20/18/66 17/2/65 21/5/73 24/20/74
s 1
f 21/6/68 22/19/67 26/11/75 25/10/76
s 4
f 22/7/70 23/17/69 27/12/77 26/11/78
s 2
f 23/8/72 24/15/71 28/13/79 27/12/80
s 3
f 24/9/74 21/21/73 25/10/81 28/13/82
