# This file uses centimeters as units for non-parametric coordinates.

mtllib Chicken wire fence medium.mtl
g default
v 2.000000 2.000000 -6.000000
v 2.000000 -0.000000 -6.000000
v 2.000000 2.000000 -8.000000
v 2.000000 0.000000 -8.000000
vt 0.203589 0.992009
vt 0.203589 0.802264
vt 0.298461 0.992009
vt 0.298461 0.802264
vn 1.000000 0.000000 0.000000
vn 1.000000 0.000000 0.000000
vn 1.000000 0.000000 0.000000
vn 1.000000 0.000000 0.000000
s off
g pPlane2
usemtl initialShadingGroup
f 1/1/1 2/2/2 4/4/3 3/3/4
