# This file uses centimeters as units for non-parametric coordinates.

mtllib Fern.mtl
g default
v -0.298869 0.245952 0.150385
v 0.000535 0.000000 0.002575
v -0.512687 0.273044 -0.045083
v -0.265548 0.245952 -0.208882
v -0.016830 0.219239 -0.017309
v -0.477259 0.309341 0.482709
v -0.103979 0.391609 0.380646
v -0.375197 0.391609 0.109428
v 0.000535 0.000000 0.002575
v 0.000535 0.407754 0.002575
v 0.244525 0.395605 0.226034
v 0.512152 0.333395 0.141764
v 0.000535 0.000000 0.002575
v 0.308079 0.395605 -0.076149
v 0.033536 0.320214 0.002936
v 0.000535 0.000000 0.002575
v 0.181603 0.153383 -0.079355
v 0.050012 0.153383 -0.210946
v 0.197566 0.138547 -0.225619
v 0.029229 0.163886 -0.056117
v -0.295765 0.323231 -0.041710
v 0.276249 0.448198 0.075127
v -0.240168 0.448198 0.244457
v 0.072953 0.300085 -0.089588
v 0.033522 0.300085 0.097897
v 0.001468 0.150563 -0.090699
v 0.078268 0.150563 -0.028288
v -0.046118 0.176275 0.064935
v -0.049067 0.157964 -0.114699
v -0.160924 0.348902 -0.064634
v 0.054936 0.348902 0.151226
v 0.119193 0.169423 -0.148658
vt 0.287064 0.388308
vt 0.367448 0.409490
vt 0.362166 0.473590
vt 0.438143 0.385792
vt 0.365771 0.280035
vt 0.510656 0.556444
vt 0.452016 0.569356
vt 0.443948 0.463710
vt 0.496218 0.472864
vt 0.391752 0.565362
vt 0.273055 0.700653
vt 0.295466 0.581106
vt 0.342841 0.577799
vt 0.347179 0.716398
vt 0.386433 0.585156
vt 0.293533 0.163127
vt 0.320572 0.106203
vt 0.343131 0.106582
vt 0.340069 0.169799
vt 0.370655 0.112845
vt 0.329794 0.282126
vt 0.420463 0.706867
vt 0.399598 0.480407
vt 0.348601 0.786287
vt 0.345633 0.519692
vt 0.386970 0.166188
vt 0.354870 0.055666
vt 0.405669 0.285401
vt 0.358263 0.239762
vt 0.440604 0.423292
vt 0.457003 0.636193
vt 0.339025 0.214841
vn 0.191817 0.891442 0.410534
vn 0.176479 0.984240 -0.011263
vn -0.225568 0.974150 0.012306
vn 0.288565 0.848867 -0.442895
vn -0.242812 0.947275 -0.209074
vn -0.037049 0.998614 0.037386
vn 0.420694 0.798558 -0.430490
vn 0.030640 0.780181 -0.624803
vn 0.213482 0.943942 0.251791
vn 0.631490 0.775353 -0.006993
vn 0.693590 -0.000000 -0.720370
vn -0.102629 0.936302 -0.335866
vn -0.543060 0.732514 -0.410499
vn -0.663918 0.732099 -0.152460
vn -0.122505 0.992240 -0.021245
vn -0.674820 0.720849 0.158098
vn -0.236934 0.932600 0.272249
vn -0.122742 0.979000 -0.162767
vn -0.390424 0.918562 0.061746
vn -0.277180 0.909809 0.308900
vn 0.041958 0.998019 -0.046887
vn -0.041122 0.908752 0.415305
vn 0.160589 0.980297 0.115015
vn 0.544762 0.838568 0.006180
vn 0.441991 0.785451 0.433256
vn 0.543918 0.715633 -0.438203
vn 0.413972 0.905391 0.094306
vn -0.269187 0.924237 0.270783
vn -0.972516 0.100464 -0.210048
vn -0.562258 0.364310 0.742390
vn 0.995244 0.072975 -0.064532
vn 0.192075 0.962690 -0.190619
s 1
g Fern
usemtl initialShadingGroup
f 1/1/1 21/2/2 3/3/3
f 3/3/3 21/2/2 4/4/4
s 2
f 8/6/5 23/7/6 10/8/7 30/9/8
f 10/8/7 23/7/6 7/10/9 31/23/10
f 10/8/7 31/23/10 9/30/11
f 30/9/8 10/8/7 9/30/11
s 3
f 14/11/12 24/12/13 15/13/14 22/14/15
f 15/13/14 25/15/16 11/22/17 22/14/15
s 4
f 18/16/18 26/17/19 20/18/20 32/19/21
f 20/18/20 27/20/22 17/26/23 32/19/21
s 1
f 5/5/24 21/2/2 1/1/1 28/21/25
f 4/4/4 21/2/2 5/5/24 29/28/26
s 3
f 11/22/17 12/24/27 22/14/15
f 14/11/12 22/14/15 12/24/27
s 2
f 6/31/28 23/7/6 8/6/5
f 6/31/28 7/10/9 23/7/6
s 3
f 13/25/29 15/13/14 24/12/13
f 25/15/16 15/13/14 13/25/29
s 4
f 16/27/30 20/18/20 26/17/19
f 16/27/30 27/20/22 20/18/20
s 1
f 5/5/24 28/21/25 2/29/31
f 29/28/26 5/5/24 2/29/31
s 4
f 32/19/21 17/26/23 19/32/32
f 18/16/18 32/19/21 19/32/32
