# This file uses meters as units for non-parametric coordinates.

mtllib Hedge_T_Junction Update.mtl
g default
v -669.971420 0.000000 0.000000
v -530.062658 0.000000 0.000000
v -500.000000 0.000000 0.000000
v -700.000000 0.000000 0.000000
v -669.971420 170.003006 0.000000
v -669.971420 200.000000 -29.997009
v -530.062658 200.000000 -29.997009
v -530.062658 170.003006 0.000000
v -529.997009 200.000000 -170.002991
v -500.000000 170.003014 -200.000000
v -500.000000 200.000000 -170.002991
v -500.000000 170.003006 0.000000
v -500.000000 200.000000 -29.997009
v -700.000000 200.000000 -29.997009
v -700.000000 170.003006 0.000000
v -700.000000 170.003014 -200.000000
v -670.002991 200.000000 -170.002991
v -700.000000 200.000000 -170.002991
v -670.002991 200.000000 -200.000000
v -529.997009 200.000000 -200.000000
vt 0.039551 0.791976
vt 0.210608 0.791976
vt 0.210688 0.963152
vt 0.039513 0.963152
vt 0.289050 0.712013
vt 0.461900 0.711651
vt 0.499121 0.748661
vt 0.247364 0.963152
vt 0.210688 0.999827
vt 0.039513 0.999827
vt 0.002838 0.963152
vt 0.002838 0.791977
vt 0.252363 0.711651
vt 0.499121 0.711651
vt 0.247364 0.999827
vt 0.002838 0.999827
vt 0.289050 0.501873
vt 0.461900 0.501903
vt 0.499121 0.501903
vt 0.252363 0.501903
vt 0.247364 0.791976
vt 0.461900 0.748661
vt 0.289393 0.748661
vt 0.251846 0.749178
vn 0.000000 0.148326 0.988939
vn 0.000000 0.984794 0.173726
vn 0.000000 0.984774 0.173838
vn 0.000000 0.148326 0.988939
vn 0.000000 0.148326 0.988939
vn 0.000000 0.984794 0.173726
vn 0.000000 0.148326 0.988939
vn 0.000000 0.984760 0.173917
vn 0.009586 0.999908 -0.009586
vn 0.408248 0.816497 -0.408248
vn 0.096312 0.995351 0.000000
vn 0.000000 0.995360 -0.096218
vn -0.408248 0.816497 -0.408248
vn -0.009586 0.999908 -0.009586
vn -0.096312 0.995351 0.000000
vn 0.000000 0.995356 -0.096267
vn 0.000000 0.000000 1.000000
vn 0.000000 0.000000 1.000000
vn 0.000000 0.000000 1.000000
vn 0.000000 0.000000 1.000000
s 1
g Hedge_T_Juction_LP
usemtl initialShadingGroup
f 5/5/1 6/23/2 14/24/3 15/13/4
f 6/23/2 5/5/1 8/6/5 7/22/6
f 7/22/6 8/6/5 12/14/7 13/7/8
f 9/3/9 10/15/10 20/9/11
f 10/15/10 9/3/9 11/8/12
f 16/16/13 17/4/14 19/10/15
f 17/4/14 16/16/13 18/11/16
f 1/17/17 2/18/18 8/6/5 5/5/1
f 6/1/2 7/2/6 9/3/9 17/4/14
f 9/3/9 7/2/6 13/21/8 11/8/12
f 8/6/5 2/18/18 3/19/19 12/14/7
f 1/17/17 5/5/1 15/13/4 4/20/20
f 6/1/2 17/4/14 18/11/16 14/12/3
f 17/4/14 9/3/9 20/9/11 19/10/15
