# This file uses meters as units for non-parametric coordinates.

mtllib Hedge_Medium Update.mtl
g default
v 100.000000 0.000000 0.000000
v 300.000000 0.000000 0.000000
v 100.000000 0.000000 -200.000000
v 300.000000 0.000000 -200.000000
v 100.000000 200.000000 -29.997009
v 100.000000 170.003006 0.000000
v 300.000000 200.000000 -29.997009
v 300.000000 170.003006 0.000000
v 100.000000 170.003006 -200.000000
v 100.000000 200.000000 -170.002991
v 300.000000 170.003006 -200.000000
v 300.000000 200.000000 -170.002991
vt 0.871919 0.499090
vt 0.871919 0.001261
vt 0.622544 0.001261
vt 0.871919 0.142315
vt 0.622544 0.358036
vt 0.622544 0.499090
vt 0.622544 0.192093
vt 0.871919 0.308258
vt 0.622544 0.142315
vt 0.871919 0.192093
vt 0.622544 0.308258
vt 0.871919 0.358036
vn 0.000000 0.000000 1.000000
vn 0.000000 0.000000 1.000000
vn 0.000000 0.148326 0.988939
vn 0.000000 0.148326 0.988939
vn 0.000000 0.984787 0.173765
vn 0.000000 0.984787 0.173765
vn 0.000000 0.984787 -0.173765
vn 0.000000 0.984787 -0.173765
vn 0.000000 0.148326 -0.988939
vn 0.000000 0.148326 -0.988939
vn 0.000000 0.000000 -1.000000
vn 0.000000 0.000000 -1.000000
s 1
g Hedge_Medium_LP
usemtl initialShadingGroup
f 1/3/1 2/2/2 8/4/3 6/9/4
f 5/7/5 7/10/6 12/8/7 10/11/8
f 9/5/9 11/12/10 4/1/11 3/6/12
f 5/7/5 6/9/4 8/4/3 7/10/6
f 9/5/9 10/11/8 12/8/7 11/12/10
