# This file uses centimeters as units for non-parametric coordinates.

mtllib lawn chair.mtl
g default
v -3.000000 0.000000 9.000000
v -2.000000 0.000000 9.000000
v -3.000000 0.121947 9.000000
v -2.000000 0.121947 9.000000
v -3.000000 0.659069 6.073721
v -2.000000 0.659069 6.073721
v -3.000000 0.545498 6.029306
v -2.000000 0.545498 6.029306
v -2.500000 0.000000 9.000000
v -2.500000 0.545498 6.029306
v -2.500000 0.659069 6.073721
v -2.500000 0.121947 9.000000
v -2.050000 0.000000 9.000000
v -2.050000 0.121947 9.000000
v -2.050000 0.659069 6.073721
v -2.050000 0.545498 6.029306
v -2.950000 0.000000 9.000000
v -2.950000 0.545498 6.029306
v -2.950000 0.659069 6.073721
v -2.950000 0.121947 9.000000
v -3.000000 0.122389 7.470694
v -2.950000 0.122389 7.470694
v -2.500000 0.122389 7.470694
v -2.050000 0.122389 7.470694
v -2.000000 0.122389 7.470694
v -2.000000 -0.000822 7.426279
v -2.050000 -0.000822 7.426279
v -2.500000 -0.000822 7.426279
v -2.950000 -0.000822 7.426279
v -3.000000 -0.000822 7.426279
v -3.000000 0.121947 8.850000
v -2.950000 0.121947 8.850000
v -2.500000 0.121947 8.850000
v -2.050000 0.121947 8.850000
v -2.000000 0.121947 8.850000
v -2.000000 0.000000 8.850000
v -2.050000 0.000000 8.850000
v -2.500000 0.000000 8.850000
v -2.950000 0.000000 8.850000
v -3.000000 0.000000 8.850000
v -3.000000 0.490866 6.169003
v -2.950000 0.490866 6.169003
v -2.500000 0.490866 6.169003
v -2.050000 0.490866 6.169003
v -2.000000 0.490866 6.169003
v -2.000000 0.604437 6.213418
v -2.050000 0.604437 6.213418
v -2.500000 0.604437 6.213418
v -2.950000 0.604437 6.213418
v -3.000000 0.604437 6.213418
v -2.950000 0.122345 7.608624
v -3.000000 0.122345 7.608624
v -3.000000 -0.000740 7.568651
v -2.950000 -0.000740 7.568651
v -2.500000 -0.000740 7.568651
v -2.050000 -0.000740 7.568651
v -2.000000 -0.000740 7.568651
v -2.000000 0.122345 7.608624
v -2.050000 0.122345 7.608624
v -2.500000 0.122345 7.608624
v -2.050000 -0.304114 8.850000
v -2.050000 -0.304114 9.000000
v -2.000000 -0.304114 8.850000
v -2.000000 -0.304114 9.000000
v -2.950000 -0.304114 8.850000
v -3.000000 -0.304114 8.850000
v -2.950000 -0.304114 9.000000
v -3.000000 -0.304114 9.000000
v -2.950000 -0.304937 7.062397
v -3.000000 -0.304937 7.062397
v -2.950000 -0.304854 7.228482
v -3.000000 -0.304854 7.228482
v -2.050000 -0.304854 7.228482
v -2.000000 -0.304854 7.228482
v -2.050000 -0.304937 7.062397
v -2.000000 -0.304937 7.062397
v -2.950000 0.327293 7.608767
v -3.000000 0.327293 7.608767
v -2.950000 0.327537 7.470760
v -3.000000 0.327537 7.470760
v -2.050000 0.327537 7.470760
v -2.000000 0.327537 7.470760
v -2.050000 0.327293 7.608767
v -2.000000 0.327293 7.608767
v -2.950000 0.412908 7.608781
v -3.000000 0.412908 7.608781
v -2.950000 0.413151 7.470788
v -3.000000 0.413151 7.470788
v -2.050000 0.413151 7.470788
v -2.000000 0.413151 7.470788
v -2.050000 0.412908 7.608781
v -2.000000 0.412908 7.608781
v -3.000000 0.327564 7.385200
v -2.950000 0.327564 7.385200
v -3.000000 0.413179 7.385228
v -2.950000 0.413179 7.385228
v -2.050000 0.327564 7.385200
v -2.000000 0.327564 7.385200
v -2.050000 0.413179 7.385228
v -2.000000 0.413179 7.385228
v -2.500000 -0.187481 10.000000
v -2.500000 -0.309428 10.000000
v -2.050000 -0.309428 10.000000
v -2.050000 -0.187481 10.000000
v -2.950000 -0.187481 10.000000
v -2.950000 -0.309428 10.000000
v -2.050000 0.327193 8.229383
v -2.000000 0.327193 8.229383
v -2.000000 0.412808 8.229390
v -2.050000 0.412808 8.229390
v -3.000000 0.327193 8.229383
v -2.950000 0.327193 8.229383
v -2.950000 0.412808 8.229390
v -3.000000 0.412808 8.229390
vt 0.483021 0.551320
vt 0.448836 0.551320
vt 0.448836 0.450438
vt 0.483021 0.450438
vt 0.483021 0.560517
vt 0.448836 0.560517
vt 0.414652 0.551320
vt 0.414652 0.450438
vt 0.448836 0.439229
vt 0.483021 0.439229
vt 0.486819 0.551320
vt 0.486819 0.450438
vt 0.483021 0.643289
vt 0.448836 0.643289
vt 0.414652 0.560517
vt 0.410853 0.450438
vt 0.410853 0.551320
vt 0.414652 0.439229
vt 0.486819 0.439229
vt 0.448836 0.652982
vt 0.483021 0.652982
vt 0.414652 0.643289
vt 0.486819 0.643289
vt 0.486819 0.560517
vt 0.410853 0.439229
vt 0.414652 0.652982
vt 0.483021 0.729961
vt 0.448836 0.729961
vt 0.410853 0.560517
vt 0.410853 0.643289
vt 0.414652 0.729961
vt 0.696081 0.799175
vt 0.692752 0.797771
vt 0.705935 0.766521
vt 0.709264 0.767925
vt 0.666282 0.797933
vt 0.662954 0.799337
vt 0.649771 0.768087
vt 0.653100 0.766683
vt 0.561719 0.715547
vt 0.527534 0.715547
vt 0.527534 0.615049
vt 0.561719 0.615049
vt 0.527534 0.726756
vt 0.561719 0.726756
vt 0.493350 0.715547
vt 0.493350 0.615049
vt 0.527534 0.606134
vt 0.561719 0.606134
vt 0.565517 0.715547
vt 0.565517 0.615049
vt 0.493350 0.726756
vt 0.565517 0.726756
vt 0.489551 0.615049
vt 0.489551 0.715547
vt 0.493350 0.606134
vt 0.527534 0.525900
vt 0.561719 0.525900
vt 0.489551 0.726756
vt 0.493350 0.525900
vt 0.527534 0.516207
vt 0.561719 0.516207
vt 0.565517 0.606134
vt 0.565517 0.525900
vt 0.489551 0.525900
vt 0.489551 0.606134
vt 0.493350 0.516207
vt 0.527534 0.439229
vt 0.561719 0.439229
vt 0.565517 0.516207
vt 0.489551 0.516207
vt 0.493350 0.439229
vt 0.683555 0.803461
vt 0.680182 0.802164
vt 0.691833 0.771862
vt 0.695205 0.773159
vt 0.695497 0.762329
vt 0.698870 0.763626
vt 0.678852 0.802327
vt 0.675479 0.803624
vt 0.663830 0.773320
vt 0.667203 0.772024
vt 0.660166 0.763788
vt 0.663538 0.762491
vt 0.425134 0.774102
vt 0.413739 0.774102
vt 0.413739 0.769636
vt 0.425134 0.769636
vt 0.438999 0.769604
vt 0.438993 0.774069
vt 0.427598 0.774054
vt 0.427604 0.769588
vt 0.442953 0.780234
vt 0.446752 0.780232
vt 0.446752 0.789141
vt 0.442953 0.789141
vt 0.446752 0.794668
vt 0.442953 0.794668
vt 0.452800 0.789141
vt 0.449002 0.789141
vt 0.449002 0.780230
vt 0.452800 0.780236
vt 0.452800 0.794668
vt 0.449002 0.794668
vt 0.431108 0.748170
vt 0.434339 0.748176
vt 0.434331 0.752878
vt 0.431100 0.752876
vt 0.436817 0.748172
vt 0.440048 0.748174
vt 0.440048 0.752877
vt 0.436817 0.752877
vt 0.463751 0.789948
vt 0.459953 0.789948
vt 0.459953 0.749839
vt 0.463751 0.749839
vt 0.449118 0.740127
vt 0.452916 0.740139
vt 0.458593 0.789749
vt 0.454795 0.789749
vt 0.454795 0.749642
vt 0.458593 0.749640
vt 0.442907 0.740139
vt 0.446705 0.740126
vt 0.668341 0.729075
vt 0.659077 0.729075
vt 0.659077 0.699995
vt 0.668341 0.699995
vt 0.668341 0.758154
vt 0.659077 0.758154
vt 0.426521 0.763791
vt 0.426521 0.754527
vt 0.429752 0.754527
vt 0.429752 0.763791
vt 0.426521 0.731425
vt 0.429752 0.731425
vt 0.421039 0.754527
vt 0.424271 0.754527
vt 0.424271 0.763791
vt 0.421039 0.763791
vt 0.421039 0.731425
vt 0.424271 0.731425
vt 0.413739 0.793754
vt 0.410990 0.793754
vt 0.410990 0.774102
vt 0.441714 0.793725
vt 0.438965 0.793722
vt 0.441741 0.774073
vt 0.454767 0.731340
vt 0.458566 0.731336
vt 0.431140 0.732585
vt 0.434371 0.732592
vt 0.436835 0.732587
vt 0.440066 0.732591
vt 0.459944 0.731537
vt 0.463742 0.731536
vt 0.434332 0.759381
vt 0.431101 0.759381
vt 0.440049 0.759381
vt 0.436818 0.759381
vt 0.452940 0.732493
vt 0.449142 0.732481
vt 0.446662 0.732477
vt 0.442864 0.732498
vt 0.610794 0.586501
vt 0.602247 0.587817
vt 0.579063 0.489867
vt 0.587079 0.488879
vt 0.616300 0.595416
vt 0.607938 0.597015
vt 0.576486 0.478984
vt 0.584503 0.477996
vt 0.665856 0.675648
vt 0.659153 0.679791
vt 0.577635 0.585364
vt 0.570998 0.574635
vt 0.622074 0.579536
vt 0.627572 0.588463
vt 0.665143 0.689484
vt 0.671847 0.685341
vt 0.626781 0.576629
vt 0.632278 0.585554
vt 0.648426 0.699816
vt 0.642436 0.690123
vt 0.618658 0.574006
vt 0.623365 0.571100
vt 0.739065 0.695666
vt 0.733434 0.701457
vt 0.669391 0.623803
vt 0.675603 0.617787
vt 0.740550 0.710085
vt 0.746181 0.704294
vt 0.665500 0.613712
vt 0.671826 0.608014
vt 0.661015 0.656669
vt 0.656475 0.644897
vt 0.630482 0.522889
vt 0.637834 0.520051
vt 0.684176 0.603234
vt 0.687968 0.613008
vt 0.626378 0.512259
vt 0.633729 0.509421
vt 0.689338 0.601239
vt 0.693128 0.611013
vt 0.612149 0.529968
vt 0.608045 0.519338
vt 0.695471 0.617076
vt 0.690310 0.619070
vt 0.425134 0.793754
vt 0.427570 0.793706
vt 0.708132 0.643064
vt 0.702626 0.634149
vt 0.713905 0.627184
vt 0.719403 0.636110
vt 0.718612 0.624277
vt 0.724110 0.633204
vt 0.710490 0.621654
vt 0.715197 0.618747
vt 0.695393 0.597890
vt 0.691616 0.588116
vt 0.703966 0.583337
vt 0.707758 0.593110
vt 0.709130 0.581341
vt 0.712919 0.591115
vt 0.715261 0.597178
vt 0.710101 0.599173
vt 0.712129 0.704138
vt 0.718833 0.699995
vt 0.741761 0.775128
vt 0.735058 0.779271
vt 0.686951 0.779271
vt 0.680247 0.775128
vt 0.703176 0.699995
vt 0.709880 0.704138
vt 0.657076 0.625650
vt 0.652371 0.628560
vt 0.686934 0.539299
vt 0.692102 0.537301
vt 0.748863 0.673329
vt 0.744154 0.676234
vt 0.667173 0.559232
vt 0.672336 0.557237
vt 0.677997 0.737979
vt 0.670591 0.737979
vt 0.670591 0.703794
vt 0.677997 0.703794
vt 0.677997 0.772163
vt 0.670591 0.772163
vt 0.670591 0.699995
vt 0.677997 0.699995
vt 0.670591 0.775962
vt 0.677997 0.775962
vn 0.000000 0.000000 1.000000
vn 0.000000 0.000000 1.000000
vn 0.000000 0.000000 1.000000
vn 0.000000 0.000000 1.000000
vn 0.000000 0.933484 0.358619
vn 0.000000 0.933484 0.358619
vn 0.000000 0.945167 0.326587
vn 0.000000 0.944158 0.329493
vn 0.000000 0.364213 -0.931316
vn 0.000000 0.364213 -0.931316
vn 0.000000 0.364213 -0.931316
vn 0.000000 0.364213 -0.931316
vn 0.000000 -0.942424 -0.334420
vn 0.000000 -0.943494 -0.331389
vn 0.000000 -0.931315 -0.364214
vn 0.000000 -0.931315 -0.364214
vn 1.000000 0.000000 0.000000
vn 1.000000 0.000000 0.000000
vn 1.000000 0.000000 0.000000
vn 1.000000 0.000000 0.000000
vn -1.000000 0.000000 0.000000
vn -1.000000 0.000000 0.000000
vn -1.000000 0.000000 0.000000
vn -1.000000 0.000000 0.000000
vn 0.000000 -0.942424 -0.334420
vn 0.000000 -0.931315 -0.364214
vn 0.000000 0.364213 -0.931316
vn 0.000000 0.364213 -0.931316
vn 0.000000 0.933484 0.358619
vn 0.000000 0.944158 0.329493
vn 0.000000 0.000000 1.000000
vn 0.000000 0.000000 1.000000
vn 0.000000 0.000000 1.000000
vn 0.000000 0.000000 1.000000
vn 0.000000 0.000000 1.000000
vn 0.000000 0.000000 1.000000
vn 0.000000 0.933484 0.358619
vn 0.000000 0.933724 0.357995
vn 0.000000 0.364213 -0.931316
vn 0.000000 0.364213 -0.931316
vn 0.000000 -0.931315 -0.364214
vn 0.000000 -0.931315 -0.364214
vn 0.000000 -0.931315 -0.364214
vn 0.000000 -0.931315 -0.364214
vn 0.000000 0.364213 -0.931316
vn 0.000000 0.364213 -0.931316
vn 0.000000 0.933724 0.357995
vn 0.000000 0.933484 0.358619
vn 0.000000 0.000000 1.000000
vn 0.000000 0.000000 1.000000
vn 0.000000 0.000000 1.000000
vn 0.000000 0.000000 1.000000
vn 0.000000 1.000000 0.000321
vn 0.000000 1.000000 0.000290
vn 0.000000 1.000000 0.000321
vn 0.000000 1.000000 0.000321
vn 0.000000 1.000000 0.000321
vn 0.000000 1.000000 0.000286
vn 0.000000 1.000000 0.000321
vn 0.000000 1.000000 0.000290
vn 0.000000 1.000000 0.000321
vn 0.000000 1.000000 0.000321
vn 1.000000 0.000000 0.000000
vn 1.000000 0.000000 0.000000
vn 1.000000 0.000000 0.000000
vn 1.000000 0.000000 0.000000
vn 0.000000 -1.000000 0.000578
vn 0.000000 -1.000000 0.000523
vn 0.000000 -1.000000 0.000578
vn 0.000000 -1.000000 0.000578
vn 0.000000 -1.000000 0.000517
vn 0.000000 -1.000000 0.000578
vn 0.000000 -1.000000 0.000523
vn 0.000000 -1.000000 0.000578
vn 0.000000 -1.000000 0.000578
vn 0.000000 -1.000000 0.000578
vn -1.000000 0.000000 0.000000
vn -1.000000 0.000000 0.000000
vn -1.000000 0.000000 0.000000
vn -1.000000 0.000000 0.000000
vn 0.000000 1.000000 0.000000
vn 0.000000 1.000000 0.000000
vn 0.000000 1.000000 0.000000
vn 1.000000 0.000000 0.000000
vn 1.000000 0.000000 0.000000
vn 0.000000 -1.000000 0.000000
vn 0.000000 -1.000000 0.000000
vn 0.000000 -1.000000 0.000000
vn 0.000000 -1.000000 0.000000
vn 0.000000 -1.000000 0.000000
vn 0.000000 -1.000000 0.000000
vn 0.000000 -1.000000 0.000000
vn 0.000000 -1.000000 0.000000
vn 0.000000 -1.000000 0.000000
vn 0.000000 -1.000000 0.000000
vn 0.000000 -1.000000 0.000000
vn -1.000000 0.000000 0.000000
vn -1.000000 0.000000 0.000000
vn 0.000000 -0.931315 -0.364215
vn 0.000000 -0.931315 -0.364215
vn 0.000000 -0.931315 -0.364215
vn 0.000000 -0.931315 -0.364215
vn 0.000000 -0.931315 -0.364215
vn 1.000000 0.000000 0.000000
vn 1.000000 0.000000 0.000000
vn 0.000000 0.931315 0.364214
vn 0.000000 0.931315 0.364214
vn 0.000000 0.931315 0.364214
vn 0.000000 0.931315 0.364214
vn 0.000000 0.931315 0.364214
vn -1.000000 0.000000 0.000000
vn -1.000000 0.000000 0.000000
vn 0.000000 0.999998 0.001765
vn 0.000000 0.999998 0.001765
vn 0.000000 0.999999 0.001213
vn 0.000000 0.999999 0.001213
vn 0.000000 -1.000000 0.000495
vn 0.000000 -1.000000 0.000495
vn 0.000000 -1.000000 0.000495
vn 0.000000 -1.000000 0.000495
vn 0.000000 -1.000000 0.000495
vn 0.000000 -1.000000 0.000495
vn 0.000000 -1.000000 0.000495
vn 0.000000 -1.000000 0.000495
vn 0.000000 0.999999 0.001213
vn 0.000000 0.999999 0.001213
vn 0.000000 0.999998 0.001765
vn 0.000000 0.999998 0.001765
vn -1.000000 0.000000 0.000000
vn -1.000000 0.000000 0.000000
vn -1.000000 0.000000 0.000000
vn -1.000000 0.000000 0.000000
vn 0.000000 0.000000 -1.000000
vn 0.000000 0.000000 -1.000000
vn 0.000000 0.000000 -1.000000
vn 0.000000 0.000000 -1.000000
vn 1.000000 0.000000 0.000000
vn 1.000000 0.000000 0.000000
vn 0.000000 0.000000 1.000000
vn 0.000000 0.000000 1.000000
vn 0.000000 0.000000 -1.000000
vn 0.000000 0.000000 -1.000000
vn 0.000000 0.000000 -1.000000
vn 0.000000 0.000000 -1.000000
vn 1.000000 0.000000 0.000000
vn 1.000000 0.000000 0.000000
vn 1.000000 0.000000 0.000000
vn 1.000000 0.000000 0.000000
vn 0.000000 0.000000 1.000000
vn 0.000000 0.000000 1.000000
vn -1.000000 0.000000 0.000000
vn -1.000000 0.000000 0.000000
vn 0.000000 0.767309 -0.641278
vn 0.000000 0.767309 -0.641278
vn 0.000000 0.767309 -0.641278
vn 0.000000 0.767309 -0.641278
vn 1.000000 0.000000 0.000000
vn 1.000000 0.000000 0.000000
vn 1.000000 0.000000 0.000000
vn 1.000000 0.000000 0.000000
vn 0.000000 -0.745511 0.666493
vn 0.000000 -0.745511 0.666493
vn 0.000000 -0.745511 0.666493
vn 0.000000 -0.745511 0.666493
vn -1.000000 0.000000 0.000000
vn -1.000000 0.000000 0.000000
vn 0.000000 -0.745511 0.666493
vn 0.000000 -0.745511 0.666493
vn 0.000000 -0.745511 0.666493
vn 0.000000 -0.745511 0.666493
vn -1.000000 0.000000 0.000000
vn -1.000000 0.000000 0.000000
vn -1.000000 0.000000 0.000000
vn -1.000000 0.000000 0.000000
vn 0.000000 0.767309 -0.641278
vn 0.000000 0.767309 -0.641278
vn 0.000000 0.767309 -0.641278
vn 0.000000 0.767309 -0.641278
vn 1.000000 0.000000 0.000000
vn 1.000000 0.000000 0.000000
vn 0.000000 -0.000693 1.000000
vn 0.000000 -0.000693 1.000000
vn 0.000000 -0.000693 1.000000
vn 0.000000 -0.000693 1.000000
vn 1.000000 0.000000 0.000000
vn 1.000000 0.000000 0.000000
vn 1.000000 0.000000 0.000000
vn 1.000000 0.000000 0.000000
vn 0.000000 0.000321 -1.000000
vn 0.000000 0.000321 -1.000000
vn 0.000000 0.000321 -1.000000
vn 0.000000 0.000321 -1.000000
vn -1.000000 0.000000 0.000000
vn -1.000000 0.000000 0.000000
vn 0.000000 0.000321 -1.000000
vn 0.000000 0.000321 -1.000000
vn 0.000000 0.000321 -1.000000
vn 0.000000 0.000321 -1.000000
vn -1.000000 -0.000000 0.000000
vn -1.000000 -0.000000 0.000000
vn -1.000000 -0.000000 0.000000
vn -1.000000 -0.000000 0.000000
vn 0.000000 -0.000693 1.000000
vn 0.000000 -0.000693 1.000000
vn 0.000000 -0.000693 1.000000
vn 0.000000 -0.000693 1.000000
vn 1.000000 0.000000 0.000000
vn 1.000000 0.000000 0.000000
vn 1.000000 0.000000 0.000000
vn 1.000000 0.000000 0.000000
vn 0.000000 0.000323 -1.000000
vn 0.000000 0.000323 -1.000000
vn 0.000000 0.000323 -1.000000
vn 0.000000 0.000323 -1.000000
vn -1.000000 0.000000 0.000000
vn -1.000000 0.000000 0.000000
vn 0.000000 0.000323 -1.000000
vn 0.000000 0.000323 -1.000000
vn 0.000000 0.000323 -1.000000
vn 0.000000 0.000323 -1.000000
vn -1.000000 -0.000000 0.000000
vn -1.000000 -0.000000 0.000000
vn 1.000000 0.000000 0.000000
vn 1.000000 0.000000 0.000000
vn 0.000000 -1.000000 -0.000323
vn 0.000000 -1.000000 -0.000323
vn 0.000000 -1.000000 -0.000323
vn 0.000000 -1.000000 -0.000323
vn -1.000000 0.000000 0.000000
vn -1.000000 0.000000 0.000000
vn 0.000000 1.000000 0.000323
vn 0.000000 1.000000 0.000323
vn 1.000000 0.000000 0.000000
vn 1.000000 0.000000 0.000000
vn 0.000000 -1.000000 -0.000323
vn 0.000000 -1.000000 -0.000323
vn 0.000000 -1.000000 -0.000323
vn 0.000000 -1.000000 -0.000323
vn -1.000000 0.000000 0.000000
vn -1.000000 0.000000 0.000000
vn 0.000000 1.000000 0.000323
vn 0.000000 1.000000 0.000323
vn 1.000000 0.000000 0.000000
vn 1.000000 0.000000 0.000000
vn 0.000000 -0.955312 -0.295600
vn 0.000000 -0.955312 -0.295600
vn 0.000000 -0.955312 -0.295600
vn 0.000000 -0.955312 -0.295600
vn 1.000000 0.000000 0.000000
vn 1.000000 0.000000 0.000000
vn 1.000000 0.000000 0.000000
vn 1.000000 0.000000 0.000000
vn 0.000000 0.955312 0.295600
vn 0.000000 0.955312 0.295600
vn 0.000000 0.955312 0.295600
vn 0.000000 0.955312 0.295600
vn -1.000000 0.000000 0.000000
vn -1.000000 0.000000 0.000000
vn -1.000000 0.000000 0.000000
vn -1.000000 0.000000 0.000000
vn 0.000000 -0.955312 -0.295600
vn 0.000000 -0.955312 -0.295600
vn 0.000000 -0.955312 -0.295600
vn 0.000000 -0.955312 -0.295600
vn 0.000000 0.955312 0.295600
vn 0.000000 0.955312 0.295600
vn 0.000000 0.955312 0.295600
vn 0.000000 0.955312 0.295600
vn 0.000000 -1.000000 -0.000161
vn 0.000000 -1.000000 -0.000161
vn 0.000000 -1.000000 -0.000161
vn 0.000000 -1.000000 -0.000161
vn 1.000000 0.000000 0.000000
vn 1.000000 0.000000 0.000000
vn 1.000000 0.000000 0.000000
vn 1.000000 0.000000 0.000000
vn 0.000000 1.000000 0.000161
vn 0.000000 1.000000 0.000161
vn 0.000000 1.000000 0.000161
vn 0.000000 1.000000 0.000161
vn -1.000000 -0.000001 0.000000
vn -1.000000 -0.000001 0.000000
vn -1.000000 -0.000001 0.000000
vn -1.000000 -0.000001 0.000000
vn 0.000000 -1.000000 -0.000161
vn 0.000000 -1.000000 -0.000161
vn 0.000000 -1.000000 -0.000161
vn 0.000000 -1.000000 -0.000161
vn 1.000000 -0.000001 0.000000
vn 1.000000 -0.000001 0.000000
vn 1.000000 -0.000001 0.000000
vn 1.000000 -0.000001 0.000000
vn 0.000000 1.000000 0.000161
vn 0.000000 1.000000 0.000161
vn 0.000000 1.000000 0.000161
vn 0.000000 1.000000 0.000161
vn -1.000000 0.000000 0.000000
vn -1.000000 0.000000 0.000000
vn -1.000000 0.000000 0.000000
vn -1.000000 0.000000 0.000000
vn 0.000000 1.000000 0.000000
vn 0.000000 1.000000 0.000000
vn 0.000000 1.000000 0.000000
vn 0.000000 1.000000 0.000000
vn 0.000000 1.000000 0.000000
vn 0.000000 1.000000 0.000000
vn 0.000000 1.000000 0.000000
vn 0.000000 1.000000 0.000000
vn 0.000000 -0.000078 1.000000
vn 0.000000 -0.000078 1.000000
vn 0.000000 -0.000078 1.000000
vn 0.000000 -0.000078 1.000000
vn 0.000000 -0.000078 1.000000
vn 0.000000 -0.000078 1.000000
vn 0.000000 -0.000078 1.000000
vn 0.000000 -0.000078 1.000000
s 1
g Lawn_Chair
usemtl initialShadingGroup
f 101/125/1 102/126/2 103/127/3 104/128/4
s 2
f 47/40/5 48/41/6 23/42/7 24/43/8
s 3
f 10/243/9 11/244/10 15/245/11 16/246/12
s 4
f 27/1/13 28/2/14 43/3/15 44/4/16
s 5
f 25/165/17 26/166/18 45/167/19 46/168/20
s 6
f 50/187/21 41/188/22 30/189/23 21/190/24
s 4
f 28/2/14 29/7/25 42/8/26 43/3/15
s 3
f 18/247/27 19/248/28 11/244/10 10/243/9
s 2
f 48/41/6 49/46/29 22/47/30 23/42/7
s 1
f 105/129/31 106/130/32 102/126/2 101/125/1
s 7
f 14/131/33 13/132/34 2/133/35 4/134/36
s 2
f 46/50/37 47/40/5 24/43/8 25/51/38
s 3
f 16/246/12 15/245/11 6/249/39 8/250/40
s 4
f 26/11/41 27/1/13 44/4/16 45/12/42
f 41/16/43 42/8/26 29/7/25 30/17/44
s 3
f 5/251/45 19/248/28 18/247/27 7/252/46
s 2
f 21/54/47 22/47/30 49/46/29 50/55/48
s 8
f 1/137/49 17/138/50 20/139/51 3/140/52
s 2
f 31/65/53 32/60/54 51/56/55 52/66/56
f 60/48/57 51/56/55 32/60/54 33/57/58
f 59/49/59 60/48/57 33/57/58 34/58/60
f 58/63/61 59/49/59 34/58/60 35/64/62
s 5
f 35/173/63 36/174/64 57/170/65 58/169/66
s 4
f 36/23/67 37/13/68 56/5/69 57/24/70
f 37/13/68 38/14/71 55/6/72 56/5/69
f 38/14/71 39/22/73 54/15/74 55/6/72
f 53/29/75 54/15/74 39/22/73 40/30/76
s 6
f 52/194/77 53/193/78 40/197/79 31/198/80
s 2
f 33/57/58 32/60/54 20/67/81 12/61/82
f 34/58/60 33/57/58 12/61/82 14/62/83
s 5
f 2/179/84 36/174/64 35/173/63 4/180/85
s off
f 62/85/86 61/86/87 63/87/88 64/88/89
s 4
f 9/20/90 38/14/71 37/13/68 13/21/91
f 17/26/92 39/22/73 38/14/71 9/20/90
s off
f 66/89/93 65/90/94 67/91/95 68/92/96
s 6
f 31/198/80 40/197/79 1/201/97 3/202/98
s 4
f 7/25/99 18/18/100 42/8/26 41/16/43
f 43/3/15 42/8/26 18/18/100 10/9/101
f 44/4/16 43/3/15 10/9/101 16/10/102
f 45/12/42 44/4/16 16/10/102 8/19/103
s 5
f 46/168/20 45/167/19 8/171/104 6/172/105
s 2
f 15/45/106 47/40/5 46/50/37 6/53/107
f 11/44/108 48/41/6 47/40/5 15/45/106
f 19/52/109 49/46/29 48/41/6 11/44/108
f 50/55/48 49/46/29 19/52/109 5/59/110
s 6
f 7/191/111 41/188/22 50/187/21 5/192/112
s 12
f 86/93/113 85/94/114 87/95/115 88/96/116
s 6
f 21/190/24 30/189/23 53/193/78 52/194/77
s off
f 70/77/117 69/78/118 71/76/119 72/75/120
s 4
f 55/6/72 54/15/74 29/7/25 28/2/14
f 56/5/69 55/6/72 28/2/14 27/1/13
s off
f 74/82/121 73/81/122 75/83/123 76/84/124
s 5
f 58/169/66 57/170/65 26/166/18 25/165/17
s 13
f 90/99/125 89/100/126 91/101/127 92/102/128
s 2
f 24/43/8 23/42/7 60/48/57 59/49/59
f 23/42/7 22/47/30 51/56/55 60/48/57
s off
f 13/209/129 37/143/130 61/86/131 62/85/132
f 37/143/133 36/144/134 63/145/135 61/86/136
s 5
f 36/174/64 2/179/84 64/183/137 63/184/138
s 7
f 2/133/35 13/132/34 62/135/139 64/136/140
s off
f 40/146/141 39/147/142 65/90/143 66/148/144
f 39/147/145 17/210/146 67/91/147 65/90/148
s 8
f 17/138/50 1/137/49 68/141/149 67/142/150
s 6
f 1/201/97 40/197/79 66/205/151 68/206/152
s off
f 30/32/153 29/33/154 69/34/155 70/35/156
f 29/33/157 54/73/158 71/76/159 69/34/160
f 54/73/161 53/74/162 72/75/163 71/76/164
s 6
f 53/193/78 30/189/23 70/195/165 72/196/166
s off
f 57/79/167 56/80/168 73/81/169 74/82/170
f 56/80/171 27/36/172 75/39/173 73/81/174
f 27/36/175 26/37/176 76/38/177 75/39/178
s 5
f 26/166/18 57/170/65 74/175/179 76/176/180
s off
f 52/149/181 51/150/182 77/122/183 78/121/184
s 14
f 51/211/185 22/212/186 79/213/187 77/214/188
s off
f 22/151/189 21/152/190 80/106/191 79/105/192
s 6
f 21/190/24 52/194/77 78/199/193 80/200/194
s off
f 25/153/195 24/154/196 81/110/197 82/109/198
s 15
f 24/219/199 59/220/200 83/221/201 81/222/202
s off
f 59/155/203 58/156/204 84/116/205 83/115/206
s 5
f 58/169/66 25/165/17 82/177/207 84/178/208
s 14
f 77/214/188 79/213/187 87/215/209 85/216/210
s off
f 94/108/211 93/107/212 95/157/213 96/158/214
s 6
f 80/200/194 78/199/193 86/203/215 88/204/216
s off
f 98/112/217 97/111/218 99/159/219 100/160/220
s 15
f 81/222/202 83/221/201 91/223/221 89/224/222
s 5
f 84/178/208 82/177/207 90/181/223 92/182/224
s off
f 79/105/225 80/106/226 93/107/227 94/108/228
s 6
f 80/200/194 88/204/216 95/207/229 93/208/230
s 12
f 88/96/116 87/95/115 96/97/231 95/98/232
s 14
f 87/215/209 79/213/187 94/217/233 96/218/234
s off
f 82/109/235 81/110/236 97/111/237 98/112/238
s 15
f 81/222/202 89/224/222 99/225/239 97/226/240
s 13
f 89/100/126 90/99/125 100/103/241 99/104/242
s 5
f 90/181/223 82/177/207 98/185/243 100/186/244
s off
f 9/20/245 13/21/246 103/27/247 102/28/248
f 13/227/249 14/228/250 104/229/251 103/230/252
f 14/62/253 12/61/254 101/68/255 104/69/256
f 20/231/257 17/232/258 106/233/259 105/234/260
f 17/26/261 9/20/262 102/28/263 106/31/264
f 12/61/265 20/67/266 105/72/267 101/68/268
f 108/113/269 107/114/270 83/115/271 84/116/272
f 109/235/273 108/236/274 84/178/275 92/182/276
f 110/117/277 109/118/278 92/102/279 91/101/280
f 107/237/281 110/238/282 91/223/283 83/221/284
f 112/119/285 111/120/286 78/121/287 77/122/288
f 113/239/289 112/240/290 77/214/291 85/216/292
f 114/123/293 113/124/294 85/94/295 86/93/296
f 111/241/297 114/242/298 86/203/299 78/199/300
f 35/64/301 34/58/302 14/62/303 4/70/304
f 20/67/305 32/60/306 31/65/307 3/71/308
f 108/161/309 109/118/310 110/117/311 107/162/312
f 112/163/313 113/124/314 114/123/315 111/164/316
