# This file uses centimeters as units for non-parametric coordinates.

mtllib Lotus Flower.mtl
g default
v 0.077859 0.052129 -0.032250
v 0.045131 0.026128 -0.045131
v 0.032250 0.052129 -0.077859
v 0.000000 0.026128 -0.063824
v -0.032250 0.052129 -0.077859
v -0.045131 0.026128 -0.045131
v -0.077859 0.052129 -0.032250
v -0.063824 0.026128 -0.000000
v -0.077859 0.052129 0.032250
v -0.045131 0.026128 0.045131
v -0.032250 0.052129 0.077859
v -0.000000 0.026128 0.063824
v 0.032250 0.052129 0.077859
v 0.045131 0.026128 0.045131
v 0.077859 0.052129 0.032250
v 0.063824 0.026128 0.000000
v 0.000000 -0.016408 0.000000
v 0.086043 0.038303 -0.086043
v 0.031759 0.031257 -0.076674
v 0.000000 0.038303 -0.121683
v -0.031759 0.031257 -0.076674
v -0.086043 0.038303 -0.086043
v -0.076674 0.031257 -0.031759
v -0.121683 0.038303 -0.000000
v -0.076674 0.031257 0.031759
v -0.086043 0.038303 0.086043
v -0.031759 0.031257 0.076674
v -0.000000 0.038303 0.121683
v 0.031759 0.031257 0.076674
v 0.086043 0.038303 0.086043
v 0.076674 0.031257 0.031759
v 0.121683 0.038303 0.000000
v 0.076674 0.031257 -0.031759
v 0.000000 -0.016408 0.000000
v 0.160856 0.027909 -0.066629
v 0.070840 0.020272 -0.070840
v 0.066629 0.027909 -0.160856
v 0.000000 0.020272 -0.100183
v -0.066629 0.027909 -0.160856
v -0.070840 0.020272 -0.070840
v -0.160856 0.027909 -0.066629
v -0.100183 0.020272 -0.000000
v -0.160856 0.027909 0.066629
v -0.070840 0.020272 0.070840
v -0.066629 0.027909 0.160856
v -0.000000 0.020272 0.100183
v 0.066629 0.027909 0.160856
v 0.070840 0.020272 0.070840
v 0.160856 0.027909 0.066629
v 0.100183 0.020272 0.000000
v 0.000000 -0.016408 0.000000
v -0.024035 0.000000 0.024035
v 0.024035 0.000000 0.024035
v -0.007061 0.023767 0.007061
v 0.007061 0.023767 0.007061
v -0.007061 0.023767 -0.007061
v 0.007061 0.023767 -0.007061
v -0.024035 0.000000 -0.024035
v 0.024035 0.000000 -0.024035
vt 0.744940 0.575741
vt 0.725575 0.583362
vt 0.698871 0.556659
vt 0.717953 0.602728
vt 0.698871 0.594424
vt 0.679788 0.602728
vt 0.672167 0.583362
vt 0.652801 0.575741
vt 0.661106 0.556659
vt 0.652801 0.537576
vt 0.672167 0.529955
vt 0.679788 0.510589
vt 0.698871 0.518893
vt 0.717953 0.510589
vt 0.725575 0.529955
vt 0.744940 0.537576
vt 0.736636 0.556659
vt 0.632330 0.634234
vt 0.600491 0.628739
vt 0.581864 0.583768
vt 0.581864 0.655138
vt 0.563236 0.628739
vt 0.531397 0.634235
vt 0.536892 0.602396
vt 0.510493 0.583768
vt 0.536893 0.565140
vt 0.531397 0.533302
vt 0.563236 0.538797
vt 0.581864 0.512398
vt 0.600491 0.538797
vt 0.632330 0.533302
vt 0.626835 0.565140
vt 0.653234 0.583768
vt 0.626835 0.602396
vt 0.747540 0.703452
vt 0.705661 0.705411
vt 0.672703 0.672453
vt 0.703702 0.747290
vt 0.672703 0.719062
vt 0.641705 0.747290
vt 0.639746 0.705411
vt 0.597866 0.703452
vt 0.626094 0.672453
vt 0.597866 0.641455
vt 0.639746 0.639495
vt 0.641705 0.597616
vt 0.672703 0.625844
vt 0.703702 0.597616
vt 0.705661 0.639495
vt 0.747540 0.641455
vt 0.719312 0.672453
vt 0.517874 0.690783
vt 0.571614 0.690783
vt 0.552638 0.709759
vt 0.536851 0.709759
vt 0.552638 0.725546
vt 0.536851 0.725546
vt 0.571614 0.744522
vt 0.517874 0.744522
vn -0.582920 0.775825 0.241453
vn -0.392146 0.832132 0.392145
vn 0.000000 1.000000 -0.000000
vn -0.241454 0.775825 0.582920
vn -0.000000 0.832132 0.554577
vn 0.241454 0.775825 0.582920
vn 0.392146 0.832132 0.392145
vn 0.582920 0.775825 0.241453
vn 0.554578 0.832132 0.000000
vn 0.582920 0.775825 -0.241453
vn 0.392146 0.832132 -0.392145
vn 0.241453 0.775825 -0.582920
vn 0.000000 0.832132 -0.554577
vn -0.241453 0.775825 -0.582920
vn -0.392146 0.832132 -0.392145
vn -0.582920 0.775825 -0.241453
vn -0.554577 0.832132 -0.000000
vn -0.289966 0.912052 0.289966
vn -0.190592 0.867154 0.460128
vn 0.000000 1.000000 -0.000000
vn -0.000000 0.912052 0.410074
vn 0.190591 0.867154 0.460128
vn 0.289966 0.912052 0.289966
vn 0.460128 0.867155 0.190592
vn 0.410074 0.912052 0.000000
vn 0.460128 0.867155 -0.190591
vn 0.289966 0.912052 -0.289966
vn 0.190592 0.867155 -0.460128
vn 0.000000 0.912052 -0.410074
vn -0.190591 0.867155 -0.460128
vn -0.289966 0.912052 -0.289966
vn -0.460128 0.867154 -0.190591
vn -0.410074 0.912052 0.000000
vn -0.460128 0.867155 0.190591
vn -0.227895 0.969099 0.094397
vn -0.243115 0.939037 0.243114
vn 0.000000 1.000000 0.000000
vn -0.094397 0.969099 0.227895
vn -0.000000 0.939037 0.343816
vn 0.094397 0.969099 0.227895
vn 0.243114 0.939037 0.243115
vn 0.227895 0.969099 0.094397
vn 0.343816 0.939037 0.000000
vn 0.227895 0.969099 -0.094397
vn 0.243114 0.939037 -0.243114
vn 0.094397 0.969099 -0.227895
vn 0.000000 0.939037 -0.343816
vn -0.094397 0.969099 -0.227895
vn -0.243114 0.939037 -0.243114
vn -0.227895 0.969099 -0.094397
vn -0.343816 0.939037 -0.000000
vn -0.497501 0.710624 0.497501
vn 0.497501 0.710624 0.497501
vn 0.463315 0.755432 0.463315
vn -0.463315 0.755432 0.463315
vn 0.463315 0.755432 -0.463315
vn -0.463315 0.755432 -0.463315
vn 0.497501 0.710624 -0.497501
vn -0.497501 0.710624 -0.497501
s 1
g lotus_flower
usemtl initialShadingGroup
f 1/1/1 2/2/2 17/3/3
f 2/2/2 3/4/4 17/3/3
f 3/4/4 4/5/5 17/3/3
f 4/5/5 5/6/6 17/3/3
f 5/6/6 6/7/7 17/3/3
f 6/7/7 7/8/8 17/3/3
f 7/8/8 8/9/9 17/3/3
f 8/9/9 9/10/10 17/3/3
f 9/10/10 10/11/11 17/3/3
f 10/11/11 11/12/12 17/3/3
f 11/12/12 12/13/13 17/3/3
f 12/13/13 13/14/14 17/3/3
f 13/14/14 14/15/15 17/3/3
f 14/15/15 15/16/16 17/3/3
f 15/16/16 16/17/17 17/3/3
f 16/17/17 1/1/1 17/3/3
s 2
f 18/18/18 19/19/19 34/20/20
f 19/19/19 20/21/21 34/20/20
f 20/21/21 21/22/22 34/20/20
f 21/22/22 22/23/23 34/20/20
f 22/23/23 23/24/24 34/20/20
f 23/24/24 24/25/25 34/20/20
f 24/25/25 25/26/26 34/20/20
f 25/26/26 26/27/27 34/20/20
f 26/27/27 27/28/28 34/20/20
f 27/28/28 28/29/29 34/20/20
f 28/29/29 29/30/30 34/20/20
f 29/30/30 30/31/31 34/20/20
f 30/31/31 31/32/32 34/20/20
f 31/32/32 32/33/33 34/20/20
f 32/33/33 33/34/34 34/20/20
f 33/34/34 18/18/18 34/20/20
s 3
f 35/35/35 36/36/36 51/37/37
f 36/36/36 37/38/38 51/37/37
f 37/38/38 38/39/39 51/37/37
f 38/39/39 39/40/40 51/37/37
f 39/40/40 40/41/41 51/37/37
f 40/41/41 41/42/42 51/37/37
f 41/42/42 42/43/43 51/37/37
f 42/43/43 43/44/44 51/37/37
f 43/44/44 44/45/45 51/37/37
f 44/45/45 45/46/46 51/37/37
f 45/46/46 46/47/47 51/37/37
f 46/47/47 47/48/48 51/37/37
f 47/48/48 48/49/49 51/37/37
f 48/49/49 49/50/50 51/37/37
f 49/50/50 50/51/51 51/37/37
f 50/51/51 35/35/35 51/37/37
s 4
f 52/52/52 53/53/53 55/54/54 54/55/55
f 54/55/55 55/54/54 57/56/56 56/57/57
f 56/57/57 57/56/56 59/58/58 58/59/59
f 53/53/53 59/58/58 57/56/56 55/54/54
f 58/59/59 52/52/52 54/55/55 56/57/57
