# This file uses centimeters as units for non-parametric coordinates.

mtllib Milk_Carton.mtl
g default
v 0.500000 0.000000 1.000000
v 1.000000 0.000000 1.000000
v 0.500000 0.726212 1.000000
v 1.000000 0.726212 1.000000
v 0.500000 0.726212 0.500000
v 1.000000 0.726212 0.500000
v 0.500000 0.000000 0.500000
v 1.000000 0.000000 0.500000
v 0.750000 0.000000 1.000000
v 0.750000 0.000000 0.500000
v 0.750000 1.003723 0.500000
v 0.750000 1.003723 1.000000
v 0.750000 0.726212 0.999975
v 0.750000 0.726212 0.499924
v 0.518879 0.726212 0.999975
v 0.518879 0.000000 1.000000
v 0.518879 0.000000 0.500000
v 0.518879 0.726212 0.499924
v 0.980795 0.726212 0.499924
v 0.980795 0.000000 0.500000
v 0.980795 0.000000 1.000000
v 0.980795 0.726212 0.999975
v 0.750000 0.989847 0.500000
v 0.750000 0.989847 1.000000
v 0.750000 0.989847 0.662171
v 0.750000 0.989847 0.837829
vt 0.728228 0.421064
vt 0.796262 0.421180
vt 0.728058 0.519878
vt 0.876510 0.551832
vt 0.779394 0.616838
vt 0.876511 0.616835
vt 0.976537 0.461830
vt 0.907622 0.461579
vt 0.976788 0.392915
vt 0.907872 0.392664
vt 0.864296 0.421297
vt 0.864127 0.520112
vt 0.660194 0.420947
vt 0.660024 0.519762
vt 0.762245 0.421122
vt 0.942330 0.392789
vt 0.942079 0.461705
vt 0.827953 0.616836
vt 0.827951 0.551833
vt 0.762076 0.519936
vt 0.941715 0.561799
vt 0.730627 0.519883
vt 0.730796 0.421068
vt 0.974186 0.392905
vt 0.973935 0.461821
vt 0.781036 0.618661
vt 0.909904 0.561683
vt 0.910269 0.461589
vt 0.793649 0.421176
vt 0.910519 0.392674
vt 0.874838 0.549977
vt 0.829293 0.618044
vt 0.826610 0.550626
vt 0.941559 0.604465
vt 0.762003 0.562051
vt 0.826893 0.529545
vt 0.793479 0.519990
vt 0.781035 0.550011
vt 0.779392 0.551835
vt 0.796093 0.519995
vt 0.829291 0.550626
vt 0.828992 0.529545
vt 0.828989 0.639125
vt 0.826903 0.639125
vt 0.973570 0.561915
vt 0.874840 0.618690
vt 0.826612 0.618044
vt 0.976172 0.561924
vt 0.907257 0.561673
vn -0.000050 0.000033 1.000000
vn -0.000075 0.000008 1.000000
vn 0.000000 0.000035 1.000000
vn 0.000000 0.000035 1.000000
vn 0.742974 0.669320 0.000000
vn 0.742974 0.669320 0.000000
vn 0.742974 0.669320 0.000000
vn 0.742974 0.669320 0.000000
vn 0.000225 -0.000024 -1.000000
vn 0.000000 0.002244 -0.999998
vn -0.000000 0.002244 -0.999997
vn 0.002036 0.000268 -0.999998
vn 0.000000 -1.000000 0.000000
vn 0.000000 -1.000000 0.000000
vn 0.000000 -1.000000 0.000000
vn 0.000000 -1.000000 0.000000
vn 1.000000 0.000000 0.000000
vn 1.000000 0.000000 0.000000
vn 1.000000 0.000000 0.000000
vn 1.000000 0.000000 0.000000
vn -1.000000 0.000000 0.000000
vn -1.000000 0.000000 0.000000
vn -1.000000 0.000000 0.000000
vn -1.000000 0.000000 0.000000
vn 0.000000 -1.000000 0.000000
vn 0.000000 -1.000000 0.000000
vn -0.002069 0.000273 -0.999998
vn -0.000225 -0.000024 -1.000000
vn -0.742974 0.669320 0.000000
vn -0.742974 0.669320 0.000000
vn -0.742974 0.669320 0.000000
vn -0.742974 0.669320 0.000000
vn 0.000075 0.000008 1.000000
vn 0.000050 0.000033 1.000000
vn -0.000000 -0.000742 1.000000
vn -0.000000 -0.000742 1.000000
vn -0.000673 -0.000089 1.000000
vn 0.000684 -0.000090 1.000000
vn 0.000000 -0.000105 -1.000000
vn 0.000000 -0.000105 -1.000000
vn 0.000152 -0.000101 -1.000000
vn -0.000152 -0.000101 -1.000000
vn 0.000667 0.000017 1.000000
vn 0.000000 -1.000000 0.000000
vn 0.000000 -1.000000 0.000000
vn -0.002018 -0.000053 -0.999998
vn 0.001984 -0.000053 -0.999998
vn 0.000000 -1.000000 0.000000
vn 0.000000 -1.000000 0.000000
vn -0.000656 0.000017 1.000000
vn 0.000000 0.524120 -0.851644
vn 0.000000 0.524120 -0.851644
vn -0.000001 0.524120 -0.851644
vn 0.000001 0.524120 -0.851644
vn 0.000000 0.523882 0.851791
vn 0.000000 0.523882 0.851791
vn 0.000000 0.523882 0.851791
vn -0.000000 0.523882 0.851791
vn -0.752415 -0.658689 0.000000
vn -0.752415 -0.658689 0.000000
vn -0.752415 -0.658689 0.000000
vn 0.751954 -0.659216 0.000000
vn 0.751954 -0.659216 0.000000
vn 0.751954 -0.659216 0.000000
vn 0.751954 -0.659216 0.000000
vn 0.751954 -0.659216 0.000000
vn 0.751954 -0.659216 0.000000
vn -0.752415 -0.658689 0.000000
vn -0.752415 -0.658689 0.000000
vn -0.752415 -0.658689 0.000000
s 1
g Milk_Carton
usemtl initialShadingGroup
f 21/29/1 22/37/2 13/20/3 9/15/4
s off
f 12/19/5 4/4/6 6/6/7 11/18/8
s 2
f 19/46/9 23/32/10 11/18/11 6/6/12
s 3
f 9/16/13 10/17/14 20/28/15 21/30/16
s off
f 2/2/17 8/11/18 6/12/19 4/40/20
f 7/13/21 1/1/22 3/3/23 5/14/24
s 3
f 16/24/25 17/25/26 10/17/14 9/16/13
s 2
f 5/5/27 11/18/11 23/47/10 18/26/28
s off
f 5/5/29 3/39/30 12/19/31 11/18/32
s 1
f 15/22/33 16/23/34 9/15/4 13/20/3
f 12/19/35 24/41/36 22/31/2 4/4/37
f 15/38/33 24/33/36 12/19/35 3/39/38
s 2
f 10/17/39 14/21/40 19/27/9 20/28/41
f 17/25/42 18/45/28 14/21/40 10/17/39
s 1
f 1/1/43 16/23/34 15/22/33 3/3/38
s 3
f 7/7/44 17/25/26 16/24/25 1/9/45
s 2
f 5/48/27 18/45/28 17/25/42 7/7/46
f 20/28/41 19/27/9 6/49/12 8/8/47
s 3
f 21/30/16 20/28/15 8/8/48 2/10/49
s 1
f 4/40/37 22/37/2 21/29/1 2/2/50
s 6
f 14/21/51 25/34/52 19/27/53
f 18/45/54 25/34/52 14/21/51
s 7
f 13/20/55 26/35/56 15/22/57
f 22/37/58 26/35/56 13/20/55
s off
f 23/32/59 19/46/60 25/43/61
f 18/26/62 23/47/63 25/44/64
f 24/33/65 15/38/66 26/36/67
f 22/31/68 24/41/69 26/42/70
