# This file uses centimeters as units for non-parametric coordinates.

mtllib Road_Turn.mtl
g default
v 2.000000 0.000000 -2.000000
v -2.000000 0.000000 -2.000000
v 2.000000 0.000000 2.000000
v -2.000000 0.000000 2.000000
v 2.000000 0.000000 -0.000000
v -2.000000 -0.025435 0.000000
v -2.000000 0.000000 1.400000
v 2.000000 0.000000 1.400000
v 2.000000 0.000000 -1.400000
v -2.000000 0.000000 -1.400000
v -2.000000 -0.093027 -1.374789
v 2.000000 -0.000000 -1.374789
v 2.000000 -0.000000 1.377875
v -2.000000 -0.093027 1.377875
v -0.000000 -0.025492 -2.000000
v -0.000000 -0.025492 -1.400000
v -0.000000 -0.025343 -1.374789
v 0.000000 -0.025435 0.000000
v 0.000000 -0.092939 1.377875
v 0.000000 0.000000 1.400000
v 0.000000 0.000000 2.000000
v 1.413939 0.000000 -2.000000
v 1.413939 0.000000 -1.400000
v 1.413939 -0.000000 -1.374789
v 1.413939 -0.000000 -0.000000
v 1.413939 0.000000 1.377875
v 1.413939 0.000000 1.400000
v 1.413939 0.000000 2.000000
v -1.399206 0.000000 -2.000000
v -1.399206 0.000000 -1.400000
v -1.399206 -0.093027 -1.374789
v -1.399206 -0.025435 0.000000
v -1.399206 -0.093027 1.377875
v -1.399206 0.000000 1.400000
v -1.399206 0.000000 2.000000
v 1.384531 -0.093137 -2.000000
v 1.384531 -0.093137 -1.400000
v 1.384531 -0.093027 -1.374789
v 1.384531 -0.093950 -0.000000
v 1.384531 -0.093027 1.377875
v 1.384531 0.002567 1.400000
v 1.384531 0.002567 2.000000
v -1.374789 -0.093137 -2.000000
v -1.374789 -0.093137 -1.400000
v -1.374790 -0.093027 -1.374789
v -1.374789 -0.025435 0.000000
v -1.374789 -0.093027 1.377875
v -1.374790 0.002567 1.400000
v -1.374789 0.002567 2.000000
vt 0.999289 0.100426
vt 0.924503 0.100426
vt 0.924503 0.075497
vt 0.999289 0.075497
vt 0.999289 0.424503
vt 0.924503 0.424503
vt 0.924503 0.399574
vt 0.999289 0.399574
vt 0.924503 0.000711
vt 0.999289 0.000711
vt 0.999289 0.474360
vt 0.924503 0.474360
vt 0.924503 0.250000
vt 0.999289 0.250000
vt 0.750000 0.424503
vt 0.750000 0.474360
vt 0.600426 0.474360
vt 0.600426 0.424503
vt 0.750000 0.399574
vt 0.600426 0.399574
vt 0.750000 0.250000
vt 0.600426 0.250000
vt 0.750000 0.100426
vt 0.600426 0.100426
vt 0.750000 0.075497
vt 0.600426 0.075497
vt 0.750000 0.000711
vt 0.600426 0.000711
vt 0.899574 0.474360
vt 0.899574 0.424503
vt 0.899574 0.399574
vt 0.899574 0.250000
vt 0.899574 0.100426
vt 0.899574 0.075497
vt 0.899574 0.000711
vt 0.575497 0.424503
vt 0.575497 0.499289
vt 0.500711 0.499289
vt 0.500711 0.424503
vt 0.575497 0.399574
vt 0.500711 0.399574
vt 0.575497 0.250000
vt 0.525640 0.250000
vt 0.575497 0.100426
vt 0.525640 0.100426
vt 0.575497 0.075497
vt 0.525640 0.075497
vt 0.575497 0.000711
vt 0.525640 0.000711
vt 0.600426 0.499289
vt 0.525640 0.399574
vn 0.000000 1.000000 -0.000000
vn -0.149064 0.988828 -0.000016
vn 0.001781 0.999993 -0.003172
vn 0.000000 1.000000 -0.000000
vn 0.000000 1.000000 0.000000
vn -0.149620 0.988744 -0.000004
vn -0.150163 0.988661 0.000014
vn -0.000000 1.000000 0.000000
vn 0.004171 0.999991 -0.000000
vn -0.000000 1.000000 0.000000
vn -0.000000 1.000000 0.000000
vn -0.149624 0.988743 0.000000
vn -0.150175 0.988660 -0.000000
vn 0.000000 1.000000 -0.000000
vn -0.000000 1.000000 -0.000207
vn -0.000000 1.000000 0.000000
vn 0.018216 0.999834 -0.000000
vn 0.016876 0.999858 -0.000205
vn 0.012190 0.999855 -0.011920
vn -0.024105 0.999418 -0.024119
vn 0.012408 0.999848 0.012272
vn -0.012094 0.999854 0.012062
vn 0.012212 0.999434 -0.031347
vn -0.000031 0.999818 -0.019079
vn -0.000000 0.988690 -0.149976
vn 0.000001 0.988763 -0.149493
vn -0.000000 1.000000 -0.000000
vn 0.000000 1.000000 0.000000
vn -0.018026 0.999838 0.000000
vn -0.018017 0.999838 -0.000205
vn -0.017982 0.999838 0.000270
vn -0.029881 0.999481 0.012017
vn -0.041248 0.998235 -0.042723
vn -0.000001 0.988969 -0.148125
vn -0.000000 1.000000 0.000000
vn 0.140768 0.979986 0.140755
vn 0.147343 0.989085 -0.000000
vn -0.000000 1.000000 0.000000
vn -0.000000 0.989111 0.147172
vn -0.000000 0.999858 0.016874
vn -0.000000 0.999835 0.018165
vn 0.000000 1.000000 0.000000
vn 0.000000 1.000000 -0.000000
vn -0.000032 0.999834 -0.018201
vn -0.000000 0.999835 -0.018165
vn -0.003993 0.988931 -0.148322
vn -0.000000 0.989004 -0.147886
vn -0.004106 0.999992 0.000000
vn -0.000000 1.000000 0.000000
s 1
g Road_Turn
usemtl initialShadingGroup
f 13/1/1 26/2/2 27/3/3 8/4/4
f 9/5/5 23/6/6 24/7/7 12/8/8
f 8/4/4 27/3/3 28/9/9 3/10/10
f 1/11/11 22/12/12 23/6/6 9/5/5
f 12/8/8 24/7/7 25/13/13 5/14/14
f 5/14/14 25/13/13 26/2/2 13/1/1
f 16/15/15 15/16/16 43/17/17 44/18/18
f 17/19/19 16/15/15 44/18/18 45/20/20
f 18/21/21 17/19/19 45/20/20 46/22/22
f 19/23/23 18/21/21 46/22/22 47/24/24
f 20/25/25 19/23/23 47/24/24 48/26/26
f 21/27/27 20/25/25 48/26/26 49/28/28
f 23/6/6 22/12/12 36/29/29 37/30/30
f 24/7/7 23/6/6 37/30/30 38/31/31
f 25/13/13 24/7/7 38/31/31 39/32/32
f 26/2/2 25/13/13 39/32/32 40/33/33
f 27/3/3 40/33/33 41/34/34
f 28/9/9 27/3/3 41/34/34 42/35/35
f 30/36/36 29/37/37 2/38/38 10/39/39
f 31/40/40 30/36/36 10/39/39 11/41/41
f 32/42/42 31/40/40 11/51/41 6/43/43
f 33/44/44 32/42/42 6/43/43 14/45/45
f 34/46/46 33/44/44 14/45/45 7/47/47
f 35/48/48 34/46/46 7/47/47 4/49/49
f 37/30/30 36/29/29 15/16/16 16/15/15
f 38/31/31 37/30/30 16/15/15 17/19/19
f 39/32/32 38/31/31 17/19/19 18/21/21
f 40/33/33 39/32/32 18/21/21 19/23/23
f 41/34/34 40/33/33 19/23/23 20/25/25
f 42/35/35 41/34/34 20/25/25 21/27/27
f 44/18/18 43/50/17 29/37/37 30/36/36
f 45/20/20 30/36/36 31/40/40
f 46/22/22 45/20/20 31/40/40 32/42/42
f 47/24/24 46/22/22 32/42/42 33/44/44
f 48/26/26 47/24/24 33/44/44 34/46/46
f 49/28/28 48/26/26 34/46/46 35/48/48
f 27/3/3 26/2/2 40/33/33
f 45/20/20 44/18/18 30/36/36
