# This file uses centimeters as units for non-parametric coordinates.

mtllib Road_Straight.mtl
g default
v -2.000000 0.000000 2.000000
v 2.000000 0.000000 2.000000
v -2.000000 0.000000 -2.000000
v 2.000000 0.000000 -2.000000
v -2.000000 -0.025435 0.000000
v 2.000000 -0.025435 0.000000
v 2.000000 0.000000 -1.400000
v -2.000000 0.000000 -1.400000
v -2.000000 0.000000 1.400000
v 2.000000 0.000000 1.400000
v 2.000000 -0.093027 1.374789
v -2.000000 -0.093027 1.374789
v -2.000000 -0.093027 -1.377875
v 2.000000 -0.093027 -1.377875
vt 0.025640 0.899574
vt 0.474360 0.899574
vt 0.474360 0.924502
vt 0.025640 0.924502
vt 0.025640 0.575497
vt 0.474360 0.575497
vt 0.474360 0.600426
vt 0.025640 0.600426
vt 0.474360 0.999289
vt 0.025640 0.999289
vt 0.025640 0.500711
vt 0.474360 0.500711
vt 0.474360 0.750000
vt 0.025640 0.750000
vn 0.000000 0.999835 0.018165
vn 0.000000 0.999835 0.018165
vn 0.000000 0.989004 0.147886
vn 0.000000 0.989004 0.147886
vn 0.000000 0.989111 -0.147172
vn 0.000000 0.989111 -0.147172
vn 0.000000 0.999835 -0.018165
vn 0.000000 0.999835 -0.018165
vn 0.000000 1.000000 0.000000
vn 0.000000 1.000000 0.000000
vn 0.000000 1.000000 0.000000
vn 0.000000 1.000000 0.000000
vn 0.000000 1.000000 0.000000
vn 0.000000 1.000000 0.000000
s 1
g Road_Straight
usemtl initialShadingGroup
f 13/1/1 14/2/2 7/3/3 8/4/4
f 9/5/5 10/6/6 11/7/7 12/8/8
f 8/4/4 7/3/3 4/9/9 3/10/10
f 1/11/11 2/12/12 10/6/6 9/5/5
f 12/8/8 11/7/7 6/13/13 5/14/14
f 5/14/14 6/13/13 14/2/2 13/1/1
