# This file uses centimeters as units for non-parametric coordinates.

mtllib Road_Straight_Stormdrain.mtl
g default
v -2.000000 0.000000 2.000000
v 2.000000 0.000000 2.000000
v -2.000000 0.000000 -2.000000
v 2.000000 0.000000 -2.000000
v -2.000000 -0.025435 0.000000
v 2.000000 -0.025435 0.000000
v 2.000000 0.000000 -1.400000
v -2.000000 0.000000 -1.400000
v -2.000000 0.000000 1.400000
v 2.000000 0.000000 1.400000
v 2.000000 -0.093027 1.374789
v -2.000000 -0.093027 1.374789
v -2.000000 -0.093027 -1.377875
v 2.000000 -0.093027 -1.377875
v 1.200000 0.000000 2.000000
v 1.200000 0.000000 1.400000
v 1.200000 -0.093027 1.374789
v 1.200000 -0.025435 0.000000
v 1.200000 -0.093027 -1.377875
v 1.200000 0.000000 -1.400000
v 1.200000 0.000000 -2.000000
v 0.880000 0.000000 2.000000
v 0.880000 0.000000 1.400000
v 0.880000 -0.093027 1.374789
v 0.880000 -0.025435 0.000000
v 0.880000 -0.093027 -1.377875
v 0.880000 0.000000 -1.400000
v 0.880000 0.000000 -2.000000
v -2.000000 -0.037211 1.389916
v 0.880000 -0.037211 1.389916
v 1.200000 -0.037211 1.389916
v 2.000000 -0.037211 1.389916
v 0.880000 -0.102792 1.456250
v 0.880000 -0.158608 1.441124
v 1.200000 -0.102792 1.456250
v 1.200000 -0.158608 1.441124
vt 0.014238 0.500876
vt 0.494501 0.502352
vt 0.012706 0.998907
vt 0.492970 1.000384
vt 0.013473 0.749752
vt 0.493736 0.751229
vt 0.493191 0.928344
vt 0.012928 0.926868
vt 0.014016 0.572915
vt 0.494280 0.574392
vt 0.494244 0.585964
vt 0.013981 0.584487
vt 0.012963 0.915387
vt 0.493227 0.916863
vt 0.398448 0.502057
vt 0.398227 0.574097
vt 0.571647 0.718355
vt 0.397683 0.750933
vt 0.397174 0.916568
vt 0.397139 0.928049
vt 0.396917 1.000088
vt 0.360027 0.501939
vt 0.359806 0.573978
vt 0.514742 0.698598
vt 0.359262 0.750815
vt 0.358753 0.916450
vt 0.358718 0.927931
vt 0.358496 0.999970
vt 0.014002 0.577544
vt 0.526259 0.683682
vt 0.583166 0.690403
vt 0.494265 0.579021
vt 0.526257 0.705117
vt 0.526258 0.696914
vt 0.571650 0.696919
vt 0.571649 0.705123
vt 0.398192 0.585669
vt 0.583165 0.698606
vt 0.398213 0.578725
vt 0.571651 0.683687
vt 0.359770 0.585551
vt 0.526255 0.718349
vt 0.359792 0.578607
vt 0.514743 0.690395
vn 0.000000 0.999835 0.018165
vn 0.000000 0.999835 0.018165
vn 0.000000 0.989004 0.147886
vn 0.000000 0.989004 0.147886
vn 0.000000 0.261571 -0.965184
vn 0.000000 0.261571 -0.965184
vn 0.000000 0.999922 0.012501
vn 0.000000 0.999964 0.008472
vn 0.000000 1.000000 0.000000
vn 0.000000 1.000000 0.000000
vn 0.000000 1.000000 0.000000
vn 0.000000 1.000000 0.000000
vn 0.000000 0.998145 -0.060880
vn 0.000000 0.998145 -0.060880
vn 0.000000 1.000000 0.000000
vn 0.000000 1.000000 0.000000
vn 0.000000 0.998145 -0.060880
vn 0.000000 1.000000 0.000000
vn 0.000000 1.000000 0.000000
vn 0.000000 0.998145 -0.060880
vn 0.000000 0.999800 0.020004
vn 0.000000 0.261571 -0.965184
vn 0.000000 0.261571 -0.965184
vn 0.000000 0.999964 0.008472
vn 0.000000 1.000000 0.000000
vn 0.000000 1.000000 0.000000
vn 0.000000 0.999835 0.018165
vn 0.000000 0.999835 0.018165
vn 0.000000 0.989004 0.147886
vn 0.000000 0.989004 0.147886
vn 0.000000 1.000000 0.000000
vn 0.000000 1.000000 0.000000
vn 0.000000 0.261570 -0.965184
vn 0.000000 0.261570 -0.965184
vn 0.000000 0.261570 -0.965184
vn 0.000000 0.261570 -0.965184
vn 1.000000 0.000000 0.000000
vn 1.000000 0.000000 0.000000
vn 1.000000 0.000000 0.000000
vn 1.000000 0.000000 0.000000
vn 0.000000 -0.711132 -0.703058
vn 0.000000 -0.711132 -0.703058
vn 0.000000 -0.711132 -0.703058
vn 0.000000 -0.711132 -0.703058
vn -1.000000 0.000000 0.000000
vn -1.000000 0.000000 0.000000
vn -1.000000 0.000000 0.000000
vn -1.000000 0.000000 0.000000
vn 0.000000 0.711132 0.703058
vn 0.000000 0.711132 0.703058
vn 0.000000 0.711132 0.703058
vn 0.000000 0.711132 0.703058
s 1
g Road_Straight_StormDrain
usemtl initialShadingGroup
f 13/13/1 26/26/2 27/27/3 8/8/4
f 29/29/5 30/43/6 24/41/7 12/12/8
f 8/8/4 27/27/3 28/28/9 3/3/10
f 1/1/11 22/22/12 23/23/13 9/9/14
f 5/5/15 12/12/8 24/41/7 25/25/16
f 5/5/15 25/25/16 26/26/2 13/13/1
f 16/16/17 15/15/18 2/2/19 10/10/20
f 17/37/21 31/39/22 32/32/23 11/11/24
f 17/37/21 11/11/24 6/6/25 18/18/26
f 19/19/27 18/18/26 6/6/25 14/14/28
f 20/20/29 19/19/27 14/14/28 7/7/30
f 21/21/31 20/20/29 7/7/30 4/4/32
f 23/23/13 22/22/12 15/15/18 16/16/17
s off
f 34/33/33 33/34/34 35/35/35 36/36/36
s 1
f 24/41/7 17/37/21 18/18/26 25/25/16
f 26/26/2 25/25/16 18/18/26 19/19/27
f 27/27/3 26/26/2 19/19/27 20/20/29
f 28/28/9 27/27/3 20/20/29 21/21/31
f 9/9/14 23/23/13 30/43/6 29/29/5
f 31/39/22 30/43/6 23/23/13 16/16/17
f 32/32/23 31/39/22 16/16/17 10/10/20
s off
f 24/24/37 30/44/38 33/34/39 34/33/40
f 30/30/41 31/40/42 35/35/43 33/34/44
f 31/31/45 17/38/46 36/36/47 35/35/48
f 17/17/49 24/42/50 34/33/51 36/36/52
