# This file uses centimeters as units for non-parametric coordinates.

mtllib Road_Straight_StormDrain.mtl
g default
v -2.000000 0.000000 2.000000
v 2.000000 0.000000 2.000000
v -2.000000 0.000000 -2.000000
v 2.000000 0.000000 -2.000000
v -2.000000 -0.025435 0.000000
v 2.000000 -0.025435 0.000000
v 2.000000 0.000000 -1.400000
v -2.000000 0.000000 -1.400000
v -2.000000 0.000000 1.400000
v 2.000000 0.000000 1.400000
v 2.000000 -0.093027 1.374789
v -2.000000 -0.093027 1.374789
v -2.000000 -0.093027 -1.377875
v 2.000000 -0.093027 -1.377875
v 1.200000 0.000000 2.000000
v 1.200000 0.000000 1.400000
v 1.200000 -0.093027 1.374789
v 1.200000 -0.025435 0.000000
v 1.200000 -0.093027 -1.377875
v 1.200000 0.000000 -1.400000
v 1.200000 0.000000 -2.000000
v 0.880000 0.000000 2.000000
v 0.880000 0.000000 1.400000
v 0.880000 -0.093027 1.374789
v 0.880000 -0.025435 0.000000
v 0.880000 -0.093027 -1.377875
v 0.880000 0.000000 -1.400000
v 0.880000 0.000000 -2.000000
v -2.000000 -0.037211 1.389916
v 0.880000 -0.037211 1.389916
v 1.200000 -0.037211 1.389916
v 2.000000 -0.037211 1.389916
v 0.880000 -0.102792 1.456250
v 0.880000 -0.158608 1.441124
v 1.200000 -0.102792 1.456250
v 1.200000 -0.158608 1.441124
vt 0.025640 0.899574
vt 0.359687 0.899574
vt 0.359687 0.924503
vt 0.025640 0.924503
vt 0.025640 0.586888
vt 0.359687 0.586888
vt 0.359687 0.600426
vt 0.025640 0.600426
vt 0.359687 0.999289
vt 0.025640 0.999289
vt 0.025640 0.500711
vt 0.359687 0.500711
vt 0.359687 0.575497
vt 0.025640 0.575497
vt 0.025640 0.750000
vt 0.359687 0.750000
vt 0.521593 0.721734
vt 0.399574 0.575497
vt 0.399574 0.500711
vt 0.474360 0.500711
vt 0.474360 0.575497
vt 0.399574 0.600426
vt 0.399574 0.586888
vt 0.496986 0.792613
vt 0.474360 0.586888
vt 0.474360 0.600426
vt 0.474360 0.750000
vt 0.399574 0.750000
vt 0.399574 0.899574
vt 0.478407 0.778268
vt 0.486778 0.707387
vt 0.474360 0.899574
vt 0.505105 0.778271
vt 0.494888 0.778270
vt 0.494894 0.721731
vt 0.505112 0.721732
vt 0.399574 0.924503
vt 0.496996 0.707389
vt 0.474360 0.924503
vt 0.478413 0.721729
vt 0.399574 0.999289
vt 0.521586 0.778273
vt 0.474360 0.999289
vt 0.486768 0.792611
vn 0.000000 0.999835 0.018165
vn 0.000000 0.999835 0.018165
vn 0.000000 0.989004 0.147886
vn 0.000000 0.989004 0.147886
vn 0.000000 0.261571 -0.965184
vn 0.000000 0.261571 -0.965184
vn 0.000000 0.999922 0.012501
vn 0.000000 0.999964 0.008472
vn 0.000000 1.000000 0.000000
vn 0.000000 1.000000 0.000000
vn 0.000000 1.000000 0.000000
vn 0.000000 1.000000 0.000000
vn 0.000000 0.998145 -0.060880
vn 0.000000 0.998145 -0.060880
vn 0.000000 1.000000 0.000000
vn 0.000000 1.000000 0.000000
vn 0.000000 0.998145 -0.060880
vn 0.000000 1.000000 0.000000
vn 0.000000 1.000000 0.000000
vn 0.000000 0.998145 -0.060880
vn 0.000000 0.999800 0.020004
vn 0.000000 0.261571 -0.965184
vn 0.000000 0.261571 -0.965184
vn 0.000000 0.999964 0.008472
vn 0.000000 1.000000 0.000000
vn 0.000000 1.000000 0.000000
vn 0.000000 0.999835 0.018165
vn 0.000000 0.999835 0.018165
vn 0.000000 0.989004 0.147886
vn 0.000000 0.989004 0.147886
vn 0.000000 1.000000 0.000000
vn 0.000000 1.000000 0.000000
vn 0.000000 0.261570 -0.965184
vn 0.000000 0.261570 -0.965184
vn 0.000000 0.261570 -0.965184
vn 0.000000 0.261570 -0.965184
vn 1.000000 0.000000 0.000000
vn 1.000000 0.000000 0.000000
vn 1.000000 0.000000 0.000000
vn 1.000000 0.000000 0.000000
vn 0.000000 -0.711132 -0.703058
vn 0.000000 -0.711132 -0.703058
vn 0.000000 -0.711132 -0.703058
vn 0.000000 -0.711132 -0.703058
vn -1.000000 0.000000 0.000000
vn -1.000000 0.000000 0.000000
vn -1.000000 0.000000 0.000000
vn -1.000000 0.000000 0.000000
vn 0.000000 0.711132 0.703058
vn 0.000000 0.711132 0.703058
vn 0.000000 0.711132 0.703058
vn 0.000000 0.711132 0.703058
s 1
g Road_Straight_StormDrain
usemtl initialShadingGroup
f 13/1/1 26/2/2 27/3/3 8/4/4
f 29/5/5 30/6/6 24/7/7 12/8/8
f 8/4/4 27/3/3 28/9/9 3/10/10
f 1/11/11 22/12/12 23/13/13 9/14/14
f 5/15/15 12/8/8 24/7/7 25/16/16
f 5/15/15 25/16/16 26/2/2 13/1/1
f 16/18/17 15/19/18 2/20/19 10/21/20
f 17/22/21 31/23/22 32/25/23 11/26/24
f 17/22/21 11/26/24 6/27/25 18/28/26
f 19/29/27 18/28/26 6/27/25 14/32/28
f 20/37/29 19/29/27 14/32/28 7/39/30
f 21/41/31 20/37/29 7/39/30 4/43/32
f 23/13/13 22/12/12 15/19/18 16/18/17
s off
f 34/33/33 33/34/34 35/35/35 36/36/36
s 1
f 24/7/7 17/22/21 18/28/26 25/16/16
f 26/2/2 25/16/16 18/28/26 19/29/27
f 27/3/3 26/2/2 19/29/27 20/37/29
f 28/9/9 27/3/3 20/37/29 21/41/31
f 9/14/14 23/13/13 30/6/6 29/5/5
f 31/23/22 30/6/6 23/13/13 16/18/17
f 32/25/23 31/23/22 16/18/17 10/21/20
s off
f 24/24/37 30/44/38 33/34/39 34/33/40
f 30/30/41 31/40/42 35/35/43 33/34/44
f 31/31/45 17/38/46 36/36/47 35/35/48
f 17/17/49 24/42/50 34/33/51 36/36/52
