# This file uses centimeters as units for non-parametric coordinates.

mtllib Rock3.mtl
g default
v -0.653133 0.484969 0.874936
v 0.241607 0.484969 0.709814
v -0.965197 0.735981 -0.015121
v -0.043163 0.735981 -0.394305
v -0.789520 0.813441 0.387306
v -0.075133 0.000000 -0.752122
v -1.216366 0.000000 -0.062770
v 0.492776 0.000000 0.918618
v -0.263458 0.562428 1.011322
v -0.898646 0.000000 1.199827
v 0.225232 0.813440 -0.042571
v -0.475441 0.683240 -0.299522
v -0.238369 0.000000 1.419920
v -0.263458 0.913032 0.387306
v -0.551783 0.000000 -0.627438
v 0.500000 0.000000 0.000000
v -1.118738 0.000000 0.539551
vt 0.325966 0.373876
vt 0.542748 0.521688
vt 0.432962 0.598299
vt 0.307506 0.525427
vt 0.127897 0.420627
vt 0.202638 0.534931
vt 0.293872 0.663656
vt 0.193336 0.658213
vt 0.379110 0.753797
vt 0.332956 0.828484
vt 0.238409 0.821216
vt 0.153439 0.735479
vt 0.193401 0.966931
vt 0.006368 0.790987
vt 0.338261 0.996676
vt 0.557585 0.806943
vt 0.011868 0.597098
vn 0.138144 0.608394 0.781520
vn 0.766764 0.497807 0.405293
vn 0.715234 0.594228 0.367876
vn 0.155106 0.724021 0.672113
vn -0.573768 0.565107 0.592828
vn -0.526941 0.638207 0.561271
vn 0.110217 0.968804 0.221971
vn -0.591058 0.777932 0.213243
vn 0.713055 0.663139 -0.227593
vn 0.371066 0.600209 -0.708561
vn -0.346059 0.650933 -0.675669
vn -0.714005 0.603276 -0.355324
vn -0.416524 0.383226 -0.824407
vn -0.839334 0.400985 -0.367057
vn 0.360078 0.388654 -0.848111
vn 0.907078 0.343486 -0.243368
vn -0.850055 0.427699 0.307377
s 1
g pCube58
usemtl initialShadingGroup
f 13/1/1 8/2/2 2/3/3 9/4/4
f 10/5/5 13/1/1 9/4/4 1/6/6
f 1/6/6 9/4/4 14/7/7 5/8/8
f 9/4/4 2/3/3 11/9/9 14/7/7
f 14/7/7 11/9/9 4/10/10 12/11/11
f 5/8/8 14/7/7 12/11/11 3/12/12
f 3/12/12 12/11/11 15/13/13 7/14/14
f 12/11/11 4/10/10 6/15/15 15/13/13
f 16/16/16 6/15/15 4/10/10 11/9/9
f 8/2/2 16/16/16 11/9/9 2/3/3
f 17/17/17 10/5/5 1/6/6 5/8/8
f 7/14/14 17/17/17 5/8/8 3/12/12
