# This file uses centimeters as units for non-parametric coordinates.

mtllib Rock2.mtl
g default
v -0.608256 0.689635 0.277778
v 0.463547 0.277778 0.400052
v -0.608256 0.689635 -0.277778
v 0.463547 0.277778 -0.400052
v -0.705478 0.786857 0.000000
v 0.609406 0.000000 -0.453496
v -0.796541 0.000000 -0.569795
v 0.609406 0.000000 0.453496
v -0.142517 0.986975 0.375000
v -0.841106 0.000000 0.317111
v 0.544603 0.436532 0.000000
v -0.142517 0.986975 -0.375000
v 0.017425 0.000000 0.556245
v -0.142517 1.111975 0.000000
v -0.120817 0.000000 -0.693322
v 0.796938 0.000000 0.000000
v -0.984074 0.000000 -0.055229
vt 0.720587 0.005380
vt 0.914698 0.092065
vt 0.847957 0.130970
vt 0.692437 0.202505
vt 0.447196 0.150298
vt 0.580862 0.202671
vt 0.689513 0.273351
vt 0.579016 0.276473
vt 0.870621 0.253503
vt 0.870241 0.376477
vt 0.699365 0.342347
vt 0.584031 0.349916
vt 0.713123 0.543221
vt 0.484839 0.462542
vt 0.942511 0.405757
vt 0.989557 0.243009
vt 0.407449 0.285688
vn -0.077799 0.178871 0.980792
vn 0.515842 0.373289 0.771079
vn 0.512916 0.444694 0.734278
vn 0.114692 0.584926 0.802937
vn -0.551934 0.218714 0.804695
vn -0.496820 0.315128 0.808619
vn 0.341767 0.939785 -0.000000
vn -0.807136 0.590331 -0.006309
vn 0.768441 0.639920 0.000000
vn 0.528895 0.456105 -0.715708
vn 0.169936 0.657760 -0.733807
vn -0.543897 0.470585 -0.694785
vn -0.004463 0.345827 -0.938288
vn -0.528683 0.384845 -0.756564
vn 0.528144 0.396391 -0.750958
vn 0.861573 0.507634 0.000000
vn -0.933310 0.356304 -0.044494
s 1
g pCube57
usemtl initialShadingGroup
f 13/1/1 8/2/2 2/3/3 9/4/4
f 10/5/5 13/1/1 9/4/4 1/6/6
f 1/6/6 9/4/4 14/7/7 5/8/8
f 9/4/4 2/3/3 11/9/9 14/7/7
f 14/7/7 11/9/9 4/10/10 12/11/11
f 5/8/8 14/7/7 12/11/11 3/12/12
f 3/12/12 12/11/11 15/13/13 7/14/14
f 12/11/11 4/10/10 6/15/15 15/13/13
f 16/16/16 6/15/15 4/10/10 11/9/9
f 8/2/2 16/16/16 11/9/9 2/3/3
f 17/17/17 10/5/5 1/6/6 5/8/8
f 7/14/14 17/17/17 5/8/8 3/12/12
