# This file uses meters as units for non-parametric coordinates.

mtllib Roof_Drain_Corner_Grounded Update.mtl
g default
v 1000.000000 271.631592 -556.970139
v 1042.975830 271.631592 -556.970139
v 1000.000000 300.000000 -550.000000
v 1050.000000 300.000000 -550.000000
v 1050.000000 300.000000 -600.000000
v 1000.000000 271.631592 -593.055195
v 1043.029785 271.631592 -600.000000
v 1042.975830 271.631592 -593.038990
v 1050.000000 300.000000 -593.035316
v 1006.970154 300.000000 -550.000000
v 1006.970154 271.631592 -556.970139
v 1006.970154 271.631592 -593.055840
v 1006.970154 271.631592 -600.000000
v 1006.970154 0.000000 -556.970139
v 1006.970154 0.000000 -593.055840
v 1042.975830 0.000000 -593.038990
v 1042.975830 0.000000 -556.970139
v 1000.000000 300.000000 -599.999992
vt 0.910218 0.738974
vt 0.938209 0.738984
vt 0.910212 0.758001
vt 0.943173 0.758039
vt 0.910113 0.770217
vt 0.939745 0.765743
vt 0.910113 0.795375
vt 0.971827 0.941550
vt 0.975727 0.739028
vt 0.975723 0.758045
vt 0.971921 0.883211
vt 0.971195 0.739019
vt 0.971189 0.758044
vt 0.914752 0.758003
vt 0.914758 0.738976
vt 0.825301 0.882974
vt 0.825207 0.941313
vt 0.913076 0.765743
vt 0.971889 0.902646
vt 0.825269 0.902409
vt 0.971858 0.922115
vt 0.825238 0.921878
vt 0.913076 0.795375
vt 0.913076 0.770187
vt 0.939745 0.770187
vt 0.971796 0.961028
vt 0.825175 0.960791
vt 0.952730 0.765698
vt 0.964583 0.765698
vt 0.958657 0.777551
vt 0.947714 0.739015
vt 0.942778 0.758012
vn 0.000000 -0.238604 0.971117
vn 0.000000 -0.029182 0.999574
vn 0.000000 -0.028609 0.999591
vn 0.000000 -0.238604 0.971117
vn 0.999586 -0.028782 0.000000
vn 0.999569 -0.029354 0.000069
vn 0.970719 -0.240217 0.000563
vn 0.970687 -0.240347 0.000000
vn 0.000000 -1.000000 0.000000
vn 0.000000 -1.000000 0.000000
vn 0.000000 -1.000000 0.000000
vn 0.000000 -1.000000 0.000000
vn 0.970895 -0.239476 0.003762
vn 0.970895 -0.239476 0.003762
vn 0.000000 -0.238604 0.971117
vn 0.000000 -0.238604 0.971117
vn 0.000000 -1.000000 0.000000
vn 0.000000 -1.000000 0.000000
vn 0.000000 -1.000000 0.000000
vn -1.000000 0.000000 0.000000
vn -1.000000 0.000000 0.000000
vn -1.000000 0.000000 0.000000
vn -1.000000 0.000000 0.000000
vn 0.000468 0.000000 -1.000000
vn 0.000468 0.000000 -1.000000
vn 0.000468 0.000000 -1.000000
vn 0.000468 0.000000 -1.000000
vn 1.000000 0.000000 0.000000
vn 1.000000 0.000000 0.000000
vn 0.000000 0.000000 1.000000
vn 0.000000 0.000000 1.000000
vn -0.695437 -0.170870 -0.697976
vn -0.695437 -0.170870 -0.697976
vn -0.695437 -0.170870 -0.697976
s 1
g Roof_Corner_Grounded_LP
usemtl initialShadingGroup
f 10/14/1 11/15/2 2/2/3 4/32/4
s 2
f 2/31/5 8/12/6 9/13/7 4/4/8
s 3
f 12/24/9 13/18/10 7/6/11 8/25/12
s 2
f 9/13/7 8/12/6 7/9/13 5/10/14
s 1
f 1/1/15 11/15/2 10/14/1 3/3/16
s 3
f 1/7/17 6/5/18 12/24/9 11/23/19
f 6/5/18 13/18/10 12/24/9
s off
f 11/8/20 12/26/21 15/27/22 14/17/23
f 12/11/24 8/19/25 16/20/26 15/16/27
s 2
f 8/19/6 2/21/5 17/22/28 16/20/29
s 1
f 2/21/3 11/8/2 14/17/30 17/22/31
s off
f 13/28/32 6/29/33 18/30/34
