# This file uses meters as units for non-parametric coordinates.

mtllib Roof_Medium Update.mtl
g default
v 300.000000 300.000000 -600.000000
v 500.000000 300.000000 -600.000000
v 300.000000 400.000000 -1000.000000
v 500.000000 400.000000 -1000.000000
vt 0.459283 0.298077
vt 0.605855 0.298077
vt 0.605855 0.591223
vt 0.459283 0.591223
vn 0.000000 0.970143 0.242536
vn 0.000000 0.970143 0.242536
vn 0.000000 0.970143 0.242536
vn 0.000000 0.970143 0.242536
s off
g Roof_Medium_LP
usemtl initialShadingGroup
f 1/1/1 2/2/2 4/3/3 3/4/4
