# This file uses meters as units for non-parametric coordinates.

mtllib Roof_Drain_Long Update.mtl
g default
v 100.000000 271.631607 -556.970139
v 500.000000 271.631607 -556.970139
v 100.000000 300.000000 -550.000000
v 500.000000 300.000000 -550.000000
v 100.000000 300.000000 -600.000000
v 500.000000 300.000000 -600.000000
v 100.000000 271.631607 -593.029839
v 500.000000 271.631607 -593.029839
vt 0.813517 0.665567
vt 0.986483 0.665567
vt 0.813517 0.688918
vt 0.986483 0.688918
vt 0.813517 0.611082
vt 0.986483 0.611082
vt 0.813517 0.634433
vt 0.986483 0.634433
vn 0.000000 -0.238604 0.971117
vn 0.000000 -0.238604 0.971117
vn 0.000000 -0.238604 0.971117
vn 0.000000 -0.238604 0.971117
vn 0.000000 -0.238605 -0.971117
vn 0.000000 -0.238605 -0.971117
vn 0.000000 -0.238605 -0.971117
vn 0.000000 -0.238605 -0.971117
vn 0.000000 -1.000000 0.000000
vn 0.000000 -1.000000 0.000000
vn 0.000000 -1.000000 0.000000
vn 0.000000 -1.000000 0.000000
s off
g Roof_Drain_Long_LP
usemtl initialShadingGroup
f 1/1/1 2/2/2 4/4/3 3/3/4
f 5/5/5 6/6/6 8/8/7 7/7/8
f 7/7/9 8/8/10 2/2/11 1/1/12
