# This file uses meters as units for non-parametric coordinates.

mtllib Roof_Drain_Long.mtl
g default
v 100.000000 271.631607 -556.970139
v 500.000000 271.631607 -556.970139
v 100.000000 300.000000 -550.000000
v 500.000000 300.000000 -550.000000
v 100.000000 300.000000 -600.000000
v 500.000000 300.000000 -600.000000
v 100.000000 271.631607 -593.029839
v 500.000000 271.631607 -593.029839
vt 0.622733 0.276746
vt 0.622733 0.014835
vt 0.658091 0.276746
vt 0.658091 0.014835
vt 0.540231 0.276746
vt 0.540231 0.014835
vt 0.575589 0.276746
vt 0.575589 0.014835
vn 0.000000 -0.238604 0.971117
vn 0.000000 -0.238604 0.971117
vn 0.000000 -0.238604 0.971117
vn 0.000000 -0.238604 0.971117
vn 0.000000 -0.238605 -0.971117
vn 0.000000 -0.238605 -0.971117
vn 0.000000 -0.238605 -0.971117
vn 0.000000 -0.238605 -0.971117
vn 0.000000 -1.000000 0.000000
vn 0.000000 -1.000000 0.000000
vn 0.000000 -1.000000 0.000000
vn 0.000000 -1.000000 0.000000
s off
g Roof_Drain_Long_LP
usemtl initialShadingGroup
f 1/1/1 2/2/2 4/4/3 3/3/4
f 5/5/5 6/6/6 8/8/7 7/7/8
f 7/7/9 8/8/10 2/2/11 1/1/12
