# This file uses meters as units for non-parametric coordinates.

mtllib Roof_Long Update.mtl
g default
v -200.000000 300.000000 -600.000000
v 200.000000 300.000000 -600.000000
v -200.000000 400.000000 -1000.000000
v 200.000000 400.000000 -1000.000000
vt 0.616437 0.301958
vt 0.909583 0.301958
vt 0.909583 0.595103
vt 0.616437 0.595103
vn 0.000000 0.970143 0.242536
vn 0.000000 0.970143 0.242536
vn 0.000000 0.970143 0.242536
vn 0.000000 0.970143 0.242536
s off
g Roof_Long_LP
usemtl initialShadingGroup
f 1/1/1 2/2/2 4/3/3 3/4/4
