# This file uses meters as units for non-parametric coordinates.

mtllib Roof_Chimmeny Update.mtl
g default
v 800.000000 300.000000 -600.000000
v 1000.000000 300.000000 -600.000000
v 800.000000 400.000000 -1000.000000
v 1000.000000 400.000000 -1000.000000
v 800.000000 350.000000 -800.000000
v 1000.000000 350.000000 -800.000000
v 900.000000 300.000000 -600.000000
v 900.000000 400.000000 -1000.000000
v 910.000000 300.000000 -600.000000
v 910.000000 350.000000 -800.000000
v 910.000000 400.000000 -1000.000000
v 890.000000 300.000000 -600.000000
v 890.000000 350.000000 -800.000000
v 890.000000 400.000000 -1000.000000
v 800.000000 347.500000 -790.000000
v 893.334335 348.190277 -792.768829
v 900.000000 347.500000 -790.000000
v 906.665665 348.190277 -792.768829
v 1000.000000 347.500000 -790.000000
v 800.000000 352.500000 -810.000000
v 893.334335 351.807739 -807.231171
v 900.000000 352.500000 -810.000000
v 906.665665 351.807739 -807.231171
v 1000.000000 352.500000 -810.000000
v 900.000000 397.500000 -790.000000
v 900.000000 400.000000 -800.000000
v 906.665665 398.190277 -792.768829
v 910.000000 400.000000 -800.000000
v 893.334335 398.190277 -792.768829
v 890.000000 400.000000 -800.000000
v 893.334335 401.807739 -807.231171
v 900.000000 402.500000 -810.000000
v 906.665665 401.807739 -807.231171
vt 0.376072 0.591397
vt 0.309941 0.591397
vt 0.309941 0.452486
vt 0.336247 0.610214
vt 0.309941 0.437863
vt 0.340682 0.610549
vt 0.340682 0.634825
vt 0.309941 0.445175
vt 0.336222 0.640814
vt 0.336222 0.634768
vt 0.336247 0.634490
vt 0.345602 0.611428
vt 0.390609 0.591397
vt 0.383340 0.591397
vt 0.345602 0.635704
vt 0.326892 0.611428
vt 0.331812 0.610549
vt 0.331812 0.634825
vt 0.455654 0.437863
vt 0.455654 0.445175
vt 0.455654 0.452486
vt 0.455654 0.591397
vt 0.329936 0.640814
vt 0.326892 0.635704
vt 0.376072 0.298952
vt 0.309941 0.298952
vt 0.383340 0.298952
vt 0.317537 0.612642
vt 0.390609 0.298952
vt 0.455654 0.298952
vt 0.336222 0.646860
vt 0.321973 0.612306
vt 0.340412 0.645186
vt 0.383340 0.452486
vt 0.388185 0.450462
vt 0.378496 0.450462
vt 0.383340 0.437863
vt 0.388185 0.439888
vt 0.378496 0.439888
vt 0.390609 0.445175
vt 0.376072 0.445175
vt 0.342508 0.640814
vt 0.321973 0.636582
vt 0.317537 0.636918
vt 0.350522 0.612306
vt 0.332032 0.645186
vt 0.332032 0.636442
vt 0.350522 0.636582
vt 0.340412 0.636442
vt 0.354957 0.612642
vt 0.354957 0.636918
vn 0.000000 0.970142 0.242536
vn 0.000000 0.970142 0.242536
vn 0.000000 0.970143 0.242536
vn 0.000000 0.970143 0.242536
vn 0.000010 0.970143 0.242535
vn 0.000002 0.970143 0.242534
vn 0.000006 0.970130 0.242584
vn 0.000006 0.970130 0.242584
vn -0.000000 0.970127 0.242597
vn -0.000000 0.970111 0.242662
vn 0.000135 0.970111 0.242662
vn 0.000069 0.970127 0.242597
vn -0.000000 0.970142 0.242536
vn -0.000000 0.970142 0.242536
vn -0.000000 0.970142 0.242536
vn -0.000000 0.970143 0.242536
vn -0.000006 0.970130 0.242584
vn -0.000002 0.970143 0.242534
vn -0.000010 0.970143 0.242535
vn -0.000006 0.970130 0.242584
vn -0.000000 0.970143 0.242536
vn -0.000000 0.970142 0.242536
vn -0.000069 0.970127 0.242597
vn -0.000135 0.970111 0.242662
vn 0.000000 0.970144 0.242531
vn 0.000010 0.970144 0.242531
vn 0.000000 0.970144 0.242530
vn 0.000000 0.970144 0.242530
vn -0.000000 0.970144 0.242531
vn -0.000010 0.970144 0.242531
vn 0.000000 0.970143 0.242532
vn -0.000004 0.970143 0.242532
vn 0.000004 0.970143 0.242532
vn 0.383608 0.000000 0.923496
vn 0.383608 0.000000 0.923496
vn 0.383608 0.000000 0.923496
vn 0.383608 0.000000 0.923496
vn 0.908109 0.000000 0.418734
vn 0.908109 0.000000 0.418734
vn 0.908109 0.000000 0.418734
vn 0.908109 0.000000 0.418734
vn -0.908109 0.000000 0.418734
vn -0.908109 0.000000 0.418734
vn -0.908109 0.000000 0.418734
vn -0.908109 0.000000 0.418734
vn -0.383608 0.000000 0.923496
vn -0.383608 0.000000 0.923496
vn -0.383608 0.000000 0.923496
vn -0.383608 0.000000 0.923496
vn -0.383608 0.000000 -0.923496
vn -0.383608 0.000000 -0.923496
vn -0.383608 0.000000 -0.923496
vn -0.383608 0.000000 -0.923496
vn -0.908109 0.000000 -0.418734
vn -0.908109 0.000000 -0.418734
vn -0.908109 0.000000 -0.418734
vn -0.908109 0.000000 -0.418734
vn 0.383608 0.000000 -0.923496
vn 0.383608 0.000000 -0.923496
vn 0.383608 0.000000 -0.923496
vn 0.383608 0.000000 -0.923496
vn 0.908109 0.000000 -0.418734
vn 0.908109 0.000000 -0.418734
vn 0.908109 0.000000 -0.418734
vn 0.908109 0.000000 -0.418734
s 1
g Roof_Chimmy_LP
usemtl initialShadingGroup
f 14/1/1 3/2/2 20/3/3 21/36/4
f 15/5/5 16/39/6 13/41/7 5/8/8
s 3
f 26/9/9 25/10/10 27/49/11 28/42/12
s 1
f 11/13/13 8/14/14 22/34/15 23/35/16
f 10/40/17 18/38/18 19/19/19 6/20/20
f 24/21/21 4/22/22 11/13/13 23/35/16
s 3
f 30/23/23 29/47/24 25/10/10 26/9/9
s 1
f 8/14/14 14/1/1 21/36/4 22/34/15
f 12/25/25 16/39/6 15/5/5 1/26/26
f 7/27/27 17/37/28 16/39/6 12/25/25
f 9/29/29 18/38/18 17/37/28 7/27/27
f 2/30/30 19/19/19 18/38/18 9/29/29
f 5/8/8 13/41/7 21/36/4 20/3/3
s 3
f 32/31/31 31/46/32 30/23/23 26/9/9
f 33/33/33 32/31/31 26/9/9 28/42/12
s 1
f 24/21/21 23/35/16 10/40/17 6/20/20
s off
f 17/4/34 18/6/35 27/7/36 25/11/37
f 18/6/38 10/12/39 28/15/40 27/7/41
f 13/16/42 16/17/43 29/18/44 30/24/45
f 16/17/46 17/4/47 25/11/48 29/18/49
f 22/28/50 21/32/51 31/43/52 32/44/53
f 21/32/54 13/16/55 30/24/56 31/43/57
f 23/45/58 22/50/59 32/51/60 33/48/61
f 10/12/62 23/45/63 33/48/64 28/15/65
