# This file uses centimeters as units for non-parametric coordinates.

mtllib Shelves.mtl
g default
v -2.000000 0.000000 -2.000000
v -1.000000 0.000000 -2.000000
v -2.000000 1.892406 -2.000000
v -1.000000 1.892406 -2.000000
v -2.000000 1.892406 -3.000000
v -1.000000 1.892406 -3.000000
v -2.000000 0.000000 -3.000000
v -1.000000 0.000000 -3.000000
v -2.000000 2.000000 -2.500000
v -1.000000 2.000000 -2.500000
v -1.000000 1.902151 -2.950000
v -2.000000 1.902151 -2.950000
v -2.000000 1.902151 -2.050000
v -1.000000 1.902151 -2.050000
v -2.000000 0.892406 -2.000000
v -1.000000 0.892406 -2.000000
v -1.000000 0.902151 -2.050000
v -1.000000 0.902151 -2.950000
v -1.000000 0.892406 -3.000000
v -2.000000 0.892406 -3.000000
v -2.000000 0.902151 -2.950000
v -2.000000 0.902151 -2.050000
v -2.000000 0.392406 -2.000000
v -1.000000 0.392406 -2.000000
v -1.000000 0.402151 -2.050000
v -1.000000 0.402151 -2.950000
v -1.000000 0.392406 -3.000000
v -2.000000 0.392406 -3.000000
v -2.000000 0.402151 -2.950000
v -2.000000 0.402151 -2.050000
v -2.000000 1.392406 -3.000000
v -1.000000 1.392406 -3.000000
v -1.000000 1.402151 -2.950000
v -1.000000 1.402151 -2.050000
v -1.000000 1.392406 -2.000000
v -2.000000 1.392406 -2.000000
v -2.000000 1.402151 -2.050000
v -2.000000 1.402151 -2.950000
v -1.000000 0.452151 -2.050000
v -1.000000 0.442406 -2.000000
v -2.000000 0.442406 -2.000000
v -2.000000 0.452151 -2.050000
v -2.000000 0.452151 -2.950000
v -2.000000 0.442406 -3.000000
v -1.000000 0.442406 -3.000000
v -1.000000 0.452151 -2.950000
v -2.000000 0.942406 -2.000000
v -1.000000 0.942406 -2.000000
v -1.000000 0.952151 -2.050000
v -1.000000 0.952151 -2.950000
v -1.000000 0.942406 -3.000000
v -2.000000 0.942406 -3.000000
v -2.000000 0.952151 -2.950000
v -2.000000 0.952151 -2.050000
v -2.000000 1.442406 -3.000000
v -1.000000 1.442406 -3.000000
v -1.000000 1.452151 -2.950000
v -1.000000 1.452151 -2.050000
v -1.000000 1.442406 -2.000000
v -2.000000 1.442406 -2.000000
v -2.000000 1.452151 -2.050000
v -2.000000 1.452151 -2.950000
v -2.000000 0.050000 -2.000000
v -1.000000 0.050000 -2.000000
v -1.000000 0.050000 -2.050000
v -1.000000 0.050000 -2.950000
v -1.000000 0.050000 -3.000000
v -2.000000 0.050000 -3.000000
v -2.000000 0.050000 -2.950000
v -2.000000 0.050000 -2.050000
v -2.000000 1.847406 -3.000000
v -1.000000 1.847406 -3.000000
v -1.000000 1.857151 -2.950000
v -1.000000 1.857151 -2.050000
v -1.000000 1.847406 -2.000000
v -2.000000 1.847406 -2.000000
v -2.000000 1.857151 -2.050000
v -2.000000 1.857151 -2.950000
vt 0.433853 0.063251
vt 0.545201 0.063251
vt 0.545201 0.113358
vt 0.433853 0.113358
vt 0.433853 0.013144
vt 0.545201 0.013144
vt 0.545201 0.118925
vt 0.433853 0.118925
vt 0.433853 0.007577
vt 0.545201 0.007577
vt 0.638470 0.334394
vt 0.645647 0.334394
vt 0.645647 0.477945
vt 0.638470 0.477945
vt 0.656278 0.334492
vt 0.656278 0.478043
vt 0.649100 0.478043
vt 0.649100 0.334492
vt 0.681669 0.333970
vt 0.681669 0.477520
vt 0.674492 0.477520
vt 0.674492 0.333970
vt 0.663455 0.334492
vt 0.670632 0.334492
vt 0.670633 0.478043
vt 0.663456 0.478043
vt 0.688847 0.333970
vt 0.696024 0.333970
vt 0.696024 0.477520
vt 0.688847 0.477520
vt 0.438064 0.235114
vt 0.431301 0.235114
vt 0.431301 0.123765
vt 0.438065 0.123765
vt 0.444828 0.123765
vt 0.450395 0.123765
vt 0.450395 0.235114
vt 0.444827 0.235114
vt 0.457618 0.123692
vt 0.457618 0.235040
vt 0.452050 0.235040
vt 0.452050 0.123692
vt 0.538655 0.123641
vt 0.544223 0.123641
vt 0.544223 0.234990
vt 0.538655 0.234990
vt 0.519454 0.123764
vt 0.519454 0.235113
vt 0.513886 0.235113
vt 0.513886 0.123764
vt 0.525021 0.123764
vt 0.530589 0.123764
vt 0.530589 0.235113
vt 0.525021 0.235112
vt 0.500575 0.123641
vt 0.500575 0.234990
vt 0.495008 0.234990
vt 0.495008 0.123641
vt 0.506143 0.123641
vt 0.511710 0.123641
vt 0.511710 0.234990
vt 0.506143 0.234990
vt 0.482305 0.123720
vt 0.482305 0.235068
vt 0.476738 0.235068
vt 0.476738 0.123720
vt 0.487873 0.123720
vt 0.493440 0.123720
vt 0.493440 0.235068
vt 0.487873 0.235068
vt 0.469850 0.123676
vt 0.469850 0.235024
vt 0.464283 0.235024
vt 0.464283 0.123676
vt 0.533088 0.234990
vt 0.533088 0.123641
vt 0.463185 0.123692
vt 0.463185 0.235040
vt 0.632010 0.477945
vt 0.632010 0.334394
vt 0.474861 0.123676
vt 0.474861 0.235024
vt 0.008237 0.211027
vt 0.008237 0.128387
vt 0.212287 0.128387
vt 0.212287 0.211027
vt 0.211516 0.030720
vt 0.211516 0.122542
vt 0.007466 0.122543
vt 0.007466 0.030720
vt 0.211516 0.214994
vt 0.211516 0.306817
vt 0.007466 0.306817
vt 0.007466 0.214994
vt 0.211516 0.311422
vt 0.211516 0.383278
vt 0.007466 0.383278
vt 0.007466 0.311422
vt 0.421065 0.106584
vt 0.421065 0.198406
vt 0.217015 0.198406
vt 0.217015 0.106584
vt 0.421065 0.030122
vt 0.421065 0.101979
vt 0.217015 0.101979
vt 0.217015 0.030122
vt 0.421865 0.289764
vt 0.421865 0.381585
vt 0.217815 0.381585
vt 0.217815 0.289764
vt 0.217815 0.285158
vt 0.217815 0.202518
vt 0.421865 0.202518
vt 0.421865 0.285158
vn 0.000000 1.000000 0.000000
vn 0.000000 1.000000 0.000000
vn 0.000000 0.977621 -0.210372
vn 0.000000 0.977621 -0.210372
vn 0.000000 0.977621 0.210372
vn 0.000000 0.977621 0.210372
vn 0.000000 0.981531 -0.191303
vn 0.000000 0.981531 -0.191303
vn 0.000000 0.981532 0.191301
vn 0.000000 0.981532 0.191301
vn 0.000000 0.000000 1.000000
vn 0.000000 0.000000 1.000000
vn 0.000000 0.000000 1.000000
vn 0.000000 0.000000 1.000000
vn 0.000000 0.000000 -1.000000
vn 0.000000 0.000000 -1.000000
vn 0.000000 0.000000 -1.000000
vn 0.000000 0.000000 -1.000000
vn 0.000000 0.000000 -1.000000
vn 0.000000 0.000000 -1.000000
vn 0.000000 0.000000 -1.000000
vn 0.000000 0.000000 -1.000000
vn 0.000000 0.000000 1.000000
vn 0.000000 0.000000 1.000000
vn 0.000000 0.000000 1.000000
vn 0.000000 0.000000 1.000000
vn 0.000000 0.000000 1.000000
vn 0.000000 0.000000 1.000000
vn 0.000000 0.000000 1.000000
vn 0.000000 0.000000 1.000000
vn 0.000000 0.000000 -1.000000
vn 0.000000 0.000000 -1.000000
vn 0.000000 0.000000 -1.000000
vn 0.000000 0.000000 -1.000000
vn 0.000000 0.000000 1.000000
vn 0.000000 0.000000 1.000000
vn 0.000000 0.000000 1.000000
vn 0.000000 0.000000 1.000000
vn 0.000000 0.000000 -1.000000
vn 0.000000 0.000000 -1.000000
vn 0.000000 0.000000 -1.000000
vn 0.000000 0.000000 -1.000000
vn 0.000000 0.000000 -1.000000
vn 0.000000 0.000000 -1.000000
vn 0.000000 0.000000 -1.000000
vn 0.000000 0.000000 -1.000000
vn 0.000000 0.000000 1.000000
vn 0.000000 0.000000 1.000000
vn 0.000000 0.000000 1.000000
vn 0.000000 0.000000 1.000000
vn 0.000000 0.000000 -1.000000
vn 0.000000 0.000000 -1.000000
vn 0.000000 0.000000 -1.000000
vn 0.000000 0.000000 -1.000000
vn 0.000000 -0.981531 0.191303
vn 0.000000 -0.981531 0.191303
vn 0.000000 -0.981531 0.191303
vn 0.000000 -0.981531 0.191303
vn 0.000000 0.981532 -0.191301
vn 0.000000 0.981532 -0.191301
vn 0.000000 0.981532 -0.191301
vn 0.000000 0.981532 -0.191301
vn 0.000000 0.000000 -1.000000
vn 0.000000 0.000000 -1.000000
vn 0.000000 0.000000 -1.000000
vn 0.000000 0.000000 -1.000000
vn 0.000000 0.981531 -0.191303
vn 0.000000 0.981531 -0.191303
vn 0.000000 0.981531 -0.191303
vn 0.000000 0.981531 -0.191303
vn 0.000000 -0.981532 0.191301
vn 0.000000 -0.981532 0.191301
vn 0.000000 -0.981532 0.191301
vn 0.000000 -0.981532 0.191301
vn -0.000000 0.000000 -1.000000
vn -0.000000 0.000000 -1.000000
vn -0.000000 0.000000 -1.000000
vn -0.000000 0.000000 -1.000000
vn 0.000000 0.000000 -1.000000
vn 0.000000 0.000000 -1.000000
vn 0.000000 0.000000 -1.000000
vn 0.000000 0.000000 -1.000000
vn 0.000000 -0.981531 0.191303
vn 0.000000 -0.981531 0.191303
vn 0.000000 -0.981531 0.191303
vn 0.000000 -0.981531 0.191303
vn 0.000000 0.981531 -0.191303
vn 0.000000 0.981531 -0.191303
vn 0.000000 0.981531 -0.191303
vn 0.000000 0.981531 -0.191303
vn 0.000000 -0.981531 0.191303
vn 0.000000 -0.981531 0.191303
vn 0.000000 -0.981531 0.191303
vn 0.000000 -0.981531 0.191303
vn 0.000000 1.000000 0.000000
vn 0.000000 1.000000 0.000000
vn 0.000000 1.000000 0.000000
vn 0.000000 1.000000 0.000000
vn 0.000000 0.000000 1.000000
vn 0.000000 0.000000 1.000000
vn 0.000000 0.000000 1.000000
vn 0.000000 0.000000 1.000000
vn 0.000000 0.000000 1.000000
vn 0.000000 0.000000 1.000000
vn 0.000000 0.000000 1.000000
vn 0.000000 0.000000 1.000000
vn 0.000000 0.000000 1.000000
vn 0.000000 0.000000 1.000000
vn 0.000000 0.000000 1.000000
vn 0.000000 0.000000 1.000000
vn 0.000000 0.000000 1.000000
vn 0.000000 0.000000 1.000000
vn 0.000000 0.000000 1.000000
vn 0.000000 0.000000 1.000000
vn 0.000000 1.000000 0.000000
vn 0.000000 1.000000 0.000000
vn 0.000000 1.000000 0.000000
vn 0.000000 1.000000 0.000000
vn 0.000000 -0.981531 -0.191302
vn 0.000000 -0.981531 -0.191302
vn 0.000000 -0.981531 -0.191302
vn 0.000000 -0.981531 -0.191302
vn -0.000000 0.981531 0.191302
vn -0.000000 0.981531 0.191302
vn -0.000000 0.981531 0.191302
vn -0.000000 0.981531 0.191302
vn 0.000000 -0.981531 -0.191303
vn 0.000000 -0.981531 -0.191303
vn 0.000000 -0.981531 -0.191303
vn 0.000000 -0.981531 -0.191303
vn 0.000000 0.981532 0.191301
vn 0.000000 0.981532 0.191301
vn 0.000000 0.981532 0.191301
vn 0.000000 0.981532 0.191301
vn 0.000000 -0.981532 -0.191298
vn 0.000000 -0.981532 -0.191298
vn 0.000000 -0.981532 -0.191298
vn 0.000000 -0.981532 -0.191298
vn 0.000000 0.981532 0.191298
vn 0.000000 0.981532 0.191298
vn 0.000000 0.981532 0.191298
vn 0.000000 0.981532 0.191298
vn 0.000000 -0.981532 -0.191298
vn 0.000000 -0.981532 -0.191298
vn 0.000000 -0.981532 -0.191298
vn 0.000000 -0.981532 -0.191298
s 1
g pCube5
usemtl initialShadingGroup
f 9/1/1 10/2/2 11/3/3 12/4/4
f 13/5/5 14/6/6 10/2/2 9/1/1
f 12/4/4 11/3/3 6/7/7 5/8/8
f 3/9/9 4/10/10 14/6/6 13/5/5
s off
f 23/48/11 24/47/12 40/51/13 41/54/14
f 44/31/15 45/34/16 27/35/17 28/38/18
f 55/16/19 56/15/20 32/23/21 31/26/22
f 36/64/23 35/63/24 59/67/25 60/70/26
f 15/56/27 16/55/28 48/59/29 47/62/30
f 52/20/31 51/19/32 19/27/33 20/30/34
f 1/75/35 2/76/36 64/43/37 63/46/38
f 68/40/39 67/39/40 8/77/41 7/78/42
f 5/79/43 6/80/44 72/11/45 71/14/46
f 76/72/47 75/71/48 4/81/49 3/82/50
f 73/83/51 57/84/52 62/85/53 78/86/54
f 72/11/55 73/12/56 78/13/57 71/14/58
f 56/15/59 55/16/60 62/17/61 57/18/62
f 53/87/63 38/88/64 33/89/65 50/90/66
f 51/19/67 52/20/68 53/21/69 50/22/70
f 32/23/71 33/24/72 38/25/73 31/26/74
f 43/91/75 21/92/76 18/93/77 46/94/78
f 69/95/79 29/96/80 26/97/81 66/98/82
f 19/27/83 18/28/84 21/29/85 20/30/86
f 44/31/87 43/32/88 46/33/89 45/34/90
f 27/35/91 26/36/92 29/37/93 28/38/94
f 67/39/95 68/40/96 69/41/97 66/42/98
f 39/99/99 17/100/100 22/101/101 42/102/102
f 65/103/103 25/104/104 30/105/105 70/106/106
f 49/107/107 34/108/108 37/109/109 54/110/110
f 77/111/111 61/112/112 58/113/113 74/114/114
f 64/43/115 65/44/116 70/45/117 63/46/118
f 24/47/119 23/48/120 30/49/121 25/50/122
f 40/51/123 39/52/124 42/53/125 41/54/126
f 16/55/127 15/56/128 22/57/129 17/58/130
f 48/59/131 49/60/132 54/61/133 47/62/134
f 35/63/135 36/64/136 37/65/137 34/66/138
f 59/67/139 58/68/140 61/69/141 60/70/142
f 75/71/143 76/72/144 77/73/145 74/74/146
