# This file uses centimeters as units for non-parametric coordinates.

mtllib Shelves_End.mtl
g default
v 1.000000 0.000000 -2.000000
v 1.000000 1.892406 -2.000000
v 1.000000 1.892406 -3.000000
v 1.000000 0.000000 -3.000000
v 1.000000 2.000000 -2.500000
v 1.000000 0.000000 -2.500000
v 1.000000 0.000000 -2.950000
v 1.000000 1.902151 -2.950000
v 1.000000 1.902151 -2.050000
v 1.000000 0.000000 -2.050000
v 1.000000 0.892406 -2.000000
v 1.000000 0.902151 -2.050000
v 1.000000 1.000000 -2.500000
v 1.000000 0.902151 -2.950000
v 1.000000 0.892406 -3.000000
v 1.000000 0.392406 -2.000000
v 1.000000 0.402151 -2.050000
v 1.000000 0.500000 -2.500000
v 1.000000 0.402151 -2.950000
v 1.000000 0.392406 -3.000000
v 1.000000 1.392406 -3.000000
v 1.000000 1.402151 -2.950000
v 1.000000 1.500000 -2.500000
v 1.000000 1.402151 -2.050000
v 1.000000 1.392406 -2.000000
v 1.000000 0.452151 -2.050000
v 1.000000 0.442406 -2.000000
v 1.000000 0.442406 -3.000000
v 1.000000 0.452151 -2.950000
v 1.000000 0.550000 -2.500000
v 1.000000 0.942406 -2.000000
v 1.000000 0.952151 -2.050000
v 1.000000 1.050000 -2.500000
v 1.000000 0.952151 -2.950000
v 1.000000 0.942406 -3.000000
v 1.000000 1.442406 -3.000000
v 1.000000 1.452151 -2.950000
v 1.000000 1.550000 -2.500000
v 1.000000 1.452151 -2.050000
v 1.000000 1.442406 -2.000000
v 1.000000 0.050000 -2.000000
v 1.000000 0.050000 -2.050000
v 1.000000 0.050000 -2.500000
v 1.000000 0.050000 -2.950000
v 1.000000 0.050000 -3.000000
v 1.000000 1.847406 -3.000000
v 1.000000 1.857151 -2.950000
v 1.000000 1.955000 -2.500000
v 1.000000 1.857151 -2.050000
v 1.000000 1.847406 -2.000000
vt 0.663072 0.179438
vt 0.607985 0.191417
vt 0.607985 0.136330
vt 0.663072 0.124352
vt 0.663072 0.185559
vt 0.607985 0.197537
vt 0.552899 0.179438
vt 0.552899 0.124352
vt 0.607985 0.130209
vt 0.663072 0.118231
vt 0.663072 0.235137
vt 0.607985 0.247115
vt 0.552899 0.185559
vt 0.669192 0.184366
vt 0.669192 0.178246
vt 0.552899 0.118231
vt 0.607985 0.075123
vt 0.663072 0.063145
vt 0.669192 0.123159
vt 0.669192 0.117038
vt 0.607985 0.252624
vt 0.663072 0.240646
vt 0.552899 0.235137
vt 0.546778 0.178246
vt 0.546778 0.184366
vt 0.546778 0.117038
vt 0.546778 0.123159
vt 0.552899 0.063145
vt 0.607985 0.069002
vt 0.663072 0.057024
vt 0.552899 0.240646
vt 0.669192 0.233944
vt 0.669192 0.239453
vt 0.552899 0.057024
vt 0.607985 0.013916
vt 0.663072 0.013916
vt 0.669192 0.061952
vt 0.669192 0.055831
vt 0.546778 0.233944
vt 0.546778 0.239453
vt 0.546778 0.055831
vt 0.546778 0.061952
vt 0.552899 0.013916
vt 0.607985 0.007795
vt 0.663072 0.007795
vt 0.552899 0.007795
vt 0.669192 0.013916
vt 0.669192 0.007795
vt 0.546778 0.007795
vt 0.546778 0.013916
vn 1.000000 0.000000 0.000000
vn 1.000000 0.000000 0.000000
vn 1.000000 0.000000 0.000000
vn 1.000000 0.000000 0.000000
vn 1.000000 0.000000 0.000000
vn 1.000000 0.000000 0.000000
vn 1.000000 0.000000 0.000000
vn 1.000000 0.000000 0.000000
vn 1.000000 0.000000 0.000000
vn 1.000000 0.000000 0.000000
vn 1.000000 0.000000 0.000000
vn 1.000000 0.000000 0.000000
vn 1.000000 0.000000 0.000000
vn 1.000000 0.000000 0.000000
vn 1.000000 0.000000 0.000000
vn 1.000000 0.000000 0.000000
vn 1.000000 0.000000 0.000000
vn 1.000000 0.000000 0.000000
vn 1.000000 0.000000 0.000000
vn 1.000000 0.000000 0.000000
vn 1.000000 0.000000 0.000000
vn 1.000000 0.000000 0.000000
vn 1.000000 0.000000 0.000000
vn 1.000000 0.000000 0.000000
vn 1.000000 0.000000 0.000000
vn 1.000000 0.000000 0.000000
vn 1.000000 0.000000 0.000000
vn 1.000000 0.000000 0.000000
vn 1.000000 0.000000 0.000000
vn 1.000000 0.000000 0.000000
vn 1.000000 0.000000 0.000000
vn 1.000000 0.000000 0.000000
vn 1.000000 0.000000 0.000000
vn 1.000000 0.000000 0.000000
vn 1.000000 0.000000 0.000000
vn 1.000000 0.000000 0.000000
vn 1.000000 0.000000 0.000000
vn 1.000000 0.000000 0.000000
vn 1.000000 0.000000 0.000000
vn 1.000000 0.000000 0.000000
vn 1.000000 0.000000 0.000000
vn 1.000000 0.000000 0.000000
vn 1.000000 0.000000 0.000000
vn 1.000000 0.000000 0.000000
vn 1.000000 0.000000 0.000000
vn 1.000000 0.000000 0.000000
vn 1.000000 0.000000 0.000000
vn 1.000000 0.000000 0.000000
vn 1.000000 0.000000 0.000000
vn 1.000000 0.000000 0.000000
s 1
g pCube25
usemtl initialShadingGroup
f 22/1/1 23/2/2 33/3/3 34/4/4
f 23/2/2 24/7/5 32/8/6 33/3/3
f 16/41/7 17/34/8 26/28/9 27/42/10
f 30/17/11 26/28/9 17/34/8 18/29/12
f 29/18/13 30/17/11 18/29/12 19/30/14
f 28/37/15 29/18/13 19/30/14 20/38/16
f 18/29/12 17/34/8 42/43/17 43/35/18
f 19/30/14 18/29/12 43/35/18 44/36/19
f 36/14/20 37/5/21 22/1/1 21/15/22
f 37/5/21 38/6/23 23/2/2 22/1/1
f 38/6/23 39/13/24 24/7/5 23/2/2
f 25/24/25 24/7/5 39/13/24 40/25/26
f 14/10/27 13/9/28 30/17/11 29/18/13
f 13/9/28 12/16/29 26/28/9 30/17/11
f 11/26/30 12/16/29 32/8/6 31/27/31
f 33/3/3 32/8/6 12/16/29 13/9/28
f 34/4/4 33/3/3 13/9/28 14/10/27
f 35/19/32 34/4/4 14/10/27 15/20/33
f 47/11/34 48/12/35 38/6/23 37/5/21
f 48/12/35 49/23/36 39/13/24 38/6/23
f 1/49/37 10/46/38 42/43/17 41/50/39
f 43/35/18 42/43/17 10/46/38 6/44/40
f 44/36/19 43/35/18 6/44/40 7/45/41
f 45/47/42 44/36/19 7/45/41 4/48/43
f 8/22/44 47/11/34 46/32/45 3/33/46
f 5/21/47 48/12/35 47/11/34 8/22/44
f 9/31/48 49/23/36 48/12/35 5/21/47
f 50/39/49 49/23/36 9/31/48 2/40/50
