# This file uses meters as units for non-parametric coordinates.

mtllib Sliding door.mtl
g default
v -684.553528 13.098412 -455.136292
v -560.981934 13.098419 -455.135559
v -684.553528 248.869934 -455.134644
v -560.981934 248.869934 -455.135376
v -700.000000 -0.000008 -448.705933
v -545.535461 0.000000 -448.704926
v -700.000000 261.968353 -448.703918
v -545.535461 261.968353 -448.704926
v -700.000000 261.968353 -461.564972
v -545.535461 261.968353 -461.565979
v -700.000000 -0.000008 -461.566986
v -545.535461 0.000000 -461.565979
v -700.000000 13.098412 -448.705811
v -545.535461 13.098419 -448.704926
v -545.535461 13.098423 -461.565979
v -700.000000 13.098415 -461.566895
v -700.000000 248.869904 -461.565094
v -545.535461 248.869904 -461.565979
v -545.535461 248.869904 -448.704926
v -700.000000 248.869904 -448.704041
v -684.553528 -0.000008 -448.705811
v -684.553528 -0.000008 -461.566895
v -684.553528 13.098415 -461.566803
v -684.553528 248.869934 -461.565186
v -684.553528 261.968353 -461.565094
v -684.553528 261.968353 -448.704041
v -684.553528 248.869934 -448.704102
v -684.553528 13.098412 -448.705750
v -560.981934 0.000000 -448.705017
v -560.981934 13.098419 -448.705017
v -560.981934 248.869934 -448.704834
v -560.981934 261.968353 -448.704834
v -560.981934 261.968353 -461.565887
v -560.981934 248.869934 -461.565887
v -560.981934 13.098419 -461.566071
v -560.981934 0.000000 -461.566071
v -560.981934 13.098419 -455.135559
v -684.553528 13.098412 -455.136292
v -684.553528 248.869934 -455.134644
v -560.981934 248.869934 -455.135376
vt 0.008885 0.938764
vt 0.008885 0.765370
vt 0.403366 0.938764
vt 0.403366 0.765370
vt 0.227041 0.384896
vt 0.227041 0.402298
vt 0.041386 0.402298
vt 0.041386 0.384896
vt 0.227041 0.002257
vt 0.227041 0.019832
vt 0.041386 0.019832
vt 0.041386 0.002257
vt 0.265680 0.037575
vt 0.265680 0.367051
vt 0.248081 0.367051
vt 0.248081 0.037575
vt 0.020194 0.367051
vt 0.002543 0.367051
vt 0.002543 0.037575
vt 0.020194 0.037575
vt 0.227041 0.037575
vt 0.041386 0.037575
vt 0.248081 0.019832
vt 0.265680 0.019832
vt 0.070596 0.088213
vt 0.194837 0.088213
vt 0.194837 0.074652
vt 0.070596 0.074652
vt 0.002543 0.019832
vt 0.020194 0.019832
vt 0.194837 0.345879
vt 0.194837 0.332318
vt 0.070596 0.332318
vt 0.070596 0.345879
vt 0.265680 0.384896
vt 0.248081 0.384896
vt 0.041386 0.367051
vt 0.227041 0.367051
vt 0.020194 0.384896
vt 0.002543 0.384896
vt 0.020194 0.002257
vt 0.055066 0.088213
vt 0.055066 0.074652
vt 0.055066 0.332318
vt 0.055066 0.345879
vt 0.020194 0.402298
vt 0.248081 0.402298
vt 0.210367 0.332318
vt 0.210367 0.345879
vt 0.210367 0.088213
vt 0.210367 0.074652
vt 0.248081 0.002257
vt 0.221048 0.042704
vt 0.047089 0.042704
vt 0.047089 0.361717
vt 0.221048 0.361717
vt 0.214738 0.047914
vt 0.053344 0.047914
vt 0.053344 0.356522
vt 0.214738 0.356522
vn 0.000000 -0.000004 1.000000
vn 0.000000 -0.000004 1.000000
vn 0.000000 -0.000004 1.000000
vn 0.000000 -0.000004 1.000000
vn 0.000000 1.000000 0.000000
vn 0.000000 1.000000 0.000000
vn 0.000000 1.000000 0.000000
vn 0.000000 1.000000 0.000000
vn 0.000000 -1.000000 0.000000
vn 0.000000 -1.000000 0.000000
vn 0.000000 -1.000000 0.000000
vn 0.000000 -1.000000 0.000000
vn 1.000000 0.000000 0.000000
vn 1.000000 0.000000 0.000000
vn 1.000000 0.000000 0.000000
vn 1.000000 0.000000 0.000000
vn -1.000000 -0.000000 0.000000
vn -1.000000 -0.000000 0.000000
vn -1.000000 -0.000000 0.000000
vn -1.000000 -0.000000 0.000000
vn -0.000006 -0.000002 1.000000
vn -0.000002 -0.000001 1.000000
vn -0.000002 -0.000006 1.000000
vn -0.000006 -0.000003 1.000000
vn 1.000000 0.000000 0.000000
vn 1.000000 0.000000 0.000000
vn 0.000002 0.000006 -1.000000
vn 0.000002 0.000001 -1.000000
vn 0.000006 0.000003 -1.000000
vn 0.000007 0.000004 -1.000000
vn -1.000000 -0.000004 0.000000
vn -1.000000 -0.000004 0.000000
vn -0.000006 0.000003 -1.000000
vn -0.000002 0.000001 -1.000000
vn -0.000002 0.000006 -1.000000
vn -0.000006 0.000004 -1.000000
vn 1.000000 0.000000 0.000000
vn 1.000000 0.000000 0.000000
vn 0.000002 -0.000006 1.000000
vn 0.000002 -0.000001 1.000000
vn 0.000006 -0.000002 1.000000
vn 0.000006 -0.000003 1.000000
vn -1.000000 -0.000003 0.000000
vn -1.000000 -0.000003 0.000000
vn 0.000000 -1.000000 0.000000
vn 0.000000 -1.000000 0.000000
vn 0.000000 0.000007 -1.000000
vn 0.000007 0.000007 -1.000000
vn -0.000000 0.000007 -1.000000
vn -0.000007 0.000008 -1.000000
vn 0.000000 1.000000 0.000000
vn 0.000000 1.000000 0.000000
vn 0.000000 -0.000007 1.000000
vn 0.000005 -0.000007 1.000000
vn -0.000000 -0.000007 1.000000
vn -0.000005 -0.000007 1.000000
vn -0.000000 -0.000000 1.000000
vn -0.000005 0.000000 1.000000
vn 0.000000 -0.000000 1.000000
vn 0.000005 0.000000 1.000000
vn 0.000000 1.000000 0.000000
vn 0.000000 1.000000 0.000000
vn -0.000000 0.000000 -1.000000
vn -0.000005 0.000000 -1.000000
vn 0.000000 0.000000 -1.000000
vn 0.000005 0.000000 -1.000000
vn 0.000000 -1.000000 0.000000
vn 0.000000 -1.000000 0.000000
vn -0.000000 1.000000 0.000000
vn -0.000000 1.000000 0.000000
vn -0.000000 1.000000 0.000000
vn -0.000000 1.000000 0.000000
vn 1.000000 0.000000 0.000000
vn 1.000000 0.000000 0.000000
vn 1.000000 0.000000 0.000000
vn 1.000000 0.000000 0.000000
vn -1.000000 0.000000 0.000000
vn -1.000000 0.000000 0.000000
vn -1.000000 0.000000 0.000000
vn -1.000000 0.000000 0.000000
vn 0.000000 -1.000000 0.000000
vn 0.000000 -1.000000 0.000000
vn 0.000000 -1.000000 0.000000
vn 0.000000 -1.000000 0.000000
vn -0.000000 1.000000 0.000000
vn -0.000000 1.000000 0.000000
vn 1.000000 0.000000 0.000000
vn 1.000000 0.000000 0.000000
vn 0.000000 -1.000000 0.000000
vn 0.000000 -1.000000 0.000000
vn -1.000000 0.000000 0.000000
vn -1.000000 0.000000 0.000000
s off
g pPlane2
usemtl initialShadingGroup
f 1/1/1 2/2/2 4/4/3 3/3/4
s 1
f 32/5/5 33/6/6 25/7/7 26/8/8
s 2
f 36/9/9 29/10/10 21/11/11 22/12/12
s 3
f 15/13/13 18/14/14 19/15/15 14/16/16
s 4
f 20/17/17 17/18/18 16/19/19 13/20/20
s 5
f 29/10/21 30/21/22 28/22/23 21/11/24
s 3
f 6/23/25 12/24/26 15/13/13 14/16/16
s 6
f 23/25/27 35/26/28 36/27/29 22/28/30
s 4
f 11/29/31 5/30/32 13/20/20 16/19/19
s 6
f 33/31/33 34/32/34 24/33/35 25/34/36
s 3
f 19/15/15 18/14/14 10/35/37 8/36/38
s 5
f 27/37/39 31/38/40 32/5/41 26/8/42
s 4
f 17/18/18 20/17/17 7/39/43 9/40/44
s 2
f 11/41/45 22/12/12 21/11/11 5/30/46
s 6
f 16/42/47 23/25/27 22/28/30 11/43/48
f 16/42/47 17/44/49 24/33/35 23/25/27
f 9/45/50 25/34/36 24/33/35 17/44/49
s 1
f 7/39/51 26/8/8 25/7/7 9/46/52
s 5
f 20/17/53 27/37/39 26/8/42 7/39/54
f 27/37/39 20/17/53 13/20/55 28/22/23
f 5/30/56 21/11/24 28/22/23 13/20/55
f 14/16/57 30/21/22 29/10/21 6/23/58
f 14/16/57 19/15/59 31/38/40 30/21/22
f 32/5/41 31/38/40 19/15/59 8/36/60
s 1
f 33/6/6 32/5/5 8/36/61 10/47/62
s 6
f 18/48/63 34/32/34 33/31/33 10/49/64
f 34/32/34 18/48/63 15/50/65 35/26/28
f 36/27/29 35/26/28 15/50/65 12/51/66
s 2
f 29/10/10 36/9/9 12/52/67 6/23/68
s 9
f 28/22/69 30/21/70 37/53/71 38/54/72
s 10
f 38/54/73 39/55/74 27/37/75 28/22/76
s 11
f 30/21/77 31/38/78 40/56/79 37/53/80
s 12
f 39/55/81 40/56/82 31/38/83 27/37/84
s 9
f 38/54/72 37/53/71 35/57/85 23/58/86
s 10
f 23/58/87 24/59/88 39/55/74 38/54/73
s 12
f 24/59/89 34/60/90 40/56/82 39/55/81
s 11
f 37/53/80 40/56/79 34/60/91 35/57/92
