# This file uses centimeters as units for non-parametric coordinates.

mtllib Stop Sign.mtl
g default
v 1.031410 0.000000 1.441325
v 1.000000 0.000000 1.441325
v 1.091798 3.000000 1.389439
v 1.000000 3.000000 1.389439
v 1.091798 3.000000 1.610561
v 1.000000 3.000000 1.610561
v 1.031410 0.000000 1.558675
v 1.000000 0.000000 1.558675
v 1.091798 2.000000 1.389439
v 1.000000 2.000000 1.389439
v 1.000000 2.000000 1.610561
v 1.091798 2.000000 1.610561
v 1.091798 2.500000 2.000000
v 1.000000 2.500000 2.000000
v 1.000000 2.500000 1.000000
v 1.091798 2.500000 1.000000
v 1.091798 2.167323 1.000000
v 1.000000 2.167323 1.000000
v 1.000000 2.167323 2.000000
v 1.091798 2.167323 2.000000
v 1.091798 2.832677 2.000000
v 1.000000 2.832677 2.000000
v 1.000000 2.832677 1.000000
v 1.091798 2.832677 1.000000
v 1.091798 3.000000 1.465004
v 1.000000 3.000000 1.465004
v 1.000000 2.832677 1.296631
v 1.000000 2.500000 1.296631
v 1.000000 2.167323 1.296631
v 1.000000 2.000000 1.465004
v 1.000000 0.000000 1.465004
v 1.031410 0.000000 1.465004
v 1.091798 2.000000 1.465004
v 1.091798 2.167323 1.296631
v 1.091798 2.500000 1.296631
v 1.091798 2.832677 1.296631
v 1.031410 0.000000 1.537207
v 1.000000 0.000000 1.537207
v 1.000000 2.000000 1.537207
v 1.000000 2.167323 1.713369
v 1.000000 2.500000 1.713369
v 1.000000 2.832677 1.713369
v 1.000000 3.000000 1.537207
v 1.091798 3.000000 1.537207
v 1.091798 2.832677 1.713369
v 1.091798 2.500000 1.713369
v 1.091798 2.167323 1.713369
v 1.091798 2.000000 1.537207
v 1.031410 1.982344 1.441325
v 1.000000 1.982344 1.441325
v 1.000000 1.982345 1.465004
v 1.000000 1.982344 1.537207
v 1.000000 1.982345 1.558675
v 1.031410 1.982345 1.558675
v 1.031410 1.982345 1.537207
v 1.031410 1.982344 1.465004
vt 0.037601 0.651707
vt 0.037601 0.616819
vt 0.081304 0.616819
vt 0.081304 0.651707
vt 0.006493 0.616819
vt 0.006493 0.651707
vt 0.055258 0.599271
vt 0.062830 0.599271
vt 0.111364 0.616819
vt 0.111364 0.651707
vt 0.037601 0.686595
vt 0.081304 0.686595
vt 0.047333 0.599271
vt 0.006493 0.686595
vt 0.055258 0.597420
vt 0.062830 0.597420
vt 0.070523 0.599271
vt 0.111364 0.686595
vt 0.055258 0.704142
vt 0.062830 0.704142
vt 0.052775 0.597420
vt 0.047333 0.704142
vt 0.055258 0.389530
vt 0.062830 0.389530
vt 0.065081 0.597420
vt 0.070523 0.704142
vt 0.052775 0.389530
vt 0.065081 0.389530
vt 0.099510 0.549453
vt 0.099510 0.514565
vt 0.143214 0.514565
vt 0.143214 0.549453
vt 0.069451 0.514565
vt 0.069451 0.549453
vt 0.117984 0.497018
vt 0.125556 0.497018
vt 0.174322 0.514565
vt 0.174322 0.549453
vt 0.099510 0.584341
vt 0.143214 0.584341
vt 0.110292 0.497018
vt 0.069451 0.584341
vt 0.133481 0.497018
vt 0.174322 0.584341
vt 0.117984 0.601889
vt 0.125556 0.601889
vt 0.110292 0.601889
vt 0.133481 0.601889
vt 0.012922 0.394073
vt 0.015173 0.394072
vt 0.015173 0.601963
vt 0.012922 0.601963
vt 0.022745 0.601963
vt 0.022745 0.394072
vt 0.025229 0.601963
vt 0.025229 0.394073
vt 0.030057 0.513789
vt 0.039684 0.513789
vt 0.039684 0.521361
vt 0.030057 0.521361
vt 0.030057 0.505865
vt 0.039684 0.505865
vt 0.039684 0.529054
vt 0.030057 0.529054
vt 0.030057 0.465024
vt 0.039684 0.465024
vt 0.039684 0.569895
vt 0.030057 0.569895
vt 0.047925 0.523613
vt 0.051219 0.523613
vt 0.051219 0.529054
vt 0.041592 0.529054
vt 0.051219 0.569895
vt 0.041592 0.569895
vt 0.041592 0.521129
vt 0.047925 0.521129
vt 0.041592 0.513557
vt 0.047925 0.513557
vt 0.047925 0.511306
vt 0.041592 0.505865
vt 0.051219 0.505865
vt 0.051219 0.511306
vt 0.041592 0.465024
vt 0.051219 0.465024
vt 0.030043 0.394073
vt 0.039670 0.394073
vt 0.039670 0.428961
vt 0.030043 0.428961
vt 0.039670 0.463849
vt 0.030043 0.463849
vt 0.041595 0.428961
vt 0.051222 0.428961
vt 0.051222 0.463849
vt 0.041595 0.463849
vt 0.041595 0.394073
vt 0.051222 0.394073
vt 0.028523 0.394073
vt 0.028523 0.601963
vt 0.009628 0.601963
vt 0.009628 0.394073
vn -0.000000 0.000000 -1.000000
vn -0.000000 0.000000 -1.000000
vn -0.000000 0.000000 -1.000000
vn -0.000000 0.000000 -1.000000
vn -0.000000 1.000000 0.000000
vn -0.000000 1.000000 0.000000
vn -0.000000 1.000000 0.000000
vn -0.000000 1.000000 0.000000
vn 0.000000 0.000000 1.000000
vn 0.000000 0.000000 1.000000
vn 0.000000 0.000000 1.000000
vn 0.000000 0.000000 1.000000
vn -1.000000 0.000000 0.000000
vn -1.000000 0.000000 0.000000
vn -1.000000 0.000000 0.000000
vn -1.000000 0.000000 0.000000
vn 1.000000 0.000000 -0.000000
vn 1.000000 0.000000 -0.000000
vn 1.000000 0.000000 -0.000000
vn 1.000000 0.000000 -0.000000
vn -0.000000 -0.946691 -0.322144
vn -0.000000 -0.946691 -0.322144
vn -0.000000 -0.946691 -0.322144
vn -0.000000 -0.946691 -0.322144
vn -1.000000 0.000000 0.000000
vn -1.000000 0.000000 0.000000
vn -1.000000 0.000000 0.000000
vn -1.000000 0.000000 0.000000
vn 0.000000 -0.946693 0.322138
vn 0.000000 -0.946693 0.322138
vn 0.000000 -0.946693 0.322138
vn 0.000000 -0.946693 0.322138
vn 0.280626 -0.959817 0.000002
vn 0.280626 -0.959817 0.000002
vn 0.280626 -0.959817 0.000002
vn 0.280626 -0.959817 0.000002
vn 0.000000 0.000000 1.000000
vn 0.000000 0.000000 1.000000
vn 0.000000 0.000000 1.000000
vn 0.000000 0.000000 1.000000
vn -1.000000 0.000000 0.000000
vn -1.000000 0.000000 0.000000
vn -1.000000 0.000000 0.000000
vn -1.000000 0.000000 0.000000
vn -0.000000 0.000000 -1.000000
vn -0.000000 0.000000 -1.000000
vn -0.000000 0.000000 -1.000000
vn -0.000000 0.000000 -1.000000
vn 1.000000 0.000000 -0.000000
vn 1.000000 0.000000 -0.000000
vn 1.000000 0.000000 -0.000000
vn 1.000000 0.000000 -0.000000
vn -0.000000 -0.918785 -0.394758
vn -0.000000 -0.918785 -0.394758
vn -0.000000 -0.918785 -0.394758
vn -0.000000 -0.918785 -0.394758
vn -1.000000 0.000000 0.000000
vn -1.000000 0.000000 0.000000
vn -1.000000 0.000000 0.000000
vn -1.000000 0.000000 0.000000
vn 0.000000 -0.918785 0.394758
vn 0.000000 -0.918785 0.394758
vn 0.000000 -0.918785 0.394758
vn 0.000000 -0.918785 0.394758
vn 1.000000 0.000000 -0.000000
vn 1.000000 0.000000 -0.000000
vn 1.000000 0.000000 -0.000000
vn 1.000000 0.000000 -0.000000
vn 0.000000 0.918785 0.394758
vn 0.000000 0.918785 0.394758
vn 0.000000 0.918785 0.394758
vn 0.000000 0.918785 0.394758
vn -1.000000 0.000000 0.000000
vn -1.000000 0.000000 0.000000
vn -1.000000 0.000000 0.000000
vn -1.000000 0.000000 0.000000
vn -0.000000 0.918785 -0.394758
vn -0.000000 0.918785 -0.394758
vn -0.000000 0.918785 -0.394758
vn -0.000000 0.918785 -0.394758
vn 1.000000 -0.000000 -0.000000
vn 1.000000 -0.000000 -0.000000
vn 1.000000 -0.000000 -0.000000
vn 1.000000 -0.000000 -0.000000
vn -0.000000 1.000000 0.000000
vn -0.000000 1.000000 0.000000
vn -0.000000 1.000000 0.000000
vn -0.000000 1.000000 0.000000
vn -1.000000 0.000000 0.000000
vn -1.000000 0.000000 0.000000
vn -1.000000 0.000000 0.000000
vn -1.000000 0.000000 0.000000
vn -1.000000 0.000000 0.000000
vn -1.000000 0.000000 0.000000
vn -1.000000 0.000000 0.000000
vn -1.000000 0.000000 0.000000
vn -1.000000 0.000000 0.000000
vn -1.000000 0.000000 0.000000
vn -1.000000 0.000000 0.000000
vn -1.000000 0.000000 0.000000
vn -1.000000 0.000000 0.000000
vn -1.000000 0.000000 0.000000
vn -1.000000 0.000000 0.000000
vn -1.000000 0.000000 0.000000
vn -1.000000 0.000000 0.000000
vn -1.000000 0.000000 0.000000
vn -1.000000 0.000000 0.000000
vn -1.000000 0.000000 0.000000
vn 0.280631 -0.959816 -0.000000
vn 0.280631 -0.959816 -0.000000
vn 0.280631 -0.959816 -0.000000
vn 0.280631 -0.959816 -0.000000
vn 1.000000 -0.000000 -0.000000
vn 1.000000 -0.000000 -0.000000
vn 1.000000 -0.000000 -0.000000
vn 1.000000 -0.000000 -0.000000
vn 1.000000 0.000000 -0.000000
vn 1.000000 0.000000 -0.000000
vn 1.000000 0.000000 -0.000000
vn 1.000000 0.000000 -0.000000
vn 1.000000 0.000000 -0.000000
vn 1.000000 0.000000 -0.000000
vn 1.000000 0.000000 -0.000000
vn 1.000000 0.000000 -0.000000
vn 1.000000 0.000000 -0.000000
vn 1.000000 0.000000 -0.000000
vn 1.000000 0.000000 -0.000000
vn 1.000000 0.000000 -0.000000
vn -1.000000 0.000000 0.000000
vn -1.000000 0.000000 0.000000
vn -1.000000 0.000000 0.000000
vn -1.000000 0.000000 0.000000
vn -1.000000 0.000000 0.000000
vn -1.000000 0.000000 0.000000
vn -1.000000 0.000000 0.000000
vn -1.000000 0.000000 0.000000
vn -1.000000 0.000000 0.000000
vn -1.000000 0.000000 0.000000
vn -1.000000 0.000000 0.000000
vn -1.000000 0.000000 0.000000
vn -1.000000 0.000000 0.000000
vn -1.000000 0.000000 0.000000
vn -1.000000 0.000000 0.000000
vn -1.000000 0.000000 0.000000
vn -1.000000 -0.000000 0.000000
vn -1.000000 -0.000000 0.000000
vn -1.000000 -0.000000 0.000000
vn -1.000000 -0.000000 0.000000
vn -0.000000 1.000000 0.000000
vn -0.000000 1.000000 0.000000
vn -0.000000 1.000000 0.000000
vn -0.000000 1.000000 0.000000
vn 1.000000 0.000000 -0.000000
vn 1.000000 0.000000 -0.000000
vn 1.000000 0.000000 -0.000000
vn 1.000000 0.000000 -0.000000
vn 1.000000 0.000000 -0.000000
vn 1.000000 0.000000 -0.000000
vn 1.000000 0.000000 -0.000000
vn 1.000000 0.000000 -0.000000
vn 1.000000 0.000000 -0.000000
vn 1.000000 0.000000 -0.000000
vn 1.000000 0.000000 -0.000000
vn 1.000000 0.000000 -0.000000
vn 1.000000 0.000000 -0.000000
vn 1.000000 0.000000 -0.000000
vn 1.000000 0.000000 -0.000000
vn 1.000000 0.000000 -0.000000
vn 0.280619 -0.959819 -0.000000
vn 0.280619 -0.959819 -0.000000
vn 0.280619 -0.959819 -0.000000
vn 0.280619 -0.959819 -0.000000
vn -0.000000 0.000000 -1.000000
vn -0.000000 0.000000 -1.000000
vn -0.000000 0.000000 -1.000000
vn -0.000000 0.000000 -1.000000
vn -1.000000 0.000000 0.000000
vn -1.000000 0.000000 0.000000
vn -1.000000 0.000000 0.000000
vn -1.000000 0.000000 0.000000
vn -1.000000 0.000000 0.000000
vn -1.000000 0.000000 0.000000
vn -1.000000 0.000000 0.000000
vn -1.000000 0.000000 0.000000
vn -1.000000 0.000000 0.000000
vn -1.000000 0.000000 0.000000
vn -1.000000 0.000000 0.000000
vn -1.000000 0.000000 0.000000
vn 0.000000 0.000000 1.000000
vn 0.000000 0.000000 1.000000
vn 0.000000 0.000000 1.000000
vn 0.000000 0.000000 1.000000
vn 1.000000 -0.000000 -0.000000
vn 1.000000 -0.000000 -0.000000
vn 1.000000 -0.000000 -0.000000
vn 1.000000 -0.000000 -0.000000
vn 1.000000 0.000000 -0.000000
vn 1.000000 0.000000 -0.000000
vn 1.000000 0.000000 -0.000000
vn 1.000000 0.000000 -0.000000
vn 1.000000 0.000000 -0.000000
vn 1.000000 0.000000 -0.000000
vn 1.000000 0.000000 -0.000000
vn 1.000000 0.000000 -0.000000
s off
g pCube1
usemtl initialShadingGroup
f 17/85/1 18/86/2 15/87/3 16/88/4
f 25/57/5 26/58/6 43/59/7 44/60/8
f 13/91/9 14/92/10 19/93/11 20/94/12
f 28/1/13 29/2/14 40/3/15 41/4/16
f 46/29/17 47/30/18 34/31/19 35/32/20
f 49/69/21 50/70/22 10/71/23 9/72/24
f 30/7/25 51/15/26 52/16/27 39/8/28
f 12/80/29 11/81/30 53/82/31 54/79/32
f 48/77/33 55/78/34 56/76/35 33/75/36
f 21/95/37 22/96/38 14/92/39 13/91/40
f 27/11/41 28/1/42 41/4/43 42/12/44
f 16/88/45 15/87/46 23/89/47 24/90/48
f 45/39/49 46/29/50 35/32/51 36/40/52
f 9/72/53 10/71/54 18/73/55 17/74/56
f 29/2/57 30/7/58 39/8/59 40/3/60
f 20/83/61 19/84/62 11/81/63 12/80/64
f 47/30/65 48/35/66 33/36/67 34/31/68
f 5/64/69 6/63/70 22/67/71 21/68/72
f 26/19/73 27/11/74 42/12/75 43/20/76
f 24/65/77 23/66/78 4/62/79 3/61/80
f 44/45/81 45/39/82 36/40/83 25/46/84
f 3/61/85 4/62/86 26/58/87 25/57/88
f 23/14/89 27/11/90 26/19/91 4/22/92
f 15/6/93 28/1/94 27/11/95 23/14/96
f 18/5/97 29/2/98 28/1/99 15/6/100
f 10/13/101 30/7/102 29/2/103 18/5/104
f 50/21/105 51/15/106 30/7/107 10/13/108
f 33/75/109 56/76/110 49/69/111 9/72/112
f 34/31/113 33/36/114 9/43/115 17/37/116
f 35/32/117 34/31/118 17/37/119 16/38/120
f 36/40/121 35/32/122 16/38/123 24/44/124
f 25/46/125 36/40/126 24/44/127 3/48/128
f 39/8/129 52/16/130 53/25/131 11/17/132
f 40/3/133 39/8/134 11/17/135 19/9/136
f 41/4/137 40/3/138 19/9/139 14/10/140
f 42/12/141 41/4/142 14/10/143 22/18/144
f 43/20/145 42/12/146 22/18/147 6/26/148
f 44/60/149 43/59/150 6/63/151 5/64/152
f 21/42/153 45/39/154 44/45/155 5/47/156
f 13/34/157 46/29/158 45/39/159 21/42/160
f 20/33/161 47/30/162 46/29/163 13/34/164
f 12/41/165 48/35/166 47/30/167 20/33/168
f 54/79/169 55/78/170 48/77/171 12/80/172
f 1/56/173 2/97/174 50/98/175 49/55/176
f 2/27/177 31/23/178 51/15/179 50/21/180
f 52/16/181 51/15/182 31/23/183 38/24/184
f 53/25/185 52/16/186 38/24/187 8/28/188
f 54/52/189 53/99/190 8/100/191 7/49/192
f 7/49/193 37/50/194 55/51/195 54/52/196
f 56/53/197 55/51/198 37/50/199 32/54/200
f 49/55/201 56/53/202 32/54/203 1/56/204
