# This file uses meters as units for non-parametric coordinates.

mtllib Window_Small Update.mtl
g default
v 1000.000000 0.000000 -599.999992
v 1000.000000 300.000000 -599.999992
v 1000.000000 264.592194 -599.999992
v 1000.000000 84.592186 -599.999992
v 990.000000 0.000000 -599.999992
v 990.000000 84.592186 -599.999992
v 990.000000 264.592194 -599.999992
v 990.000000 300.000000 -599.999992
v 982.000000 0.000000 -599.999992
v 982.000000 84.592186 -599.999992
v 982.000000 264.592194 -599.999992
v 982.000000 300.000000 -599.999992
v 982.000000 255.592209 -599.999992
v 990.000000 255.592209 -599.999992
v 1000.000000 255.592209 -599.999992
v 982.000000 93.592186 -599.999992
v 990.000000 93.592186 -599.999992
v 1000.000000 93.592186 -599.999992
v 982.000000 223.192184 -599.999992
v 990.000000 223.192184 -599.999992
v 1000.000000 223.192184 -599.999992
v 982.000000 213.472198 -599.999992
v 990.000000 213.472198 -599.999992
v 1000.000000 213.472198 -599.999992
v 982.000000 134.092194 -599.999992
v 990.000000 134.092194 -599.999992
v 1000.000000 134.092194 -599.999992
v 982.000000 125.992188 -599.999992
v 990.000000 125.992188 -599.999992
v 1000.000000 125.992188 -599.999992
v 982.000000 264.592194 -592.864082
v 982.000000 255.592209 -592.864082
v 990.000000 255.592209 -592.864082
v 990.000000 264.592194 -592.864082
v 982.000000 223.192184 -592.864082
v 990.000000 223.192184 -592.864082
v 982.000000 84.592186 -592.864082
v 982.000000 93.592186 -592.864082
v 990.000000 93.592186 -592.864082
v 990.000000 84.592186 -592.864082
v 982.000000 213.472198 -592.864082
v 990.000000 213.472198 -592.864082
v 982.000000 134.092194 -592.864082
v 990.000000 134.092194 -592.864082
v 982.000000 125.992188 -592.864085
v 990.000000 125.992188 -592.864082
v 900.000000 0.000000 -600.000000
v 900.000000 300.000000 -600.000000
v 900.000000 264.592194 -600.000000
v 900.000000 84.592186 -600.000000
v 910.000000 0.000000 -599.999992
v 910.000000 84.592186 -599.999992
v 910.000000 264.592194 -599.999992
v 910.000000 300.000000 -599.999992
v 918.000000 0.000000 -599.999992
v 918.000000 84.592186 -599.999992
v 918.000000 264.592194 -599.999992
v 918.000000 300.000000 -599.999992
v 900.000000 255.592209 -599.999992
v 910.000000 255.592209 -599.999992
v 918.000000 255.592209 -599.999992
v 900.000000 93.592186 -599.999992
v 910.000000 93.592186 -599.999992
v 918.000000 93.592186 -599.999992
v 900.000000 223.192184 -599.999992
v 910.000000 223.192184 -599.999992
v 918.000000 223.192184 -599.999992
v 900.000000 213.472198 -599.999992
v 910.000000 213.472198 -599.999992
v 918.000000 213.472198 -599.999992
v 900.000000 134.092194 -599.999992
v 910.000000 134.092194 -599.999992
v 918.000000 134.092194 -599.999992
v 900.000000 125.992188 -599.999992
v 910.000000 125.992188 -599.999992
v 918.000000 125.992188 -599.999992
v 910.000000 255.592209 -592.864082
v 910.000000 264.592194 -592.864082
v 918.000000 255.592209 -592.864082
v 918.000000 264.592194 -592.864082
v 910.000000 223.192184 -592.864082
v 918.000000 223.192184 -592.864082
v 910.000000 93.592186 -592.864082
v 918.000000 93.592186 -592.864082
v 910.000000 84.592186 -592.864082
v 918.000000 84.592186 -592.864082
v 910.000000 213.472198 -592.864082
v 918.000000 213.472198 -592.864082
v 910.000000 134.092194 -592.864082
v 918.000000 134.092194 -592.864082
v 910.000000 125.992188 -592.864082
v 918.000000 125.992188 -592.864082
vt 0.407900 0.628752
vt 0.779042 0.671256
vt 0.788556 0.671239
vt 0.788700 0.751726
vt 0.777088 0.952733
vt 0.645032 0.628216
vt 0.645000 0.614349
vt 0.657481 0.614321
vt 0.777074 0.986267
vt 0.786544 0.986271
vt 0.771573 0.751756
vt 0.771430 0.671270
vt 0.776203 0.943151
vt 0.768470 0.928759
vt 0.769497 0.986264
vt 0.769512 0.952730
vt 0.784088 0.934217
vt 0.777091 0.945975
vt 0.763765 0.907837
vt 0.763857 0.928779
vt 0.783975 0.902159
vt 0.600101 0.628318
vt 0.600070 0.614450
vt 0.771586 0.758546
vt 0.775607 0.773951
vt 0.420403 0.638620
vt 0.407923 0.638648
vt 0.420350 0.614857
vt 0.420381 0.628724
vt 0.774599 0.884034
vt 0.783941 0.892541
vt 0.586622 0.628348
vt 0.586591 0.614481
vt 0.768984 0.821571
vt 0.768984 0.884034
vt 0.783665 0.813997
vt 0.476512 0.614730
vt 0.476544 0.628597
vt 0.769748 0.800505
vt 0.783636 0.805982
vt 0.465311 0.628622
vt 0.465280 0.614755
vt 0.764901 0.779206
vt 0.765050 0.800538
vt 0.407730 0.952572
vt 0.658747 0.653131
vt 0.417186 0.986110
vt 0.407716 0.986106
vt 0.646237 0.667010
vt 0.646247 0.653122
vt 0.407970 0.671918
vt 0.417484 0.671901
vt 0.417628 0.752388
vt 0.408738 0.666838
vt 0.425096 0.671888
vt 0.425240 0.752374
vt 0.408120 0.944447
vt 0.646254 0.643211
vt 0.416005 0.935514
vt 0.416036 0.944419
vt 0.424778 0.952580
vt 0.424763 0.986113
vt 0.495403 0.752249
vt 0.495259 0.671763
vt 0.489001 0.944162
vt 0.488970 0.935257
vt 0.494602 0.986144
vt 0.494617 0.952610
vt 0.601237 0.666978
vt 0.601247 0.653089
vt 0.601254 0.643178
vt 0.415892 0.903455
vt 0.428974 0.929188
vt 0.428929 0.908720
vt 0.475516 0.908618
vt 0.475560 0.929087
vt 0.488857 0.903198
vt 0.421248 0.652958
vt 0.421237 0.666847
vt 0.422078 0.780315
vt 0.407524 0.775247
vt 0.417640 0.759178
vt 0.425252 0.759164
vt 0.495415 0.759039
vt 0.488406 0.774963
vt 0.587737 0.666968
vt 0.587747 0.653079
vt 0.587754 0.643168
vt 0.415858 0.893837
vt 0.488823 0.893580
vt 0.477487 0.666888
vt 0.477497 0.652999
vt 0.477505 0.643088
vt 0.415581 0.815293
vt 0.423885 0.884579
vt 0.423893 0.822300
vt 0.481748 0.822307
vt 0.481740 0.884586
vt 0.488547 0.815036
vt 0.466237 0.666880
vt 0.466247 0.652991
vt 0.466255 0.643080
vt 0.415553 0.807278
vt 0.488518 0.807021
vt 0.426804 0.801772
vt 0.426803 0.780315
vt 0.475638 0.780315
vt 0.475639 0.801771
vt 0.488374 0.766057
vt 0.494620 0.945852
vt 0.475638 0.775589
vt 0.415440 0.775219
vt 0.426804 0.806497
vt 0.421255 0.643048
vt 0.407637 0.807306
vt 0.418294 0.822300
vt 0.481748 0.816709
vt 0.407665 0.815321
vt 0.423884 0.890177
vt 0.407942 0.893865
vt 0.424421 0.908730
vt 0.475506 0.904110
vt 0.407976 0.903483
vt 0.415409 0.766314
vt 0.407493 0.766342
vt 0.428984 0.933696
vt 0.408089 0.935542
vt 0.424781 0.945821
vt 0.658754 0.643220
vt 0.783523 0.773923
vt 0.465333 0.638518
vt 0.775720 0.806010
vt 0.476566 0.638493
vt 0.775749 0.814025
vt 0.586645 0.638244
vt 0.776025 0.892569
vt 0.600124 0.638213
vt 0.776059 0.902187
vt 0.783492 0.765018
vt 0.775576 0.765046
vt 0.645054 0.638112
vt 0.776172 0.934245
vt 0.769515 0.945971
vt 0.784119 0.943122
vt 0.769599 0.779173
vt 0.774599 0.821571
vt 0.768378 0.907817
vt 0.475639 0.806497
vt 0.422078 0.801772
vt 0.423893 0.816702
vt 0.481740 0.890184
vt 0.418287 0.884578
vt 0.426804 0.775589
vt 0.428919 0.904212
vt 0.475570 0.933595
vt 0.424466 0.929198
vt 0.408748 0.652949
vt 0.408755 0.643038
vt 0.417201 0.952576
vt 0.417204 0.945818
vt 0.408114 0.752405
vt 0.658737 0.667020
vt 0.779185 0.751743
vt 0.779197 0.758532
vt 0.657512 0.628188
vt 0.657535 0.638084
vt 0.786559 0.952737
vt 0.407869 0.614885
vn 0.000000 0.000000 1.000000
vn 0.000000 0.000000 1.000000
vn 0.000000 0.000000 1.000000
vn 0.000000 0.000000 1.000000
vn 0.000000 0.000000 1.000000
vn 0.000000 0.000000 1.000000
vn 0.000000 0.000000 1.000000
vn 0.000000 0.000000 1.000000
vn 0.000000 0.000000 1.000000
vn 0.000000 0.000000 1.000000
vn 0.000000 0.000000 1.000000
vn 0.000000 0.000000 1.000000
vn 0.000000 0.000000 1.000000
vn 0.000000 0.000000 1.000000
vn 0.000000 0.000000 1.000000
vn 0.000000 0.000000 1.000000
vn 0.000000 0.000000 1.000000
vn 0.000000 0.000000 1.000000
vn 0.000000 0.000000 1.000000
vn 0.000000 0.000000 1.000000
vn 0.000000 0.000000 1.000000
vn 0.000000 0.000000 1.000000
vn -0.000000 0.000000 1.000000
vn -0.000000 0.000000 1.000000
vn 0.000000 0.000000 1.000000
vn 0.000000 0.000000 1.000000
vn 0.000000 0.000000 1.000000
vn 0.000000 0.000000 1.000000
vn 0.000000 0.000000 1.000000
vn 0.000000 0.000000 1.000000
vn 0.000000 0.000000 1.000000
vn 0.000000 0.000000 1.000000
vn 0.000000 -0.000000 1.000000
vn -0.000000 -0.000000 1.000000
vn 0.000000 0.000000 1.000000
vn 0.000000 0.000000 1.000000
vn -0.000000 -0.000000 1.000000
vn -0.000000 0.000000 1.000000
vn 0.000000 0.000000 1.000000
vn 0.000000 0.000000 1.000000
vn 1.000000 0.000000 0.000000
vn 1.000000 0.000000 0.000000
vn 1.000000 0.000000 0.000000
vn 1.000000 0.000000 0.000000
vn 0.000000 1.000000 0.000000
vn 0.000000 1.000000 0.000000
vn 0.000000 1.000000 0.000000
vn 0.000000 1.000000 0.000000
vn -1.000000 0.000000 0.000000
vn -1.000000 0.000000 0.000000
vn -1.000000 0.000000 0.000000
vn -1.000000 0.000000 0.000000
vn 1.000000 0.000000 0.000000
vn 1.000000 0.000000 0.000000
vn 0.000000 -1.000000 0.000000
vn 0.000000 -1.000000 0.000000
vn 0.000000 -1.000000 0.000000
vn 0.000000 -1.000000 0.000000
vn 1.000000 0.000000 0.000000
vn 1.000000 0.000000 0.000000
vn 1.000000 0.000000 0.000000
vn 1.000000 0.000000 0.000000
vn 1.000000 0.000000 0.000000
vn 1.000000 0.000000 0.000000
vn -1.000000 0.000000 0.000000
vn -1.000000 0.000000 0.000000
vn -1.000000 0.000000 0.000000
vn -1.000000 0.000000 0.000000
vn 1.000000 0.000000 0.000000
vn 1.000000 0.000000 0.000000
vn 1.000000 0.000000 0.000000
vn 1.000000 0.000000 0.000000
vn -1.000000 0.000000 0.000000
vn -1.000000 0.000000 0.000000
vn -1.000000 0.000000 0.000000
vn -1.000000 0.000000 0.000000
vn -0.000001 0.000000 1.000000
vn -0.000000 0.000000 1.000000
vn -0.000000 0.000000 1.000000
vn -0.000001 0.000000 1.000000
vn -0.000000 0.000000 1.000000
vn -0.000000 0.000000 1.000000
vn -0.000001 0.000000 1.000000
vn -0.000000 0.000000 1.000000
vn -0.000000 -0.000000 1.000000
vn -0.000001 -0.000000 1.000000
vn 0.000000 0.000000 1.000000
vn 0.000000 0.000000 1.000000
vn 0.000000 0.000000 1.000000
vn 0.000000 0.000000 1.000000
vn 0.000000 0.000000 1.000000
vn 0.000000 0.000000 1.000000
vn 0.000000 0.000000 1.000000
vn 0.000000 0.000000 1.000000
vn 0.000000 0.000000 1.000000
vn 0.000000 0.000000 1.000000
vn 0.000000 0.000000 1.000000
vn 0.000000 0.000000 1.000000
vn 0.000000 0.000000 1.000000
vn 0.000000 0.000000 1.000000
vn 0.000000 0.000000 1.000000
vn 0.000000 0.000000 1.000000
vn -0.000000 -0.000000 1.000000
vn -0.000000 -0.000000 1.000000
vn 0.000000 0.000000 1.000000
vn 0.000000 0.000000 1.000000
vn 0.000000 0.000000 1.000000
vn 0.000000 0.000000 1.000000
vn 0.000000 0.000000 1.000000
vn 0.000000 0.000000 1.000000
vn 0.000000 0.000000 1.000000
vn 0.000000 0.000000 1.000000
vn 0.000000 0.000000 1.000000
vn 0.000000 0.000000 1.000000
vn 0.000000 0.000000 1.000000
vn 0.000000 -0.000000 1.000000
vn 0.000000 0.000000 1.000000
vn 0.000000 0.000000 1.000000
vn 0.000000 0.000000 1.000000
vn 0.000000 0.000000 1.000000
vn 0.000000 0.000000 1.000000
vn 0.000000 0.000000 1.000000
vn 0.000000 0.000000 1.000000
vn 0.000000 -0.000000 1.000000
vn 0.000000 0.000000 1.000000
vn 0.000000 0.000000 1.000000
vn 0.000000 0.000000 1.000000
vn 0.000000 0.000000 1.000000
vn -1.000000 0.000000 0.000000
vn -1.000000 0.000000 0.000000
vn -1.000000 0.000000 0.000000
vn -1.000000 0.000000 0.000000
vn 0.000000 1.000000 0.000000
vn 0.000000 1.000000 0.000000
vn 0.000000 1.000000 0.000000
vn 0.000000 1.000000 0.000000
vn 0.000000 -1.000000 0.000000
vn 0.000000 -1.000000 0.000000
vn 0.000000 -1.000000 0.000000
vn 0.000000 -1.000000 0.000000
vn -1.000000 0.000000 0.000000
vn -1.000000 0.000000 0.000000
vn 1.000000 0.000000 0.000000
vn 1.000000 0.000000 0.000000
vn 1.000000 0.000000 0.000000
vn 1.000000 0.000000 0.000000
vn -1.000000 0.000000 0.000000
vn -1.000000 0.000000 0.000000
vn -1.000000 0.000000 0.000000
vn -1.000000 0.000000 0.000000
vn 0.000000 -1.000000 0.000000
vn 0.000000 -1.000000 0.000000
vn 0.000000 -1.000000 0.000000
vn 0.000000 -1.000000 0.000000
vn 0.000000 1.000000 0.000000
vn 0.000000 1.000000 0.000000
vn 0.000000 1.000000 0.000000
vn 0.000000 1.000000 0.000000
vn -1.000000 0.000000 0.000000
vn -1.000000 0.000000 0.000000
vn 0.000000 -1.000000 0.000000
vn 0.000000 -1.000000 0.000000
vn 0.000000 -1.000000 0.000000
vn 0.000000 -1.000000 0.000000
vn 0.000000 1.000000 0.000000
vn 0.000000 1.000000 0.000000
vn 0.000000 1.000000 0.000000
vn 0.000000 1.000000 0.000000
vn -1.000000 0.000000 0.000000
vn -1.000000 0.000000 0.000000
vn 1.000000 0.000000 0.000000
vn 1.000000 0.000000 0.000000
vn 1.000000 0.000000 0.000000
vn 1.000000 0.000000 0.000000
vn -1.000000 0.000000 0.000000
vn -1.000000 0.000000 0.000000
vn 0.000000 -1.000000 0.000000
vn 0.000000 -1.000000 0.000000
vn 0.000000 -1.000000 0.000000
vn 0.000000 -1.000000 0.000000
vn 0.000000 1.000000 0.000000
vn 0.000000 1.000000 0.000000
vn 0.000000 1.000000 0.000000
vn 0.000000 1.000000 0.000000
vn 1.000000 0.000000 0.000000
vn 1.000000 0.000000 0.000000
vn 1.000000 0.000000 0.000000
vn 1.000000 0.000000 0.000000
s 1
g Window_Small_LP
usemtl initialShadingGroup
f 6/163/1 5/2/2 1/3/3 4/4/4
f 7/165/5 14/6/6 15/7/7 3/8/8
f 8/9/9 7/5/5 3/167/8 2/10/10
f 10/11/11 9/12/12 5/2/2 6/163/1
s 3
f 31/13/13 32/142/14 33/17/15 34/144/16
s 1
f 12/15/17 11/16/18 7/5/5 8/9/9
s 3
f 33/17/15 32/142/14 35/138/19 36/21/20
s 1
f 15/7/7 14/6/6 20/22/21 21/23/22
s 3
f 39/130/23 38/25/24 37/140/25 40/139/26
s 1
f 18/28/27 17/29/28 6/1/1 4/168/4
s 3
f 36/21/20 35/138/19 41/136/29 42/31/30
s 1
f 21/23/22 20/22/21 23/32/31 24/33/32
s 3
f 42/31/30 41/136/29 43/134/33 44/36/34
s 1
f 27/37/35 24/33/32 23/32/31 26/38/36
s 3
f 44/36/34 43/134/33 45/132/37 46/40/38
s 1
f 27/37/35 26/38/36 29/41/39 30/42/40
s 3
f 46/40/38 45/132/37 38/25/24 39/130/23
s 1
f 30/42/40 29/41/39 17/29/28 18/28/27
s 5
f 14/6/41 7/165/42 34/166/43 33/141/44
s 6
f 7/5/45 11/16/46 31/143/47 34/18/48
s off
f 13/20/49 19/19/50 35/147/51 32/14/52
s 5
f 20/22/53 14/6/41 33/141/44 36/137/54
s 7
f 10/11/55 6/163/56 40/164/57 37/24/58
s 5
f 6/1/59 17/29/60 39/26/61 40/27/62
f 23/32/63 20/22/53 36/137/54 42/135/64
s off
f 22/35/65 25/34/66 43/146/67 41/30/68
s 5
f 26/38/69 23/32/63 42/135/64 44/133/70
f 29/41/71 26/38/69 44/133/70 46/131/72
s off
f 28/44/73 16/43/74 38/145/75 45/39/76
s 5
f 17/29/60 29/41/71 46/131/72 39/26/61
s 1
f 49/45/77 53/159/78 54/47/79 48/48/80
f 59/49/81 60/50/82 53/46/78 49/162/77
f 47/51/83 51/52/84 52/53/85 50/161/86
f 52/53/85 51/52/84 55/55/87 56/56/88
s 3
f 78/57/89 77/127/90 79/59/91 80/60/92
s 1
f 54/47/79 53/159/78 57/61/93 58/62/94
f 10/63/11 56/56/88 55/55/87 9/64/12
s 3
f 31/65/13 80/60/92 79/59/91 32/66/14
s 1
f 12/67/17 58/62/94 57/61/93 11/68/18
f 65/69/95 66/70/96 60/50/82 59/49/81
s 3
f 79/59/91 77/127/90 81/123/97 82/72/98
s off
f 61/73/99 67/74/100 19/75/101 13/76/102
s 1
f 50/54/86 52/157/85 63/78/103 62/79/104
s 3
f 84/112/105 83/81/106 85/125/107 86/124/108
f 84/112/105 86/124/108 37/109/25 38/85/24
s 1
f 68/86/109 69/87/110 66/70/96 65/69/95
s 3
f 82/72/98 81/123/97 87/120/111 88/89/112
f 82/72/98 88/89/112 41/90/29 35/77/19
s 1
f 69/87/110 68/86/109 71/91/113 72/92/114
s 3
f 88/89/112 87/120/111 89/118/115 90/94/116
s off
f 70/95/117 73/96/118 25/97/119 22/98/120
s 1
f 74/100/121 75/101/122 72/92/114 71/91/113
s 3
f 90/94/116 89/118/115 91/115/123 92/103/124
f 90/94/116 92/103/124 45/104/37 43/99/33
s 1
f 62/79/104 63/78/103 75/101/122 74/100/121
s 3
f 92/103/124 91/115/123 83/81/106 84/112/105
s off
f 76/105/125 64/106/126 16/107/127 28/108/128
s 13
f 53/46/129 60/50/130 77/58/131 78/129/132
s 6
f 57/61/133 53/159/134 78/160/135 80/128/136
f 11/68/46 57/61/133 80/128/136 31/110/47
s off
f 61/73/137 13/76/138 32/155/139 79/126/140
s 13
f 60/50/130 66/70/141 81/71/142 77/58/131
s off
f 67/74/143 61/73/144 79/156/145 82/121/146
s 13
f 63/78/147 52/157/148 85/158/149 83/114/150
s 7
f 52/53/151 56/56/152 86/83/153 85/82/154
f 56/56/152 10/63/55 37/84/58 86/83/153
s off
f 16/107/155 64/106/156 84/153/157 38/111/158
s 13
f 66/70/141 69/87/159 87/88/160 81/71/142
s off
f 70/95/161 22/98/162 41/151/163 88/119/164
f 19/75/165 67/74/166 82/154/167 35/122/168
s 13
f 69/87/159 72/92/169 89/93/170 87/88/160
s off
f 73/96/171 70/95/172 88/152/173 90/116/174
s 13
f 72/92/169 75/101/175 91/102/176 89/93/170
s off
f 76/105/177 28/108/178 45/148/179 92/113/180
f 25/97/181 73/96/182 90/150/183 43/117/184
s 13
f 75/101/175 63/78/147 83/114/150 91/102/176
s off
f 64/106/185 76/105/186 92/149/187 84/80/188
